G04 #@! TF.GenerationSoftware,KiCad,Pcbnew,5.1.8-db9833491~87~ubuntu20.04.1*
G04 #@! TF.CreationDate,2020-11-25T08:58:25+01:00*
G04 #@! TF.ProjectId,snoopy,736e6f6f-7079-42e6-9b69-6361645f7063,v1.0*
G04 #@! TF.SameCoordinates,Original*
G04 #@! TF.FileFunction,Soldermask,Bot*
G04 #@! TF.FilePolarity,Negative*
%FSLAX46Y46*%
G04 Gerber Fmt 4.6, Leading zero omitted, Abs format (unit mm)*
G04 Created by KiCad (PCBNEW 5.1.8-db9833491~87~ubuntu20.04.1) date 2020-11-25 08:58:25*
%MOMM*%
%LPD*%
G01*
G04 APERTURE LIST*
%ADD10C,2.300000*%
%ADD11R,2.300000X2.000000*%
%ADD12C,3.000000*%
%ADD13R,1.700000X1.700000*%
%ADD14O,1.700000X1.700000*%
%ADD15C,1.000000*%
%ADD16R,3.000000X3.000000*%
%ADD17C,1.600000*%
%ADD18R,1.600000X1.600000*%
%ADD19C,2.250000*%
%ADD20R,2.100000X2.100000*%
%ADD21C,2.100000*%
%ADD22O,1.000000X1.600000*%
%ADD23C,0.650000*%
%ADD24O,1.000000X2.100000*%
%ADD25C,2.000000*%
G04 APERTURE END LIST*
D10*
X157180000Y-111900000D03*
D11*
X127780000Y-117100000D03*
D10*
X127780000Y-122100000D03*
X157180000Y-127300000D03*
D12*
X105000000Y-147500000D03*
X190000000Y-147500000D03*
X190000000Y-67500000D03*
X105000000Y-67500000D03*
D13*
X188722000Y-92646000D03*
D14*
X191262000Y-92646000D03*
X188722000Y-95186000D03*
X191262000Y-95186000D03*
X188722000Y-97726000D03*
X191262000Y-97726000D03*
X188722000Y-100266000D03*
X191262000Y-100266000D03*
X188722000Y-102806000D03*
X191262000Y-102806000D03*
X188722000Y-105346000D03*
X191262000Y-105346000D03*
X188722000Y-107886000D03*
X191262000Y-107886000D03*
X188722000Y-110426000D03*
X191262000Y-110426000D03*
D15*
X182930000Y-95680000D03*
X184830000Y-95680000D03*
D12*
X133050000Y-147000000D03*
X138130000Y-147000000D03*
D16*
X127970000Y-147000000D03*
D12*
X143210000Y-147000000D03*
D17*
X127990000Y-141040000D03*
X129640000Y-136040000D03*
D18*
X191210000Y-82240000D03*
D17*
X188760000Y-78990000D03*
D19*
X173920000Y-146810000D03*
X171380000Y-144270000D03*
X171380000Y-149350000D03*
X176460000Y-149350000D03*
X176460000Y-144270000D03*
D20*
X118250000Y-67700000D03*
D21*
X120790000Y-67700000D03*
X123330000Y-67700000D03*
X125870000Y-67700000D03*
X128410000Y-67700000D03*
X130950000Y-67700000D03*
X133490000Y-67700000D03*
X136030000Y-67700000D03*
X156350000Y-67700000D03*
X141110000Y-67700000D03*
X138570000Y-67700000D03*
X143650000Y-67700000D03*
X148730000Y-67700000D03*
X153810000Y-67700000D03*
X151270000Y-67700000D03*
X146190000Y-67700000D03*
X176670000Y-67700000D03*
X161430000Y-67700000D03*
X158890000Y-67700000D03*
X163970000Y-67700000D03*
X169050000Y-67700000D03*
X174130000Y-67700000D03*
X171590000Y-67700000D03*
X166510000Y-67700000D03*
D22*
X164470000Y-148650000D03*
D23*
X163040000Y-145000000D03*
D22*
X155830000Y-148650000D03*
D23*
X157260000Y-145000000D03*
D24*
X155830000Y-144470000D03*
X164470000Y-144470000D03*
D25*
X121530000Y-139890000D03*
X121530000Y-129890000D03*
X108830000Y-139890000D03*
X108830000Y-129890000D03*
X108830000Y-112790000D03*
X108830000Y-122790000D03*
X121530000Y-112790000D03*
X121530000Y-122790000D03*
X121530000Y-105690000D03*
X121530000Y-95690000D03*
X108830000Y-105690000D03*
X108830000Y-95690000D03*
M02*
