G04 #@! TF.GenerationSoftware,KiCad,Pcbnew,5.1.8-db9833491~87~ubuntu20.04.1*
G04 #@! TF.CreationDate,2020-11-25T08:58:25+01:00*
G04 #@! TF.ProjectId,snoopy,736e6f6f-7079-42e6-9b69-6361645f7063,v1.0*
G04 #@! TF.SameCoordinates,Original*
G04 #@! TF.FileFunction,Paste,Top*
G04 #@! TF.FilePolarity,Positive*
%FSLAX46Y46*%
G04 Gerber Fmt 4.6, Leading zero omitted, Abs format (unit mm)*
G04 Created by KiCad (PCBNEW 5.1.8-db9833491~87~ubuntu20.04.1) date 2020-11-25 08:58:25*
%MOMM*%
%LPD*%
G01*
G04 APERTURE LIST*
%ADD10R,1.500000X0.600000*%
%ADD11R,0.600000X1.500000*%
%ADD12R,3.800000X2.000000*%
%ADD13R,1.500000X2.000000*%
%ADD14R,0.250000X1.000000*%
%ADD15R,1.000000X0.250000*%
%ADD16R,2.000000X4.500000*%
%ADD17R,0.650000X1.060000*%
%ADD18R,0.300000X1.450000*%
%ADD19R,0.600000X1.450000*%
%ADD20O,1.800000X0.800000*%
G04 APERTURE END LIST*
G36*
G01*
X113716250Y-75520000D02*
X113203750Y-75520000D01*
G75*
G02*
X112985000Y-75301250I0J218750D01*
G01*
X112985000Y-74863750D01*
G75*
G02*
X113203750Y-74645000I218750J0D01*
G01*
X113716250Y-74645000D01*
G75*
G02*
X113935000Y-74863750I0J-218750D01*
G01*
X113935000Y-75301250D01*
G75*
G02*
X113716250Y-75520000I-218750J0D01*
G01*
G37*
G36*
G01*
X113716250Y-77095000D02*
X113203750Y-77095000D01*
G75*
G02*
X112985000Y-76876250I0J218750D01*
G01*
X112985000Y-76438750D01*
G75*
G02*
X113203750Y-76220000I218750J0D01*
G01*
X113716250Y-76220000D01*
G75*
G02*
X113935000Y-76438750I0J-218750D01*
G01*
X113935000Y-76876250D01*
G75*
G02*
X113716250Y-77095000I-218750J0D01*
G01*
G37*
G36*
G01*
X134846250Y-84475000D02*
X134333750Y-84475000D01*
G75*
G02*
X134115000Y-84256250I0J218750D01*
G01*
X134115000Y-83818750D01*
G75*
G02*
X134333750Y-83600000I218750J0D01*
G01*
X134846250Y-83600000D01*
G75*
G02*
X135065000Y-83818750I0J-218750D01*
G01*
X135065000Y-84256250D01*
G75*
G02*
X134846250Y-84475000I-218750J0D01*
G01*
G37*
G36*
G01*
X134846250Y-82900000D02*
X134333750Y-82900000D01*
G75*
G02*
X134115000Y-82681250I0J218750D01*
G01*
X134115000Y-82243750D01*
G75*
G02*
X134333750Y-82025000I218750J0D01*
G01*
X134846250Y-82025000D01*
G75*
G02*
X135065000Y-82243750I0J-218750D01*
G01*
X135065000Y-82681250D01*
G75*
G02*
X134846250Y-82900000I-218750J0D01*
G01*
G37*
G36*
G01*
X133346250Y-84400000D02*
X132833750Y-84400000D01*
G75*
G02*
X132615000Y-84181250I0J218750D01*
G01*
X132615000Y-83743750D01*
G75*
G02*
X132833750Y-83525000I218750J0D01*
G01*
X133346250Y-83525000D01*
G75*
G02*
X133565000Y-83743750I0J-218750D01*
G01*
X133565000Y-84181250D01*
G75*
G02*
X133346250Y-84400000I-218750J0D01*
G01*
G37*
G36*
G01*
X133346250Y-85975000D02*
X132833750Y-85975000D01*
G75*
G02*
X132615000Y-85756250I0J218750D01*
G01*
X132615000Y-85318750D01*
G75*
G02*
X132833750Y-85100000I218750J0D01*
G01*
X133346250Y-85100000D01*
G75*
G02*
X133565000Y-85318750I0J-218750D01*
G01*
X133565000Y-85756250D01*
G75*
G02*
X133346250Y-85975000I-218750J0D01*
G01*
G37*
G36*
G01*
X119373750Y-78275000D02*
X119886250Y-78275000D01*
G75*
G02*
X120105000Y-78493750I0J-218750D01*
G01*
X120105000Y-78931250D01*
G75*
G02*
X119886250Y-79150000I-218750J0D01*
G01*
X119373750Y-79150000D01*
G75*
G02*
X119155000Y-78931250I0J218750D01*
G01*
X119155000Y-78493750D01*
G75*
G02*
X119373750Y-78275000I218750J0D01*
G01*
G37*
G36*
G01*
X119373750Y-79850000D02*
X119886250Y-79850000D01*
G75*
G02*
X120105000Y-80068750I0J-218750D01*
G01*
X120105000Y-80506250D01*
G75*
G02*
X119886250Y-80725000I-218750J0D01*
G01*
X119373750Y-80725000D01*
G75*
G02*
X119155000Y-80506250I0J218750D01*
G01*
X119155000Y-80068750D01*
G75*
G02*
X119373750Y-79850000I218750J0D01*
G01*
G37*
G36*
G01*
X119886250Y-83735000D02*
X119373750Y-83735000D01*
G75*
G02*
X119155000Y-83516250I0J218750D01*
G01*
X119155000Y-83078750D01*
G75*
G02*
X119373750Y-82860000I218750J0D01*
G01*
X119886250Y-82860000D01*
G75*
G02*
X120105000Y-83078750I0J-218750D01*
G01*
X120105000Y-83516250D01*
G75*
G02*
X119886250Y-83735000I-218750J0D01*
G01*
G37*
G36*
G01*
X119886250Y-82160000D02*
X119373750Y-82160000D01*
G75*
G02*
X119155000Y-81941250I0J218750D01*
G01*
X119155000Y-81503750D01*
G75*
G02*
X119373750Y-81285000I218750J0D01*
G01*
X119886250Y-81285000D01*
G75*
G02*
X120105000Y-81503750I0J-218750D01*
G01*
X120105000Y-81941250D01*
G75*
G02*
X119886250Y-82160000I-218750J0D01*
G01*
G37*
G36*
G01*
X134333750Y-79090000D02*
X134846250Y-79090000D01*
G75*
G02*
X135065000Y-79308750I0J-218750D01*
G01*
X135065000Y-79746250D01*
G75*
G02*
X134846250Y-79965000I-218750J0D01*
G01*
X134333750Y-79965000D01*
G75*
G02*
X134115000Y-79746250I0J218750D01*
G01*
X134115000Y-79308750D01*
G75*
G02*
X134333750Y-79090000I218750J0D01*
G01*
G37*
G36*
G01*
X134333750Y-77515000D02*
X134846250Y-77515000D01*
G75*
G02*
X135065000Y-77733750I0J-218750D01*
G01*
X135065000Y-78171250D01*
G75*
G02*
X134846250Y-78390000I-218750J0D01*
G01*
X134333750Y-78390000D01*
G75*
G02*
X134115000Y-78171250I0J218750D01*
G01*
X134115000Y-77733750D01*
G75*
G02*
X134333750Y-77515000I218750J0D01*
G01*
G37*
G36*
G01*
X120873750Y-78350000D02*
X121386250Y-78350000D01*
G75*
G02*
X121605000Y-78568750I0J-218750D01*
G01*
X121605000Y-79006250D01*
G75*
G02*
X121386250Y-79225000I-218750J0D01*
G01*
X120873750Y-79225000D01*
G75*
G02*
X120655000Y-79006250I0J218750D01*
G01*
X120655000Y-78568750D01*
G75*
G02*
X120873750Y-78350000I218750J0D01*
G01*
G37*
G36*
G01*
X120873750Y-76775000D02*
X121386250Y-76775000D01*
G75*
G02*
X121605000Y-76993750I0J-218750D01*
G01*
X121605000Y-77431250D01*
G75*
G02*
X121386250Y-77650000I-218750J0D01*
G01*
X120873750Y-77650000D01*
G75*
G02*
X120655000Y-77431250I0J218750D01*
G01*
X120655000Y-76993750D01*
G75*
G02*
X120873750Y-76775000I218750J0D01*
G01*
G37*
G36*
G01*
X121386250Y-85235000D02*
X120873750Y-85235000D01*
G75*
G02*
X120655000Y-85016250I0J218750D01*
G01*
X120655000Y-84578750D01*
G75*
G02*
X120873750Y-84360000I218750J0D01*
G01*
X121386250Y-84360000D01*
G75*
G02*
X121605000Y-84578750I0J-218750D01*
G01*
X121605000Y-85016250D01*
G75*
G02*
X121386250Y-85235000I-218750J0D01*
G01*
G37*
G36*
G01*
X121386250Y-83660000D02*
X120873750Y-83660000D01*
G75*
G02*
X120655000Y-83441250I0J218750D01*
G01*
X120655000Y-83003750D01*
G75*
G02*
X120873750Y-82785000I218750J0D01*
G01*
X121386250Y-82785000D01*
G75*
G02*
X121605000Y-83003750I0J-218750D01*
G01*
X121605000Y-83441250D01*
G75*
G02*
X121386250Y-83660000I-218750J0D01*
G01*
G37*
G36*
G01*
X132833750Y-77590000D02*
X133346250Y-77590000D01*
G75*
G02*
X133565000Y-77808750I0J-218750D01*
G01*
X133565000Y-78246250D01*
G75*
G02*
X133346250Y-78465000I-218750J0D01*
G01*
X132833750Y-78465000D01*
G75*
G02*
X132615000Y-78246250I0J218750D01*
G01*
X132615000Y-77808750D01*
G75*
G02*
X132833750Y-77590000I218750J0D01*
G01*
G37*
G36*
G01*
X132833750Y-76015000D02*
X133346250Y-76015000D01*
G75*
G02*
X133565000Y-76233750I0J-218750D01*
G01*
X133565000Y-76671250D01*
G75*
G02*
X133346250Y-76890000I-218750J0D01*
G01*
X132833750Y-76890000D01*
G75*
G02*
X132615000Y-76671250I0J218750D01*
G01*
X132615000Y-76233750D01*
G75*
G02*
X132833750Y-76015000I218750J0D01*
G01*
G37*
G36*
G01*
X155056250Y-84475000D02*
X154543750Y-84475000D01*
G75*
G02*
X154325000Y-84256250I0J218750D01*
G01*
X154325000Y-83818750D01*
G75*
G02*
X154543750Y-83600000I218750J0D01*
G01*
X155056250Y-83600000D01*
G75*
G02*
X155275000Y-83818750I0J-218750D01*
G01*
X155275000Y-84256250D01*
G75*
G02*
X155056250Y-84475000I-218750J0D01*
G01*
G37*
G36*
G01*
X155056250Y-82900000D02*
X154543750Y-82900000D01*
G75*
G02*
X154325000Y-82681250I0J218750D01*
G01*
X154325000Y-82243750D01*
G75*
G02*
X154543750Y-82025000I218750J0D01*
G01*
X155056250Y-82025000D01*
G75*
G02*
X155275000Y-82243750I0J-218750D01*
G01*
X155275000Y-82681250D01*
G75*
G02*
X155056250Y-82900000I-218750J0D01*
G01*
G37*
G36*
G01*
X154543750Y-79080000D02*
X155056250Y-79080000D01*
G75*
G02*
X155275000Y-79298750I0J-218750D01*
G01*
X155275000Y-79736250D01*
G75*
G02*
X155056250Y-79955000I-218750J0D01*
G01*
X154543750Y-79955000D01*
G75*
G02*
X154325000Y-79736250I0J218750D01*
G01*
X154325000Y-79298750D01*
G75*
G02*
X154543750Y-79080000I218750J0D01*
G01*
G37*
G36*
G01*
X154543750Y-77505000D02*
X155056250Y-77505000D01*
G75*
G02*
X155275000Y-77723750I0J-218750D01*
G01*
X155275000Y-78161250D01*
G75*
G02*
X155056250Y-78380000I-218750J0D01*
G01*
X154543750Y-78380000D01*
G75*
G02*
X154325000Y-78161250I0J218750D01*
G01*
X154325000Y-77723750D01*
G75*
G02*
X154543750Y-77505000I218750J0D01*
G01*
G37*
G36*
G01*
X139573750Y-78275000D02*
X140086250Y-78275000D01*
G75*
G02*
X140305000Y-78493750I0J-218750D01*
G01*
X140305000Y-78931250D01*
G75*
G02*
X140086250Y-79150000I-218750J0D01*
G01*
X139573750Y-79150000D01*
G75*
G02*
X139355000Y-78931250I0J218750D01*
G01*
X139355000Y-78493750D01*
G75*
G02*
X139573750Y-78275000I218750J0D01*
G01*
G37*
G36*
G01*
X139573750Y-79850000D02*
X140086250Y-79850000D01*
G75*
G02*
X140305000Y-80068750I0J-218750D01*
G01*
X140305000Y-80506250D01*
G75*
G02*
X140086250Y-80725000I-218750J0D01*
G01*
X139573750Y-80725000D01*
G75*
G02*
X139355000Y-80506250I0J218750D01*
G01*
X139355000Y-80068750D01*
G75*
G02*
X139573750Y-79850000I218750J0D01*
G01*
G37*
G36*
G01*
X140086250Y-83735000D02*
X139573750Y-83735000D01*
G75*
G02*
X139355000Y-83516250I0J218750D01*
G01*
X139355000Y-83078750D01*
G75*
G02*
X139573750Y-82860000I218750J0D01*
G01*
X140086250Y-82860000D01*
G75*
G02*
X140305000Y-83078750I0J-218750D01*
G01*
X140305000Y-83516250D01*
G75*
G02*
X140086250Y-83735000I-218750J0D01*
G01*
G37*
G36*
G01*
X140086250Y-82160000D02*
X139573750Y-82160000D01*
G75*
G02*
X139355000Y-81941250I0J218750D01*
G01*
X139355000Y-81503750D01*
G75*
G02*
X139573750Y-81285000I218750J0D01*
G01*
X140086250Y-81285000D01*
G75*
G02*
X140305000Y-81503750I0J-218750D01*
G01*
X140305000Y-81941250D01*
G75*
G02*
X140086250Y-82160000I-218750J0D01*
G01*
G37*
G36*
G01*
X153546250Y-84410000D02*
X153033750Y-84410000D01*
G75*
G02*
X152815000Y-84191250I0J218750D01*
G01*
X152815000Y-83753750D01*
G75*
G02*
X153033750Y-83535000I218750J0D01*
G01*
X153546250Y-83535000D01*
G75*
G02*
X153765000Y-83753750I0J-218750D01*
G01*
X153765000Y-84191250D01*
G75*
G02*
X153546250Y-84410000I-218750J0D01*
G01*
G37*
G36*
G01*
X153546250Y-85985000D02*
X153033750Y-85985000D01*
G75*
G02*
X152815000Y-85766250I0J218750D01*
G01*
X152815000Y-85328750D01*
G75*
G02*
X153033750Y-85110000I218750J0D01*
G01*
X153546250Y-85110000D01*
G75*
G02*
X153765000Y-85328750I0J-218750D01*
G01*
X153765000Y-85766250D01*
G75*
G02*
X153546250Y-85985000I-218750J0D01*
G01*
G37*
G36*
G01*
X153033750Y-77580000D02*
X153546250Y-77580000D01*
G75*
G02*
X153765000Y-77798750I0J-218750D01*
G01*
X153765000Y-78236250D01*
G75*
G02*
X153546250Y-78455000I-218750J0D01*
G01*
X153033750Y-78455000D01*
G75*
G02*
X152815000Y-78236250I0J218750D01*
G01*
X152815000Y-77798750D01*
G75*
G02*
X153033750Y-77580000I218750J0D01*
G01*
G37*
G36*
G01*
X153033750Y-76005000D02*
X153546250Y-76005000D01*
G75*
G02*
X153765000Y-76223750I0J-218750D01*
G01*
X153765000Y-76661250D01*
G75*
G02*
X153546250Y-76880000I-218750J0D01*
G01*
X153033750Y-76880000D01*
G75*
G02*
X152815000Y-76661250I0J218750D01*
G01*
X152815000Y-76223750D01*
G75*
G02*
X153033750Y-76005000I218750J0D01*
G01*
G37*
G36*
G01*
X141083750Y-78350000D02*
X141596250Y-78350000D01*
G75*
G02*
X141815000Y-78568750I0J-218750D01*
G01*
X141815000Y-79006250D01*
G75*
G02*
X141596250Y-79225000I-218750J0D01*
G01*
X141083750Y-79225000D01*
G75*
G02*
X140865000Y-79006250I0J218750D01*
G01*
X140865000Y-78568750D01*
G75*
G02*
X141083750Y-78350000I218750J0D01*
G01*
G37*
G36*
G01*
X141083750Y-76775000D02*
X141596250Y-76775000D01*
G75*
G02*
X141815000Y-76993750I0J-218750D01*
G01*
X141815000Y-77431250D01*
G75*
G02*
X141596250Y-77650000I-218750J0D01*
G01*
X141083750Y-77650000D01*
G75*
G02*
X140865000Y-77431250I0J218750D01*
G01*
X140865000Y-76993750D01*
G75*
G02*
X141083750Y-76775000I218750J0D01*
G01*
G37*
G36*
G01*
X141596250Y-85245000D02*
X141083750Y-85245000D01*
G75*
G02*
X140865000Y-85026250I0J218750D01*
G01*
X140865000Y-84588750D01*
G75*
G02*
X141083750Y-84370000I218750J0D01*
G01*
X141596250Y-84370000D01*
G75*
G02*
X141815000Y-84588750I0J-218750D01*
G01*
X141815000Y-85026250D01*
G75*
G02*
X141596250Y-85245000I-218750J0D01*
G01*
G37*
G36*
G01*
X141596250Y-83670000D02*
X141083750Y-83670000D01*
G75*
G02*
X140865000Y-83451250I0J218750D01*
G01*
X140865000Y-83013750D01*
G75*
G02*
X141083750Y-82795000I218750J0D01*
G01*
X141596250Y-82795000D01*
G75*
G02*
X141815000Y-83013750I0J-218750D01*
G01*
X141815000Y-83451250D01*
G75*
G02*
X141596250Y-83670000I-218750J0D01*
G01*
G37*
G36*
G01*
X159753750Y-79850000D02*
X160266250Y-79850000D01*
G75*
G02*
X160485000Y-80068750I0J-218750D01*
G01*
X160485000Y-80506250D01*
G75*
G02*
X160266250Y-80725000I-218750J0D01*
G01*
X159753750Y-80725000D01*
G75*
G02*
X159535000Y-80506250I0J218750D01*
G01*
X159535000Y-80068750D01*
G75*
G02*
X159753750Y-79850000I218750J0D01*
G01*
G37*
G36*
G01*
X159753750Y-78275000D02*
X160266250Y-78275000D01*
G75*
G02*
X160485000Y-78493750I0J-218750D01*
G01*
X160485000Y-78931250D01*
G75*
G02*
X160266250Y-79150000I-218750J0D01*
G01*
X159753750Y-79150000D01*
G75*
G02*
X159535000Y-78931250I0J218750D01*
G01*
X159535000Y-78493750D01*
G75*
G02*
X159753750Y-78275000I218750J0D01*
G01*
G37*
G36*
G01*
X160266250Y-82150000D02*
X159753750Y-82150000D01*
G75*
G02*
X159535000Y-81931250I0J218750D01*
G01*
X159535000Y-81493750D01*
G75*
G02*
X159753750Y-81275000I218750J0D01*
G01*
X160266250Y-81275000D01*
G75*
G02*
X160485000Y-81493750I0J-218750D01*
G01*
X160485000Y-81931250D01*
G75*
G02*
X160266250Y-82150000I-218750J0D01*
G01*
G37*
G36*
G01*
X160266250Y-83725000D02*
X159753750Y-83725000D01*
G75*
G02*
X159535000Y-83506250I0J218750D01*
G01*
X159535000Y-83068750D01*
G75*
G02*
X159753750Y-82850000I218750J0D01*
G01*
X160266250Y-82850000D01*
G75*
G02*
X160485000Y-83068750I0J-218750D01*
G01*
X160485000Y-83506250D01*
G75*
G02*
X160266250Y-83725000I-218750J0D01*
G01*
G37*
G36*
G01*
X175226250Y-82910000D02*
X174713750Y-82910000D01*
G75*
G02*
X174495000Y-82691250I0J218750D01*
G01*
X174495000Y-82253750D01*
G75*
G02*
X174713750Y-82035000I218750J0D01*
G01*
X175226250Y-82035000D01*
G75*
G02*
X175445000Y-82253750I0J-218750D01*
G01*
X175445000Y-82691250D01*
G75*
G02*
X175226250Y-82910000I-218750J0D01*
G01*
G37*
G36*
G01*
X175226250Y-84485000D02*
X174713750Y-84485000D01*
G75*
G02*
X174495000Y-84266250I0J218750D01*
G01*
X174495000Y-83828750D01*
G75*
G02*
X174713750Y-83610000I218750J0D01*
G01*
X175226250Y-83610000D01*
G75*
G02*
X175445000Y-83828750I0J-218750D01*
G01*
X175445000Y-84266250D01*
G75*
G02*
X175226250Y-84485000I-218750J0D01*
G01*
G37*
G36*
G01*
X174713750Y-77505000D02*
X175226250Y-77505000D01*
G75*
G02*
X175445000Y-77723750I0J-218750D01*
G01*
X175445000Y-78161250D01*
G75*
G02*
X175226250Y-78380000I-218750J0D01*
G01*
X174713750Y-78380000D01*
G75*
G02*
X174495000Y-78161250I0J218750D01*
G01*
X174495000Y-77723750D01*
G75*
G02*
X174713750Y-77505000I218750J0D01*
G01*
G37*
G36*
G01*
X174713750Y-79080000D02*
X175226250Y-79080000D01*
G75*
G02*
X175445000Y-79298750I0J-218750D01*
G01*
X175445000Y-79736250D01*
G75*
G02*
X175226250Y-79955000I-218750J0D01*
G01*
X174713750Y-79955000D01*
G75*
G02*
X174495000Y-79736250I0J218750D01*
G01*
X174495000Y-79298750D01*
G75*
G02*
X174713750Y-79080000I218750J0D01*
G01*
G37*
G36*
G01*
X161233750Y-76765000D02*
X161746250Y-76765000D01*
G75*
G02*
X161965000Y-76983750I0J-218750D01*
G01*
X161965000Y-77421250D01*
G75*
G02*
X161746250Y-77640000I-218750J0D01*
G01*
X161233750Y-77640000D01*
G75*
G02*
X161015000Y-77421250I0J218750D01*
G01*
X161015000Y-76983750D01*
G75*
G02*
X161233750Y-76765000I218750J0D01*
G01*
G37*
G36*
G01*
X161233750Y-78340000D02*
X161746250Y-78340000D01*
G75*
G02*
X161965000Y-78558750I0J-218750D01*
G01*
X161965000Y-78996250D01*
G75*
G02*
X161746250Y-79215000I-218750J0D01*
G01*
X161233750Y-79215000D01*
G75*
G02*
X161015000Y-78996250I0J218750D01*
G01*
X161015000Y-78558750D01*
G75*
G02*
X161233750Y-78340000I218750J0D01*
G01*
G37*
G36*
G01*
X161766250Y-85235000D02*
X161253750Y-85235000D01*
G75*
G02*
X161035000Y-85016250I0J218750D01*
G01*
X161035000Y-84578750D01*
G75*
G02*
X161253750Y-84360000I218750J0D01*
G01*
X161766250Y-84360000D01*
G75*
G02*
X161985000Y-84578750I0J-218750D01*
G01*
X161985000Y-85016250D01*
G75*
G02*
X161766250Y-85235000I-218750J0D01*
G01*
G37*
G36*
G01*
X161766250Y-83660000D02*
X161253750Y-83660000D01*
G75*
G02*
X161035000Y-83441250I0J218750D01*
G01*
X161035000Y-83003750D01*
G75*
G02*
X161253750Y-82785000I218750J0D01*
G01*
X161766250Y-82785000D01*
G75*
G02*
X161985000Y-83003750I0J-218750D01*
G01*
X161985000Y-83441250D01*
G75*
G02*
X161766250Y-83660000I-218750J0D01*
G01*
G37*
G36*
G01*
X173716250Y-84420000D02*
X173203750Y-84420000D01*
G75*
G02*
X172985000Y-84201250I0J218750D01*
G01*
X172985000Y-83763750D01*
G75*
G02*
X173203750Y-83545000I218750J0D01*
G01*
X173716250Y-83545000D01*
G75*
G02*
X173935000Y-83763750I0J-218750D01*
G01*
X173935000Y-84201250D01*
G75*
G02*
X173716250Y-84420000I-218750J0D01*
G01*
G37*
G36*
G01*
X173716250Y-85995000D02*
X173203750Y-85995000D01*
G75*
G02*
X172985000Y-85776250I0J218750D01*
G01*
X172985000Y-85338750D01*
G75*
G02*
X173203750Y-85120000I218750J0D01*
G01*
X173716250Y-85120000D01*
G75*
G02*
X173935000Y-85338750I0J-218750D01*
G01*
X173935000Y-85776250D01*
G75*
G02*
X173716250Y-85995000I-218750J0D01*
G01*
G37*
G36*
G01*
X173203750Y-76005000D02*
X173716250Y-76005000D01*
G75*
G02*
X173935000Y-76223750I0J-218750D01*
G01*
X173935000Y-76661250D01*
G75*
G02*
X173716250Y-76880000I-218750J0D01*
G01*
X173203750Y-76880000D01*
G75*
G02*
X172985000Y-76661250I0J218750D01*
G01*
X172985000Y-76223750D01*
G75*
G02*
X173203750Y-76005000I218750J0D01*
G01*
G37*
G36*
G01*
X173203750Y-77580000D02*
X173716250Y-77580000D01*
G75*
G02*
X173935000Y-77798750I0J-218750D01*
G01*
X173935000Y-78236250D01*
G75*
G02*
X173716250Y-78455000I-218750J0D01*
G01*
X173203750Y-78455000D01*
G75*
G02*
X172985000Y-78236250I0J218750D01*
G01*
X172985000Y-77798750D01*
G75*
G02*
X173203750Y-77580000I218750J0D01*
G01*
G37*
G36*
G01*
X131115000Y-81256250D02*
X131115000Y-80743750D01*
G75*
G02*
X131333750Y-80525000I218750J0D01*
G01*
X131771250Y-80525000D01*
G75*
G02*
X131990000Y-80743750I0J-218750D01*
G01*
X131990000Y-81256250D01*
G75*
G02*
X131771250Y-81475000I-218750J0D01*
G01*
X131333750Y-81475000D01*
G75*
G02*
X131115000Y-81256250I0J218750D01*
G01*
G37*
G36*
G01*
X132690000Y-81256250D02*
X132690000Y-80743750D01*
G75*
G02*
X132908750Y-80525000I218750J0D01*
G01*
X133346250Y-80525000D01*
G75*
G02*
X133565000Y-80743750I0J-218750D01*
G01*
X133565000Y-81256250D01*
G75*
G02*
X133346250Y-81475000I-218750J0D01*
G01*
X132908750Y-81475000D01*
G75*
G02*
X132690000Y-81256250I0J218750D01*
G01*
G37*
G36*
G01*
X152890000Y-81256250D02*
X152890000Y-80743750D01*
G75*
G02*
X153108750Y-80525000I218750J0D01*
G01*
X153546250Y-80525000D01*
G75*
G02*
X153765000Y-80743750I0J-218750D01*
G01*
X153765000Y-81256250D01*
G75*
G02*
X153546250Y-81475000I-218750J0D01*
G01*
X153108750Y-81475000D01*
G75*
G02*
X152890000Y-81256250I0J218750D01*
G01*
G37*
G36*
G01*
X151315000Y-81256250D02*
X151315000Y-80743750D01*
G75*
G02*
X151533750Y-80525000I218750J0D01*
G01*
X151971250Y-80525000D01*
G75*
G02*
X152190000Y-80743750I0J-218750D01*
G01*
X152190000Y-81256250D01*
G75*
G02*
X151971250Y-81475000I-218750J0D01*
G01*
X151533750Y-81475000D01*
G75*
G02*
X151315000Y-81256250I0J218750D01*
G01*
G37*
G36*
G01*
X171485000Y-81256250D02*
X171485000Y-80743750D01*
G75*
G02*
X171703750Y-80525000I218750J0D01*
G01*
X172141250Y-80525000D01*
G75*
G02*
X172360000Y-80743750I0J-218750D01*
G01*
X172360000Y-81256250D01*
G75*
G02*
X172141250Y-81475000I-218750J0D01*
G01*
X171703750Y-81475000D01*
G75*
G02*
X171485000Y-81256250I0J218750D01*
G01*
G37*
G36*
G01*
X173060000Y-81256250D02*
X173060000Y-80743750D01*
G75*
G02*
X173278750Y-80525000I218750J0D01*
G01*
X173716250Y-80525000D01*
G75*
G02*
X173935000Y-80743750I0J-218750D01*
G01*
X173935000Y-81256250D01*
G75*
G02*
X173716250Y-81475000I-218750J0D01*
G01*
X173278750Y-81475000D01*
G75*
G02*
X173060000Y-81256250I0J218750D01*
G01*
G37*
G36*
G01*
X111610000Y-88323750D02*
X111610000Y-88836250D01*
G75*
G02*
X111391250Y-89055000I-218750J0D01*
G01*
X110953750Y-89055000D01*
G75*
G02*
X110735000Y-88836250I0J218750D01*
G01*
X110735000Y-88323750D01*
G75*
G02*
X110953750Y-88105000I218750J0D01*
G01*
X111391250Y-88105000D01*
G75*
G02*
X111610000Y-88323750I0J-218750D01*
G01*
G37*
G36*
G01*
X113185000Y-88323750D02*
X113185000Y-88836250D01*
G75*
G02*
X112966250Y-89055000I-218750J0D01*
G01*
X112528750Y-89055000D01*
G75*
G02*
X112310000Y-88836250I0J218750D01*
G01*
X112310000Y-88323750D01*
G75*
G02*
X112528750Y-88105000I218750J0D01*
G01*
X112966250Y-88105000D01*
G75*
G02*
X113185000Y-88323750I0J-218750D01*
G01*
G37*
G36*
G01*
X108550000Y-73866250D02*
X108550000Y-73353750D01*
G75*
G02*
X108768750Y-73135000I218750J0D01*
G01*
X109206250Y-73135000D01*
G75*
G02*
X109425000Y-73353750I0J-218750D01*
G01*
X109425000Y-73866250D01*
G75*
G02*
X109206250Y-74085000I-218750J0D01*
G01*
X108768750Y-74085000D01*
G75*
G02*
X108550000Y-73866250I0J218750D01*
G01*
G37*
G36*
G01*
X106975000Y-73866250D02*
X106975000Y-73353750D01*
G75*
G02*
X107193750Y-73135000I218750J0D01*
G01*
X107631250Y-73135000D01*
G75*
G02*
X107850000Y-73353750I0J-218750D01*
G01*
X107850000Y-73866250D01*
G75*
G02*
X107631250Y-74085000I-218750J0D01*
G01*
X107193750Y-74085000D01*
G75*
G02*
X106975000Y-73866250I0J218750D01*
G01*
G37*
G36*
G01*
X106225000Y-88836250D02*
X106225000Y-88323750D01*
G75*
G02*
X106443750Y-88105000I218750J0D01*
G01*
X106881250Y-88105000D01*
G75*
G02*
X107100000Y-88323750I0J-218750D01*
G01*
X107100000Y-88836250D01*
G75*
G02*
X106881250Y-89055000I-218750J0D01*
G01*
X106443750Y-89055000D01*
G75*
G02*
X106225000Y-88836250I0J218750D01*
G01*
G37*
G36*
G01*
X107800000Y-88836250D02*
X107800000Y-88323750D01*
G75*
G02*
X108018750Y-88105000I218750J0D01*
G01*
X108456250Y-88105000D01*
G75*
G02*
X108675000Y-88323750I0J-218750D01*
G01*
X108675000Y-88836250D01*
G75*
G02*
X108456250Y-89055000I-218750J0D01*
G01*
X108018750Y-89055000D01*
G75*
G02*
X107800000Y-88836250I0J218750D01*
G01*
G37*
G36*
G01*
X109443750Y-86670000D02*
X109956250Y-86670000D01*
G75*
G02*
X110175000Y-86888750I0J-218750D01*
G01*
X110175000Y-87326250D01*
G75*
G02*
X109956250Y-87545000I-218750J0D01*
G01*
X109443750Y-87545000D01*
G75*
G02*
X109225000Y-87326250I0J218750D01*
G01*
X109225000Y-86888750D01*
G75*
G02*
X109443750Y-86670000I218750J0D01*
G01*
G37*
G36*
G01*
X109443750Y-85095000D02*
X109956250Y-85095000D01*
G75*
G02*
X110175000Y-85313750I0J-218750D01*
G01*
X110175000Y-85751250D01*
G75*
G02*
X109956250Y-85970000I-218750J0D01*
G01*
X109443750Y-85970000D01*
G75*
G02*
X109225000Y-85751250I0J218750D01*
G01*
X109225000Y-85313750D01*
G75*
G02*
X109443750Y-85095000I218750J0D01*
G01*
G37*
G36*
G01*
X149843750Y-103950000D02*
X150356250Y-103950000D01*
G75*
G02*
X150575000Y-104168750I0J-218750D01*
G01*
X150575000Y-104606250D01*
G75*
G02*
X150356250Y-104825000I-218750J0D01*
G01*
X149843750Y-104825000D01*
G75*
G02*
X149625000Y-104606250I0J218750D01*
G01*
X149625000Y-104168750D01*
G75*
G02*
X149843750Y-103950000I218750J0D01*
G01*
G37*
G36*
G01*
X149843750Y-102375000D02*
X150356250Y-102375000D01*
G75*
G02*
X150575000Y-102593750I0J-218750D01*
G01*
X150575000Y-103031250D01*
G75*
G02*
X150356250Y-103250000I-218750J0D01*
G01*
X149843750Y-103250000D01*
G75*
G02*
X149625000Y-103031250I0J218750D01*
G01*
X149625000Y-102593750D01*
G75*
G02*
X149843750Y-102375000I218750J0D01*
G01*
G37*
G36*
G01*
X114685000Y-86813750D02*
X114685000Y-87326250D01*
G75*
G02*
X114466250Y-87545000I-218750J0D01*
G01*
X114028750Y-87545000D01*
G75*
G02*
X113810000Y-87326250I0J218750D01*
G01*
X113810000Y-86813750D01*
G75*
G02*
X114028750Y-86595000I218750J0D01*
G01*
X114466250Y-86595000D01*
G75*
G02*
X114685000Y-86813750I0J-218750D01*
G01*
G37*
G36*
G01*
X113110000Y-86813750D02*
X113110000Y-87326250D01*
G75*
G02*
X112891250Y-87545000I-218750J0D01*
G01*
X112453750Y-87545000D01*
G75*
G02*
X112235000Y-87326250I0J218750D01*
G01*
X112235000Y-86813750D01*
G75*
G02*
X112453750Y-86595000I218750J0D01*
G01*
X112891250Y-86595000D01*
G75*
G02*
X113110000Y-86813750I0J-218750D01*
G01*
G37*
G36*
G01*
X105475000Y-75366250D02*
X105475000Y-74853750D01*
G75*
G02*
X105693750Y-74635000I218750J0D01*
G01*
X106131250Y-74635000D01*
G75*
G02*
X106350000Y-74853750I0J-218750D01*
G01*
X106350000Y-75366250D01*
G75*
G02*
X106131250Y-75585000I-218750J0D01*
G01*
X105693750Y-75585000D01*
G75*
G02*
X105475000Y-75366250I0J218750D01*
G01*
G37*
G36*
G01*
X107050000Y-75366250D02*
X107050000Y-74853750D01*
G75*
G02*
X107268750Y-74635000I218750J0D01*
G01*
X107706250Y-74635000D01*
G75*
G02*
X107925000Y-74853750I0J-218750D01*
G01*
X107925000Y-75366250D01*
G75*
G02*
X107706250Y-75585000I-218750J0D01*
G01*
X107268750Y-75585000D01*
G75*
G02*
X107050000Y-75366250I0J218750D01*
G01*
G37*
G36*
G01*
X104725000Y-87326250D02*
X104725000Y-86813750D01*
G75*
G02*
X104943750Y-86595000I218750J0D01*
G01*
X105381250Y-86595000D01*
G75*
G02*
X105600000Y-86813750I0J-218750D01*
G01*
X105600000Y-87326250D01*
G75*
G02*
X105381250Y-87545000I-218750J0D01*
G01*
X104943750Y-87545000D01*
G75*
G02*
X104725000Y-87326250I0J218750D01*
G01*
G37*
G36*
G01*
X106300000Y-87326250D02*
X106300000Y-86813750D01*
G75*
G02*
X106518750Y-86595000I218750J0D01*
G01*
X106956250Y-86595000D01*
G75*
G02*
X107175000Y-86813750I0J-218750D01*
G01*
X107175000Y-87326250D01*
G75*
G02*
X106956250Y-87545000I-218750J0D01*
G01*
X106518750Y-87545000D01*
G75*
G02*
X106300000Y-87326250I0J218750D01*
G01*
G37*
G36*
G01*
X149843750Y-98315000D02*
X150356250Y-98315000D01*
G75*
G02*
X150575000Y-98533750I0J-218750D01*
G01*
X150575000Y-98971250D01*
G75*
G02*
X150356250Y-99190000I-218750J0D01*
G01*
X149843750Y-99190000D01*
G75*
G02*
X149625000Y-98971250I0J218750D01*
G01*
X149625000Y-98533750D01*
G75*
G02*
X149843750Y-98315000I218750J0D01*
G01*
G37*
G36*
G01*
X149843750Y-99890000D02*
X150356250Y-99890000D01*
G75*
G02*
X150575000Y-100108750I0J-218750D01*
G01*
X150575000Y-100546250D01*
G75*
G02*
X150356250Y-100765000I-218750J0D01*
G01*
X149843750Y-100765000D01*
G75*
G02*
X149625000Y-100546250I0J218750D01*
G01*
X149625000Y-100108750D01*
G75*
G02*
X149843750Y-99890000I218750J0D01*
G01*
G37*
G36*
G01*
X171813750Y-92880000D02*
X172326250Y-92880000D01*
G75*
G02*
X172545000Y-93098750I0J-218750D01*
G01*
X172545000Y-93536250D01*
G75*
G02*
X172326250Y-93755000I-218750J0D01*
G01*
X171813750Y-93755000D01*
G75*
G02*
X171595000Y-93536250I0J218750D01*
G01*
X171595000Y-93098750D01*
G75*
G02*
X171813750Y-92880000I218750J0D01*
G01*
G37*
G36*
G01*
X171813750Y-91305000D02*
X172326250Y-91305000D01*
G75*
G02*
X172545000Y-91523750I0J-218750D01*
G01*
X172545000Y-91961250D01*
G75*
G02*
X172326250Y-92180000I-218750J0D01*
G01*
X171813750Y-92180000D01*
G75*
G02*
X171595000Y-91961250I0J218750D01*
G01*
X171595000Y-91523750D01*
G75*
G02*
X171813750Y-91305000I218750J0D01*
G01*
G37*
G36*
G01*
X122230000Y-80506250D02*
X122230000Y-79993750D01*
G75*
G02*
X122448750Y-79775000I218750J0D01*
G01*
X122886250Y-79775000D01*
G75*
G02*
X123105000Y-79993750I0J-218750D01*
G01*
X123105000Y-80506250D01*
G75*
G02*
X122886250Y-80725000I-218750J0D01*
G01*
X122448750Y-80725000D01*
G75*
G02*
X122230000Y-80506250I0J218750D01*
G01*
G37*
G36*
G01*
X120655000Y-80506250D02*
X120655000Y-79993750D01*
G75*
G02*
X120873750Y-79775000I218750J0D01*
G01*
X121311250Y-79775000D01*
G75*
G02*
X121530000Y-79993750I0J-218750D01*
G01*
X121530000Y-80506250D01*
G75*
G02*
X121311250Y-80725000I-218750J0D01*
G01*
X120873750Y-80725000D01*
G75*
G02*
X120655000Y-80506250I0J218750D01*
G01*
G37*
G36*
G01*
X122230000Y-82016250D02*
X122230000Y-81503750D01*
G75*
G02*
X122448750Y-81285000I218750J0D01*
G01*
X122886250Y-81285000D01*
G75*
G02*
X123105000Y-81503750I0J-218750D01*
G01*
X123105000Y-82016250D01*
G75*
G02*
X122886250Y-82235000I-218750J0D01*
G01*
X122448750Y-82235000D01*
G75*
G02*
X122230000Y-82016250I0J218750D01*
G01*
G37*
G36*
G01*
X120655000Y-82016250D02*
X120655000Y-81503750D01*
G75*
G02*
X120873750Y-81285000I218750J0D01*
G01*
X121311250Y-81285000D01*
G75*
G02*
X121530000Y-81503750I0J-218750D01*
G01*
X121530000Y-82016250D01*
G75*
G02*
X121311250Y-82235000I-218750J0D01*
G01*
X120873750Y-82235000D01*
G75*
G02*
X120655000Y-82016250I0J218750D01*
G01*
G37*
G36*
G01*
X133565000Y-82243750D02*
X133565000Y-82756250D01*
G75*
G02*
X133346250Y-82975000I-218750J0D01*
G01*
X132908750Y-82975000D01*
G75*
G02*
X132690000Y-82756250I0J218750D01*
G01*
X132690000Y-82243750D01*
G75*
G02*
X132908750Y-82025000I218750J0D01*
G01*
X133346250Y-82025000D01*
G75*
G02*
X133565000Y-82243750I0J-218750D01*
G01*
G37*
G36*
G01*
X131990000Y-82243750D02*
X131990000Y-82756250D01*
G75*
G02*
X131771250Y-82975000I-218750J0D01*
G01*
X131333750Y-82975000D01*
G75*
G02*
X131115000Y-82756250I0J218750D01*
G01*
X131115000Y-82243750D01*
G75*
G02*
X131333750Y-82025000I218750J0D01*
G01*
X131771250Y-82025000D01*
G75*
G02*
X131990000Y-82243750I0J-218750D01*
G01*
G37*
G36*
G01*
X131990000Y-79243750D02*
X131990000Y-79756250D01*
G75*
G02*
X131771250Y-79975000I-218750J0D01*
G01*
X131333750Y-79975000D01*
G75*
G02*
X131115000Y-79756250I0J218750D01*
G01*
X131115000Y-79243750D01*
G75*
G02*
X131333750Y-79025000I218750J0D01*
G01*
X131771250Y-79025000D01*
G75*
G02*
X131990000Y-79243750I0J-218750D01*
G01*
G37*
G36*
G01*
X133565000Y-79243750D02*
X133565000Y-79756250D01*
G75*
G02*
X133346250Y-79975000I-218750J0D01*
G01*
X132908750Y-79975000D01*
G75*
G02*
X132690000Y-79756250I0J218750D01*
G01*
X132690000Y-79243750D01*
G75*
G02*
X132908750Y-79025000I218750J0D01*
G01*
X133346250Y-79025000D01*
G75*
G02*
X133565000Y-79243750I0J-218750D01*
G01*
G37*
G36*
G01*
X122886250Y-79225000D02*
X122373750Y-79225000D01*
G75*
G02*
X122155000Y-79006250I0J218750D01*
G01*
X122155000Y-78568750D01*
G75*
G02*
X122373750Y-78350000I218750J0D01*
G01*
X122886250Y-78350000D01*
G75*
G02*
X123105000Y-78568750I0J-218750D01*
G01*
X123105000Y-79006250D01*
G75*
G02*
X122886250Y-79225000I-218750J0D01*
G01*
G37*
G36*
G01*
X122886250Y-77650000D02*
X122373750Y-77650000D01*
G75*
G02*
X122155000Y-77431250I0J218750D01*
G01*
X122155000Y-76993750D01*
G75*
G02*
X122373750Y-76775000I218750J0D01*
G01*
X122886250Y-76775000D01*
G75*
G02*
X123105000Y-76993750I0J-218750D01*
G01*
X123105000Y-77431250D01*
G75*
G02*
X122886250Y-77650000I-218750J0D01*
G01*
G37*
G36*
G01*
X122373750Y-82785000D02*
X122886250Y-82785000D01*
G75*
G02*
X123105000Y-83003750I0J-218750D01*
G01*
X123105000Y-83441250D01*
G75*
G02*
X122886250Y-83660000I-218750J0D01*
G01*
X122373750Y-83660000D01*
G75*
G02*
X122155000Y-83441250I0J218750D01*
G01*
X122155000Y-83003750D01*
G75*
G02*
X122373750Y-82785000I218750J0D01*
G01*
G37*
G36*
G01*
X122373750Y-84360000D02*
X122886250Y-84360000D01*
G75*
G02*
X123105000Y-84578750I0J-218750D01*
G01*
X123105000Y-85016250D01*
G75*
G02*
X122886250Y-85235000I-218750J0D01*
G01*
X122373750Y-85235000D01*
G75*
G02*
X122155000Y-85016250I0J218750D01*
G01*
X122155000Y-84578750D01*
G75*
G02*
X122373750Y-84360000I218750J0D01*
G01*
G37*
G36*
G01*
X131333750Y-83525000D02*
X131846250Y-83525000D01*
G75*
G02*
X132065000Y-83743750I0J-218750D01*
G01*
X132065000Y-84181250D01*
G75*
G02*
X131846250Y-84400000I-218750J0D01*
G01*
X131333750Y-84400000D01*
G75*
G02*
X131115000Y-84181250I0J218750D01*
G01*
X131115000Y-83743750D01*
G75*
G02*
X131333750Y-83525000I218750J0D01*
G01*
G37*
G36*
G01*
X131333750Y-85100000D02*
X131846250Y-85100000D01*
G75*
G02*
X132065000Y-85318750I0J-218750D01*
G01*
X132065000Y-85756250D01*
G75*
G02*
X131846250Y-85975000I-218750J0D01*
G01*
X131333750Y-85975000D01*
G75*
G02*
X131115000Y-85756250I0J218750D01*
G01*
X131115000Y-85318750D01*
G75*
G02*
X131333750Y-85100000I218750J0D01*
G01*
G37*
G36*
G01*
X131846250Y-78465000D02*
X131333750Y-78465000D01*
G75*
G02*
X131115000Y-78246250I0J218750D01*
G01*
X131115000Y-77808750D01*
G75*
G02*
X131333750Y-77590000I218750J0D01*
G01*
X131846250Y-77590000D01*
G75*
G02*
X132065000Y-77808750I0J-218750D01*
G01*
X132065000Y-78246250D01*
G75*
G02*
X131846250Y-78465000I-218750J0D01*
G01*
G37*
G36*
G01*
X131846250Y-76890000D02*
X131333750Y-76890000D01*
G75*
G02*
X131115000Y-76671250I0J218750D01*
G01*
X131115000Y-76233750D01*
G75*
G02*
X131333750Y-76015000I218750J0D01*
G01*
X131846250Y-76015000D01*
G75*
G02*
X132065000Y-76233750I0J-218750D01*
G01*
X132065000Y-76671250D01*
G75*
G02*
X131846250Y-76890000I-218750J0D01*
G01*
G37*
G36*
G01*
X152190000Y-82243750D02*
X152190000Y-82756250D01*
G75*
G02*
X151971250Y-82975000I-218750J0D01*
G01*
X151533750Y-82975000D01*
G75*
G02*
X151315000Y-82756250I0J218750D01*
G01*
X151315000Y-82243750D01*
G75*
G02*
X151533750Y-82025000I218750J0D01*
G01*
X151971250Y-82025000D01*
G75*
G02*
X152190000Y-82243750I0J-218750D01*
G01*
G37*
G36*
G01*
X153765000Y-82243750D02*
X153765000Y-82756250D01*
G75*
G02*
X153546250Y-82975000I-218750J0D01*
G01*
X153108750Y-82975000D01*
G75*
G02*
X152890000Y-82756250I0J218750D01*
G01*
X152890000Y-82243750D01*
G75*
G02*
X153108750Y-82025000I218750J0D01*
G01*
X153546250Y-82025000D01*
G75*
G02*
X153765000Y-82243750I0J-218750D01*
G01*
G37*
G36*
G01*
X153765000Y-79233750D02*
X153765000Y-79746250D01*
G75*
G02*
X153546250Y-79965000I-218750J0D01*
G01*
X153108750Y-79965000D01*
G75*
G02*
X152890000Y-79746250I0J218750D01*
G01*
X152890000Y-79233750D01*
G75*
G02*
X153108750Y-79015000I218750J0D01*
G01*
X153546250Y-79015000D01*
G75*
G02*
X153765000Y-79233750I0J-218750D01*
G01*
G37*
G36*
G01*
X152190000Y-79233750D02*
X152190000Y-79746250D01*
G75*
G02*
X151971250Y-79965000I-218750J0D01*
G01*
X151533750Y-79965000D01*
G75*
G02*
X151315000Y-79746250I0J218750D01*
G01*
X151315000Y-79233750D01*
G75*
G02*
X151533750Y-79015000I218750J0D01*
G01*
X151971250Y-79015000D01*
G75*
G02*
X152190000Y-79233750I0J-218750D01*
G01*
G37*
G36*
G01*
X140865000Y-80506250D02*
X140865000Y-79993750D01*
G75*
G02*
X141083750Y-79775000I218750J0D01*
G01*
X141521250Y-79775000D01*
G75*
G02*
X141740000Y-79993750I0J-218750D01*
G01*
X141740000Y-80506250D01*
G75*
G02*
X141521250Y-80725000I-218750J0D01*
G01*
X141083750Y-80725000D01*
G75*
G02*
X140865000Y-80506250I0J218750D01*
G01*
G37*
G36*
G01*
X142440000Y-80506250D02*
X142440000Y-79993750D01*
G75*
G02*
X142658750Y-79775000I218750J0D01*
G01*
X143096250Y-79775000D01*
G75*
G02*
X143315000Y-79993750I0J-218750D01*
G01*
X143315000Y-80506250D01*
G75*
G02*
X143096250Y-80725000I-218750J0D01*
G01*
X142658750Y-80725000D01*
G75*
G02*
X142440000Y-80506250I0J218750D01*
G01*
G37*
G36*
G01*
X140865000Y-82016250D02*
X140865000Y-81503750D01*
G75*
G02*
X141083750Y-81285000I218750J0D01*
G01*
X141521250Y-81285000D01*
G75*
G02*
X141740000Y-81503750I0J-218750D01*
G01*
X141740000Y-82016250D01*
G75*
G02*
X141521250Y-82235000I-218750J0D01*
G01*
X141083750Y-82235000D01*
G75*
G02*
X140865000Y-82016250I0J218750D01*
G01*
G37*
G36*
G01*
X142440000Y-82016250D02*
X142440000Y-81503750D01*
G75*
G02*
X142658750Y-81285000I218750J0D01*
G01*
X143096250Y-81285000D01*
G75*
G02*
X143315000Y-81503750I0J-218750D01*
G01*
X143315000Y-82016250D01*
G75*
G02*
X143096250Y-82235000I-218750J0D01*
G01*
X142658750Y-82235000D01*
G75*
G02*
X142440000Y-82016250I0J218750D01*
G01*
G37*
G36*
G01*
X151543750Y-85110000D02*
X152056250Y-85110000D01*
G75*
G02*
X152275000Y-85328750I0J-218750D01*
G01*
X152275000Y-85766250D01*
G75*
G02*
X152056250Y-85985000I-218750J0D01*
G01*
X151543750Y-85985000D01*
G75*
G02*
X151325000Y-85766250I0J218750D01*
G01*
X151325000Y-85328750D01*
G75*
G02*
X151543750Y-85110000I218750J0D01*
G01*
G37*
G36*
G01*
X151543750Y-83535000D02*
X152056250Y-83535000D01*
G75*
G02*
X152275000Y-83753750I0J-218750D01*
G01*
X152275000Y-84191250D01*
G75*
G02*
X152056250Y-84410000I-218750J0D01*
G01*
X151543750Y-84410000D01*
G75*
G02*
X151325000Y-84191250I0J218750D01*
G01*
X151325000Y-83753750D01*
G75*
G02*
X151543750Y-83535000I218750J0D01*
G01*
G37*
G36*
G01*
X152046250Y-76880000D02*
X151533750Y-76880000D01*
G75*
G02*
X151315000Y-76661250I0J218750D01*
G01*
X151315000Y-76223750D01*
G75*
G02*
X151533750Y-76005000I218750J0D01*
G01*
X152046250Y-76005000D01*
G75*
G02*
X152265000Y-76223750I0J-218750D01*
G01*
X152265000Y-76661250D01*
G75*
G02*
X152046250Y-76880000I-218750J0D01*
G01*
G37*
G36*
G01*
X152046250Y-78455000D02*
X151533750Y-78455000D01*
G75*
G02*
X151315000Y-78236250I0J218750D01*
G01*
X151315000Y-77798750D01*
G75*
G02*
X151533750Y-77580000I218750J0D01*
G01*
X152046250Y-77580000D01*
G75*
G02*
X152265000Y-77798750I0J-218750D01*
G01*
X152265000Y-78236250D01*
G75*
G02*
X152046250Y-78455000I-218750J0D01*
G01*
G37*
G36*
G01*
X143096250Y-79225000D02*
X142583750Y-79225000D01*
G75*
G02*
X142365000Y-79006250I0J218750D01*
G01*
X142365000Y-78568750D01*
G75*
G02*
X142583750Y-78350000I218750J0D01*
G01*
X143096250Y-78350000D01*
G75*
G02*
X143315000Y-78568750I0J-218750D01*
G01*
X143315000Y-79006250D01*
G75*
G02*
X143096250Y-79225000I-218750J0D01*
G01*
G37*
G36*
G01*
X143096250Y-77650000D02*
X142583750Y-77650000D01*
G75*
G02*
X142365000Y-77431250I0J218750D01*
G01*
X142365000Y-76993750D01*
G75*
G02*
X142583750Y-76775000I218750J0D01*
G01*
X143096250Y-76775000D01*
G75*
G02*
X143315000Y-76993750I0J-218750D01*
G01*
X143315000Y-77431250D01*
G75*
G02*
X143096250Y-77650000I-218750J0D01*
G01*
G37*
G36*
G01*
X142583750Y-84370000D02*
X143096250Y-84370000D01*
G75*
G02*
X143315000Y-84588750I0J-218750D01*
G01*
X143315000Y-85026250D01*
G75*
G02*
X143096250Y-85245000I-218750J0D01*
G01*
X142583750Y-85245000D01*
G75*
G02*
X142365000Y-85026250I0J218750D01*
G01*
X142365000Y-84588750D01*
G75*
G02*
X142583750Y-84370000I218750J0D01*
G01*
G37*
G36*
G01*
X142583750Y-82795000D02*
X143096250Y-82795000D01*
G75*
G02*
X143315000Y-83013750I0J-218750D01*
G01*
X143315000Y-83451250D01*
G75*
G02*
X143096250Y-83670000I-218750J0D01*
G01*
X142583750Y-83670000D01*
G75*
G02*
X142365000Y-83451250I0J218750D01*
G01*
X142365000Y-83013750D01*
G75*
G02*
X142583750Y-82795000I218750J0D01*
G01*
G37*
G36*
G01*
X161035000Y-80506250D02*
X161035000Y-79993750D01*
G75*
G02*
X161253750Y-79775000I218750J0D01*
G01*
X161691250Y-79775000D01*
G75*
G02*
X161910000Y-79993750I0J-218750D01*
G01*
X161910000Y-80506250D01*
G75*
G02*
X161691250Y-80725000I-218750J0D01*
G01*
X161253750Y-80725000D01*
G75*
G02*
X161035000Y-80506250I0J218750D01*
G01*
G37*
G36*
G01*
X162610000Y-80506250D02*
X162610000Y-79993750D01*
G75*
G02*
X162828750Y-79775000I218750J0D01*
G01*
X163266250Y-79775000D01*
G75*
G02*
X163485000Y-79993750I0J-218750D01*
G01*
X163485000Y-80506250D01*
G75*
G02*
X163266250Y-80725000I-218750J0D01*
G01*
X162828750Y-80725000D01*
G75*
G02*
X162610000Y-80506250I0J218750D01*
G01*
G37*
G36*
G01*
X162610000Y-82006250D02*
X162610000Y-81493750D01*
G75*
G02*
X162828750Y-81275000I218750J0D01*
G01*
X163266250Y-81275000D01*
G75*
G02*
X163485000Y-81493750I0J-218750D01*
G01*
X163485000Y-82006250D01*
G75*
G02*
X163266250Y-82225000I-218750J0D01*
G01*
X162828750Y-82225000D01*
G75*
G02*
X162610000Y-82006250I0J218750D01*
G01*
G37*
G36*
G01*
X161035000Y-82006250D02*
X161035000Y-81493750D01*
G75*
G02*
X161253750Y-81275000I218750J0D01*
G01*
X161691250Y-81275000D01*
G75*
G02*
X161910000Y-81493750I0J-218750D01*
G01*
X161910000Y-82006250D01*
G75*
G02*
X161691250Y-82225000I-218750J0D01*
G01*
X161253750Y-82225000D01*
G75*
G02*
X161035000Y-82006250I0J218750D01*
G01*
G37*
G36*
G01*
X173935000Y-82253750D02*
X173935000Y-82766250D01*
G75*
G02*
X173716250Y-82985000I-218750J0D01*
G01*
X173278750Y-82985000D01*
G75*
G02*
X173060000Y-82766250I0J218750D01*
G01*
X173060000Y-82253750D01*
G75*
G02*
X173278750Y-82035000I218750J0D01*
G01*
X173716250Y-82035000D01*
G75*
G02*
X173935000Y-82253750I0J-218750D01*
G01*
G37*
G36*
G01*
X172360000Y-82253750D02*
X172360000Y-82766250D01*
G75*
G02*
X172141250Y-82985000I-218750J0D01*
G01*
X171703750Y-82985000D01*
G75*
G02*
X171485000Y-82766250I0J218750D01*
G01*
X171485000Y-82253750D01*
G75*
G02*
X171703750Y-82035000I218750J0D01*
G01*
X172141250Y-82035000D01*
G75*
G02*
X172360000Y-82253750I0J-218750D01*
G01*
G37*
G36*
G01*
X172360000Y-79233750D02*
X172360000Y-79746250D01*
G75*
G02*
X172141250Y-79965000I-218750J0D01*
G01*
X171703750Y-79965000D01*
G75*
G02*
X171485000Y-79746250I0J218750D01*
G01*
X171485000Y-79233750D01*
G75*
G02*
X171703750Y-79015000I218750J0D01*
G01*
X172141250Y-79015000D01*
G75*
G02*
X172360000Y-79233750I0J-218750D01*
G01*
G37*
G36*
G01*
X173935000Y-79233750D02*
X173935000Y-79746250D01*
G75*
G02*
X173716250Y-79965000I-218750J0D01*
G01*
X173278750Y-79965000D01*
G75*
G02*
X173060000Y-79746250I0J218750D01*
G01*
X173060000Y-79233750D01*
G75*
G02*
X173278750Y-79015000I218750J0D01*
G01*
X173716250Y-79015000D01*
G75*
G02*
X173935000Y-79233750I0J-218750D01*
G01*
G37*
G36*
G01*
X163266250Y-77650000D02*
X162753750Y-77650000D01*
G75*
G02*
X162535000Y-77431250I0J218750D01*
G01*
X162535000Y-76993750D01*
G75*
G02*
X162753750Y-76775000I218750J0D01*
G01*
X163266250Y-76775000D01*
G75*
G02*
X163485000Y-76993750I0J-218750D01*
G01*
X163485000Y-77431250D01*
G75*
G02*
X163266250Y-77650000I-218750J0D01*
G01*
G37*
G36*
G01*
X163266250Y-79225000D02*
X162753750Y-79225000D01*
G75*
G02*
X162535000Y-79006250I0J218750D01*
G01*
X162535000Y-78568750D01*
G75*
G02*
X162753750Y-78350000I218750J0D01*
G01*
X163266250Y-78350000D01*
G75*
G02*
X163485000Y-78568750I0J-218750D01*
G01*
X163485000Y-79006250D01*
G75*
G02*
X163266250Y-79225000I-218750J0D01*
G01*
G37*
G36*
G01*
X162753750Y-82785000D02*
X163266250Y-82785000D01*
G75*
G02*
X163485000Y-83003750I0J-218750D01*
G01*
X163485000Y-83441250D01*
G75*
G02*
X163266250Y-83660000I-218750J0D01*
G01*
X162753750Y-83660000D01*
G75*
G02*
X162535000Y-83441250I0J218750D01*
G01*
X162535000Y-83003750D01*
G75*
G02*
X162753750Y-82785000I218750J0D01*
G01*
G37*
G36*
G01*
X162753750Y-84360000D02*
X163266250Y-84360000D01*
G75*
G02*
X163485000Y-84578750I0J-218750D01*
G01*
X163485000Y-85016250D01*
G75*
G02*
X163266250Y-85235000I-218750J0D01*
G01*
X162753750Y-85235000D01*
G75*
G02*
X162535000Y-85016250I0J218750D01*
G01*
X162535000Y-84578750D01*
G75*
G02*
X162753750Y-84360000I218750J0D01*
G01*
G37*
G36*
G01*
X171713750Y-85120000D02*
X172226250Y-85120000D01*
G75*
G02*
X172445000Y-85338750I0J-218750D01*
G01*
X172445000Y-85776250D01*
G75*
G02*
X172226250Y-85995000I-218750J0D01*
G01*
X171713750Y-85995000D01*
G75*
G02*
X171495000Y-85776250I0J218750D01*
G01*
X171495000Y-85338750D01*
G75*
G02*
X171713750Y-85120000I218750J0D01*
G01*
G37*
G36*
G01*
X171713750Y-83545000D02*
X172226250Y-83545000D01*
G75*
G02*
X172445000Y-83763750I0J-218750D01*
G01*
X172445000Y-84201250D01*
G75*
G02*
X172226250Y-84420000I-218750J0D01*
G01*
X171713750Y-84420000D01*
G75*
G02*
X171495000Y-84201250I0J218750D01*
G01*
X171495000Y-83763750D01*
G75*
G02*
X171713750Y-83545000I218750J0D01*
G01*
G37*
G36*
G01*
X172216250Y-76880000D02*
X171703750Y-76880000D01*
G75*
G02*
X171485000Y-76661250I0J218750D01*
G01*
X171485000Y-76223750D01*
G75*
G02*
X171703750Y-76005000I218750J0D01*
G01*
X172216250Y-76005000D01*
G75*
G02*
X172435000Y-76223750I0J-218750D01*
G01*
X172435000Y-76661250D01*
G75*
G02*
X172216250Y-76880000I-218750J0D01*
G01*
G37*
G36*
G01*
X172216250Y-78455000D02*
X171703750Y-78455000D01*
G75*
G02*
X171485000Y-78236250I0J218750D01*
G01*
X171485000Y-77798750D01*
G75*
G02*
X171703750Y-77580000I218750J0D01*
G01*
X172216250Y-77580000D01*
G75*
G02*
X172435000Y-77798750I0J-218750D01*
G01*
X172435000Y-78236250D01*
G75*
G02*
X172216250Y-78455000I-218750J0D01*
G01*
G37*
G36*
G01*
X110193750Y-76220000D02*
X110706250Y-76220000D01*
G75*
G02*
X110925000Y-76438750I0J-218750D01*
G01*
X110925000Y-76876250D01*
G75*
G02*
X110706250Y-77095000I-218750J0D01*
G01*
X110193750Y-77095000D01*
G75*
G02*
X109975000Y-76876250I0J218750D01*
G01*
X109975000Y-76438750D01*
G75*
G02*
X110193750Y-76220000I218750J0D01*
G01*
G37*
G36*
G01*
X110193750Y-74645000D02*
X110706250Y-74645000D01*
G75*
G02*
X110925000Y-74863750I0J-218750D01*
G01*
X110925000Y-75301250D01*
G75*
G02*
X110706250Y-75520000I-218750J0D01*
G01*
X110193750Y-75520000D01*
G75*
G02*
X109975000Y-75301250I0J218750D01*
G01*
X109975000Y-74863750D01*
G75*
G02*
X110193750Y-74645000I218750J0D01*
G01*
G37*
G36*
G01*
X112206250Y-75520000D02*
X111693750Y-75520000D01*
G75*
G02*
X111475000Y-75301250I0J218750D01*
G01*
X111475000Y-74863750D01*
G75*
G02*
X111693750Y-74645000I218750J0D01*
G01*
X112206250Y-74645000D01*
G75*
G02*
X112425000Y-74863750I0J-218750D01*
G01*
X112425000Y-75301250D01*
G75*
G02*
X112206250Y-75520000I-218750J0D01*
G01*
G37*
G36*
G01*
X112206250Y-77095000D02*
X111693750Y-77095000D01*
G75*
G02*
X111475000Y-76876250I0J218750D01*
G01*
X111475000Y-76438750D01*
G75*
G02*
X111693750Y-76220000I218750J0D01*
G01*
X112206250Y-76220000D01*
G75*
G02*
X112425000Y-76438750I0J-218750D01*
G01*
X112425000Y-76876250D01*
G75*
G02*
X112206250Y-77095000I-218750J0D01*
G01*
G37*
G36*
G01*
X111466250Y-87545000D02*
X110953750Y-87545000D01*
G75*
G02*
X110735000Y-87326250I0J218750D01*
G01*
X110735000Y-86888750D01*
G75*
G02*
X110953750Y-86670000I218750J0D01*
G01*
X111466250Y-86670000D01*
G75*
G02*
X111685000Y-86888750I0J-218750D01*
G01*
X111685000Y-87326250D01*
G75*
G02*
X111466250Y-87545000I-218750J0D01*
G01*
G37*
G36*
G01*
X111466250Y-85970000D02*
X110953750Y-85970000D01*
G75*
G02*
X110735000Y-85751250I0J218750D01*
G01*
X110735000Y-85313750D01*
G75*
G02*
X110953750Y-85095000I218750J0D01*
G01*
X111466250Y-85095000D01*
G75*
G02*
X111685000Y-85313750I0J-218750D01*
G01*
X111685000Y-85751250D01*
G75*
G02*
X111466250Y-85970000I-218750J0D01*
G01*
G37*
G36*
G01*
X108693750Y-76220000D02*
X109206250Y-76220000D01*
G75*
G02*
X109425000Y-76438750I0J-218750D01*
G01*
X109425000Y-76876250D01*
G75*
G02*
X109206250Y-77095000I-218750J0D01*
G01*
X108693750Y-77095000D01*
G75*
G02*
X108475000Y-76876250I0J218750D01*
G01*
X108475000Y-76438750D01*
G75*
G02*
X108693750Y-76220000I218750J0D01*
G01*
G37*
G36*
G01*
X108693750Y-74645000D02*
X109206250Y-74645000D01*
G75*
G02*
X109425000Y-74863750I0J-218750D01*
G01*
X109425000Y-75301250D01*
G75*
G02*
X109206250Y-75520000I-218750J0D01*
G01*
X108693750Y-75520000D01*
G75*
G02*
X108475000Y-75301250I0J218750D01*
G01*
X108475000Y-74863750D01*
G75*
G02*
X108693750Y-74645000I218750J0D01*
G01*
G37*
G36*
G01*
X108456250Y-85970000D02*
X107943750Y-85970000D01*
G75*
G02*
X107725000Y-85751250I0J218750D01*
G01*
X107725000Y-85313750D01*
G75*
G02*
X107943750Y-85095000I218750J0D01*
G01*
X108456250Y-85095000D01*
G75*
G02*
X108675000Y-85313750I0J-218750D01*
G01*
X108675000Y-85751250D01*
G75*
G02*
X108456250Y-85970000I-218750J0D01*
G01*
G37*
G36*
G01*
X108456250Y-87545000D02*
X107943750Y-87545000D01*
G75*
G02*
X107725000Y-87326250I0J218750D01*
G01*
X107725000Y-86888750D01*
G75*
G02*
X107943750Y-86670000I218750J0D01*
G01*
X108456250Y-86670000D01*
G75*
G02*
X108675000Y-86888750I0J-218750D01*
G01*
X108675000Y-87326250D01*
G75*
G02*
X108456250Y-87545000I-218750J0D01*
G01*
G37*
G36*
G01*
X112235000Y-85836250D02*
X112235000Y-85323750D01*
G75*
G02*
X112453750Y-85105000I218750J0D01*
G01*
X112891250Y-85105000D01*
G75*
G02*
X113110000Y-85323750I0J-218750D01*
G01*
X113110000Y-85836250D01*
G75*
G02*
X112891250Y-86055000I-218750J0D01*
G01*
X112453750Y-86055000D01*
G75*
G02*
X112235000Y-85836250I0J218750D01*
G01*
G37*
G36*
G01*
X113810000Y-85836250D02*
X113810000Y-85323750D01*
G75*
G02*
X114028750Y-85105000I218750J0D01*
G01*
X114466250Y-85105000D01*
G75*
G02*
X114685000Y-85323750I0J-218750D01*
G01*
X114685000Y-85836250D01*
G75*
G02*
X114466250Y-86055000I-218750J0D01*
G01*
X114028750Y-86055000D01*
G75*
G02*
X113810000Y-85836250I0J218750D01*
G01*
G37*
G36*
G01*
X107925000Y-76363750D02*
X107925000Y-76876250D01*
G75*
G02*
X107706250Y-77095000I-218750J0D01*
G01*
X107268750Y-77095000D01*
G75*
G02*
X107050000Y-76876250I0J218750D01*
G01*
X107050000Y-76363750D01*
G75*
G02*
X107268750Y-76145000I218750J0D01*
G01*
X107706250Y-76145000D01*
G75*
G02*
X107925000Y-76363750I0J-218750D01*
G01*
G37*
G36*
G01*
X106350000Y-76363750D02*
X106350000Y-76876250D01*
G75*
G02*
X106131250Y-77095000I-218750J0D01*
G01*
X105693750Y-77095000D01*
G75*
G02*
X105475000Y-76876250I0J218750D01*
G01*
X105475000Y-76363750D01*
G75*
G02*
X105693750Y-76145000I218750J0D01*
G01*
X106131250Y-76145000D01*
G75*
G02*
X106350000Y-76363750I0J-218750D01*
G01*
G37*
G36*
G01*
X107175000Y-85313750D02*
X107175000Y-85826250D01*
G75*
G02*
X106956250Y-86045000I-218750J0D01*
G01*
X106518750Y-86045000D01*
G75*
G02*
X106300000Y-85826250I0J218750D01*
G01*
X106300000Y-85313750D01*
G75*
G02*
X106518750Y-85095000I218750J0D01*
G01*
X106956250Y-85095000D01*
G75*
G02*
X107175000Y-85313750I0J-218750D01*
G01*
G37*
G36*
G01*
X105600000Y-85313750D02*
X105600000Y-85826250D01*
G75*
G02*
X105381250Y-86045000I-218750J0D01*
G01*
X104943750Y-86045000D01*
G75*
G02*
X104725000Y-85826250I0J218750D01*
G01*
X104725000Y-85313750D01*
G75*
G02*
X104943750Y-85095000I218750J0D01*
G01*
X105381250Y-85095000D01*
G75*
G02*
X105600000Y-85313750I0J-218750D01*
G01*
G37*
G36*
G01*
X177735000Y-100006250D02*
X177735000Y-99493750D01*
G75*
G02*
X177953750Y-99275000I218750J0D01*
G01*
X178391250Y-99275000D01*
G75*
G02*
X178610000Y-99493750I0J-218750D01*
G01*
X178610000Y-100006250D01*
G75*
G02*
X178391250Y-100225000I-218750J0D01*
G01*
X177953750Y-100225000D01*
G75*
G02*
X177735000Y-100006250I0J218750D01*
G01*
G37*
G36*
G01*
X179310000Y-100006250D02*
X179310000Y-99493750D01*
G75*
G02*
X179528750Y-99275000I218750J0D01*
G01*
X179966250Y-99275000D01*
G75*
G02*
X180185000Y-99493750I0J-218750D01*
G01*
X180185000Y-100006250D01*
G75*
G02*
X179966250Y-100225000I-218750J0D01*
G01*
X179528750Y-100225000D01*
G75*
G02*
X179310000Y-100006250I0J218750D01*
G01*
G37*
D10*
X124410000Y-77190000D03*
X124410000Y-78460000D03*
X124410000Y-79730000D03*
X124410000Y-81000000D03*
X124410000Y-82270000D03*
X124410000Y-83540000D03*
X124410000Y-84810000D03*
X129810000Y-84810000D03*
X129810000Y-83540000D03*
X129810000Y-82270000D03*
X129810000Y-81000000D03*
X129810000Y-79730000D03*
X129810000Y-78460000D03*
X129810000Y-77190000D03*
X144620000Y-77190000D03*
X144620000Y-78460000D03*
X144620000Y-79730000D03*
X144620000Y-81000000D03*
X144620000Y-82270000D03*
X144620000Y-83540000D03*
X144620000Y-84810000D03*
X150020000Y-84810000D03*
X150020000Y-83540000D03*
X150020000Y-82270000D03*
X150020000Y-81000000D03*
X150020000Y-79730000D03*
X150020000Y-78460000D03*
X150020000Y-77190000D03*
X170190000Y-77190000D03*
X170190000Y-78460000D03*
X170190000Y-79730000D03*
X170190000Y-81000000D03*
X170190000Y-82270000D03*
X170190000Y-83540000D03*
X170190000Y-84810000D03*
X164790000Y-84810000D03*
X164790000Y-83540000D03*
X164790000Y-82270000D03*
X164790000Y-81000000D03*
X164790000Y-79730000D03*
X164790000Y-78460000D03*
X164790000Y-77190000D03*
D11*
X113510000Y-83800000D03*
X112240000Y-83800000D03*
X110970000Y-83800000D03*
X109700000Y-83800000D03*
X108430000Y-83800000D03*
X107160000Y-83800000D03*
X105890000Y-83800000D03*
X105890000Y-78400000D03*
X107160000Y-78400000D03*
X108430000Y-78400000D03*
X109700000Y-78400000D03*
X110970000Y-78400000D03*
X112240000Y-78400000D03*
X113510000Y-78400000D03*
D12*
X143796860Y-98260921D03*
D13*
X143796860Y-104560921D03*
X146096860Y-104560921D03*
X141496860Y-104560921D03*
D14*
X174750000Y-95800000D03*
X174250000Y-95800000D03*
X173750000Y-95800000D03*
X173250000Y-95800000D03*
X172750000Y-95800000D03*
X172250000Y-95800000D03*
X171750000Y-95800000D03*
X171250000Y-95800000D03*
X170750000Y-95800000D03*
X170250000Y-95800000D03*
X169750000Y-95800000D03*
X169250000Y-95800000D03*
X168750000Y-95800000D03*
X168250000Y-95800000D03*
X167750000Y-95800000D03*
X167250000Y-95800000D03*
D15*
X165300000Y-97750000D03*
X165300000Y-98250000D03*
X165300000Y-98750000D03*
X165300000Y-99250000D03*
X165300000Y-99750000D03*
X165300000Y-100250000D03*
X165300000Y-100750000D03*
X165300000Y-101250000D03*
X165300000Y-101750000D03*
X165300000Y-102250000D03*
X165300000Y-102750000D03*
X165300000Y-103250000D03*
X165300000Y-103750000D03*
X165300000Y-104250000D03*
X165300000Y-104750000D03*
X165300000Y-105250000D03*
D14*
X167250000Y-107200000D03*
X167750000Y-107200000D03*
X168250000Y-107200000D03*
X168750000Y-107200000D03*
X169250000Y-107200000D03*
X169750000Y-107200000D03*
X170250000Y-107200000D03*
X170750000Y-107200000D03*
X171250000Y-107200000D03*
X171750000Y-107200000D03*
X172250000Y-107200000D03*
X172750000Y-107200000D03*
X173250000Y-107200000D03*
X173750000Y-107200000D03*
X174250000Y-107200000D03*
X174750000Y-107200000D03*
D15*
X176700000Y-105250000D03*
X176700000Y-104750000D03*
X176700000Y-104250000D03*
X176700000Y-103750000D03*
X176700000Y-103250000D03*
X176700000Y-102750000D03*
X176700000Y-102250000D03*
X176700000Y-101750000D03*
X176700000Y-101250000D03*
X176700000Y-100750000D03*
X176700000Y-100250000D03*
X176700000Y-99750000D03*
X176700000Y-99250000D03*
X176700000Y-98750000D03*
X176700000Y-98250000D03*
X176700000Y-97750000D03*
G36*
G01*
X183186250Y-94585000D02*
X182673750Y-94585000D01*
G75*
G02*
X182455000Y-94366250I0J218750D01*
G01*
X182455000Y-93928750D01*
G75*
G02*
X182673750Y-93710000I218750J0D01*
G01*
X183186250Y-93710000D01*
G75*
G02*
X183405000Y-93928750I0J-218750D01*
G01*
X183405000Y-94366250D01*
G75*
G02*
X183186250Y-94585000I-218750J0D01*
G01*
G37*
G36*
G01*
X183186250Y-93010000D02*
X182673750Y-93010000D01*
G75*
G02*
X182455000Y-92791250I0J218750D01*
G01*
X182455000Y-92353750D01*
G75*
G02*
X182673750Y-92135000I218750J0D01*
G01*
X183186250Y-92135000D01*
G75*
G02*
X183405000Y-92353750I0J-218750D01*
G01*
X183405000Y-92791250D01*
G75*
G02*
X183186250Y-93010000I-218750J0D01*
G01*
G37*
G36*
G01*
X185086250Y-93010000D02*
X184573750Y-93010000D01*
G75*
G02*
X184355000Y-92791250I0J218750D01*
G01*
X184355000Y-92353750D01*
G75*
G02*
X184573750Y-92135000I218750J0D01*
G01*
X185086250Y-92135000D01*
G75*
G02*
X185305000Y-92353750I0J-218750D01*
G01*
X185305000Y-92791250D01*
G75*
G02*
X185086250Y-93010000I-218750J0D01*
G01*
G37*
G36*
G01*
X185086250Y-94585000D02*
X184573750Y-94585000D01*
G75*
G02*
X184355000Y-94366250I0J218750D01*
G01*
X184355000Y-93928750D01*
G75*
G02*
X184573750Y-93710000I218750J0D01*
G01*
X185086250Y-93710000D01*
G75*
G02*
X185305000Y-93928750I0J-218750D01*
G01*
X185305000Y-94366250D01*
G75*
G02*
X185086250Y-94585000I-218750J0D01*
G01*
G37*
G36*
G01*
X183636250Y-88675000D02*
X183123750Y-88675000D01*
G75*
G02*
X182905000Y-88456250I0J218750D01*
G01*
X182905000Y-88018750D01*
G75*
G02*
X183123750Y-87800000I218750J0D01*
G01*
X183636250Y-87800000D01*
G75*
G02*
X183855000Y-88018750I0J-218750D01*
G01*
X183855000Y-88456250D01*
G75*
G02*
X183636250Y-88675000I-218750J0D01*
G01*
G37*
G36*
G01*
X183636250Y-87100000D02*
X183123750Y-87100000D01*
G75*
G02*
X182905000Y-86881250I0J218750D01*
G01*
X182905000Y-86443750D01*
G75*
G02*
X183123750Y-86225000I218750J0D01*
G01*
X183636250Y-86225000D01*
G75*
G02*
X183855000Y-86443750I0J-218750D01*
G01*
X183855000Y-86881250D01*
G75*
G02*
X183636250Y-87100000I-218750J0D01*
G01*
G37*
G36*
G01*
X183123750Y-80880000D02*
X183636250Y-80880000D01*
G75*
G02*
X183855000Y-81098750I0J-218750D01*
G01*
X183855000Y-81536250D01*
G75*
G02*
X183636250Y-81755000I-218750J0D01*
G01*
X183123750Y-81755000D01*
G75*
G02*
X182905000Y-81536250I0J218750D01*
G01*
X182905000Y-81098750D01*
G75*
G02*
X183123750Y-80880000I218750J0D01*
G01*
G37*
G36*
G01*
X183123750Y-79305000D02*
X183636250Y-79305000D01*
G75*
G02*
X183855000Y-79523750I0J-218750D01*
G01*
X183855000Y-79961250D01*
G75*
G02*
X183636250Y-80180000I-218750J0D01*
G01*
X183123750Y-80180000D01*
G75*
G02*
X182905000Y-79961250I0J218750D01*
G01*
X182905000Y-79523750D01*
G75*
G02*
X183123750Y-79305000I218750J0D01*
G01*
G37*
G36*
G01*
X155430000Y-141343750D02*
X155430000Y-141856250D01*
G75*
G02*
X155211250Y-142075000I-218750J0D01*
G01*
X154773750Y-142075000D01*
G75*
G02*
X154555000Y-141856250I0J218750D01*
G01*
X154555000Y-141343750D01*
G75*
G02*
X154773750Y-141125000I218750J0D01*
G01*
X155211250Y-141125000D01*
G75*
G02*
X155430000Y-141343750I0J-218750D01*
G01*
G37*
G36*
G01*
X157005000Y-141343750D02*
X157005000Y-141856250D01*
G75*
G02*
X156786250Y-142075000I-218750J0D01*
G01*
X156348750Y-142075000D01*
G75*
G02*
X156130000Y-141856250I0J218750D01*
G01*
X156130000Y-141343750D01*
G75*
G02*
X156348750Y-141125000I218750J0D01*
G01*
X156786250Y-141125000D01*
G75*
G02*
X157005000Y-141343750I0J-218750D01*
G01*
G37*
G36*
G01*
X163265000Y-141846250D02*
X163265000Y-141333750D01*
G75*
G02*
X163483750Y-141115000I218750J0D01*
G01*
X163921250Y-141115000D01*
G75*
G02*
X164140000Y-141333750I0J-218750D01*
G01*
X164140000Y-141846250D01*
G75*
G02*
X163921250Y-142065000I-218750J0D01*
G01*
X163483750Y-142065000D01*
G75*
G02*
X163265000Y-141846250I0J218750D01*
G01*
G37*
G36*
G01*
X164840000Y-141846250D02*
X164840000Y-141333750D01*
G75*
G02*
X165058750Y-141115000I218750J0D01*
G01*
X165496250Y-141115000D01*
G75*
G02*
X165715000Y-141333750I0J-218750D01*
G01*
X165715000Y-141846250D01*
G75*
G02*
X165496250Y-142065000I-218750J0D01*
G01*
X165058750Y-142065000D01*
G75*
G02*
X164840000Y-141846250I0J218750D01*
G01*
G37*
G36*
G01*
X179330000Y-98006250D02*
X179330000Y-97493750D01*
G75*
G02*
X179548750Y-97275000I218750J0D01*
G01*
X179986250Y-97275000D01*
G75*
G02*
X180205000Y-97493750I0J-218750D01*
G01*
X180205000Y-98006250D01*
G75*
G02*
X179986250Y-98225000I-218750J0D01*
G01*
X179548750Y-98225000D01*
G75*
G02*
X179330000Y-98006250I0J218750D01*
G01*
G37*
G36*
G01*
X177755000Y-98006250D02*
X177755000Y-97493750D01*
G75*
G02*
X177973750Y-97275000I218750J0D01*
G01*
X178411250Y-97275000D01*
G75*
G02*
X178630000Y-97493750I0J-218750D01*
G01*
X178630000Y-98006250D01*
G75*
G02*
X178411250Y-98225000I-218750J0D01*
G01*
X177973750Y-98225000D01*
G75*
G02*
X177755000Y-98006250I0J218750D01*
G01*
G37*
G36*
G01*
X175723750Y-108245000D02*
X176236250Y-108245000D01*
G75*
G02*
X176455000Y-108463750I0J-218750D01*
G01*
X176455000Y-108901250D01*
G75*
G02*
X176236250Y-109120000I-218750J0D01*
G01*
X175723750Y-109120000D01*
G75*
G02*
X175505000Y-108901250I0J218750D01*
G01*
X175505000Y-108463750D01*
G75*
G02*
X175723750Y-108245000I218750J0D01*
G01*
G37*
G36*
G01*
X175723750Y-109820000D02*
X176236250Y-109820000D01*
G75*
G02*
X176455000Y-110038750I0J-218750D01*
G01*
X176455000Y-110476250D01*
G75*
G02*
X176236250Y-110695000I-218750J0D01*
G01*
X175723750Y-110695000D01*
G75*
G02*
X175505000Y-110476250I0J218750D01*
G01*
X175505000Y-110038750D01*
G75*
G02*
X175723750Y-109820000I218750J0D01*
G01*
G37*
G36*
G01*
X169006250Y-92210000D02*
X168493750Y-92210000D01*
G75*
G02*
X168275000Y-91991250I0J218750D01*
G01*
X168275000Y-91553750D01*
G75*
G02*
X168493750Y-91335000I218750J0D01*
G01*
X169006250Y-91335000D01*
G75*
G02*
X169225000Y-91553750I0J-218750D01*
G01*
X169225000Y-91991250D01*
G75*
G02*
X169006250Y-92210000I-218750J0D01*
G01*
G37*
G36*
G01*
X169006250Y-93785000D02*
X168493750Y-93785000D01*
G75*
G02*
X168275000Y-93566250I0J218750D01*
G01*
X168275000Y-93128750D01*
G75*
G02*
X168493750Y-92910000I218750J0D01*
G01*
X169006250Y-92910000D01*
G75*
G02*
X169225000Y-93128750I0J-218750D01*
G01*
X169225000Y-93566250D01*
G75*
G02*
X169006250Y-93785000I-218750J0D01*
G01*
G37*
G36*
G01*
X177755000Y-96506250D02*
X177755000Y-95993750D01*
G75*
G02*
X177973750Y-95775000I218750J0D01*
G01*
X178411250Y-95775000D01*
G75*
G02*
X178630000Y-95993750I0J-218750D01*
G01*
X178630000Y-96506250D01*
G75*
G02*
X178411250Y-96725000I-218750J0D01*
G01*
X177973750Y-96725000D01*
G75*
G02*
X177755000Y-96506250I0J218750D01*
G01*
G37*
G36*
G01*
X179330000Y-96506250D02*
X179330000Y-95993750D01*
G75*
G02*
X179548750Y-95775000I218750J0D01*
G01*
X179986250Y-95775000D01*
G75*
G02*
X180205000Y-95993750I0J-218750D01*
G01*
X180205000Y-96506250D01*
G75*
G02*
X179986250Y-96725000I-218750J0D01*
G01*
X179548750Y-96725000D01*
G75*
G02*
X179330000Y-96506250I0J218750D01*
G01*
G37*
G36*
G01*
X164036250Y-97290000D02*
X163523750Y-97290000D01*
G75*
G02*
X163305000Y-97071250I0J218750D01*
G01*
X163305000Y-96633750D01*
G75*
G02*
X163523750Y-96415000I218750J0D01*
G01*
X164036250Y-96415000D01*
G75*
G02*
X164255000Y-96633750I0J-218750D01*
G01*
X164255000Y-97071250D01*
G75*
G02*
X164036250Y-97290000I-218750J0D01*
G01*
G37*
G36*
G01*
X164036250Y-98865000D02*
X163523750Y-98865000D01*
G75*
G02*
X163305000Y-98646250I0J218750D01*
G01*
X163305000Y-98208750D01*
G75*
G02*
X163523750Y-97990000I218750J0D01*
G01*
X164036250Y-97990000D01*
G75*
G02*
X164255000Y-98208750I0J-218750D01*
G01*
X164255000Y-98646250D01*
G75*
G02*
X164036250Y-98865000I-218750J0D01*
G01*
G37*
G36*
G01*
X163523750Y-105285000D02*
X164036250Y-105285000D01*
G75*
G02*
X164255000Y-105503750I0J-218750D01*
G01*
X164255000Y-105941250D01*
G75*
G02*
X164036250Y-106160000I-218750J0D01*
G01*
X163523750Y-106160000D01*
G75*
G02*
X163305000Y-105941250I0J218750D01*
G01*
X163305000Y-105503750D01*
G75*
G02*
X163523750Y-105285000I218750J0D01*
G01*
G37*
G36*
G01*
X163523750Y-106860000D02*
X164036250Y-106860000D01*
G75*
G02*
X164255000Y-107078750I0J-218750D01*
G01*
X164255000Y-107516250D01*
G75*
G02*
X164036250Y-107735000I-218750J0D01*
G01*
X163523750Y-107735000D01*
G75*
G02*
X163305000Y-107516250I0J218750D01*
G01*
X163305000Y-107078750D01*
G75*
G02*
X163523750Y-106860000I218750J0D01*
G01*
G37*
G36*
G01*
X192246250Y-126325000D02*
X191733750Y-126325000D01*
G75*
G02*
X191515000Y-126106250I0J218750D01*
G01*
X191515000Y-125668750D01*
G75*
G02*
X191733750Y-125450000I218750J0D01*
G01*
X192246250Y-125450000D01*
G75*
G02*
X192465000Y-125668750I0J-218750D01*
G01*
X192465000Y-126106250D01*
G75*
G02*
X192246250Y-126325000I-218750J0D01*
G01*
G37*
G36*
G01*
X192246250Y-124750000D02*
X191733750Y-124750000D01*
G75*
G02*
X191515000Y-124531250I0J218750D01*
G01*
X191515000Y-124093750D01*
G75*
G02*
X191733750Y-123875000I218750J0D01*
G01*
X192246250Y-123875000D01*
G75*
G02*
X192465000Y-124093750I0J-218750D01*
G01*
X192465000Y-124531250D01*
G75*
G02*
X192246250Y-124750000I-218750J0D01*
G01*
G37*
G36*
G01*
X191553750Y-126875000D02*
X192466250Y-126875000D01*
G75*
G02*
X192710000Y-127118750I0J-243750D01*
G01*
X192710000Y-127606250D01*
G75*
G02*
X192466250Y-127850000I-243750J0D01*
G01*
X191553750Y-127850000D01*
G75*
G02*
X191310000Y-127606250I0J243750D01*
G01*
X191310000Y-127118750D01*
G75*
G02*
X191553750Y-126875000I243750J0D01*
G01*
G37*
G36*
G01*
X191553750Y-128750000D02*
X192466250Y-128750000D01*
G75*
G02*
X192710000Y-128993750I0J-243750D01*
G01*
X192710000Y-129481250D01*
G75*
G02*
X192466250Y-129725000I-243750J0D01*
G01*
X191553750Y-129725000D01*
G75*
G02*
X191310000Y-129481250I0J243750D01*
G01*
X191310000Y-128993750D01*
G75*
G02*
X191553750Y-128750000I243750J0D01*
G01*
G37*
G36*
G01*
X147933750Y-102195000D02*
X148846250Y-102195000D01*
G75*
G02*
X149090000Y-102438750I0J-243750D01*
G01*
X149090000Y-102926250D01*
G75*
G02*
X148846250Y-103170000I-243750J0D01*
G01*
X147933750Y-103170000D01*
G75*
G02*
X147690000Y-102926250I0J243750D01*
G01*
X147690000Y-102438750D01*
G75*
G02*
X147933750Y-102195000I243750J0D01*
G01*
G37*
G36*
G01*
X147933750Y-104070000D02*
X148846250Y-104070000D01*
G75*
G02*
X149090000Y-104313750I0J-243750D01*
G01*
X149090000Y-104801250D01*
G75*
G02*
X148846250Y-105045000I-243750J0D01*
G01*
X147933750Y-105045000D01*
G75*
G02*
X147690000Y-104801250I0J243750D01*
G01*
X147690000Y-104313750D01*
G75*
G02*
X147933750Y-104070000I243750J0D01*
G01*
G37*
G36*
G01*
X147923750Y-99990000D02*
X148836250Y-99990000D01*
G75*
G02*
X149080000Y-100233750I0J-243750D01*
G01*
X149080000Y-100721250D01*
G75*
G02*
X148836250Y-100965000I-243750J0D01*
G01*
X147923750Y-100965000D01*
G75*
G02*
X147680000Y-100721250I0J243750D01*
G01*
X147680000Y-100233750D01*
G75*
G02*
X147923750Y-99990000I243750J0D01*
G01*
G37*
G36*
G01*
X147923750Y-98115000D02*
X148836250Y-98115000D01*
G75*
G02*
X149080000Y-98358750I0J-243750D01*
G01*
X149080000Y-98846250D01*
G75*
G02*
X148836250Y-99090000I-243750J0D01*
G01*
X147923750Y-99090000D01*
G75*
G02*
X147680000Y-98846250I0J243750D01*
G01*
X147680000Y-98358750D01*
G75*
G02*
X147923750Y-98115000I243750J0D01*
G01*
G37*
G36*
G01*
X125050000Y-73456250D02*
X125050000Y-72543750D01*
G75*
G02*
X125293750Y-72300000I243750J0D01*
G01*
X125781250Y-72300000D01*
G75*
G02*
X126025000Y-72543750I0J-243750D01*
G01*
X126025000Y-73456250D01*
G75*
G02*
X125781250Y-73700000I-243750J0D01*
G01*
X125293750Y-73700000D01*
G75*
G02*
X125050000Y-73456250I0J243750D01*
G01*
G37*
G36*
G01*
X123175000Y-73456250D02*
X123175000Y-72543750D01*
G75*
G02*
X123418750Y-72300000I243750J0D01*
G01*
X123906250Y-72300000D01*
G75*
G02*
X124150000Y-72543750I0J-243750D01*
G01*
X124150000Y-73456250D01*
G75*
G02*
X123906250Y-73700000I-243750J0D01*
G01*
X123418750Y-73700000D01*
G75*
G02*
X123175000Y-73456250I0J243750D01*
G01*
G37*
G36*
G01*
X118075000Y-73456250D02*
X118075000Y-72543750D01*
G75*
G02*
X118318750Y-72300000I243750J0D01*
G01*
X118806250Y-72300000D01*
G75*
G02*
X119050000Y-72543750I0J-243750D01*
G01*
X119050000Y-73456250D01*
G75*
G02*
X118806250Y-73700000I-243750J0D01*
G01*
X118318750Y-73700000D01*
G75*
G02*
X118075000Y-73456250I0J243750D01*
G01*
G37*
G36*
G01*
X119950000Y-73456250D02*
X119950000Y-72543750D01*
G75*
G02*
X120193750Y-72300000I243750J0D01*
G01*
X120681250Y-72300000D01*
G75*
G02*
X120925000Y-72543750I0J-243750D01*
G01*
X120925000Y-73456250D01*
G75*
G02*
X120681250Y-73700000I-243750J0D01*
G01*
X120193750Y-73700000D01*
G75*
G02*
X119950000Y-73456250I0J243750D01*
G01*
G37*
G36*
G01*
X133375000Y-73456250D02*
X133375000Y-72543750D01*
G75*
G02*
X133618750Y-72300000I243750J0D01*
G01*
X134106250Y-72300000D01*
G75*
G02*
X134350000Y-72543750I0J-243750D01*
G01*
X134350000Y-73456250D01*
G75*
G02*
X134106250Y-73700000I-243750J0D01*
G01*
X133618750Y-73700000D01*
G75*
G02*
X133375000Y-73456250I0J243750D01*
G01*
G37*
G36*
G01*
X135250000Y-73456250D02*
X135250000Y-72543750D01*
G75*
G02*
X135493750Y-72300000I243750J0D01*
G01*
X135981250Y-72300000D01*
G75*
G02*
X136225000Y-72543750I0J-243750D01*
G01*
X136225000Y-73456250D01*
G75*
G02*
X135981250Y-73700000I-243750J0D01*
G01*
X135493750Y-73700000D01*
G75*
G02*
X135250000Y-73456250I0J243750D01*
G01*
G37*
G36*
G01*
X130150000Y-73456250D02*
X130150000Y-72543750D01*
G75*
G02*
X130393750Y-72300000I243750J0D01*
G01*
X130881250Y-72300000D01*
G75*
G02*
X131125000Y-72543750I0J-243750D01*
G01*
X131125000Y-73456250D01*
G75*
G02*
X130881250Y-73700000I-243750J0D01*
G01*
X130393750Y-73700000D01*
G75*
G02*
X130150000Y-73456250I0J243750D01*
G01*
G37*
G36*
G01*
X128275000Y-73456250D02*
X128275000Y-72543750D01*
G75*
G02*
X128518750Y-72300000I243750J0D01*
G01*
X129006250Y-72300000D01*
G75*
G02*
X129250000Y-72543750I0J-243750D01*
G01*
X129250000Y-73456250D01*
G75*
G02*
X129006250Y-73700000I-243750J0D01*
G01*
X128518750Y-73700000D01*
G75*
G02*
X128275000Y-73456250I0J243750D01*
G01*
G37*
G36*
G01*
X153675000Y-73456250D02*
X153675000Y-72543750D01*
G75*
G02*
X153918750Y-72300000I243750J0D01*
G01*
X154406250Y-72300000D01*
G75*
G02*
X154650000Y-72543750I0J-243750D01*
G01*
X154650000Y-73456250D01*
G75*
G02*
X154406250Y-73700000I-243750J0D01*
G01*
X153918750Y-73700000D01*
G75*
G02*
X153675000Y-73456250I0J243750D01*
G01*
G37*
G36*
G01*
X155550000Y-73456250D02*
X155550000Y-72543750D01*
G75*
G02*
X155793750Y-72300000I243750J0D01*
G01*
X156281250Y-72300000D01*
G75*
G02*
X156525000Y-72543750I0J-243750D01*
G01*
X156525000Y-73456250D01*
G75*
G02*
X156281250Y-73700000I-243750J0D01*
G01*
X155793750Y-73700000D01*
G75*
G02*
X155550000Y-73456250I0J243750D01*
G01*
G37*
G36*
G01*
X148575000Y-73456250D02*
X148575000Y-72543750D01*
G75*
G02*
X148818750Y-72300000I243750J0D01*
G01*
X149306250Y-72300000D01*
G75*
G02*
X149550000Y-72543750I0J-243750D01*
G01*
X149550000Y-73456250D01*
G75*
G02*
X149306250Y-73700000I-243750J0D01*
G01*
X148818750Y-73700000D01*
G75*
G02*
X148575000Y-73456250I0J243750D01*
G01*
G37*
G36*
G01*
X150450000Y-73456250D02*
X150450000Y-72543750D01*
G75*
G02*
X150693750Y-72300000I243750J0D01*
G01*
X151181250Y-72300000D01*
G75*
G02*
X151425000Y-72543750I0J-243750D01*
G01*
X151425000Y-73456250D01*
G75*
G02*
X151181250Y-73700000I-243750J0D01*
G01*
X150693750Y-73700000D01*
G75*
G02*
X150450000Y-73456250I0J243750D01*
G01*
G37*
G36*
G01*
X145350000Y-73456250D02*
X145350000Y-72543750D01*
G75*
G02*
X145593750Y-72300000I243750J0D01*
G01*
X146081250Y-72300000D01*
G75*
G02*
X146325000Y-72543750I0J-243750D01*
G01*
X146325000Y-73456250D01*
G75*
G02*
X146081250Y-73700000I-243750J0D01*
G01*
X145593750Y-73700000D01*
G75*
G02*
X145350000Y-73456250I0J243750D01*
G01*
G37*
G36*
G01*
X143475000Y-73456250D02*
X143475000Y-72543750D01*
G75*
G02*
X143718750Y-72300000I243750J0D01*
G01*
X144206250Y-72300000D01*
G75*
G02*
X144450000Y-72543750I0J-243750D01*
G01*
X144450000Y-73456250D01*
G75*
G02*
X144206250Y-73700000I-243750J0D01*
G01*
X143718750Y-73700000D01*
G75*
G02*
X143475000Y-73456250I0J243750D01*
G01*
G37*
G36*
G01*
X138375000Y-73456250D02*
X138375000Y-72543750D01*
G75*
G02*
X138618750Y-72300000I243750J0D01*
G01*
X139106250Y-72300000D01*
G75*
G02*
X139350000Y-72543750I0J-243750D01*
G01*
X139350000Y-73456250D01*
G75*
G02*
X139106250Y-73700000I-243750J0D01*
G01*
X138618750Y-73700000D01*
G75*
G02*
X138375000Y-73456250I0J243750D01*
G01*
G37*
G36*
G01*
X140250000Y-73456250D02*
X140250000Y-72543750D01*
G75*
G02*
X140493750Y-72300000I243750J0D01*
G01*
X140981250Y-72300000D01*
G75*
G02*
X141225000Y-72543750I0J-243750D01*
G01*
X141225000Y-73456250D01*
G75*
G02*
X140981250Y-73700000I-243750J0D01*
G01*
X140493750Y-73700000D01*
G75*
G02*
X140250000Y-73456250I0J243750D01*
G01*
G37*
G36*
G01*
X165650000Y-73456250D02*
X165650000Y-72543750D01*
G75*
G02*
X165893750Y-72300000I243750J0D01*
G01*
X166381250Y-72300000D01*
G75*
G02*
X166625000Y-72543750I0J-243750D01*
G01*
X166625000Y-73456250D01*
G75*
G02*
X166381250Y-73700000I-243750J0D01*
G01*
X165893750Y-73700000D01*
G75*
G02*
X165650000Y-73456250I0J243750D01*
G01*
G37*
G36*
G01*
X163775000Y-73456250D02*
X163775000Y-72543750D01*
G75*
G02*
X164018750Y-72300000I243750J0D01*
G01*
X164506250Y-72300000D01*
G75*
G02*
X164750000Y-72543750I0J-243750D01*
G01*
X164750000Y-73456250D01*
G75*
G02*
X164506250Y-73700000I-243750J0D01*
G01*
X164018750Y-73700000D01*
G75*
G02*
X163775000Y-73456250I0J243750D01*
G01*
G37*
G36*
G01*
X158775000Y-73456250D02*
X158775000Y-72543750D01*
G75*
G02*
X159018750Y-72300000I243750J0D01*
G01*
X159506250Y-72300000D01*
G75*
G02*
X159750000Y-72543750I0J-243750D01*
G01*
X159750000Y-73456250D01*
G75*
G02*
X159506250Y-73700000I-243750J0D01*
G01*
X159018750Y-73700000D01*
G75*
G02*
X158775000Y-73456250I0J243750D01*
G01*
G37*
G36*
G01*
X160650000Y-73456250D02*
X160650000Y-72543750D01*
G75*
G02*
X160893750Y-72300000I243750J0D01*
G01*
X161381250Y-72300000D01*
G75*
G02*
X161625000Y-72543750I0J-243750D01*
G01*
X161625000Y-73456250D01*
G75*
G02*
X161381250Y-73700000I-243750J0D01*
G01*
X160893750Y-73700000D01*
G75*
G02*
X160650000Y-73456250I0J243750D01*
G01*
G37*
G36*
G01*
X173975000Y-73456250D02*
X173975000Y-72543750D01*
G75*
G02*
X174218750Y-72300000I243750J0D01*
G01*
X174706250Y-72300000D01*
G75*
G02*
X174950000Y-72543750I0J-243750D01*
G01*
X174950000Y-73456250D01*
G75*
G02*
X174706250Y-73700000I-243750J0D01*
G01*
X174218750Y-73700000D01*
G75*
G02*
X173975000Y-73456250I0J243750D01*
G01*
G37*
G36*
G01*
X175850000Y-73456250D02*
X175850000Y-72543750D01*
G75*
G02*
X176093750Y-72300000I243750J0D01*
G01*
X176581250Y-72300000D01*
G75*
G02*
X176825000Y-72543750I0J-243750D01*
G01*
X176825000Y-73456250D01*
G75*
G02*
X176581250Y-73700000I-243750J0D01*
G01*
X176093750Y-73700000D01*
G75*
G02*
X175850000Y-73456250I0J243750D01*
G01*
G37*
G36*
G01*
X170750000Y-73456250D02*
X170750000Y-72543750D01*
G75*
G02*
X170993750Y-72300000I243750J0D01*
G01*
X171481250Y-72300000D01*
G75*
G02*
X171725000Y-72543750I0J-243750D01*
G01*
X171725000Y-73456250D01*
G75*
G02*
X171481250Y-73700000I-243750J0D01*
G01*
X170993750Y-73700000D01*
G75*
G02*
X170750000Y-73456250I0J243750D01*
G01*
G37*
G36*
G01*
X168875000Y-73456250D02*
X168875000Y-72543750D01*
G75*
G02*
X169118750Y-72300000I243750J0D01*
G01*
X169606250Y-72300000D01*
G75*
G02*
X169850000Y-72543750I0J-243750D01*
G01*
X169850000Y-73456250D01*
G75*
G02*
X169606250Y-73700000I-243750J0D01*
G01*
X169118750Y-73700000D01*
G75*
G02*
X168875000Y-73456250I0J243750D01*
G01*
G37*
G36*
G01*
X104036250Y-134440000D02*
X103123750Y-134440000D01*
G75*
G02*
X102880000Y-134196250I0J243750D01*
G01*
X102880000Y-133708750D01*
G75*
G02*
X103123750Y-133465000I243750J0D01*
G01*
X104036250Y-133465000D01*
G75*
G02*
X104280000Y-133708750I0J-243750D01*
G01*
X104280000Y-134196250D01*
G75*
G02*
X104036250Y-134440000I-243750J0D01*
G01*
G37*
G36*
G01*
X104036250Y-136315000D02*
X103123750Y-136315000D01*
G75*
G02*
X102880000Y-136071250I0J243750D01*
G01*
X102880000Y-135583750D01*
G75*
G02*
X103123750Y-135340000I243750J0D01*
G01*
X104036250Y-135340000D01*
G75*
G02*
X104280000Y-135583750I0J-243750D01*
G01*
X104280000Y-136071250D01*
G75*
G02*
X104036250Y-136315000I-243750J0D01*
G01*
G37*
G36*
G01*
X104036250Y-117340000D02*
X103123750Y-117340000D01*
G75*
G02*
X102880000Y-117096250I0J243750D01*
G01*
X102880000Y-116608750D01*
G75*
G02*
X103123750Y-116365000I243750J0D01*
G01*
X104036250Y-116365000D01*
G75*
G02*
X104280000Y-116608750I0J-243750D01*
G01*
X104280000Y-117096250D01*
G75*
G02*
X104036250Y-117340000I-243750J0D01*
G01*
G37*
G36*
G01*
X104036250Y-119215000D02*
X103123750Y-119215000D01*
G75*
G02*
X102880000Y-118971250I0J243750D01*
G01*
X102880000Y-118483750D01*
G75*
G02*
X103123750Y-118240000I243750J0D01*
G01*
X104036250Y-118240000D01*
G75*
G02*
X104280000Y-118483750I0J-243750D01*
G01*
X104280000Y-118971250D01*
G75*
G02*
X104036250Y-119215000I-243750J0D01*
G01*
G37*
G36*
G01*
X104036250Y-102115000D02*
X103123750Y-102115000D01*
G75*
G02*
X102880000Y-101871250I0J243750D01*
G01*
X102880000Y-101383750D01*
G75*
G02*
X103123750Y-101140000I243750J0D01*
G01*
X104036250Y-101140000D01*
G75*
G02*
X104280000Y-101383750I0J-243750D01*
G01*
X104280000Y-101871250D01*
G75*
G02*
X104036250Y-102115000I-243750J0D01*
G01*
G37*
G36*
G01*
X104036250Y-100240000D02*
X103123750Y-100240000D01*
G75*
G02*
X102880000Y-99996250I0J243750D01*
G01*
X102880000Y-99508750D01*
G75*
G02*
X103123750Y-99265000I243750J0D01*
G01*
X104036250Y-99265000D01*
G75*
G02*
X104280000Y-99508750I0J-243750D01*
G01*
X104280000Y-99996250D01*
G75*
G02*
X104036250Y-100240000I-243750J0D01*
G01*
G37*
G36*
G01*
X115216250Y-75520000D02*
X114703750Y-75520000D01*
G75*
G02*
X114485000Y-75301250I0J218750D01*
G01*
X114485000Y-74863750D01*
G75*
G02*
X114703750Y-74645000I218750J0D01*
G01*
X115216250Y-74645000D01*
G75*
G02*
X115435000Y-74863750I0J-218750D01*
G01*
X115435000Y-75301250D01*
G75*
G02*
X115216250Y-75520000I-218750J0D01*
G01*
G37*
G36*
G01*
X115216250Y-77095000D02*
X114703750Y-77095000D01*
G75*
G02*
X114485000Y-76876250I0J218750D01*
G01*
X114485000Y-76438750D01*
G75*
G02*
X114703750Y-76220000I218750J0D01*
G01*
X115216250Y-76220000D01*
G75*
G02*
X115435000Y-76438750I0J-218750D01*
G01*
X115435000Y-76876250D01*
G75*
G02*
X115216250Y-77095000I-218750J0D01*
G01*
G37*
G36*
G01*
X128345000Y-75333750D02*
X128345000Y-75846250D01*
G75*
G02*
X128126250Y-76065000I-218750J0D01*
G01*
X127688750Y-76065000D01*
G75*
G02*
X127470000Y-75846250I0J218750D01*
G01*
X127470000Y-75333750D01*
G75*
G02*
X127688750Y-75115000I218750J0D01*
G01*
X128126250Y-75115000D01*
G75*
G02*
X128345000Y-75333750I0J-218750D01*
G01*
G37*
G36*
G01*
X126770000Y-75333750D02*
X126770000Y-75846250D01*
G75*
G02*
X126551250Y-76065000I-218750J0D01*
G01*
X126113750Y-76065000D01*
G75*
G02*
X125895000Y-75846250I0J218750D01*
G01*
X125895000Y-75333750D01*
G75*
G02*
X126113750Y-75115000I218750J0D01*
G01*
X126551250Y-75115000D01*
G75*
G02*
X126770000Y-75333750I0J-218750D01*
G01*
G37*
G36*
G01*
X146970000Y-75323750D02*
X146970000Y-75836250D01*
G75*
G02*
X146751250Y-76055000I-218750J0D01*
G01*
X146313750Y-76055000D01*
G75*
G02*
X146095000Y-75836250I0J218750D01*
G01*
X146095000Y-75323750D01*
G75*
G02*
X146313750Y-75105000I218750J0D01*
G01*
X146751250Y-75105000D01*
G75*
G02*
X146970000Y-75323750I0J-218750D01*
G01*
G37*
G36*
G01*
X148545000Y-75323750D02*
X148545000Y-75836250D01*
G75*
G02*
X148326250Y-76055000I-218750J0D01*
G01*
X147888750Y-76055000D01*
G75*
G02*
X147670000Y-75836250I0J218750D01*
G01*
X147670000Y-75323750D01*
G75*
G02*
X147888750Y-75105000I218750J0D01*
G01*
X148326250Y-75105000D01*
G75*
G02*
X148545000Y-75323750I0J-218750D01*
G01*
G37*
G36*
G01*
X168705000Y-75323750D02*
X168705000Y-75836250D01*
G75*
G02*
X168486250Y-76055000I-218750J0D01*
G01*
X168048750Y-76055000D01*
G75*
G02*
X167830000Y-75836250I0J218750D01*
G01*
X167830000Y-75323750D01*
G75*
G02*
X168048750Y-75105000I218750J0D01*
G01*
X168486250Y-75105000D01*
G75*
G02*
X168705000Y-75323750I0J-218750D01*
G01*
G37*
G36*
G01*
X167130000Y-75323750D02*
X167130000Y-75836250D01*
G75*
G02*
X166911250Y-76055000I-218750J0D01*
G01*
X166473750Y-76055000D01*
G75*
G02*
X166255000Y-75836250I0J218750D01*
G01*
X166255000Y-75323750D01*
G75*
G02*
X166473750Y-75105000I218750J0D01*
G01*
X166911250Y-75105000D01*
G75*
G02*
X167130000Y-75323750I0J-218750D01*
G01*
G37*
D16*
X180000000Y-79740000D03*
X180000000Y-88240000D03*
G36*
G01*
X173313750Y-91190000D02*
X173826250Y-91190000D01*
G75*
G02*
X174045000Y-91408750I0J-218750D01*
G01*
X174045000Y-91846250D01*
G75*
G02*
X173826250Y-92065000I-218750J0D01*
G01*
X173313750Y-92065000D01*
G75*
G02*
X173095000Y-91846250I0J218750D01*
G01*
X173095000Y-91408750D01*
G75*
G02*
X173313750Y-91190000I218750J0D01*
G01*
G37*
G36*
G01*
X173313750Y-89615000D02*
X173826250Y-89615000D01*
G75*
G02*
X174045000Y-89833750I0J-218750D01*
G01*
X174045000Y-90271250D01*
G75*
G02*
X173826250Y-90490000I-218750J0D01*
G01*
X173313750Y-90490000D01*
G75*
G02*
X173095000Y-90271250I0J218750D01*
G01*
X173095000Y-89833750D01*
G75*
G02*
X173313750Y-89615000I218750J0D01*
G01*
G37*
G36*
G01*
X178640000Y-92983750D02*
X178640000Y-93496250D01*
G75*
G02*
X178421250Y-93715000I-218750J0D01*
G01*
X177983750Y-93715000D01*
G75*
G02*
X177765000Y-93496250I0J218750D01*
G01*
X177765000Y-92983750D01*
G75*
G02*
X177983750Y-92765000I218750J0D01*
G01*
X178421250Y-92765000D01*
G75*
G02*
X178640000Y-92983750I0J-218750D01*
G01*
G37*
G36*
G01*
X180215000Y-92983750D02*
X180215000Y-93496250D01*
G75*
G02*
X179996250Y-93715000I-218750J0D01*
G01*
X179558750Y-93715000D01*
G75*
G02*
X179340000Y-93496250I0J218750D01*
G01*
X179340000Y-92983750D01*
G75*
G02*
X179558750Y-92765000I218750J0D01*
G01*
X179996250Y-92765000D01*
G75*
G02*
X180215000Y-92983750I0J-218750D01*
G01*
G37*
G36*
G01*
X167516250Y-92305000D02*
X167003750Y-92305000D01*
G75*
G02*
X166785000Y-92086250I0J218750D01*
G01*
X166785000Y-91648750D01*
G75*
G02*
X167003750Y-91430000I218750J0D01*
G01*
X167516250Y-91430000D01*
G75*
G02*
X167735000Y-91648750I0J-218750D01*
G01*
X167735000Y-92086250D01*
G75*
G02*
X167516250Y-92305000I-218750J0D01*
G01*
G37*
G36*
G01*
X167516250Y-90730000D02*
X167003750Y-90730000D01*
G75*
G02*
X166785000Y-90511250I0J218750D01*
G01*
X166785000Y-90073750D01*
G75*
G02*
X167003750Y-89855000I218750J0D01*
G01*
X167516250Y-89855000D01*
G75*
G02*
X167735000Y-90073750I0J-218750D01*
G01*
X167735000Y-90511250D01*
G75*
G02*
X167516250Y-90730000I-218750J0D01*
G01*
G37*
D17*
X161100000Y-136730000D03*
X160150000Y-136730000D03*
X159200000Y-136730000D03*
X159200000Y-138930000D03*
X161100000Y-138930000D03*
X160150000Y-138930000D03*
G36*
G01*
X160593750Y-119920000D02*
X161506250Y-119920000D01*
G75*
G02*
X161750000Y-120163750I0J-243750D01*
G01*
X161750000Y-120651250D01*
G75*
G02*
X161506250Y-120895000I-243750J0D01*
G01*
X160593750Y-120895000D01*
G75*
G02*
X160350000Y-120651250I0J243750D01*
G01*
X160350000Y-120163750D01*
G75*
G02*
X160593750Y-119920000I243750J0D01*
G01*
G37*
G36*
G01*
X160593750Y-118045000D02*
X161506250Y-118045000D01*
G75*
G02*
X161750000Y-118288750I0J-243750D01*
G01*
X161750000Y-118776250D01*
G75*
G02*
X161506250Y-119020000I-243750J0D01*
G01*
X160593750Y-119020000D01*
G75*
G02*
X160350000Y-118776250I0J243750D01*
G01*
X160350000Y-118288750D01*
G75*
G02*
X160593750Y-118045000I243750J0D01*
G01*
G37*
G36*
G01*
X162643750Y-118045000D02*
X163556250Y-118045000D01*
G75*
G02*
X163800000Y-118288750I0J-243750D01*
G01*
X163800000Y-118776250D01*
G75*
G02*
X163556250Y-119020000I-243750J0D01*
G01*
X162643750Y-119020000D01*
G75*
G02*
X162400000Y-118776250I0J243750D01*
G01*
X162400000Y-118288750D01*
G75*
G02*
X162643750Y-118045000I243750J0D01*
G01*
G37*
G36*
G01*
X162643750Y-119920000D02*
X163556250Y-119920000D01*
G75*
G02*
X163800000Y-120163750I0J-243750D01*
G01*
X163800000Y-120651250D01*
G75*
G02*
X163556250Y-120895000I-243750J0D01*
G01*
X162643750Y-120895000D01*
G75*
G02*
X162400000Y-120651250I0J243750D01*
G01*
X162400000Y-120163750D01*
G75*
G02*
X162643750Y-119920000I243750J0D01*
G01*
G37*
G36*
G01*
X133675000Y-139235000D02*
X132425000Y-139235000D01*
G75*
G02*
X132175000Y-138985000I0J250000D01*
G01*
X132175000Y-138235000D01*
G75*
G02*
X132425000Y-137985000I250000J0D01*
G01*
X133675000Y-137985000D01*
G75*
G02*
X133925000Y-138235000I0J-250000D01*
G01*
X133925000Y-138985000D01*
G75*
G02*
X133675000Y-139235000I-250000J0D01*
G01*
G37*
G36*
G01*
X133675000Y-142035000D02*
X132425000Y-142035000D01*
G75*
G02*
X132175000Y-141785000I0J250000D01*
G01*
X132175000Y-141035000D01*
G75*
G02*
X132425000Y-140785000I250000J0D01*
G01*
X133675000Y-140785000D01*
G75*
G02*
X133925000Y-141035000I0J-250000D01*
G01*
X133925000Y-141785000D01*
G75*
G02*
X133675000Y-142035000I-250000J0D01*
G01*
G37*
G36*
G01*
X138785000Y-142025000D02*
X137535000Y-142025000D01*
G75*
G02*
X137285000Y-141775000I0J250000D01*
G01*
X137285000Y-141025000D01*
G75*
G02*
X137535000Y-140775000I250000J0D01*
G01*
X138785000Y-140775000D01*
G75*
G02*
X139035000Y-141025000I0J-250000D01*
G01*
X139035000Y-141775000D01*
G75*
G02*
X138785000Y-142025000I-250000J0D01*
G01*
G37*
G36*
G01*
X138785000Y-139225000D02*
X137535000Y-139225000D01*
G75*
G02*
X137285000Y-138975000I0J250000D01*
G01*
X137285000Y-138225000D01*
G75*
G02*
X137535000Y-137975000I250000J0D01*
G01*
X138785000Y-137975000D01*
G75*
G02*
X139035000Y-138225000I0J-250000D01*
G01*
X139035000Y-138975000D01*
G75*
G02*
X138785000Y-139225000I-250000J0D01*
G01*
G37*
G36*
G01*
X143835000Y-142005000D02*
X142585000Y-142005000D01*
G75*
G02*
X142335000Y-141755000I0J250000D01*
G01*
X142335000Y-141005000D01*
G75*
G02*
X142585000Y-140755000I250000J0D01*
G01*
X143835000Y-140755000D01*
G75*
G02*
X144085000Y-141005000I0J-250000D01*
G01*
X144085000Y-141755000D01*
G75*
G02*
X143835000Y-142005000I-250000J0D01*
G01*
G37*
G36*
G01*
X143835000Y-139205000D02*
X142585000Y-139205000D01*
G75*
G02*
X142335000Y-138955000I0J250000D01*
G01*
X142335000Y-138205000D01*
G75*
G02*
X142585000Y-137955000I250000J0D01*
G01*
X143835000Y-137955000D01*
G75*
G02*
X144085000Y-138205000I0J-250000D01*
G01*
X144085000Y-138955000D01*
G75*
G02*
X143835000Y-139205000I-250000J0D01*
G01*
G37*
G36*
G01*
X166956250Y-148650000D02*
X166443750Y-148650000D01*
G75*
G02*
X166225000Y-148431250I0J218750D01*
G01*
X166225000Y-147993750D01*
G75*
G02*
X166443750Y-147775000I218750J0D01*
G01*
X166956250Y-147775000D01*
G75*
G02*
X167175000Y-147993750I0J-218750D01*
G01*
X167175000Y-148431250D01*
G75*
G02*
X166956250Y-148650000I-218750J0D01*
G01*
G37*
G36*
G01*
X166956250Y-150225000D02*
X166443750Y-150225000D01*
G75*
G02*
X166225000Y-150006250I0J218750D01*
G01*
X166225000Y-149568750D01*
G75*
G02*
X166443750Y-149350000I218750J0D01*
G01*
X166956250Y-149350000D01*
G75*
G02*
X167175000Y-149568750I0J-218750D01*
G01*
X167175000Y-150006250D01*
G75*
G02*
X166956250Y-150225000I-218750J0D01*
G01*
G37*
G36*
G01*
X168496250Y-150225000D02*
X167983750Y-150225000D01*
G75*
G02*
X167765000Y-150006250I0J218750D01*
G01*
X167765000Y-149568750D01*
G75*
G02*
X167983750Y-149350000I218750J0D01*
G01*
X168496250Y-149350000D01*
G75*
G02*
X168715000Y-149568750I0J-218750D01*
G01*
X168715000Y-150006250D01*
G75*
G02*
X168496250Y-150225000I-218750J0D01*
G01*
G37*
G36*
G01*
X168496250Y-148650000D02*
X167983750Y-148650000D01*
G75*
G02*
X167765000Y-148431250I0J218750D01*
G01*
X167765000Y-147993750D01*
G75*
G02*
X167983750Y-147775000I218750J0D01*
G01*
X168496250Y-147775000D01*
G75*
G02*
X168715000Y-147993750I0J-218750D01*
G01*
X168715000Y-148431250D01*
G75*
G02*
X168496250Y-148650000I-218750J0D01*
G01*
G37*
G36*
G01*
X166463750Y-136615000D02*
X166976250Y-136615000D01*
G75*
G02*
X167195000Y-136833750I0J-218750D01*
G01*
X167195000Y-137271250D01*
G75*
G02*
X166976250Y-137490000I-218750J0D01*
G01*
X166463750Y-137490000D01*
G75*
G02*
X166245000Y-137271250I0J218750D01*
G01*
X166245000Y-136833750D01*
G75*
G02*
X166463750Y-136615000I218750J0D01*
G01*
G37*
G36*
G01*
X166463750Y-138190000D02*
X166976250Y-138190000D01*
G75*
G02*
X167195000Y-138408750I0J-218750D01*
G01*
X167195000Y-138846250D01*
G75*
G02*
X166976250Y-139065000I-218750J0D01*
G01*
X166463750Y-139065000D01*
G75*
G02*
X166245000Y-138846250I0J218750D01*
G01*
X166245000Y-138408750D01*
G75*
G02*
X166463750Y-138190000I218750J0D01*
G01*
G37*
G36*
G01*
X167983750Y-138190000D02*
X168496250Y-138190000D01*
G75*
G02*
X168715000Y-138408750I0J-218750D01*
G01*
X168715000Y-138846250D01*
G75*
G02*
X168496250Y-139065000I-218750J0D01*
G01*
X167983750Y-139065000D01*
G75*
G02*
X167765000Y-138846250I0J218750D01*
G01*
X167765000Y-138408750D01*
G75*
G02*
X167983750Y-138190000I218750J0D01*
G01*
G37*
G36*
G01*
X167983750Y-136615000D02*
X168496250Y-136615000D01*
G75*
G02*
X168715000Y-136833750I0J-218750D01*
G01*
X168715000Y-137271250D01*
G75*
G02*
X168496250Y-137490000I-218750J0D01*
G01*
X167983750Y-137490000D01*
G75*
G02*
X167765000Y-137271250I0J218750D01*
G01*
X167765000Y-136833750D01*
G75*
G02*
X167983750Y-136615000I218750J0D01*
G01*
G37*
G36*
G01*
X163486250Y-139055000D02*
X162973750Y-139055000D01*
G75*
G02*
X162755000Y-138836250I0J218750D01*
G01*
X162755000Y-138398750D01*
G75*
G02*
X162973750Y-138180000I218750J0D01*
G01*
X163486250Y-138180000D01*
G75*
G02*
X163705000Y-138398750I0J-218750D01*
G01*
X163705000Y-138836250D01*
G75*
G02*
X163486250Y-139055000I-218750J0D01*
G01*
G37*
G36*
G01*
X163486250Y-137480000D02*
X162973750Y-137480000D01*
G75*
G02*
X162755000Y-137261250I0J218750D01*
G01*
X162755000Y-136823750D01*
G75*
G02*
X162973750Y-136605000I218750J0D01*
G01*
X163486250Y-136605000D01*
G75*
G02*
X163705000Y-136823750I0J-218750D01*
G01*
X163705000Y-137261250D01*
G75*
G02*
X163486250Y-137480000I-218750J0D01*
G01*
G37*
G36*
G01*
X164483750Y-138180000D02*
X164996250Y-138180000D01*
G75*
G02*
X165215000Y-138398750I0J-218750D01*
G01*
X165215000Y-138836250D01*
G75*
G02*
X164996250Y-139055000I-218750J0D01*
G01*
X164483750Y-139055000D01*
G75*
G02*
X164265000Y-138836250I0J218750D01*
G01*
X164265000Y-138398750D01*
G75*
G02*
X164483750Y-138180000I218750J0D01*
G01*
G37*
G36*
G01*
X164483750Y-136605000D02*
X164996250Y-136605000D01*
G75*
G02*
X165215000Y-136823750I0J-218750D01*
G01*
X165215000Y-137261250D01*
G75*
G02*
X164996250Y-137480000I-218750J0D01*
G01*
X164483750Y-137480000D01*
G75*
G02*
X164265000Y-137261250I0J218750D01*
G01*
X164265000Y-136823750D01*
G75*
G02*
X164483750Y-136605000I218750J0D01*
G01*
G37*
G36*
G01*
X174706250Y-111095000D02*
X173793750Y-111095000D01*
G75*
G02*
X173550000Y-110851250I0J243750D01*
G01*
X173550000Y-110363750D01*
G75*
G02*
X173793750Y-110120000I243750J0D01*
G01*
X174706250Y-110120000D01*
G75*
G02*
X174950000Y-110363750I0J-243750D01*
G01*
X174950000Y-110851250D01*
G75*
G02*
X174706250Y-111095000I-243750J0D01*
G01*
G37*
G36*
G01*
X174706250Y-109220000D02*
X173793750Y-109220000D01*
G75*
G02*
X173550000Y-108976250I0J243750D01*
G01*
X173550000Y-108488750D01*
G75*
G02*
X173793750Y-108245000I243750J0D01*
G01*
X174706250Y-108245000D01*
G75*
G02*
X174950000Y-108488750I0J-243750D01*
G01*
X174950000Y-108976250D01*
G75*
G02*
X174706250Y-109220000I-243750J0D01*
G01*
G37*
G36*
G01*
X161395000Y-104486250D02*
X161395000Y-103573750D01*
G75*
G02*
X161638750Y-103330000I243750J0D01*
G01*
X162126250Y-103330000D01*
G75*
G02*
X162370000Y-103573750I0J-243750D01*
G01*
X162370000Y-104486250D01*
G75*
G02*
X162126250Y-104730000I-243750J0D01*
G01*
X161638750Y-104730000D01*
G75*
G02*
X161395000Y-104486250I0J243750D01*
G01*
G37*
G36*
G01*
X163270000Y-104486250D02*
X163270000Y-103573750D01*
G75*
G02*
X163513750Y-103330000I243750J0D01*
G01*
X164001250Y-103330000D01*
G75*
G02*
X164245000Y-103573750I0J-243750D01*
G01*
X164245000Y-104486250D01*
G75*
G02*
X164001250Y-104730000I-243750J0D01*
G01*
X163513750Y-104730000D01*
G75*
G02*
X163270000Y-104486250I0J243750D01*
G01*
G37*
G36*
G01*
X161633750Y-107150000D02*
X162546250Y-107150000D01*
G75*
G02*
X162790000Y-107393750I0J-243750D01*
G01*
X162790000Y-107881250D01*
G75*
G02*
X162546250Y-108125000I-243750J0D01*
G01*
X161633750Y-108125000D01*
G75*
G02*
X161390000Y-107881250I0J243750D01*
G01*
X161390000Y-107393750D01*
G75*
G02*
X161633750Y-107150000I243750J0D01*
G01*
G37*
G36*
G01*
X161633750Y-105275000D02*
X162546250Y-105275000D01*
G75*
G02*
X162790000Y-105518750I0J-243750D01*
G01*
X162790000Y-106006250D01*
G75*
G02*
X162546250Y-106250000I-243750J0D01*
G01*
X161633750Y-106250000D01*
G75*
G02*
X161390000Y-106006250I0J243750D01*
G01*
X161390000Y-105518750D01*
G75*
G02*
X161633750Y-105275000I243750J0D01*
G01*
G37*
G36*
G01*
X143656250Y-137445000D02*
X142743750Y-137445000D01*
G75*
G02*
X142500000Y-137201250I0J243750D01*
G01*
X142500000Y-136713750D01*
G75*
G02*
X142743750Y-136470000I243750J0D01*
G01*
X143656250Y-136470000D01*
G75*
G02*
X143900000Y-136713750I0J-243750D01*
G01*
X143900000Y-137201250D01*
G75*
G02*
X143656250Y-137445000I-243750J0D01*
G01*
G37*
G36*
G01*
X143656250Y-135570000D02*
X142743750Y-135570000D01*
G75*
G02*
X142500000Y-135326250I0J243750D01*
G01*
X142500000Y-134838750D01*
G75*
G02*
X142743750Y-134595000I243750J0D01*
G01*
X143656250Y-134595000D01*
G75*
G02*
X143900000Y-134838750I0J-243750D01*
G01*
X143900000Y-135326250D01*
G75*
G02*
X143656250Y-135570000I-243750J0D01*
G01*
G37*
G36*
G01*
X130116250Y-132550000D02*
X129203750Y-132550000D01*
G75*
G02*
X128960000Y-132306250I0J243750D01*
G01*
X128960000Y-131818750D01*
G75*
G02*
X129203750Y-131575000I243750J0D01*
G01*
X130116250Y-131575000D01*
G75*
G02*
X130360000Y-131818750I0J-243750D01*
G01*
X130360000Y-132306250D01*
G75*
G02*
X130116250Y-132550000I-243750J0D01*
G01*
G37*
G36*
G01*
X130116250Y-134425000D02*
X129203750Y-134425000D01*
G75*
G02*
X128960000Y-134181250I0J243750D01*
G01*
X128960000Y-133693750D01*
G75*
G02*
X129203750Y-133450000I243750J0D01*
G01*
X130116250Y-133450000D01*
G75*
G02*
X130360000Y-133693750I0J-243750D01*
G01*
X130360000Y-134181250D01*
G75*
G02*
X130116250Y-134425000I-243750J0D01*
G01*
G37*
G36*
G01*
X138596250Y-137455000D02*
X137683750Y-137455000D01*
G75*
G02*
X137440000Y-137211250I0J243750D01*
G01*
X137440000Y-136723750D01*
G75*
G02*
X137683750Y-136480000I243750J0D01*
G01*
X138596250Y-136480000D01*
G75*
G02*
X138840000Y-136723750I0J-243750D01*
G01*
X138840000Y-137211250D01*
G75*
G02*
X138596250Y-137455000I-243750J0D01*
G01*
G37*
G36*
G01*
X138596250Y-135580000D02*
X137683750Y-135580000D01*
G75*
G02*
X137440000Y-135336250I0J243750D01*
G01*
X137440000Y-134848750D01*
G75*
G02*
X137683750Y-134605000I243750J0D01*
G01*
X138596250Y-134605000D01*
G75*
G02*
X138840000Y-134848750I0J-243750D01*
G01*
X138840000Y-135336250D01*
G75*
G02*
X138596250Y-135580000I-243750J0D01*
G01*
G37*
D18*
X159900000Y-143555000D03*
X161900000Y-143555000D03*
X161400000Y-143555000D03*
X160900000Y-143555000D03*
X160400000Y-143555000D03*
X159400000Y-143555000D03*
X158900000Y-143555000D03*
X158400000Y-143555000D03*
D19*
X163400000Y-143555000D03*
X162600000Y-143555000D03*
X157700000Y-143555000D03*
X156900000Y-143555000D03*
X156900000Y-143555000D03*
X157700000Y-143555000D03*
X162600000Y-143555000D03*
X163400000Y-143555000D03*
D20*
X173914699Y-138209899D03*
X173914699Y-139709899D03*
X190014699Y-125334899D03*
X190014699Y-126604899D03*
X190014699Y-127874899D03*
X190014699Y-129144899D03*
X190014699Y-130414899D03*
X190014699Y-131684899D03*
X190014699Y-132954899D03*
X190014699Y-134224899D03*
X190014699Y-135494899D03*
X190014699Y-136764899D03*
X190014699Y-138034899D03*
X190014699Y-139304899D03*
M02*
