G04 #@! TF.GenerationSoftware,KiCad,Pcbnew,5.1.8-db9833491~87~ubuntu20.04.1*
G04 #@! TF.CreationDate,2020-11-25T08:58:25+01:00*
G04 #@! TF.ProjectId,snoopy,736e6f6f-7079-42e6-9b69-6361645f7063,v1.0*
G04 #@! TF.SameCoordinates,Original*
G04 #@! TF.FileFunction,Copper,L2,Bot*
G04 #@! TF.FilePolarity,Positive*
%FSLAX46Y46*%
G04 Gerber Fmt 4.6, Leading zero omitted, Abs format (unit mm)*
G04 Created by KiCad (PCBNEW 5.1.8-db9833491~87~ubuntu20.04.1) date 2020-11-25 08:58:25*
%MOMM*%
%LPD*%
G01*
G04 APERTURE LIST*
G04 #@! TA.AperFunction,ComponentPad*
%ADD10C,2.300000*%
G04 #@! TD*
G04 #@! TA.AperFunction,ComponentPad*
%ADD11R,2.300000X2.000000*%
G04 #@! TD*
G04 #@! TA.AperFunction,ComponentPad*
%ADD12R,1.700000X1.700000*%
G04 #@! TD*
G04 #@! TA.AperFunction,ComponentPad*
%ADD13O,1.700000X1.700000*%
G04 #@! TD*
G04 #@! TA.AperFunction,ComponentPad*
%ADD14C,1.000000*%
G04 #@! TD*
G04 #@! TA.AperFunction,ComponentPad*
%ADD15C,3.000000*%
G04 #@! TD*
G04 #@! TA.AperFunction,ComponentPad*
%ADD16R,3.000000X3.000000*%
G04 #@! TD*
G04 #@! TA.AperFunction,ComponentPad*
%ADD17C,1.600000*%
G04 #@! TD*
G04 #@! TA.AperFunction,ComponentPad*
%ADD18R,1.600000X1.600000*%
G04 #@! TD*
G04 #@! TA.AperFunction,ComponentPad*
%ADD19C,2.250000*%
G04 #@! TD*
G04 #@! TA.AperFunction,ComponentPad*
%ADD20R,2.100000X2.100000*%
G04 #@! TD*
G04 #@! TA.AperFunction,ComponentPad*
%ADD21C,2.100000*%
G04 #@! TD*
G04 #@! TA.AperFunction,ComponentPad*
%ADD22O,1.000000X1.600000*%
G04 #@! TD*
G04 #@! TA.AperFunction,ComponentPad*
%ADD23O,1.000000X2.100000*%
G04 #@! TD*
G04 #@! TA.AperFunction,ComponentPad*
%ADD24C,2.000000*%
G04 #@! TD*
G04 #@! TA.AperFunction,ViaPad*
%ADD25C,0.800000*%
G04 #@! TD*
G04 #@! TA.AperFunction,ViaPad*
%ADD26C,0.600000*%
G04 #@! TD*
G04 #@! TA.AperFunction,Conductor*
%ADD27C,0.250000*%
G04 #@! TD*
G04 #@! TA.AperFunction,Conductor*
%ADD28C,0.500000*%
G04 #@! TD*
G04 #@! TA.AperFunction,Conductor*
%ADD29C,0.254000*%
G04 #@! TD*
G04 #@! TA.AperFunction,Conductor*
%ADD30C,0.100000*%
G04 #@! TD*
G04 APERTURE END LIST*
D10*
X157180000Y-111900000D03*
D11*
X127780000Y-117100000D03*
D10*
X127780000Y-122100000D03*
X157180000Y-127300000D03*
D12*
X188722000Y-92646000D03*
D13*
X191262000Y-92646000D03*
X188722000Y-95186000D03*
X191262000Y-95186000D03*
X188722000Y-97726000D03*
X191262000Y-97726000D03*
X188722000Y-100266000D03*
X191262000Y-100266000D03*
X188722000Y-102806000D03*
X191262000Y-102806000D03*
X188722000Y-105346000D03*
X191262000Y-105346000D03*
X188722000Y-107886000D03*
X191262000Y-107886000D03*
X188722000Y-110426000D03*
X191262000Y-110426000D03*
D14*
X182930000Y-95680000D03*
X184830000Y-95680000D03*
D15*
X133050000Y-147000000D03*
X138130000Y-147000000D03*
D16*
X127970000Y-147000000D03*
D15*
X143210000Y-147000000D03*
D17*
X127990000Y-141040000D03*
X129640000Y-136040000D03*
D18*
X191210000Y-82240000D03*
D17*
X188760000Y-78990000D03*
D19*
X173920000Y-146810000D03*
X171380000Y-144270000D03*
X171380000Y-149350000D03*
X176460000Y-149350000D03*
X176460000Y-144270000D03*
D20*
X118250000Y-67700000D03*
D21*
X120790000Y-67700000D03*
X123330000Y-67700000D03*
X125870000Y-67700000D03*
X128410000Y-67700000D03*
X130950000Y-67700000D03*
X133490000Y-67700000D03*
X136030000Y-67700000D03*
X156350000Y-67700000D03*
X141110000Y-67700000D03*
X138570000Y-67700000D03*
X143650000Y-67700000D03*
X148730000Y-67700000D03*
X153810000Y-67700000D03*
X151270000Y-67700000D03*
X146190000Y-67700000D03*
X176670000Y-67700000D03*
X161430000Y-67700000D03*
X158890000Y-67700000D03*
X163970000Y-67700000D03*
X169050000Y-67700000D03*
X174130000Y-67700000D03*
X171590000Y-67700000D03*
X166510000Y-67700000D03*
D22*
X164470000Y-148650000D03*
X155830000Y-148650000D03*
D23*
X155830000Y-144470000D03*
X164470000Y-144470000D03*
D24*
X121530000Y-139890000D03*
X121530000Y-129890000D03*
X108830000Y-139890000D03*
X108830000Y-129890000D03*
X108830000Y-112790000D03*
X108830000Y-122790000D03*
X121530000Y-112790000D03*
X121530000Y-122790000D03*
X121530000Y-105690000D03*
X121530000Y-95690000D03*
X108830000Y-105690000D03*
X108830000Y-95690000D03*
D25*
X109700000Y-82450000D03*
X148660000Y-81000000D03*
X168844990Y-81000000D03*
X110450000Y-74040000D03*
X166490000Y-83329998D03*
X146280000Y-83380001D03*
X131879998Y-88030000D03*
X131879999Y-91970001D03*
X115610000Y-83620000D03*
X113460000Y-74040000D03*
X111950000Y-74040000D03*
X109700000Y-79750000D03*
X125760000Y-81000000D03*
X134170000Y-81000000D03*
X154370000Y-81000000D03*
X174540000Y-81000000D03*
X148390000Y-101580000D03*
X109700000Y-88150000D03*
X145975010Y-81000000D03*
X166145010Y-81000000D03*
X168750000Y-90720000D03*
X163790000Y-95810000D03*
X163780000Y-108340000D03*
X175980000Y-111290000D03*
X180810000Y-97750000D03*
X180780000Y-99750000D03*
X172410000Y-138210000D03*
X172060000Y-90700000D03*
X166420000Y-98000000D03*
X169500000Y-96950000D03*
X175590000Y-98500000D03*
X192010000Y-130330000D03*
X114960000Y-74040000D03*
X145480000Y-75580000D03*
X165650000Y-75580000D03*
X141500000Y-106170000D03*
X182930000Y-91530000D03*
X184830000Y-91530000D03*
X183380000Y-85630000D03*
X183380000Y-82360000D03*
X162090000Y-108740000D03*
X167260000Y-89250000D03*
X150100000Y-101570000D03*
X160150000Y-135600000D03*
X125290000Y-75590000D03*
X180800000Y-96260000D03*
X191990000Y-123270000D03*
X169350000Y-149787500D03*
X165620000Y-149790000D03*
X191510000Y-139304899D03*
X175420000Y-138210000D03*
X188510000Y-139304899D03*
X164740000Y-139660000D03*
X160800000Y-104030000D03*
X174250000Y-111700000D03*
X163700000Y-140510000D03*
X156570000Y-140520000D03*
X108430000Y-79750000D03*
X108430000Y-82450000D03*
X110970000Y-82450000D03*
X125760000Y-79730000D03*
X145970000Y-79730000D03*
X166140000Y-79730000D03*
X166140000Y-82270000D03*
X128460000Y-79730000D03*
X148660000Y-82270000D03*
X148745010Y-79730000D03*
X168840000Y-82270000D03*
X168915010Y-79730000D03*
X167509999Y-78280000D03*
X147350000Y-78349998D03*
X127110002Y-78380000D03*
X145968865Y-82266405D03*
X125709977Y-82270635D03*
X128460000Y-82270000D03*
X114720000Y-82950000D03*
X173750000Y-105750000D03*
X175600000Y-105750000D03*
D26*
X161150000Y-144769990D03*
X159650000Y-142330000D03*
D25*
X167500000Y-103750000D03*
X168490000Y-109560000D03*
X157700000Y-142230000D03*
X160140000Y-141270000D03*
X162559990Y-142230000D03*
X177150000Y-96250000D03*
X177150000Y-92320000D03*
D27*
X168844990Y-81000000D02*
X166514992Y-83329998D01*
X166514992Y-83329998D02*
X166490000Y-83329998D01*
X148660000Y-81000000D02*
X148260001Y-81400000D01*
X148260001Y-81400000D02*
X146679999Y-82980002D01*
X146679999Y-82980002D02*
X146280000Y-83380001D01*
X131879999Y-88595686D02*
X131879999Y-91404316D01*
X131879998Y-88030000D02*
X131879999Y-88595686D01*
X131879999Y-91404316D02*
X131879999Y-91970001D01*
X109700000Y-81790000D02*
X109700000Y-82450000D01*
X111090000Y-80400000D02*
X109700000Y-81790000D01*
X110450000Y-74040000D02*
X111090000Y-74680000D01*
X111090000Y-74680000D02*
X111090000Y-80400000D01*
X115610000Y-82756998D02*
X115610000Y-83054315D01*
X114523002Y-81670000D02*
X115610000Y-82756998D01*
X115610000Y-83054315D02*
X115610000Y-83620000D01*
X110480000Y-81670000D02*
X114523002Y-81670000D01*
X109700000Y-82450000D02*
X110480000Y-81670000D01*
X108829999Y-82849999D02*
X108430000Y-82450000D01*
X109155001Y-83175001D02*
X108829999Y-82849999D01*
X110244999Y-83175001D02*
X109155001Y-83175001D01*
X110970000Y-82450000D02*
X110244999Y-83175001D01*
X127110000Y-78380000D02*
X125760000Y-79730000D01*
X127110000Y-78380000D02*
X128460000Y-79730000D01*
X149480000Y-81535010D02*
X148745010Y-82270000D01*
X148745010Y-79730000D02*
X149480000Y-80464990D01*
X149480000Y-80464990D02*
X149480000Y-81535010D01*
X169570000Y-80384990D02*
X169570000Y-81615010D01*
X168915010Y-79730000D02*
X169570000Y-80384990D01*
X169570000Y-81615010D02*
X168915010Y-82270000D01*
X108430000Y-82450000D02*
X108430000Y-79750000D01*
X166878000Y-81532000D02*
X166140000Y-82270000D01*
X166140000Y-79730000D02*
X166878000Y-80468000D01*
X166878000Y-80468000D02*
X166878000Y-81532000D01*
X166140000Y-79730000D02*
X167490000Y-78380000D01*
X168915010Y-79730000D02*
X167490000Y-78304990D01*
X145970000Y-79730000D02*
X147360000Y-78340000D01*
X148745010Y-79730000D02*
X147360000Y-78344990D01*
X127110000Y-78380000D02*
X127110002Y-78380000D01*
X146368864Y-81866406D02*
X145968865Y-82266405D01*
X146812000Y-81423270D02*
X146368864Y-81866406D01*
X146812000Y-80572000D02*
X146812000Y-81423270D01*
X145970000Y-79730000D02*
X146812000Y-80572000D01*
X126492000Y-81488612D02*
X126109976Y-81870636D01*
X125760000Y-79730000D02*
X126492000Y-80462000D01*
X126109976Y-81870636D02*
X125709977Y-82270635D01*
X126492000Y-80462000D02*
X126492000Y-81488612D01*
X128460000Y-79730000D02*
X128460000Y-82270000D01*
X114220000Y-82450000D02*
X114320001Y-82550001D01*
X110970000Y-82450000D02*
X114220000Y-82450000D01*
X114320001Y-82550001D02*
X114720000Y-82950000D01*
X170099999Y-68749999D02*
X169050000Y-67700000D01*
X170425001Y-69075001D02*
X170099999Y-68749999D01*
X172754999Y-69075001D02*
X170425001Y-69075001D01*
X174130000Y-67700000D02*
X172754999Y-69075001D01*
X165019999Y-68749999D02*
X163970000Y-67700000D01*
X165345001Y-69075001D02*
X165019999Y-68749999D01*
X167674999Y-69075001D02*
X165345001Y-69075001D01*
X169050000Y-67700000D02*
X167674999Y-69075001D01*
X159939999Y-68749999D02*
X158890000Y-67700000D01*
X160265001Y-69075001D02*
X159939999Y-68749999D01*
X162594999Y-69075001D02*
X160265001Y-69075001D01*
X163970000Y-67700000D02*
X162594999Y-69075001D01*
X155185001Y-69075001D02*
X154859999Y-68749999D01*
X157514999Y-69075001D02*
X155185001Y-69075001D01*
X154859999Y-68749999D02*
X153810000Y-67700000D01*
X158890000Y-67700000D02*
X157514999Y-69075001D01*
X149779999Y-68749999D02*
X148730000Y-67700000D01*
X150105001Y-69075001D02*
X149779999Y-68749999D01*
X152434999Y-69075001D02*
X150105001Y-69075001D01*
X153810000Y-67700000D02*
X152434999Y-69075001D01*
X144699999Y-68749999D02*
X143650000Y-67700000D01*
X147354999Y-69075001D02*
X145025001Y-69075001D01*
X145025001Y-69075001D02*
X144699999Y-68749999D01*
X148730000Y-67700000D02*
X147354999Y-69075001D01*
X139619999Y-68749999D02*
X138570000Y-67700000D01*
X139945001Y-69075001D02*
X139619999Y-68749999D01*
X142274999Y-69075001D02*
X139945001Y-69075001D01*
X143650000Y-67700000D02*
X142274999Y-69075001D01*
X134539999Y-68749999D02*
X133490000Y-67700000D01*
X135060000Y-69270000D02*
X134539999Y-68749999D01*
X137000000Y-69270000D02*
X135060000Y-69270000D01*
X138570000Y-67700000D02*
X137000000Y-69270000D01*
X129459999Y-68749999D02*
X128410000Y-67700000D01*
X132114999Y-69075001D02*
X129785001Y-69075001D01*
X129785001Y-69075001D02*
X129459999Y-68749999D01*
X133490000Y-67700000D02*
X132114999Y-69075001D01*
X124379999Y-68749999D02*
X123330000Y-67700000D01*
X124705001Y-69075001D02*
X124379999Y-68749999D01*
X127034999Y-69075001D02*
X124705001Y-69075001D01*
X128410000Y-67700000D02*
X127034999Y-69075001D01*
X119625001Y-69075001D02*
X118250000Y-67700000D01*
X123330000Y-67700000D02*
X121954999Y-69075001D01*
X121954999Y-69075001D02*
X119625001Y-69075001D01*
X173750000Y-105750000D02*
X175600000Y-105750000D01*
X159650000Y-142770000D02*
X159650000Y-142330000D01*
X161150000Y-144270000D02*
X159650000Y-142770000D01*
X161150000Y-144769990D02*
X161150000Y-144270000D01*
X168490000Y-104740000D02*
X168490000Y-108994315D01*
X168490000Y-108994315D02*
X168490000Y-109560000D01*
X167500000Y-103750000D02*
X168490000Y-104740000D01*
D28*
X157700000Y-142230000D02*
X157700000Y-141500000D01*
X157930000Y-141270000D02*
X160140000Y-141270000D01*
X157700000Y-141500000D02*
X157930000Y-141270000D01*
X160140000Y-141270000D02*
X161599990Y-141270000D01*
X161599990Y-141270000D02*
X162559990Y-142230000D01*
D27*
X177150000Y-96250000D02*
X177150000Y-92320000D01*
X155830000Y-144470000D02*
X155830000Y-148650000D01*
X164470000Y-144470000D02*
X164470000Y-148650000D01*
X155830000Y-148650000D02*
X164470000Y-148650000D01*
D29*
X193290001Y-150290000D02*
X177946908Y-150290000D01*
X177961714Y-150284079D01*
X178115089Y-149973160D01*
X178204860Y-149638295D01*
X178227576Y-149292350D01*
X178182366Y-148948620D01*
X178070966Y-148620315D01*
X177961714Y-148415921D01*
X177684531Y-148305074D01*
X176639605Y-149350000D01*
X176653748Y-149364143D01*
X176474143Y-149543748D01*
X176460000Y-149529605D01*
X176445858Y-149543748D01*
X176266253Y-149364143D01*
X176280395Y-149350000D01*
X175235469Y-148305074D01*
X174958286Y-148415921D01*
X174804911Y-148726840D01*
X174715140Y-149061705D01*
X174692424Y-149407650D01*
X174737634Y-149751380D01*
X174849034Y-150079685D01*
X174958286Y-150284079D01*
X174973092Y-150290000D01*
X172866908Y-150290000D01*
X172881714Y-150284079D01*
X173035089Y-149973160D01*
X173124860Y-149638295D01*
X173147576Y-149292350D01*
X173102366Y-148948620D01*
X172990966Y-148620315D01*
X172881714Y-148415921D01*
X172604531Y-148305074D01*
X171559605Y-149350000D01*
X171573748Y-149364143D01*
X171394143Y-149543748D01*
X171380000Y-149529605D01*
X171365858Y-149543748D01*
X171186253Y-149364143D01*
X171200395Y-149350000D01*
X170155469Y-148305074D01*
X169878286Y-148415921D01*
X169724911Y-148726840D01*
X169635140Y-149061705D01*
X169612424Y-149407650D01*
X169657634Y-149751380D01*
X169769034Y-150079685D01*
X169878286Y-150284079D01*
X169893092Y-150290000D01*
X154127000Y-150290000D01*
X154127000Y-143864249D01*
X154695000Y-143864249D01*
X154695000Y-145075752D01*
X154711423Y-145242499D01*
X154776324Y-145456447D01*
X154881717Y-145653623D01*
X155023552Y-145826449D01*
X155070000Y-145864568D01*
X155070001Y-147505431D01*
X155023551Y-147543551D01*
X154881716Y-147716377D01*
X154776324Y-147913554D01*
X154711423Y-148127502D01*
X154695000Y-148294249D01*
X154695000Y-149005752D01*
X154711423Y-149172499D01*
X154776324Y-149386447D01*
X154881717Y-149583623D01*
X155023552Y-149756449D01*
X155196378Y-149898284D01*
X155393554Y-150003676D01*
X155607502Y-150068577D01*
X155830000Y-150090491D01*
X156052499Y-150068577D01*
X156266447Y-150003676D01*
X156463623Y-149898284D01*
X156636449Y-149756449D01*
X156778284Y-149583623D01*
X156871086Y-149410000D01*
X163428913Y-149410000D01*
X163521717Y-149583623D01*
X163663552Y-149756449D01*
X163836378Y-149898284D01*
X164033554Y-150003676D01*
X164247502Y-150068577D01*
X164470000Y-150090491D01*
X164692499Y-150068577D01*
X164906447Y-150003676D01*
X165103623Y-149898284D01*
X165276449Y-149756449D01*
X165418284Y-149583623D01*
X165523676Y-149386446D01*
X165588577Y-149172498D01*
X165605000Y-149005751D01*
X165605000Y-148294248D01*
X165588577Y-148127501D01*
X165587961Y-148125469D01*
X170335074Y-148125469D01*
X171380000Y-149170395D01*
X172424926Y-148125469D01*
X172314079Y-147848286D01*
X172003160Y-147694911D01*
X171668295Y-147605140D01*
X171322350Y-147582424D01*
X170978620Y-147627634D01*
X170650315Y-147739034D01*
X170445921Y-147848286D01*
X170335074Y-148125469D01*
X165587961Y-148125469D01*
X165523676Y-147913553D01*
X165418284Y-147716377D01*
X165276449Y-147543551D01*
X165230000Y-147505431D01*
X165230000Y-146636655D01*
X172160000Y-146636655D01*
X172160000Y-146983345D01*
X172227636Y-147323373D01*
X172360308Y-147643673D01*
X172552919Y-147931935D01*
X172798065Y-148177081D01*
X173086327Y-148369692D01*
X173406627Y-148502364D01*
X173746655Y-148570000D01*
X174093345Y-148570000D01*
X174433373Y-148502364D01*
X174753673Y-148369692D01*
X175041935Y-148177081D01*
X175093547Y-148125469D01*
X175415074Y-148125469D01*
X176460000Y-149170395D01*
X177504926Y-148125469D01*
X177394079Y-147848286D01*
X177083160Y-147694911D01*
X176748295Y-147605140D01*
X176402350Y-147582424D01*
X176058620Y-147627634D01*
X175730315Y-147739034D01*
X175525921Y-147848286D01*
X175415074Y-148125469D01*
X175093547Y-148125469D01*
X175287081Y-147931935D01*
X175479692Y-147643673D01*
X175612364Y-147323373D01*
X175619057Y-147289721D01*
X187865000Y-147289721D01*
X187865000Y-147710279D01*
X187947047Y-148122756D01*
X188107988Y-148511302D01*
X188341637Y-148860983D01*
X188639017Y-149158363D01*
X188988698Y-149392012D01*
X189377244Y-149552953D01*
X189789721Y-149635000D01*
X190210279Y-149635000D01*
X190622756Y-149552953D01*
X191011302Y-149392012D01*
X191360983Y-149158363D01*
X191658363Y-148860983D01*
X191892012Y-148511302D01*
X192052953Y-148122756D01*
X192135000Y-147710279D01*
X192135000Y-147289721D01*
X192052953Y-146877244D01*
X191892012Y-146488698D01*
X191658363Y-146139017D01*
X191360983Y-145841637D01*
X191011302Y-145607988D01*
X190622756Y-145447047D01*
X190210279Y-145365000D01*
X189789721Y-145365000D01*
X189377244Y-145447047D01*
X188988698Y-145607988D01*
X188639017Y-145841637D01*
X188341637Y-146139017D01*
X188107988Y-146488698D01*
X187947047Y-146877244D01*
X187865000Y-147289721D01*
X175619057Y-147289721D01*
X175680000Y-146983345D01*
X175680000Y-146636655D01*
X175612364Y-146296627D01*
X175479692Y-145976327D01*
X175287081Y-145688065D01*
X175093547Y-145494531D01*
X175415074Y-145494531D01*
X175525921Y-145771714D01*
X175836840Y-145925089D01*
X176171705Y-146014860D01*
X176517650Y-146037576D01*
X176861380Y-145992366D01*
X177189685Y-145880966D01*
X177394079Y-145771714D01*
X177504926Y-145494531D01*
X176460000Y-144449605D01*
X175415074Y-145494531D01*
X175093547Y-145494531D01*
X175041935Y-145442919D01*
X174753673Y-145250308D01*
X174433373Y-145117636D01*
X174093345Y-145050000D01*
X173746655Y-145050000D01*
X173406627Y-145117636D01*
X173086327Y-145250308D01*
X172798065Y-145442919D01*
X172552919Y-145688065D01*
X172360308Y-145976327D01*
X172227636Y-146296627D01*
X172160000Y-146636655D01*
X165230000Y-146636655D01*
X165230000Y-145864569D01*
X165276449Y-145826449D01*
X165418284Y-145653623D01*
X165503319Y-145494531D01*
X170335074Y-145494531D01*
X170445921Y-145771714D01*
X170756840Y-145925089D01*
X171091705Y-146014860D01*
X171437650Y-146037576D01*
X171781380Y-145992366D01*
X172109685Y-145880966D01*
X172314079Y-145771714D01*
X172424926Y-145494531D01*
X171380000Y-144449605D01*
X170335074Y-145494531D01*
X165503319Y-145494531D01*
X165523676Y-145456447D01*
X165588577Y-145242499D01*
X165605000Y-145075752D01*
X165605000Y-144327650D01*
X169612424Y-144327650D01*
X169657634Y-144671380D01*
X169769034Y-144999685D01*
X169878286Y-145204079D01*
X170155469Y-145314926D01*
X171200395Y-144270000D01*
X171559605Y-144270000D01*
X172604531Y-145314926D01*
X172881714Y-145204079D01*
X173035089Y-144893160D01*
X173124860Y-144558295D01*
X173140004Y-144327650D01*
X174692424Y-144327650D01*
X174737634Y-144671380D01*
X174849034Y-144999685D01*
X174958286Y-145204079D01*
X175235469Y-145314926D01*
X176280395Y-144270000D01*
X176639605Y-144270000D01*
X177684531Y-145314926D01*
X177961714Y-145204079D01*
X178115089Y-144893160D01*
X178204860Y-144558295D01*
X178227576Y-144212350D01*
X178182366Y-143868620D01*
X178070966Y-143540315D01*
X177961714Y-143335921D01*
X177684531Y-143225074D01*
X176639605Y-144270000D01*
X176280395Y-144270000D01*
X175235469Y-143225074D01*
X174958286Y-143335921D01*
X174804911Y-143646840D01*
X174715140Y-143981705D01*
X174692424Y-144327650D01*
X173140004Y-144327650D01*
X173147576Y-144212350D01*
X173102366Y-143868620D01*
X172990966Y-143540315D01*
X172881714Y-143335921D01*
X172604531Y-143225074D01*
X171559605Y-144270000D01*
X171200395Y-144270000D01*
X170155469Y-143225074D01*
X169878286Y-143335921D01*
X169724911Y-143646840D01*
X169635140Y-143981705D01*
X169612424Y-144327650D01*
X165605000Y-144327650D01*
X165605000Y-143864248D01*
X165588577Y-143697501D01*
X165523676Y-143483553D01*
X165418284Y-143286377D01*
X165276449Y-143113551D01*
X165193492Y-143045469D01*
X170335074Y-143045469D01*
X171380000Y-144090395D01*
X172424926Y-143045469D01*
X175415074Y-143045469D01*
X176460000Y-144090395D01*
X177504926Y-143045469D01*
X177394079Y-142768286D01*
X177083160Y-142614911D01*
X176748295Y-142525140D01*
X176402350Y-142502424D01*
X176058620Y-142547634D01*
X175730315Y-142659034D01*
X175525921Y-142768286D01*
X175415074Y-143045469D01*
X172424926Y-143045469D01*
X172314079Y-142768286D01*
X172003160Y-142614911D01*
X171668295Y-142525140D01*
X171322350Y-142502424D01*
X170978620Y-142547634D01*
X170650315Y-142659034D01*
X170445921Y-142768286D01*
X170335074Y-143045469D01*
X165193492Y-143045469D01*
X165103623Y-142971716D01*
X164906446Y-142866324D01*
X164692498Y-142801423D01*
X164470000Y-142779509D01*
X164247501Y-142801423D01*
X164033553Y-142866324D01*
X163836377Y-142971716D01*
X163663551Y-143113551D01*
X163521716Y-143286377D01*
X163416324Y-143483554D01*
X163351423Y-143697502D01*
X163335000Y-143864249D01*
X163335000Y-144083096D01*
X163320022Y-144076892D01*
X163134552Y-144040000D01*
X162945448Y-144040000D01*
X162759978Y-144076892D01*
X162585269Y-144149259D01*
X162428036Y-144254319D01*
X162294319Y-144388036D01*
X162189259Y-144545269D01*
X162116892Y-144719978D01*
X162080000Y-144905448D01*
X162080000Y-145094552D01*
X162116892Y-145280022D01*
X162189259Y-145454731D01*
X162294319Y-145611964D01*
X162428036Y-145745681D01*
X162585269Y-145850741D01*
X162759978Y-145923108D01*
X162945448Y-145960000D01*
X163134552Y-145960000D01*
X163320022Y-145923108D01*
X163494731Y-145850741D01*
X163616638Y-145769285D01*
X163663552Y-145826449D01*
X163710000Y-145864568D01*
X163710001Y-147505431D01*
X163663551Y-147543551D01*
X163521716Y-147716377D01*
X163428914Y-147890000D01*
X156871087Y-147890000D01*
X156778284Y-147716377D01*
X156636449Y-147543551D01*
X156590000Y-147505431D01*
X156590000Y-145864569D01*
X156636449Y-145826449D01*
X156683362Y-145769285D01*
X156805269Y-145850741D01*
X156979978Y-145923108D01*
X157165448Y-145960000D01*
X157354552Y-145960000D01*
X157540022Y-145923108D01*
X157714731Y-145850741D01*
X157871964Y-145745681D01*
X158005681Y-145611964D01*
X158110741Y-145454731D01*
X158183108Y-145280022D01*
X158220000Y-145094552D01*
X158220000Y-144905448D01*
X158183108Y-144719978D01*
X158110741Y-144545269D01*
X158005681Y-144388036D01*
X157871964Y-144254319D01*
X157714731Y-144149259D01*
X157540022Y-144076892D01*
X157354552Y-144040000D01*
X157165448Y-144040000D01*
X156979978Y-144076892D01*
X156965000Y-144083096D01*
X156965000Y-143864248D01*
X156948577Y-143697501D01*
X156883676Y-143483553D01*
X156778284Y-143286377D01*
X156636449Y-143113551D01*
X156463623Y-142971716D01*
X156266446Y-142866324D01*
X156052498Y-142801423D01*
X155830000Y-142779509D01*
X155607501Y-142801423D01*
X155393553Y-142866324D01*
X155196377Y-142971716D01*
X155023551Y-143113551D01*
X154881716Y-143286377D01*
X154776324Y-143483554D01*
X154711423Y-143697502D01*
X154695000Y-143864249D01*
X154127000Y-143864249D01*
X154127000Y-142128061D01*
X156665000Y-142128061D01*
X156665000Y-142331939D01*
X156704774Y-142531898D01*
X156782795Y-142720256D01*
X156896063Y-142889774D01*
X157040226Y-143033937D01*
X157209744Y-143147205D01*
X157398102Y-143225226D01*
X157598061Y-143265000D01*
X157801939Y-143265000D01*
X158001898Y-143225226D01*
X158190256Y-143147205D01*
X158359774Y-143033937D01*
X158503937Y-142889774D01*
X158617205Y-142720256D01*
X158695226Y-142531898D01*
X158716034Y-142427288D01*
X158750932Y-142602729D01*
X158821414Y-142772889D01*
X158897879Y-142887327D01*
X158900997Y-142918985D01*
X158935867Y-143033937D01*
X158944454Y-143062246D01*
X159015026Y-143194276D01*
X159054871Y-143242826D01*
X159109999Y-143310001D01*
X159139003Y-143333804D01*
X160266024Y-144460826D01*
X160250932Y-144497261D01*
X160215000Y-144677901D01*
X160215000Y-144862079D01*
X160250932Y-145042719D01*
X160321414Y-145212879D01*
X160423738Y-145366018D01*
X160553972Y-145496252D01*
X160707111Y-145598576D01*
X160877271Y-145669058D01*
X161057911Y-145704990D01*
X161242089Y-145704990D01*
X161422729Y-145669058D01*
X161592889Y-145598576D01*
X161746028Y-145496252D01*
X161876262Y-145366018D01*
X161978586Y-145212879D01*
X162049068Y-145042719D01*
X162085000Y-144862079D01*
X162085000Y-144677901D01*
X162049068Y-144497261D01*
X161978586Y-144327101D01*
X161909051Y-144223035D01*
X161899003Y-144121014D01*
X161855546Y-143977753D01*
X161784974Y-143845724D01*
X161690001Y-143729999D01*
X161661003Y-143706201D01*
X160550472Y-142595671D01*
X160585000Y-142422089D01*
X160585000Y-142237911D01*
X160579127Y-142208384D01*
X160630256Y-142187205D01*
X160678454Y-142155000D01*
X161233412Y-142155000D01*
X161553455Y-142475044D01*
X161564764Y-142531898D01*
X161642785Y-142720256D01*
X161756053Y-142889774D01*
X161900216Y-143033937D01*
X162069734Y-143147205D01*
X162258092Y-143225226D01*
X162458051Y-143265000D01*
X162661929Y-143265000D01*
X162861888Y-143225226D01*
X163050246Y-143147205D01*
X163219764Y-143033937D01*
X163363927Y-142889774D01*
X163477195Y-142720256D01*
X163555216Y-142531898D01*
X163594990Y-142331939D01*
X163594990Y-142128061D01*
X163555216Y-141928102D01*
X163477195Y-141739744D01*
X163363927Y-141570226D01*
X163219764Y-141426063D01*
X163050246Y-141312795D01*
X162861888Y-141234774D01*
X162805034Y-141223465D01*
X162256524Y-140674956D01*
X162228807Y-140641183D01*
X162094049Y-140530589D01*
X161940303Y-140448411D01*
X161773480Y-140397805D01*
X161643467Y-140385000D01*
X161643459Y-140385000D01*
X161599990Y-140380719D01*
X161556521Y-140385000D01*
X160678454Y-140385000D01*
X160630256Y-140352795D01*
X160441898Y-140274774D01*
X160241939Y-140235000D01*
X160038061Y-140235000D01*
X159838102Y-140274774D01*
X159649744Y-140352795D01*
X159601546Y-140385000D01*
X157973465Y-140385000D01*
X157929999Y-140380719D01*
X157886533Y-140385000D01*
X157886523Y-140385000D01*
X157756510Y-140397805D01*
X157589687Y-140448411D01*
X157435941Y-140530589D01*
X157301183Y-140641183D01*
X157273466Y-140674956D01*
X157104952Y-140843470D01*
X157071184Y-140871183D01*
X157043471Y-140904951D01*
X157043468Y-140904954D01*
X156991644Y-140968102D01*
X156960590Y-141005941D01*
X156878412Y-141159687D01*
X156827805Y-141326510D01*
X156815000Y-141456523D01*
X156815000Y-141456531D01*
X156810719Y-141500000D01*
X156815000Y-141543469D01*
X156815000Y-141691546D01*
X156782795Y-141739744D01*
X156704774Y-141928102D01*
X156665000Y-142128061D01*
X154127000Y-142128061D01*
X154127000Y-127124193D01*
X155395000Y-127124193D01*
X155395000Y-127475807D01*
X155463596Y-127820665D01*
X155598153Y-128145515D01*
X155793500Y-128437871D01*
X156042129Y-128686500D01*
X156334485Y-128881847D01*
X156659335Y-129016404D01*
X157004193Y-129085000D01*
X157355807Y-129085000D01*
X157700665Y-129016404D01*
X158025515Y-128881847D01*
X158317871Y-128686500D01*
X158566500Y-128437871D01*
X158761847Y-128145515D01*
X158896404Y-127820665D01*
X158965000Y-127475807D01*
X158965000Y-127124193D01*
X158896404Y-126779335D01*
X158761847Y-126454485D01*
X158566500Y-126162129D01*
X158317871Y-125913500D01*
X158025515Y-125718153D01*
X157700665Y-125583596D01*
X157355807Y-125515000D01*
X157004193Y-125515000D01*
X156659335Y-125583596D01*
X156334485Y-125718153D01*
X156042129Y-125913500D01*
X155793500Y-126162129D01*
X155598153Y-126454485D01*
X155463596Y-126779335D01*
X155395000Y-127124193D01*
X154127000Y-127124193D01*
X154127000Y-113142349D01*
X156117256Y-113142349D01*
X156231118Y-113422090D01*
X156546296Y-113577961D01*
X156885826Y-113669349D01*
X157236661Y-113692741D01*
X157585319Y-113647240D01*
X157918400Y-113534594D01*
X158128882Y-113422090D01*
X158242744Y-113142349D01*
X157180000Y-112079605D01*
X156117256Y-113142349D01*
X154127000Y-113142349D01*
X154127000Y-111956661D01*
X155387259Y-111956661D01*
X155432760Y-112305319D01*
X155545406Y-112638400D01*
X155657910Y-112848882D01*
X155937651Y-112962744D01*
X157000395Y-111900000D01*
X157359605Y-111900000D01*
X158422349Y-112962744D01*
X158702090Y-112848882D01*
X158857961Y-112533704D01*
X158949349Y-112194174D01*
X158972741Y-111843339D01*
X158927240Y-111494681D01*
X158814594Y-111161600D01*
X158702090Y-110951118D01*
X158422349Y-110837256D01*
X157359605Y-111900000D01*
X157000395Y-111900000D01*
X155937651Y-110837256D01*
X155657910Y-110951118D01*
X155502039Y-111266296D01*
X155410651Y-111605826D01*
X155387259Y-111956661D01*
X154127000Y-111956661D01*
X154127000Y-110657651D01*
X156117256Y-110657651D01*
X157180000Y-111720395D01*
X158242744Y-110657651D01*
X158128882Y-110377910D01*
X157813704Y-110222039D01*
X157474174Y-110130651D01*
X157123339Y-110107259D01*
X156774681Y-110152760D01*
X156441600Y-110265406D01*
X156231118Y-110377910D01*
X156117256Y-110657651D01*
X154127000Y-110657651D01*
X154127000Y-107000000D01*
X154124560Y-106975224D01*
X154117333Y-106951399D01*
X154105597Y-106929443D01*
X154089803Y-106910197D01*
X154070557Y-106894403D01*
X154048601Y-106882667D01*
X154024776Y-106875440D01*
X154000000Y-106873000D01*
X138127000Y-106873000D01*
X138127000Y-103648061D01*
X166465000Y-103648061D01*
X166465000Y-103851939D01*
X166504774Y-104051898D01*
X166582795Y-104240256D01*
X166696063Y-104409774D01*
X166840226Y-104553937D01*
X167009744Y-104667205D01*
X167198102Y-104745226D01*
X167398061Y-104785000D01*
X167460198Y-104785000D01*
X167730000Y-105054803D01*
X167730001Y-108856288D01*
X167686063Y-108900226D01*
X167572795Y-109069744D01*
X167494774Y-109258102D01*
X167455000Y-109458061D01*
X167455000Y-109661939D01*
X167494774Y-109861898D01*
X167572795Y-110050256D01*
X167686063Y-110219774D01*
X167830226Y-110363937D01*
X167999744Y-110477205D01*
X168188102Y-110555226D01*
X168388061Y-110595000D01*
X168591939Y-110595000D01*
X168791898Y-110555226D01*
X168980256Y-110477205D01*
X169149774Y-110363937D01*
X169233971Y-110279740D01*
X187237000Y-110279740D01*
X187237000Y-110572260D01*
X187294068Y-110859158D01*
X187406010Y-111129411D01*
X187568525Y-111372632D01*
X187775368Y-111579475D01*
X188018589Y-111741990D01*
X188288842Y-111853932D01*
X188575740Y-111911000D01*
X188868260Y-111911000D01*
X189155158Y-111853932D01*
X189425411Y-111741990D01*
X189668632Y-111579475D01*
X189875475Y-111372632D01*
X189992000Y-111198240D01*
X190108525Y-111372632D01*
X190315368Y-111579475D01*
X190558589Y-111741990D01*
X190828842Y-111853932D01*
X191115740Y-111911000D01*
X191408260Y-111911000D01*
X191695158Y-111853932D01*
X191965411Y-111741990D01*
X192208632Y-111579475D01*
X192415475Y-111372632D01*
X192577990Y-111129411D01*
X192689932Y-110859158D01*
X192747000Y-110572260D01*
X192747000Y-110279740D01*
X192689932Y-109992842D01*
X192577990Y-109722589D01*
X192415475Y-109479368D01*
X192208632Y-109272525D01*
X192026466Y-109150805D01*
X192143355Y-109081178D01*
X192359588Y-108886269D01*
X192533641Y-108652920D01*
X192658825Y-108390099D01*
X192703476Y-108242890D01*
X192582155Y-108013000D01*
X191389000Y-108013000D01*
X191389000Y-108033000D01*
X191135000Y-108033000D01*
X191135000Y-108013000D01*
X188849000Y-108013000D01*
X188849000Y-108033000D01*
X188595000Y-108033000D01*
X188595000Y-108013000D01*
X187401845Y-108013000D01*
X187280524Y-108242890D01*
X187325175Y-108390099D01*
X187450359Y-108652920D01*
X187624412Y-108886269D01*
X187840645Y-109081178D01*
X187957534Y-109150805D01*
X187775368Y-109272525D01*
X187568525Y-109479368D01*
X187406010Y-109722589D01*
X187294068Y-109992842D01*
X187237000Y-110279740D01*
X169233971Y-110279740D01*
X169293937Y-110219774D01*
X169407205Y-110050256D01*
X169485226Y-109861898D01*
X169525000Y-109661939D01*
X169525000Y-109458061D01*
X169485226Y-109258102D01*
X169407205Y-109069744D01*
X169293937Y-108900226D01*
X169250000Y-108856289D01*
X169250000Y-105648061D01*
X172715000Y-105648061D01*
X172715000Y-105851939D01*
X172754774Y-106051898D01*
X172832795Y-106240256D01*
X172946063Y-106409774D01*
X173090226Y-106553937D01*
X173259744Y-106667205D01*
X173448102Y-106745226D01*
X173648061Y-106785000D01*
X173851939Y-106785000D01*
X174051898Y-106745226D01*
X174240256Y-106667205D01*
X174409774Y-106553937D01*
X174453711Y-106510000D01*
X174896289Y-106510000D01*
X174940226Y-106553937D01*
X175109744Y-106667205D01*
X175298102Y-106745226D01*
X175498061Y-106785000D01*
X175701939Y-106785000D01*
X175901898Y-106745226D01*
X176090256Y-106667205D01*
X176259774Y-106553937D01*
X176403937Y-106409774D01*
X176517205Y-106240256D01*
X176595226Y-106051898D01*
X176635000Y-105851939D01*
X176635000Y-105648061D01*
X176595226Y-105448102D01*
X176517205Y-105259744D01*
X176403937Y-105090226D01*
X176259774Y-104946063D01*
X176090256Y-104832795D01*
X175901898Y-104754774D01*
X175701939Y-104715000D01*
X175498061Y-104715000D01*
X175298102Y-104754774D01*
X175109744Y-104832795D01*
X174940226Y-104946063D01*
X174896289Y-104990000D01*
X174453711Y-104990000D01*
X174409774Y-104946063D01*
X174240256Y-104832795D01*
X174051898Y-104754774D01*
X173851939Y-104715000D01*
X173648061Y-104715000D01*
X173448102Y-104754774D01*
X173259744Y-104832795D01*
X173090226Y-104946063D01*
X172946063Y-105090226D01*
X172832795Y-105259744D01*
X172754774Y-105448102D01*
X172715000Y-105648061D01*
X169250000Y-105648061D01*
X169250000Y-104777322D01*
X169253676Y-104739999D01*
X169250000Y-104702676D01*
X169250000Y-104702667D01*
X169239003Y-104591014D01*
X169195546Y-104447753D01*
X169124974Y-104315724D01*
X169080065Y-104261002D01*
X169053799Y-104228996D01*
X169053795Y-104228992D01*
X169030001Y-104199999D01*
X169001009Y-104176206D01*
X168535000Y-103710198D01*
X168535000Y-103648061D01*
X168495226Y-103448102D01*
X168417205Y-103259744D01*
X168303937Y-103090226D01*
X168159774Y-102946063D01*
X167990256Y-102832795D01*
X167801898Y-102754774D01*
X167601939Y-102715000D01*
X167398061Y-102715000D01*
X167198102Y-102754774D01*
X167009744Y-102832795D01*
X166840226Y-102946063D01*
X166696063Y-103090226D01*
X166582795Y-103259744D01*
X166504774Y-103448102D01*
X166465000Y-103648061D01*
X138127000Y-103648061D01*
X138127000Y-94000000D01*
X138124560Y-93975224D01*
X138117333Y-93951399D01*
X138105597Y-93929443D01*
X138089803Y-93910197D01*
X138070557Y-93894403D01*
X138048601Y-93882667D01*
X138024776Y-93875440D01*
X138000000Y-93873000D01*
X126127000Y-93873000D01*
X126127000Y-91000000D01*
X126124560Y-90975224D01*
X126117333Y-90951399D01*
X126105597Y-90929443D01*
X126089803Y-90910197D01*
X126070557Y-90894403D01*
X126048601Y-90882667D01*
X126024776Y-90875440D01*
X126000000Y-90873000D01*
X111000000Y-90873000D01*
X110975224Y-90875440D01*
X110951399Y-90882667D01*
X110929443Y-90894403D01*
X110910197Y-90910197D01*
X110894403Y-90929443D01*
X110882667Y-90951399D01*
X110875440Y-90975224D01*
X110873000Y-91000000D01*
X110873000Y-150290000D01*
X101710000Y-150290000D01*
X101710000Y-147289721D01*
X102865000Y-147289721D01*
X102865000Y-147710279D01*
X102947047Y-148122756D01*
X103107988Y-148511302D01*
X103341637Y-148860983D01*
X103639017Y-149158363D01*
X103988698Y-149392012D01*
X104377244Y-149552953D01*
X104789721Y-149635000D01*
X105210279Y-149635000D01*
X105622756Y-149552953D01*
X106011302Y-149392012D01*
X106360983Y-149158363D01*
X106658363Y-148860983D01*
X106892012Y-148511302D01*
X107052953Y-148122756D01*
X107135000Y-147710279D01*
X107135000Y-147289721D01*
X107052953Y-146877244D01*
X106892012Y-146488698D01*
X106658363Y-146139017D01*
X106360983Y-145841637D01*
X106011302Y-145607988D01*
X105622756Y-145447047D01*
X105210279Y-145365000D01*
X104789721Y-145365000D01*
X104377244Y-145447047D01*
X103988698Y-145607988D01*
X103639017Y-145841637D01*
X103341637Y-146139017D01*
X103107988Y-146488698D01*
X102947047Y-146877244D01*
X102865000Y-147289721D01*
X101710000Y-147289721D01*
X101710000Y-139728967D01*
X107195000Y-139728967D01*
X107195000Y-140051033D01*
X107257832Y-140366912D01*
X107381082Y-140664463D01*
X107560013Y-140932252D01*
X107787748Y-141159987D01*
X108055537Y-141338918D01*
X108353088Y-141462168D01*
X108668967Y-141525000D01*
X108991033Y-141525000D01*
X109306912Y-141462168D01*
X109604463Y-141338918D01*
X109872252Y-141159987D01*
X110099987Y-140932252D01*
X110278918Y-140664463D01*
X110402168Y-140366912D01*
X110465000Y-140051033D01*
X110465000Y-139728967D01*
X110402168Y-139413088D01*
X110278918Y-139115537D01*
X110099987Y-138847748D01*
X109872252Y-138620013D01*
X109604463Y-138441082D01*
X109306912Y-138317832D01*
X108991033Y-138255000D01*
X108668967Y-138255000D01*
X108353088Y-138317832D01*
X108055537Y-138441082D01*
X107787748Y-138620013D01*
X107560013Y-138847748D01*
X107381082Y-139115537D01*
X107257832Y-139413088D01*
X107195000Y-139728967D01*
X101710000Y-139728967D01*
X101710000Y-129728967D01*
X107195000Y-129728967D01*
X107195000Y-130051033D01*
X107257832Y-130366912D01*
X107381082Y-130664463D01*
X107560013Y-130932252D01*
X107787748Y-131159987D01*
X108055537Y-131338918D01*
X108353088Y-131462168D01*
X108668967Y-131525000D01*
X108991033Y-131525000D01*
X109306912Y-131462168D01*
X109604463Y-131338918D01*
X109872252Y-131159987D01*
X110099987Y-130932252D01*
X110278918Y-130664463D01*
X110402168Y-130366912D01*
X110465000Y-130051033D01*
X110465000Y-129728967D01*
X110402168Y-129413088D01*
X110278918Y-129115537D01*
X110099987Y-128847748D01*
X109872252Y-128620013D01*
X109604463Y-128441082D01*
X109306912Y-128317832D01*
X108991033Y-128255000D01*
X108668967Y-128255000D01*
X108353088Y-128317832D01*
X108055537Y-128441082D01*
X107787748Y-128620013D01*
X107560013Y-128847748D01*
X107381082Y-129115537D01*
X107257832Y-129413088D01*
X107195000Y-129728967D01*
X101710000Y-129728967D01*
X101710000Y-122628967D01*
X107195000Y-122628967D01*
X107195000Y-122951033D01*
X107257832Y-123266912D01*
X107381082Y-123564463D01*
X107560013Y-123832252D01*
X107787748Y-124059987D01*
X108055537Y-124238918D01*
X108353088Y-124362168D01*
X108668967Y-124425000D01*
X108991033Y-124425000D01*
X109306912Y-124362168D01*
X109604463Y-124238918D01*
X109872252Y-124059987D01*
X110099987Y-123832252D01*
X110278918Y-123564463D01*
X110402168Y-123266912D01*
X110465000Y-122951033D01*
X110465000Y-122628967D01*
X110402168Y-122313088D01*
X110278918Y-122015537D01*
X110099987Y-121747748D01*
X109872252Y-121520013D01*
X109604463Y-121341082D01*
X109306912Y-121217832D01*
X108991033Y-121155000D01*
X108668967Y-121155000D01*
X108353088Y-121217832D01*
X108055537Y-121341082D01*
X107787748Y-121520013D01*
X107560013Y-121747748D01*
X107381082Y-122015537D01*
X107257832Y-122313088D01*
X107195000Y-122628967D01*
X101710000Y-122628967D01*
X101710000Y-112628967D01*
X107195000Y-112628967D01*
X107195000Y-112951033D01*
X107257832Y-113266912D01*
X107381082Y-113564463D01*
X107560013Y-113832252D01*
X107787748Y-114059987D01*
X108055537Y-114238918D01*
X108353088Y-114362168D01*
X108668967Y-114425000D01*
X108991033Y-114425000D01*
X109306912Y-114362168D01*
X109604463Y-114238918D01*
X109872252Y-114059987D01*
X110099987Y-113832252D01*
X110278918Y-113564463D01*
X110402168Y-113266912D01*
X110465000Y-112951033D01*
X110465000Y-112628967D01*
X110402168Y-112313088D01*
X110278918Y-112015537D01*
X110099987Y-111747748D01*
X109872252Y-111520013D01*
X109604463Y-111341082D01*
X109306912Y-111217832D01*
X108991033Y-111155000D01*
X108668967Y-111155000D01*
X108353088Y-111217832D01*
X108055537Y-111341082D01*
X107787748Y-111520013D01*
X107560013Y-111747748D01*
X107381082Y-112015537D01*
X107257832Y-112313088D01*
X107195000Y-112628967D01*
X101710000Y-112628967D01*
X101710000Y-105528967D01*
X107195000Y-105528967D01*
X107195000Y-105851033D01*
X107257832Y-106166912D01*
X107381082Y-106464463D01*
X107560013Y-106732252D01*
X107787748Y-106959987D01*
X108055537Y-107138918D01*
X108353088Y-107262168D01*
X108668967Y-107325000D01*
X108991033Y-107325000D01*
X109306912Y-107262168D01*
X109604463Y-107138918D01*
X109872252Y-106959987D01*
X110099987Y-106732252D01*
X110278918Y-106464463D01*
X110402168Y-106166912D01*
X110465000Y-105851033D01*
X110465000Y-105528967D01*
X110402168Y-105213088D01*
X110278918Y-104915537D01*
X110099987Y-104647748D01*
X109872252Y-104420013D01*
X109604463Y-104241082D01*
X109306912Y-104117832D01*
X108991033Y-104055000D01*
X108668967Y-104055000D01*
X108353088Y-104117832D01*
X108055537Y-104241082D01*
X107787748Y-104420013D01*
X107560013Y-104647748D01*
X107381082Y-104915537D01*
X107257832Y-105213088D01*
X107195000Y-105528967D01*
X101710000Y-105528967D01*
X101710000Y-95528967D01*
X107195000Y-95528967D01*
X107195000Y-95851033D01*
X107257832Y-96166912D01*
X107381082Y-96464463D01*
X107560013Y-96732252D01*
X107787748Y-96959987D01*
X108055537Y-97138918D01*
X108353088Y-97262168D01*
X108668967Y-97325000D01*
X108991033Y-97325000D01*
X109306912Y-97262168D01*
X109604463Y-97138918D01*
X109872252Y-96959987D01*
X110099987Y-96732252D01*
X110278918Y-96464463D01*
X110402168Y-96166912D01*
X110465000Y-95851033D01*
X110465000Y-95528967D01*
X110402168Y-95213088D01*
X110278918Y-94915537D01*
X110099987Y-94647748D01*
X109872252Y-94420013D01*
X109604463Y-94241082D01*
X109306912Y-94117832D01*
X108991033Y-94055000D01*
X108668967Y-94055000D01*
X108353088Y-94117832D01*
X108055537Y-94241082D01*
X107787748Y-94420013D01*
X107560013Y-94647748D01*
X107381082Y-94915537D01*
X107257832Y-95213088D01*
X107195000Y-95528967D01*
X101710000Y-95528967D01*
X101710000Y-87928061D01*
X130844998Y-87928061D01*
X130844998Y-88131939D01*
X130884772Y-88331898D01*
X130962793Y-88520256D01*
X131076061Y-88689774D01*
X131119999Y-88733712D01*
X131120000Y-91266289D01*
X131076062Y-91310227D01*
X130962794Y-91479745D01*
X130884773Y-91668103D01*
X130844999Y-91868062D01*
X130844999Y-92071940D01*
X130884773Y-92271899D01*
X130962794Y-92460257D01*
X131076062Y-92629775D01*
X131220225Y-92773938D01*
X131389743Y-92887206D01*
X131578101Y-92965227D01*
X131778060Y-93005001D01*
X131981938Y-93005001D01*
X132181897Y-92965227D01*
X132370255Y-92887206D01*
X132539773Y-92773938D01*
X132683936Y-92629775D01*
X132797204Y-92460257D01*
X132875225Y-92271899D01*
X132885933Y-92218061D01*
X176115000Y-92218061D01*
X176115000Y-92421939D01*
X176154774Y-92621898D01*
X176232795Y-92810256D01*
X176346063Y-92979774D01*
X176390001Y-93023712D01*
X176390000Y-95546289D01*
X176346063Y-95590226D01*
X176232795Y-95759744D01*
X176154774Y-95948102D01*
X176115000Y-96148061D01*
X176115000Y-96351939D01*
X176154774Y-96551898D01*
X176232795Y-96740256D01*
X176346063Y-96909774D01*
X176490226Y-97053937D01*
X176659744Y-97167205D01*
X176848102Y-97245226D01*
X177048061Y-97285000D01*
X177251939Y-97285000D01*
X177451898Y-97245226D01*
X177640256Y-97167205D01*
X177809774Y-97053937D01*
X177953937Y-96909774D01*
X178067205Y-96740256D01*
X178145226Y-96551898D01*
X178185000Y-96351939D01*
X178185000Y-96148061D01*
X178145226Y-95948102D01*
X178067205Y-95759744D01*
X177953937Y-95590226D01*
X177931923Y-95568212D01*
X181795000Y-95568212D01*
X181795000Y-95791788D01*
X181838617Y-96011067D01*
X181924176Y-96217624D01*
X182048388Y-96403520D01*
X182206480Y-96561612D01*
X182392376Y-96685824D01*
X182598933Y-96771383D01*
X182818212Y-96815000D01*
X183041788Y-96815000D01*
X183261067Y-96771383D01*
X183467624Y-96685824D01*
X183653520Y-96561612D01*
X183811612Y-96403520D01*
X183880000Y-96301170D01*
X183948388Y-96403520D01*
X184106480Y-96561612D01*
X184292376Y-96685824D01*
X184498933Y-96771383D01*
X184718212Y-96815000D01*
X184941788Y-96815000D01*
X185161067Y-96771383D01*
X185367624Y-96685824D01*
X185553520Y-96561612D01*
X185711612Y-96403520D01*
X185835824Y-96217624D01*
X185921383Y-96011067D01*
X185965000Y-95791788D01*
X185965000Y-95568212D01*
X185921383Y-95348933D01*
X185835824Y-95142376D01*
X185711612Y-94956480D01*
X185553520Y-94798388D01*
X185367624Y-94674176D01*
X185161067Y-94588617D01*
X184941788Y-94545000D01*
X184718212Y-94545000D01*
X184498933Y-94588617D01*
X184292376Y-94674176D01*
X184106480Y-94798388D01*
X183948388Y-94956480D01*
X183880000Y-95058830D01*
X183811612Y-94956480D01*
X183653520Y-94798388D01*
X183467624Y-94674176D01*
X183261067Y-94588617D01*
X183041788Y-94545000D01*
X182818212Y-94545000D01*
X182598933Y-94588617D01*
X182392376Y-94674176D01*
X182206480Y-94798388D01*
X182048388Y-94956480D01*
X181924176Y-95142376D01*
X181838617Y-95348933D01*
X181795000Y-95568212D01*
X177931923Y-95568212D01*
X177910000Y-95546289D01*
X177910000Y-93023711D01*
X177953937Y-92979774D01*
X178067205Y-92810256D01*
X178145226Y-92621898D01*
X178185000Y-92421939D01*
X178185000Y-92218061D01*
X178145226Y-92018102D01*
X178067205Y-91829744D01*
X178044659Y-91796000D01*
X187233928Y-91796000D01*
X187233928Y-93496000D01*
X187246188Y-93620482D01*
X187282498Y-93740180D01*
X187341463Y-93850494D01*
X187420815Y-93947185D01*
X187517506Y-94026537D01*
X187627820Y-94085502D01*
X187700380Y-94107513D01*
X187568525Y-94239368D01*
X187406010Y-94482589D01*
X187294068Y-94752842D01*
X187237000Y-95039740D01*
X187237000Y-95332260D01*
X187294068Y-95619158D01*
X187406010Y-95889411D01*
X187568525Y-96132632D01*
X187775368Y-96339475D01*
X187949760Y-96456000D01*
X187775368Y-96572525D01*
X187568525Y-96779368D01*
X187406010Y-97022589D01*
X187294068Y-97292842D01*
X187237000Y-97579740D01*
X187237000Y-97872260D01*
X187294068Y-98159158D01*
X187406010Y-98429411D01*
X187568525Y-98672632D01*
X187775368Y-98879475D01*
X187949760Y-98996000D01*
X187775368Y-99112525D01*
X187568525Y-99319368D01*
X187406010Y-99562589D01*
X187294068Y-99832842D01*
X187237000Y-100119740D01*
X187237000Y-100412260D01*
X187294068Y-100699158D01*
X187406010Y-100969411D01*
X187568525Y-101212632D01*
X187775368Y-101419475D01*
X187949760Y-101536000D01*
X187775368Y-101652525D01*
X187568525Y-101859368D01*
X187406010Y-102102589D01*
X187294068Y-102372842D01*
X187237000Y-102659740D01*
X187237000Y-102952260D01*
X187294068Y-103239158D01*
X187406010Y-103509411D01*
X187568525Y-103752632D01*
X187775368Y-103959475D01*
X187949760Y-104076000D01*
X187775368Y-104192525D01*
X187568525Y-104399368D01*
X187406010Y-104642589D01*
X187294068Y-104912842D01*
X187237000Y-105199740D01*
X187237000Y-105492260D01*
X187294068Y-105779158D01*
X187406010Y-106049411D01*
X187568525Y-106292632D01*
X187775368Y-106499475D01*
X187957534Y-106621195D01*
X187840645Y-106690822D01*
X187624412Y-106885731D01*
X187450359Y-107119080D01*
X187325175Y-107381901D01*
X187280524Y-107529110D01*
X187401845Y-107759000D01*
X188595000Y-107759000D01*
X188595000Y-107739000D01*
X188849000Y-107739000D01*
X188849000Y-107759000D01*
X191135000Y-107759000D01*
X191135000Y-107739000D01*
X191389000Y-107739000D01*
X191389000Y-107759000D01*
X192582155Y-107759000D01*
X192703476Y-107529110D01*
X192658825Y-107381901D01*
X192533641Y-107119080D01*
X192359588Y-106885731D01*
X192143355Y-106690822D01*
X192026466Y-106621195D01*
X192208632Y-106499475D01*
X192415475Y-106292632D01*
X192577990Y-106049411D01*
X192689932Y-105779158D01*
X192747000Y-105492260D01*
X192747000Y-105199740D01*
X192689932Y-104912842D01*
X192577990Y-104642589D01*
X192415475Y-104399368D01*
X192208632Y-104192525D01*
X192034240Y-104076000D01*
X192208632Y-103959475D01*
X192415475Y-103752632D01*
X192577990Y-103509411D01*
X192689932Y-103239158D01*
X192747000Y-102952260D01*
X192747000Y-102659740D01*
X192689932Y-102372842D01*
X192577990Y-102102589D01*
X192415475Y-101859368D01*
X192208632Y-101652525D01*
X192026466Y-101530805D01*
X192143355Y-101461178D01*
X192359588Y-101266269D01*
X192533641Y-101032920D01*
X192658825Y-100770099D01*
X192703476Y-100622890D01*
X192582155Y-100393000D01*
X191389000Y-100393000D01*
X191389000Y-100413000D01*
X191135000Y-100413000D01*
X191135000Y-100393000D01*
X191115000Y-100393000D01*
X191115000Y-100139000D01*
X191135000Y-100139000D01*
X191135000Y-97853000D01*
X191389000Y-97853000D01*
X191389000Y-100139000D01*
X192582155Y-100139000D01*
X192703476Y-99909110D01*
X192658825Y-99761901D01*
X192533641Y-99499080D01*
X192359588Y-99265731D01*
X192143355Y-99070822D01*
X192017745Y-98996000D01*
X192143355Y-98921178D01*
X192359588Y-98726269D01*
X192533641Y-98492920D01*
X192658825Y-98230099D01*
X192703476Y-98082890D01*
X192582155Y-97853000D01*
X191389000Y-97853000D01*
X191135000Y-97853000D01*
X191115000Y-97853000D01*
X191115000Y-97599000D01*
X191135000Y-97599000D01*
X191135000Y-95313000D01*
X191389000Y-95313000D01*
X191389000Y-97599000D01*
X192582155Y-97599000D01*
X192703476Y-97369110D01*
X192658825Y-97221901D01*
X192533641Y-96959080D01*
X192359588Y-96725731D01*
X192143355Y-96530822D01*
X192017745Y-96456000D01*
X192143355Y-96381178D01*
X192359588Y-96186269D01*
X192533641Y-95952920D01*
X192658825Y-95690099D01*
X192703476Y-95542890D01*
X192582155Y-95313000D01*
X191389000Y-95313000D01*
X191135000Y-95313000D01*
X191115000Y-95313000D01*
X191115000Y-95059000D01*
X191135000Y-95059000D01*
X191135000Y-92773000D01*
X191389000Y-92773000D01*
X191389000Y-95059000D01*
X192582155Y-95059000D01*
X192703476Y-94829110D01*
X192658825Y-94681901D01*
X192533641Y-94419080D01*
X192359588Y-94185731D01*
X192143355Y-93990822D01*
X192017745Y-93916000D01*
X192143355Y-93841178D01*
X192359588Y-93646269D01*
X192533641Y-93412920D01*
X192658825Y-93150099D01*
X192703476Y-93002890D01*
X192582155Y-92773000D01*
X191389000Y-92773000D01*
X191135000Y-92773000D01*
X191115000Y-92773000D01*
X191115000Y-92519000D01*
X191135000Y-92519000D01*
X191135000Y-91325186D01*
X191389000Y-91325186D01*
X191389000Y-92519000D01*
X192582155Y-92519000D01*
X192703476Y-92289110D01*
X192658825Y-92141901D01*
X192533641Y-91879080D01*
X192359588Y-91645731D01*
X192143355Y-91450822D01*
X191893252Y-91301843D01*
X191618891Y-91204519D01*
X191389000Y-91325186D01*
X191135000Y-91325186D01*
X190905109Y-91204519D01*
X190630748Y-91301843D01*
X190380645Y-91450822D01*
X190184498Y-91627626D01*
X190161502Y-91551820D01*
X190102537Y-91441506D01*
X190023185Y-91344815D01*
X189926494Y-91265463D01*
X189816180Y-91206498D01*
X189696482Y-91170188D01*
X189572000Y-91157928D01*
X187872000Y-91157928D01*
X187747518Y-91170188D01*
X187627820Y-91206498D01*
X187517506Y-91265463D01*
X187420815Y-91344815D01*
X187341463Y-91441506D01*
X187282498Y-91551820D01*
X187246188Y-91671518D01*
X187233928Y-91796000D01*
X178044659Y-91796000D01*
X177953937Y-91660226D01*
X177809774Y-91516063D01*
X177640256Y-91402795D01*
X177451898Y-91324774D01*
X177251939Y-91285000D01*
X177048061Y-91285000D01*
X176848102Y-91324774D01*
X176659744Y-91402795D01*
X176490226Y-91516063D01*
X176346063Y-91660226D01*
X176232795Y-91829744D01*
X176154774Y-92018102D01*
X176115000Y-92218061D01*
X132885933Y-92218061D01*
X132914999Y-92071940D01*
X132914999Y-91868062D01*
X132875225Y-91668103D01*
X132797204Y-91479745D01*
X132683936Y-91310227D01*
X132639999Y-91266290D01*
X132639999Y-88733710D01*
X132683935Y-88689774D01*
X132797203Y-88520256D01*
X132875224Y-88331898D01*
X132914998Y-88131939D01*
X132914998Y-87928061D01*
X132875224Y-87728102D01*
X132797203Y-87539744D01*
X132683935Y-87370226D01*
X132539772Y-87226063D01*
X132370254Y-87112795D01*
X132181896Y-87034774D01*
X131981937Y-86995000D01*
X131778059Y-86995000D01*
X131578100Y-87034774D01*
X131389742Y-87112795D01*
X131220224Y-87226063D01*
X131076061Y-87370226D01*
X130962793Y-87539744D01*
X130884772Y-87728102D01*
X130844998Y-87928061D01*
X101710000Y-87928061D01*
X101710000Y-79648061D01*
X107395000Y-79648061D01*
X107395000Y-79851939D01*
X107434774Y-80051898D01*
X107512795Y-80240256D01*
X107626063Y-80409774D01*
X107670001Y-80453712D01*
X107670000Y-81746289D01*
X107626063Y-81790226D01*
X107512795Y-81959744D01*
X107434774Y-82148102D01*
X107395000Y-82348061D01*
X107395000Y-82551939D01*
X107434774Y-82751898D01*
X107512795Y-82940256D01*
X107626063Y-83109774D01*
X107770226Y-83253937D01*
X107939744Y-83367205D01*
X108128102Y-83445226D01*
X108328061Y-83485000D01*
X108390199Y-83485000D01*
X108591197Y-83685998D01*
X108615000Y-83715002D01*
X108730725Y-83809975D01*
X108862754Y-83880547D01*
X109006015Y-83924004D01*
X109117668Y-83935001D01*
X109117677Y-83935001D01*
X109155000Y-83938677D01*
X109192323Y-83935001D01*
X110207677Y-83935001D01*
X110244999Y-83938677D01*
X110282321Y-83935001D01*
X110282332Y-83935001D01*
X110393985Y-83924004D01*
X110537246Y-83880547D01*
X110669275Y-83809975D01*
X110785000Y-83715002D01*
X110808802Y-83685999D01*
X111009801Y-83485000D01*
X111071939Y-83485000D01*
X111271898Y-83445226D01*
X111460256Y-83367205D01*
X111629774Y-83253937D01*
X111673711Y-83210000D01*
X113716440Y-83210000D01*
X113724774Y-83251898D01*
X113802795Y-83440256D01*
X113916063Y-83609774D01*
X114060226Y-83753937D01*
X114229744Y-83867205D01*
X114418102Y-83945226D01*
X114618061Y-83985000D01*
X114640912Y-83985000D01*
X114692795Y-84110256D01*
X114806063Y-84279774D01*
X114950226Y-84423937D01*
X115119744Y-84537205D01*
X115308102Y-84615226D01*
X115508061Y-84655000D01*
X115711939Y-84655000D01*
X115911898Y-84615226D01*
X116100256Y-84537205D01*
X116269774Y-84423937D01*
X116413937Y-84279774D01*
X116527205Y-84110256D01*
X116605226Y-83921898D01*
X116645000Y-83721939D01*
X116645000Y-83518061D01*
X116605226Y-83318102D01*
X116527205Y-83129744D01*
X116413937Y-82960226D01*
X116370000Y-82916289D01*
X116370000Y-82794320D01*
X116373676Y-82756997D01*
X116370000Y-82719674D01*
X116370000Y-82719665D01*
X116359003Y-82608012D01*
X116315546Y-82464751D01*
X116244974Y-82332722D01*
X116150001Y-82216997D01*
X116121004Y-82193200D01*
X116096500Y-82168696D01*
X124674977Y-82168696D01*
X124674977Y-82372574D01*
X124714751Y-82572533D01*
X124792772Y-82760891D01*
X124906040Y-82930409D01*
X125050203Y-83074572D01*
X125219721Y-83187840D01*
X125408079Y-83265861D01*
X125608038Y-83305635D01*
X125811916Y-83305635D01*
X126011875Y-83265861D01*
X126200233Y-83187840D01*
X126369751Y-83074572D01*
X126513914Y-82930409D01*
X126627182Y-82760891D01*
X126705203Y-82572533D01*
X126744977Y-82372574D01*
X126744977Y-82310436D01*
X127002997Y-82052416D01*
X127032001Y-82028613D01*
X127126974Y-81912888D01*
X127197546Y-81780859D01*
X127241003Y-81637598D01*
X127252000Y-81525945D01*
X127255677Y-81488612D01*
X127252000Y-81451279D01*
X127252000Y-80499322D01*
X127255676Y-80461999D01*
X127252000Y-80424676D01*
X127252000Y-80424667D01*
X127241003Y-80313014D01*
X127197546Y-80169753D01*
X127126974Y-80037724D01*
X127032001Y-79921999D01*
X127003004Y-79898202D01*
X126834802Y-79730000D01*
X127110000Y-79454802D01*
X127425000Y-79769802D01*
X127425000Y-79831939D01*
X127464774Y-80031898D01*
X127542795Y-80220256D01*
X127656063Y-80389774D01*
X127700000Y-80433711D01*
X127700001Y-81566288D01*
X127656063Y-81610226D01*
X127542795Y-81779744D01*
X127464774Y-81968102D01*
X127425000Y-82168061D01*
X127425000Y-82371939D01*
X127464774Y-82571898D01*
X127542795Y-82760256D01*
X127656063Y-82929774D01*
X127800226Y-83073937D01*
X127969744Y-83187205D01*
X128158102Y-83265226D01*
X128358061Y-83305000D01*
X128561939Y-83305000D01*
X128761898Y-83265226D01*
X128950256Y-83187205D01*
X129119774Y-83073937D01*
X129263937Y-82929774D01*
X129377205Y-82760256D01*
X129455226Y-82571898D01*
X129495000Y-82371939D01*
X129495000Y-82168061D01*
X129494285Y-82164466D01*
X144933865Y-82164466D01*
X144933865Y-82368344D01*
X144973639Y-82568303D01*
X145051660Y-82756661D01*
X145164928Y-82926179D01*
X145294169Y-83055420D01*
X145284774Y-83078103D01*
X145245000Y-83278062D01*
X145245000Y-83481940D01*
X145284774Y-83681899D01*
X145362795Y-83870257D01*
X145476063Y-84039775D01*
X145620226Y-84183938D01*
X145789744Y-84297206D01*
X145978102Y-84375227D01*
X146178061Y-84415001D01*
X146381939Y-84415001D01*
X146581898Y-84375227D01*
X146770256Y-84297206D01*
X146939774Y-84183938D01*
X147083937Y-84039775D01*
X147197205Y-83870257D01*
X147275226Y-83681899D01*
X147315000Y-83481940D01*
X147315000Y-83419802D01*
X147835621Y-82899181D01*
X147856063Y-82929774D01*
X148000226Y-83073937D01*
X148169744Y-83187205D01*
X148358102Y-83265226D01*
X148558061Y-83305000D01*
X148761939Y-83305000D01*
X148961898Y-83265226D01*
X149150256Y-83187205D01*
X149319774Y-83073937D01*
X149463937Y-82929774D01*
X149577205Y-82760256D01*
X149655226Y-82571898D01*
X149689321Y-82400491D01*
X149991002Y-82098809D01*
X150020001Y-82075011D01*
X150114974Y-81959286D01*
X150185546Y-81827257D01*
X150229003Y-81683996D01*
X150240000Y-81572343D01*
X150240000Y-81572333D01*
X150243676Y-81535010D01*
X150240000Y-81497687D01*
X150240000Y-80502313D01*
X150243676Y-80464990D01*
X150240000Y-80427667D01*
X150240000Y-80427657D01*
X150229003Y-80316004D01*
X150185546Y-80172743D01*
X150114974Y-80040714D01*
X150020001Y-79924989D01*
X149991004Y-79901192D01*
X149780010Y-79690198D01*
X149780010Y-79628061D01*
X165105000Y-79628061D01*
X165105000Y-79831939D01*
X165144774Y-80031898D01*
X165222795Y-80220256D01*
X165336063Y-80389774D01*
X165480226Y-80533937D01*
X165649744Y-80647205D01*
X165838102Y-80725226D01*
X166038061Y-80765000D01*
X166100198Y-80765000D01*
X166118000Y-80782802D01*
X166118001Y-81217198D01*
X166100198Y-81235000D01*
X166038061Y-81235000D01*
X165838102Y-81274774D01*
X165649744Y-81352795D01*
X165480226Y-81466063D01*
X165336063Y-81610226D01*
X165222795Y-81779744D01*
X165144774Y-81968102D01*
X165105000Y-82168061D01*
X165105000Y-82371939D01*
X165144774Y-82571898D01*
X165222795Y-82760256D01*
X165336063Y-82929774D01*
X165480226Y-83073937D01*
X165485019Y-83077140D01*
X165455000Y-83228059D01*
X165455000Y-83431937D01*
X165494774Y-83631896D01*
X165572795Y-83820254D01*
X165686063Y-83989772D01*
X165830226Y-84133935D01*
X165999744Y-84247203D01*
X166188102Y-84325224D01*
X166388061Y-84364998D01*
X166591939Y-84364998D01*
X166791898Y-84325224D01*
X166980256Y-84247203D01*
X167149774Y-84133935D01*
X167293937Y-83989772D01*
X167407205Y-83820254D01*
X167485226Y-83631896D01*
X167525000Y-83431937D01*
X167525000Y-83394791D01*
X168017620Y-82902172D01*
X168036063Y-82929774D01*
X168180226Y-83073937D01*
X168349744Y-83187205D01*
X168538102Y-83265226D01*
X168738061Y-83305000D01*
X168941939Y-83305000D01*
X169141898Y-83265226D01*
X169330256Y-83187205D01*
X169499774Y-83073937D01*
X169643937Y-82929774D01*
X169757205Y-82760256D01*
X169835226Y-82571898D01*
X169871804Y-82388008D01*
X170081002Y-82178810D01*
X170110001Y-82155011D01*
X170204974Y-82039286D01*
X170275546Y-81907257D01*
X170319003Y-81763996D01*
X170330000Y-81652343D01*
X170330000Y-81652335D01*
X170333676Y-81615010D01*
X170330000Y-81577685D01*
X170330000Y-81440000D01*
X189771928Y-81440000D01*
X189771928Y-83040000D01*
X189784188Y-83164482D01*
X189820498Y-83284180D01*
X189879463Y-83394494D01*
X189958815Y-83491185D01*
X190055506Y-83570537D01*
X190165820Y-83629502D01*
X190285518Y-83665812D01*
X190410000Y-83678072D01*
X192010000Y-83678072D01*
X192134482Y-83665812D01*
X192254180Y-83629502D01*
X192364494Y-83570537D01*
X192461185Y-83491185D01*
X192540537Y-83394494D01*
X192599502Y-83284180D01*
X192635812Y-83164482D01*
X192648072Y-83040000D01*
X192648072Y-81440000D01*
X192635812Y-81315518D01*
X192599502Y-81195820D01*
X192540537Y-81085506D01*
X192461185Y-80988815D01*
X192364494Y-80909463D01*
X192254180Y-80850498D01*
X192134482Y-80814188D01*
X192010000Y-80801928D01*
X190410000Y-80801928D01*
X190285518Y-80814188D01*
X190165820Y-80850498D01*
X190055506Y-80909463D01*
X189958815Y-80988815D01*
X189879463Y-81085506D01*
X189820498Y-81195820D01*
X189784188Y-81315518D01*
X189771928Y-81440000D01*
X170330000Y-81440000D01*
X170330000Y-80422315D01*
X170333676Y-80384990D01*
X170330000Y-80347665D01*
X170330000Y-80347657D01*
X170319003Y-80236004D01*
X170275546Y-80092743D01*
X170216728Y-79982702D01*
X187946903Y-79982702D01*
X188018486Y-80226671D01*
X188273996Y-80347571D01*
X188548184Y-80416300D01*
X188830512Y-80430217D01*
X189110130Y-80388787D01*
X189376292Y-80293603D01*
X189501514Y-80226671D01*
X189573097Y-79982702D01*
X188760000Y-79169605D01*
X187946903Y-79982702D01*
X170216728Y-79982702D01*
X170204974Y-79960714D01*
X170110001Y-79844989D01*
X170081004Y-79821192D01*
X169950010Y-79690198D01*
X169950010Y-79628061D01*
X169910236Y-79428102D01*
X169832215Y-79239744D01*
X169718947Y-79070226D01*
X169709233Y-79060512D01*
X187319783Y-79060512D01*
X187361213Y-79340130D01*
X187456397Y-79606292D01*
X187523329Y-79731514D01*
X187767298Y-79803097D01*
X188580395Y-78990000D01*
X188939605Y-78990000D01*
X189752702Y-79803097D01*
X189996671Y-79731514D01*
X190117571Y-79476004D01*
X190186300Y-79201816D01*
X190200217Y-78919488D01*
X190158787Y-78639870D01*
X190063603Y-78373708D01*
X189996671Y-78248486D01*
X189752702Y-78176903D01*
X188939605Y-78990000D01*
X188580395Y-78990000D01*
X187767298Y-78176903D01*
X187523329Y-78248486D01*
X187402429Y-78503996D01*
X187333700Y-78778184D01*
X187319783Y-79060512D01*
X169709233Y-79060512D01*
X169574784Y-78926063D01*
X169405266Y-78812795D01*
X169216908Y-78734774D01*
X169016949Y-78695000D01*
X168954812Y-78695000D01*
X168544999Y-78285187D01*
X168544999Y-78178061D01*
X168509044Y-77997298D01*
X187946903Y-77997298D01*
X188760000Y-78810395D01*
X189573097Y-77997298D01*
X189501514Y-77753329D01*
X189246004Y-77632429D01*
X188971816Y-77563700D01*
X188689488Y-77549783D01*
X188409870Y-77591213D01*
X188143708Y-77686397D01*
X188018486Y-77753329D01*
X187946903Y-77997298D01*
X168509044Y-77997298D01*
X168505225Y-77978102D01*
X168427204Y-77789744D01*
X168313936Y-77620226D01*
X168169773Y-77476063D01*
X168000255Y-77362795D01*
X167811897Y-77284774D01*
X167611938Y-77245000D01*
X167408060Y-77245000D01*
X167208101Y-77284774D01*
X167019743Y-77362795D01*
X166850225Y-77476063D01*
X166706062Y-77620226D01*
X166592794Y-77789744D01*
X166514773Y-77978102D01*
X166474999Y-78178061D01*
X166474999Y-78320199D01*
X166100199Y-78695000D01*
X166038061Y-78695000D01*
X165838102Y-78734774D01*
X165649744Y-78812795D01*
X165480226Y-78926063D01*
X165336063Y-79070226D01*
X165222795Y-79239744D01*
X165144774Y-79428102D01*
X165105000Y-79628061D01*
X149780010Y-79628061D01*
X149740236Y-79428102D01*
X149662215Y-79239744D01*
X149548947Y-79070226D01*
X149404784Y-78926063D01*
X149235266Y-78812795D01*
X149046908Y-78734774D01*
X148846949Y-78695000D01*
X148784812Y-78695000D01*
X148385000Y-78295189D01*
X148385000Y-78248059D01*
X148345226Y-78048100D01*
X148267205Y-77859742D01*
X148153937Y-77690224D01*
X148009774Y-77546061D01*
X147840256Y-77432793D01*
X147651898Y-77354772D01*
X147451939Y-77314998D01*
X147248061Y-77314998D01*
X147048102Y-77354772D01*
X146859744Y-77432793D01*
X146690226Y-77546061D01*
X146546063Y-77690224D01*
X146432795Y-77859742D01*
X146354774Y-78048100D01*
X146315000Y-78248059D01*
X146315000Y-78310198D01*
X145930199Y-78695000D01*
X145868061Y-78695000D01*
X145668102Y-78734774D01*
X145479744Y-78812795D01*
X145310226Y-78926063D01*
X145166063Y-79070226D01*
X145052795Y-79239744D01*
X144974774Y-79428102D01*
X144935000Y-79628061D01*
X144935000Y-79831939D01*
X144974774Y-80031898D01*
X145052795Y-80220256D01*
X145166063Y-80389774D01*
X145310226Y-80533937D01*
X145479744Y-80647205D01*
X145668102Y-80725226D01*
X145868061Y-80765000D01*
X145930198Y-80765000D01*
X146052000Y-80886802D01*
X146052000Y-81108469D01*
X145929064Y-81231405D01*
X145866926Y-81231405D01*
X145666967Y-81271179D01*
X145478609Y-81349200D01*
X145309091Y-81462468D01*
X145164928Y-81606631D01*
X145051660Y-81776149D01*
X144973639Y-81964507D01*
X144933865Y-82164466D01*
X129494285Y-82164466D01*
X129455226Y-81968102D01*
X129377205Y-81779744D01*
X129263937Y-81610226D01*
X129220000Y-81566289D01*
X129220000Y-80433711D01*
X129263937Y-80389774D01*
X129377205Y-80220256D01*
X129455226Y-80031898D01*
X129495000Y-79831939D01*
X129495000Y-79628061D01*
X129455226Y-79428102D01*
X129377205Y-79239744D01*
X129263937Y-79070226D01*
X129119774Y-78926063D01*
X128950256Y-78812795D01*
X128761898Y-78734774D01*
X128561939Y-78695000D01*
X128499802Y-78695000D01*
X128145002Y-78340201D01*
X128145002Y-78278061D01*
X128105228Y-78078102D01*
X128027207Y-77889744D01*
X127913939Y-77720226D01*
X127769776Y-77576063D01*
X127600258Y-77462795D01*
X127411900Y-77384774D01*
X127211941Y-77345000D01*
X127008063Y-77345000D01*
X126808104Y-77384774D01*
X126619746Y-77462795D01*
X126450228Y-77576063D01*
X126306065Y-77720226D01*
X126192797Y-77889744D01*
X126114776Y-78078102D01*
X126075002Y-78278061D01*
X126075002Y-78340196D01*
X125720199Y-78695000D01*
X125658061Y-78695000D01*
X125458102Y-78734774D01*
X125269744Y-78812795D01*
X125100226Y-78926063D01*
X124956063Y-79070226D01*
X124842795Y-79239744D01*
X124764774Y-79428102D01*
X124725000Y-79628061D01*
X124725000Y-79831939D01*
X124764774Y-80031898D01*
X124842795Y-80220256D01*
X124956063Y-80389774D01*
X125100226Y-80533937D01*
X125269744Y-80647205D01*
X125458102Y-80725226D01*
X125658061Y-80765000D01*
X125720198Y-80765000D01*
X125732000Y-80776802D01*
X125732001Y-81173810D01*
X125670176Y-81235635D01*
X125608038Y-81235635D01*
X125408079Y-81275409D01*
X125219721Y-81353430D01*
X125050203Y-81466698D01*
X124906040Y-81610861D01*
X124792772Y-81780379D01*
X124714751Y-81968737D01*
X124674977Y-82168696D01*
X116096500Y-82168696D01*
X115086806Y-81159002D01*
X115063003Y-81129999D01*
X114947278Y-81035026D01*
X114815249Y-80964454D01*
X114671988Y-80920997D01*
X114560335Y-80910000D01*
X114560324Y-80910000D01*
X114523002Y-80906324D01*
X114485680Y-80910000D01*
X111654622Y-80910000D01*
X111724974Y-80824276D01*
X111795546Y-80692247D01*
X111839003Y-80548986D01*
X111850000Y-80437333D01*
X111850000Y-80437323D01*
X111853676Y-80400000D01*
X111850000Y-80362677D01*
X111850000Y-74717325D01*
X111853676Y-74680000D01*
X111850000Y-74642675D01*
X111850000Y-74642667D01*
X111839003Y-74531014D01*
X111795546Y-74387753D01*
X111724974Y-74255724D01*
X111630001Y-74139999D01*
X111601004Y-74116202D01*
X111485000Y-74000198D01*
X111485000Y-73938061D01*
X111445226Y-73738102D01*
X111367205Y-73549744D01*
X111253937Y-73380226D01*
X111109774Y-73236063D01*
X110940256Y-73122795D01*
X110751898Y-73044774D01*
X110551939Y-73005000D01*
X110348061Y-73005000D01*
X110148102Y-73044774D01*
X109959744Y-73122795D01*
X109790226Y-73236063D01*
X109646063Y-73380226D01*
X109532795Y-73549744D01*
X109454774Y-73738102D01*
X109415000Y-73938061D01*
X109415000Y-74141939D01*
X109454774Y-74341898D01*
X109532795Y-74530256D01*
X109646063Y-74699774D01*
X109790226Y-74843937D01*
X109959744Y-74957205D01*
X110148102Y-75035226D01*
X110330000Y-75071407D01*
X110330001Y-80085197D01*
X109190000Y-81225199D01*
X109190000Y-80453711D01*
X109233937Y-80409774D01*
X109347205Y-80240256D01*
X109425226Y-80051898D01*
X109465000Y-79851939D01*
X109465000Y-79648061D01*
X109425226Y-79448102D01*
X109347205Y-79259744D01*
X109233937Y-79090226D01*
X109089774Y-78946063D01*
X108920256Y-78832795D01*
X108731898Y-78754774D01*
X108531939Y-78715000D01*
X108328061Y-78715000D01*
X108128102Y-78754774D01*
X107939744Y-78832795D01*
X107770226Y-78946063D01*
X107626063Y-79090226D01*
X107512795Y-79259744D01*
X107434774Y-79448102D01*
X107395000Y-79648061D01*
X101710000Y-79648061D01*
X101710000Y-67289721D01*
X102865000Y-67289721D01*
X102865000Y-67710279D01*
X102947047Y-68122756D01*
X103107988Y-68511302D01*
X103341637Y-68860983D01*
X103639017Y-69158363D01*
X103988698Y-69392012D01*
X104377244Y-69552953D01*
X104789721Y-69635000D01*
X105210279Y-69635000D01*
X105622756Y-69552953D01*
X106011302Y-69392012D01*
X106360983Y-69158363D01*
X106658363Y-68860983D01*
X106892012Y-68511302D01*
X107052953Y-68122756D01*
X107135000Y-67710279D01*
X107135000Y-67289721D01*
X107052953Y-66877244D01*
X106958826Y-66650000D01*
X116561928Y-66650000D01*
X116561928Y-68750000D01*
X116574188Y-68874482D01*
X116610498Y-68994180D01*
X116669463Y-69104494D01*
X116748815Y-69201185D01*
X116845506Y-69280537D01*
X116955820Y-69339502D01*
X117075518Y-69375812D01*
X117200000Y-69388072D01*
X118863270Y-69388072D01*
X119061202Y-69586004D01*
X119085000Y-69615002D01*
X119113998Y-69638800D01*
X119200724Y-69709975D01*
X119332754Y-69780547D01*
X119476015Y-69824004D01*
X119587668Y-69835001D01*
X119587677Y-69835001D01*
X119625000Y-69838677D01*
X119662323Y-69835001D01*
X121917677Y-69835001D01*
X121954999Y-69838677D01*
X121992321Y-69835001D01*
X121992332Y-69835001D01*
X122103985Y-69824004D01*
X122247246Y-69780547D01*
X122379275Y-69709975D01*
X122495000Y-69615002D01*
X122518803Y-69585998D01*
X122800356Y-69304445D01*
X122838504Y-69320246D01*
X123164042Y-69385000D01*
X123495958Y-69385000D01*
X123821496Y-69320246D01*
X123859643Y-69304445D01*
X123868996Y-69313798D01*
X123869002Y-69313803D01*
X124141197Y-69585998D01*
X124165000Y-69615002D01*
X124280725Y-69709975D01*
X124412754Y-69780547D01*
X124556015Y-69824004D01*
X124667668Y-69835001D01*
X124667677Y-69835001D01*
X124705000Y-69838677D01*
X124742323Y-69835001D01*
X126997677Y-69835001D01*
X127034999Y-69838677D01*
X127072321Y-69835001D01*
X127072332Y-69835001D01*
X127183985Y-69824004D01*
X127327246Y-69780547D01*
X127459275Y-69709975D01*
X127575000Y-69615002D01*
X127598803Y-69585998D01*
X127880356Y-69304445D01*
X127918504Y-69320246D01*
X128244042Y-69385000D01*
X128575958Y-69385000D01*
X128901496Y-69320246D01*
X128939643Y-69304445D01*
X128948996Y-69313798D01*
X128949002Y-69313803D01*
X129221197Y-69585998D01*
X129245000Y-69615002D01*
X129360725Y-69709975D01*
X129492754Y-69780547D01*
X129636015Y-69824004D01*
X129747668Y-69835001D01*
X129747677Y-69835001D01*
X129785000Y-69838677D01*
X129822323Y-69835001D01*
X132077677Y-69835001D01*
X132114999Y-69838677D01*
X132152321Y-69835001D01*
X132152332Y-69835001D01*
X132263985Y-69824004D01*
X132407246Y-69780547D01*
X132539275Y-69709975D01*
X132655000Y-69615002D01*
X132678803Y-69585998D01*
X132960356Y-69304445D01*
X132998504Y-69320246D01*
X133324042Y-69385000D01*
X133655958Y-69385000D01*
X133981496Y-69320246D01*
X134019643Y-69304445D01*
X134028996Y-69313798D01*
X134029001Y-69313802D01*
X134496205Y-69781007D01*
X134519999Y-69810001D01*
X134548992Y-69833795D01*
X134548996Y-69833799D01*
X134619685Y-69891811D01*
X134635724Y-69904974D01*
X134767753Y-69975546D01*
X134911014Y-70019003D01*
X135022667Y-70030000D01*
X135022676Y-70030000D01*
X135059999Y-70033676D01*
X135097322Y-70030000D01*
X136962678Y-70030000D01*
X137000000Y-70033676D01*
X137037322Y-70030000D01*
X137037333Y-70030000D01*
X137148986Y-70019003D01*
X137292247Y-69975546D01*
X137424276Y-69904974D01*
X137540001Y-69810001D01*
X137563804Y-69780997D01*
X138040356Y-69304445D01*
X138078504Y-69320246D01*
X138404042Y-69385000D01*
X138735958Y-69385000D01*
X139061496Y-69320246D01*
X139099643Y-69304445D01*
X139108996Y-69313798D01*
X139109002Y-69313803D01*
X139381197Y-69585998D01*
X139405000Y-69615002D01*
X139520725Y-69709975D01*
X139652754Y-69780547D01*
X139796015Y-69824004D01*
X139907668Y-69835001D01*
X139907677Y-69835001D01*
X139945000Y-69838677D01*
X139982323Y-69835001D01*
X142237677Y-69835001D01*
X142274999Y-69838677D01*
X142312321Y-69835001D01*
X142312332Y-69835001D01*
X142423985Y-69824004D01*
X142567246Y-69780547D01*
X142699275Y-69709975D01*
X142815000Y-69615002D01*
X142838803Y-69585998D01*
X143120356Y-69304445D01*
X143158504Y-69320246D01*
X143484042Y-69385000D01*
X143815958Y-69385000D01*
X144141496Y-69320246D01*
X144179643Y-69304445D01*
X144188996Y-69313798D01*
X144189002Y-69313803D01*
X144461197Y-69585998D01*
X144485000Y-69615002D01*
X144600725Y-69709975D01*
X144732754Y-69780547D01*
X144876015Y-69824004D01*
X144987668Y-69835001D01*
X144987677Y-69835001D01*
X145025000Y-69838677D01*
X145062323Y-69835001D01*
X147317677Y-69835001D01*
X147354999Y-69838677D01*
X147392321Y-69835001D01*
X147392332Y-69835001D01*
X147503985Y-69824004D01*
X147647246Y-69780547D01*
X147779275Y-69709975D01*
X147895000Y-69615002D01*
X147918803Y-69585998D01*
X148200356Y-69304445D01*
X148238504Y-69320246D01*
X148564042Y-69385000D01*
X148895958Y-69385000D01*
X149221496Y-69320246D01*
X149259643Y-69304445D01*
X149268996Y-69313798D01*
X149269002Y-69313803D01*
X149541197Y-69585998D01*
X149565000Y-69615002D01*
X149680725Y-69709975D01*
X149812754Y-69780547D01*
X149956015Y-69824004D01*
X150067668Y-69835001D01*
X150067677Y-69835001D01*
X150105000Y-69838677D01*
X150142323Y-69835001D01*
X152397677Y-69835001D01*
X152434999Y-69838677D01*
X152472321Y-69835001D01*
X152472332Y-69835001D01*
X152583985Y-69824004D01*
X152727246Y-69780547D01*
X152859275Y-69709975D01*
X152975000Y-69615002D01*
X152998803Y-69585998D01*
X153280356Y-69304445D01*
X153318504Y-69320246D01*
X153644042Y-69385000D01*
X153975958Y-69385000D01*
X154301496Y-69320246D01*
X154339643Y-69304445D01*
X154348996Y-69313798D01*
X154349002Y-69313803D01*
X154621197Y-69585998D01*
X154645000Y-69615002D01*
X154760725Y-69709975D01*
X154892754Y-69780547D01*
X155036015Y-69824004D01*
X155147668Y-69835001D01*
X155147677Y-69835001D01*
X155185000Y-69838677D01*
X155222323Y-69835001D01*
X157477677Y-69835001D01*
X157514999Y-69838677D01*
X157552321Y-69835001D01*
X157552332Y-69835001D01*
X157663985Y-69824004D01*
X157807246Y-69780547D01*
X157939275Y-69709975D01*
X158055000Y-69615002D01*
X158078803Y-69585998D01*
X158360356Y-69304445D01*
X158398504Y-69320246D01*
X158724042Y-69385000D01*
X159055958Y-69385000D01*
X159381496Y-69320246D01*
X159419643Y-69304445D01*
X159428996Y-69313798D01*
X159429002Y-69313803D01*
X159701197Y-69585998D01*
X159725000Y-69615002D01*
X159840725Y-69709975D01*
X159972754Y-69780547D01*
X160116015Y-69824004D01*
X160227668Y-69835001D01*
X160227677Y-69835001D01*
X160265000Y-69838677D01*
X160302323Y-69835001D01*
X162557677Y-69835001D01*
X162594999Y-69838677D01*
X162632321Y-69835001D01*
X162632332Y-69835001D01*
X162743985Y-69824004D01*
X162887246Y-69780547D01*
X163019275Y-69709975D01*
X163135000Y-69615002D01*
X163158803Y-69585998D01*
X163440356Y-69304445D01*
X163478504Y-69320246D01*
X163804042Y-69385000D01*
X164135958Y-69385000D01*
X164461496Y-69320246D01*
X164499643Y-69304445D01*
X164508996Y-69313798D01*
X164509002Y-69313803D01*
X164781197Y-69585998D01*
X164805000Y-69615002D01*
X164920725Y-69709975D01*
X165052754Y-69780547D01*
X165196015Y-69824004D01*
X165307668Y-69835001D01*
X165307677Y-69835001D01*
X165345000Y-69838677D01*
X165382323Y-69835001D01*
X167637677Y-69835001D01*
X167674999Y-69838677D01*
X167712321Y-69835001D01*
X167712332Y-69835001D01*
X167823985Y-69824004D01*
X167967246Y-69780547D01*
X168099275Y-69709975D01*
X168215000Y-69615002D01*
X168238803Y-69585998D01*
X168520356Y-69304445D01*
X168558504Y-69320246D01*
X168884042Y-69385000D01*
X169215958Y-69385000D01*
X169541496Y-69320246D01*
X169579643Y-69304445D01*
X169588996Y-69313798D01*
X169589002Y-69313803D01*
X169861197Y-69585998D01*
X169885000Y-69615002D01*
X170000725Y-69709975D01*
X170132754Y-69780547D01*
X170276015Y-69824004D01*
X170387668Y-69835001D01*
X170387677Y-69835001D01*
X170425000Y-69838677D01*
X170462323Y-69835001D01*
X172717677Y-69835001D01*
X172754999Y-69838677D01*
X172792321Y-69835001D01*
X172792332Y-69835001D01*
X172903985Y-69824004D01*
X173047246Y-69780547D01*
X173179275Y-69709975D01*
X173295000Y-69615002D01*
X173318803Y-69585998D01*
X173600356Y-69304445D01*
X173638504Y-69320246D01*
X173964042Y-69385000D01*
X174295958Y-69385000D01*
X174621496Y-69320246D01*
X174928147Y-69193228D01*
X175204125Y-69008825D01*
X175400000Y-68812950D01*
X175595875Y-69008825D01*
X175871853Y-69193228D01*
X176178504Y-69320246D01*
X176504042Y-69385000D01*
X176835958Y-69385000D01*
X177161496Y-69320246D01*
X177468147Y-69193228D01*
X177744125Y-69008825D01*
X177978825Y-68774125D01*
X178163228Y-68498147D01*
X178290246Y-68191496D01*
X178355000Y-67865958D01*
X178355000Y-67534042D01*
X178306402Y-67289721D01*
X187865000Y-67289721D01*
X187865000Y-67710279D01*
X187947047Y-68122756D01*
X188107988Y-68511302D01*
X188341637Y-68860983D01*
X188639017Y-69158363D01*
X188988698Y-69392012D01*
X189377244Y-69552953D01*
X189789721Y-69635000D01*
X190210279Y-69635000D01*
X190622756Y-69552953D01*
X191011302Y-69392012D01*
X191360983Y-69158363D01*
X191658363Y-68860983D01*
X191892012Y-68511302D01*
X192052953Y-68122756D01*
X192135000Y-67710279D01*
X192135000Y-67289721D01*
X192052953Y-66877244D01*
X191892012Y-66488698D01*
X191658363Y-66139017D01*
X191360983Y-65841637D01*
X191011302Y-65607988D01*
X190622756Y-65447047D01*
X190210279Y-65365000D01*
X189789721Y-65365000D01*
X189377244Y-65447047D01*
X188988698Y-65607988D01*
X188639017Y-65841637D01*
X188341637Y-66139017D01*
X188107988Y-66488698D01*
X187947047Y-66877244D01*
X187865000Y-67289721D01*
X178306402Y-67289721D01*
X178290246Y-67208504D01*
X178163228Y-66901853D01*
X177978825Y-66625875D01*
X177744125Y-66391175D01*
X177468147Y-66206772D01*
X177161496Y-66079754D01*
X176835958Y-66015000D01*
X176504042Y-66015000D01*
X176178504Y-66079754D01*
X175871853Y-66206772D01*
X175595875Y-66391175D01*
X175400000Y-66587050D01*
X175204125Y-66391175D01*
X174928147Y-66206772D01*
X174621496Y-66079754D01*
X174295958Y-66015000D01*
X173964042Y-66015000D01*
X173638504Y-66079754D01*
X173331853Y-66206772D01*
X173055875Y-66391175D01*
X172860000Y-66587050D01*
X172664125Y-66391175D01*
X172388147Y-66206772D01*
X172081496Y-66079754D01*
X171755958Y-66015000D01*
X171424042Y-66015000D01*
X171098504Y-66079754D01*
X170791853Y-66206772D01*
X170515875Y-66391175D01*
X170320000Y-66587050D01*
X170124125Y-66391175D01*
X169848147Y-66206772D01*
X169541496Y-66079754D01*
X169215958Y-66015000D01*
X168884042Y-66015000D01*
X168558504Y-66079754D01*
X168251853Y-66206772D01*
X167975875Y-66391175D01*
X167780000Y-66587050D01*
X167584125Y-66391175D01*
X167308147Y-66206772D01*
X167001496Y-66079754D01*
X166675958Y-66015000D01*
X166344042Y-66015000D01*
X166018504Y-66079754D01*
X165711853Y-66206772D01*
X165435875Y-66391175D01*
X165240000Y-66587050D01*
X165044125Y-66391175D01*
X164768147Y-66206772D01*
X164461496Y-66079754D01*
X164135958Y-66015000D01*
X163804042Y-66015000D01*
X163478504Y-66079754D01*
X163171853Y-66206772D01*
X162895875Y-66391175D01*
X162700000Y-66587050D01*
X162504125Y-66391175D01*
X162228147Y-66206772D01*
X161921496Y-66079754D01*
X161595958Y-66015000D01*
X161264042Y-66015000D01*
X160938504Y-66079754D01*
X160631853Y-66206772D01*
X160355875Y-66391175D01*
X160160000Y-66587050D01*
X159964125Y-66391175D01*
X159688147Y-66206772D01*
X159381496Y-66079754D01*
X159055958Y-66015000D01*
X158724042Y-66015000D01*
X158398504Y-66079754D01*
X158091853Y-66206772D01*
X157815875Y-66391175D01*
X157620000Y-66587050D01*
X157424125Y-66391175D01*
X157148147Y-66206772D01*
X156841496Y-66079754D01*
X156515958Y-66015000D01*
X156184042Y-66015000D01*
X155858504Y-66079754D01*
X155551853Y-66206772D01*
X155275875Y-66391175D01*
X155080000Y-66587050D01*
X154884125Y-66391175D01*
X154608147Y-66206772D01*
X154301496Y-66079754D01*
X153975958Y-66015000D01*
X153644042Y-66015000D01*
X153318504Y-66079754D01*
X153011853Y-66206772D01*
X152735875Y-66391175D01*
X152540000Y-66587050D01*
X152344125Y-66391175D01*
X152068147Y-66206772D01*
X151761496Y-66079754D01*
X151435958Y-66015000D01*
X151104042Y-66015000D01*
X150778504Y-66079754D01*
X150471853Y-66206772D01*
X150195875Y-66391175D01*
X150000000Y-66587050D01*
X149804125Y-66391175D01*
X149528147Y-66206772D01*
X149221496Y-66079754D01*
X148895958Y-66015000D01*
X148564042Y-66015000D01*
X148238504Y-66079754D01*
X147931853Y-66206772D01*
X147655875Y-66391175D01*
X147460000Y-66587050D01*
X147264125Y-66391175D01*
X146988147Y-66206772D01*
X146681496Y-66079754D01*
X146355958Y-66015000D01*
X146024042Y-66015000D01*
X145698504Y-66079754D01*
X145391853Y-66206772D01*
X145115875Y-66391175D01*
X144920000Y-66587050D01*
X144724125Y-66391175D01*
X144448147Y-66206772D01*
X144141496Y-66079754D01*
X143815958Y-66015000D01*
X143484042Y-66015000D01*
X143158504Y-66079754D01*
X142851853Y-66206772D01*
X142575875Y-66391175D01*
X142380000Y-66587050D01*
X142184125Y-66391175D01*
X141908147Y-66206772D01*
X141601496Y-66079754D01*
X141275958Y-66015000D01*
X140944042Y-66015000D01*
X140618504Y-66079754D01*
X140311853Y-66206772D01*
X140035875Y-66391175D01*
X139840000Y-66587050D01*
X139644125Y-66391175D01*
X139368147Y-66206772D01*
X139061496Y-66079754D01*
X138735958Y-66015000D01*
X138404042Y-66015000D01*
X138078504Y-66079754D01*
X137771853Y-66206772D01*
X137495875Y-66391175D01*
X137300000Y-66587050D01*
X137104125Y-66391175D01*
X136828147Y-66206772D01*
X136521496Y-66079754D01*
X136195958Y-66015000D01*
X135864042Y-66015000D01*
X135538504Y-66079754D01*
X135231853Y-66206772D01*
X134955875Y-66391175D01*
X134760000Y-66587050D01*
X134564125Y-66391175D01*
X134288147Y-66206772D01*
X133981496Y-66079754D01*
X133655958Y-66015000D01*
X133324042Y-66015000D01*
X132998504Y-66079754D01*
X132691853Y-66206772D01*
X132415875Y-66391175D01*
X132220000Y-66587050D01*
X132024125Y-66391175D01*
X131748147Y-66206772D01*
X131441496Y-66079754D01*
X131115958Y-66015000D01*
X130784042Y-66015000D01*
X130458504Y-66079754D01*
X130151853Y-66206772D01*
X129875875Y-66391175D01*
X129680000Y-66587050D01*
X129484125Y-66391175D01*
X129208147Y-66206772D01*
X128901496Y-66079754D01*
X128575958Y-66015000D01*
X128244042Y-66015000D01*
X127918504Y-66079754D01*
X127611853Y-66206772D01*
X127335875Y-66391175D01*
X127140000Y-66587050D01*
X126944125Y-66391175D01*
X126668147Y-66206772D01*
X126361496Y-66079754D01*
X126035958Y-66015000D01*
X125704042Y-66015000D01*
X125378504Y-66079754D01*
X125071853Y-66206772D01*
X124795875Y-66391175D01*
X124600000Y-66587050D01*
X124404125Y-66391175D01*
X124128147Y-66206772D01*
X123821496Y-66079754D01*
X123495958Y-66015000D01*
X123164042Y-66015000D01*
X122838504Y-66079754D01*
X122531853Y-66206772D01*
X122255875Y-66391175D01*
X122060000Y-66587050D01*
X121864125Y-66391175D01*
X121588147Y-66206772D01*
X121281496Y-66079754D01*
X120955958Y-66015000D01*
X120624042Y-66015000D01*
X120298504Y-66079754D01*
X119991853Y-66206772D01*
X119838042Y-66309546D01*
X119830537Y-66295506D01*
X119751185Y-66198815D01*
X119654494Y-66119463D01*
X119544180Y-66060498D01*
X119424482Y-66024188D01*
X119300000Y-66011928D01*
X117200000Y-66011928D01*
X117075518Y-66024188D01*
X116955820Y-66060498D01*
X116845506Y-66119463D01*
X116748815Y-66198815D01*
X116669463Y-66295506D01*
X116610498Y-66405820D01*
X116574188Y-66525518D01*
X116561928Y-66650000D01*
X106958826Y-66650000D01*
X106892012Y-66488698D01*
X106658363Y-66139017D01*
X106360983Y-65841637D01*
X106011302Y-65607988D01*
X105622756Y-65447047D01*
X105210279Y-65365000D01*
X104789721Y-65365000D01*
X104377244Y-65447047D01*
X103988698Y-65607988D01*
X103639017Y-65841637D01*
X103341637Y-66139017D01*
X103107988Y-66488698D01*
X102947047Y-66877244D01*
X102865000Y-67289721D01*
X101710000Y-67289721D01*
X101710000Y-64710000D01*
X193290000Y-64710000D01*
X193290001Y-150290000D01*
G04 #@! TA.AperFunction,Conductor*
D30*
G36*
X193290001Y-150290000D02*
G01*
X177946908Y-150290000D01*
X177961714Y-150284079D01*
X178115089Y-149973160D01*
X178204860Y-149638295D01*
X178227576Y-149292350D01*
X178182366Y-148948620D01*
X178070966Y-148620315D01*
X177961714Y-148415921D01*
X177684531Y-148305074D01*
X176639605Y-149350000D01*
X176653748Y-149364143D01*
X176474143Y-149543748D01*
X176460000Y-149529605D01*
X176445858Y-149543748D01*
X176266253Y-149364143D01*
X176280395Y-149350000D01*
X175235469Y-148305074D01*
X174958286Y-148415921D01*
X174804911Y-148726840D01*
X174715140Y-149061705D01*
X174692424Y-149407650D01*
X174737634Y-149751380D01*
X174849034Y-150079685D01*
X174958286Y-150284079D01*
X174973092Y-150290000D01*
X172866908Y-150290000D01*
X172881714Y-150284079D01*
X173035089Y-149973160D01*
X173124860Y-149638295D01*
X173147576Y-149292350D01*
X173102366Y-148948620D01*
X172990966Y-148620315D01*
X172881714Y-148415921D01*
X172604531Y-148305074D01*
X171559605Y-149350000D01*
X171573748Y-149364143D01*
X171394143Y-149543748D01*
X171380000Y-149529605D01*
X171365858Y-149543748D01*
X171186253Y-149364143D01*
X171200395Y-149350000D01*
X170155469Y-148305074D01*
X169878286Y-148415921D01*
X169724911Y-148726840D01*
X169635140Y-149061705D01*
X169612424Y-149407650D01*
X169657634Y-149751380D01*
X169769034Y-150079685D01*
X169878286Y-150284079D01*
X169893092Y-150290000D01*
X154127000Y-150290000D01*
X154127000Y-143864249D01*
X154695000Y-143864249D01*
X154695000Y-145075752D01*
X154711423Y-145242499D01*
X154776324Y-145456447D01*
X154881717Y-145653623D01*
X155023552Y-145826449D01*
X155070000Y-145864568D01*
X155070001Y-147505431D01*
X155023551Y-147543551D01*
X154881716Y-147716377D01*
X154776324Y-147913554D01*
X154711423Y-148127502D01*
X154695000Y-148294249D01*
X154695000Y-149005752D01*
X154711423Y-149172499D01*
X154776324Y-149386447D01*
X154881717Y-149583623D01*
X155023552Y-149756449D01*
X155196378Y-149898284D01*
X155393554Y-150003676D01*
X155607502Y-150068577D01*
X155830000Y-150090491D01*
X156052499Y-150068577D01*
X156266447Y-150003676D01*
X156463623Y-149898284D01*
X156636449Y-149756449D01*
X156778284Y-149583623D01*
X156871086Y-149410000D01*
X163428913Y-149410000D01*
X163521717Y-149583623D01*
X163663552Y-149756449D01*
X163836378Y-149898284D01*
X164033554Y-150003676D01*
X164247502Y-150068577D01*
X164470000Y-150090491D01*
X164692499Y-150068577D01*
X164906447Y-150003676D01*
X165103623Y-149898284D01*
X165276449Y-149756449D01*
X165418284Y-149583623D01*
X165523676Y-149386446D01*
X165588577Y-149172498D01*
X165605000Y-149005751D01*
X165605000Y-148294248D01*
X165588577Y-148127501D01*
X165587961Y-148125469D01*
X170335074Y-148125469D01*
X171380000Y-149170395D01*
X172424926Y-148125469D01*
X172314079Y-147848286D01*
X172003160Y-147694911D01*
X171668295Y-147605140D01*
X171322350Y-147582424D01*
X170978620Y-147627634D01*
X170650315Y-147739034D01*
X170445921Y-147848286D01*
X170335074Y-148125469D01*
X165587961Y-148125469D01*
X165523676Y-147913553D01*
X165418284Y-147716377D01*
X165276449Y-147543551D01*
X165230000Y-147505431D01*
X165230000Y-146636655D01*
X172160000Y-146636655D01*
X172160000Y-146983345D01*
X172227636Y-147323373D01*
X172360308Y-147643673D01*
X172552919Y-147931935D01*
X172798065Y-148177081D01*
X173086327Y-148369692D01*
X173406627Y-148502364D01*
X173746655Y-148570000D01*
X174093345Y-148570000D01*
X174433373Y-148502364D01*
X174753673Y-148369692D01*
X175041935Y-148177081D01*
X175093547Y-148125469D01*
X175415074Y-148125469D01*
X176460000Y-149170395D01*
X177504926Y-148125469D01*
X177394079Y-147848286D01*
X177083160Y-147694911D01*
X176748295Y-147605140D01*
X176402350Y-147582424D01*
X176058620Y-147627634D01*
X175730315Y-147739034D01*
X175525921Y-147848286D01*
X175415074Y-148125469D01*
X175093547Y-148125469D01*
X175287081Y-147931935D01*
X175479692Y-147643673D01*
X175612364Y-147323373D01*
X175619057Y-147289721D01*
X187865000Y-147289721D01*
X187865000Y-147710279D01*
X187947047Y-148122756D01*
X188107988Y-148511302D01*
X188341637Y-148860983D01*
X188639017Y-149158363D01*
X188988698Y-149392012D01*
X189377244Y-149552953D01*
X189789721Y-149635000D01*
X190210279Y-149635000D01*
X190622756Y-149552953D01*
X191011302Y-149392012D01*
X191360983Y-149158363D01*
X191658363Y-148860983D01*
X191892012Y-148511302D01*
X192052953Y-148122756D01*
X192135000Y-147710279D01*
X192135000Y-147289721D01*
X192052953Y-146877244D01*
X191892012Y-146488698D01*
X191658363Y-146139017D01*
X191360983Y-145841637D01*
X191011302Y-145607988D01*
X190622756Y-145447047D01*
X190210279Y-145365000D01*
X189789721Y-145365000D01*
X189377244Y-145447047D01*
X188988698Y-145607988D01*
X188639017Y-145841637D01*
X188341637Y-146139017D01*
X188107988Y-146488698D01*
X187947047Y-146877244D01*
X187865000Y-147289721D01*
X175619057Y-147289721D01*
X175680000Y-146983345D01*
X175680000Y-146636655D01*
X175612364Y-146296627D01*
X175479692Y-145976327D01*
X175287081Y-145688065D01*
X175093547Y-145494531D01*
X175415074Y-145494531D01*
X175525921Y-145771714D01*
X175836840Y-145925089D01*
X176171705Y-146014860D01*
X176517650Y-146037576D01*
X176861380Y-145992366D01*
X177189685Y-145880966D01*
X177394079Y-145771714D01*
X177504926Y-145494531D01*
X176460000Y-144449605D01*
X175415074Y-145494531D01*
X175093547Y-145494531D01*
X175041935Y-145442919D01*
X174753673Y-145250308D01*
X174433373Y-145117636D01*
X174093345Y-145050000D01*
X173746655Y-145050000D01*
X173406627Y-145117636D01*
X173086327Y-145250308D01*
X172798065Y-145442919D01*
X172552919Y-145688065D01*
X172360308Y-145976327D01*
X172227636Y-146296627D01*
X172160000Y-146636655D01*
X165230000Y-146636655D01*
X165230000Y-145864569D01*
X165276449Y-145826449D01*
X165418284Y-145653623D01*
X165503319Y-145494531D01*
X170335074Y-145494531D01*
X170445921Y-145771714D01*
X170756840Y-145925089D01*
X171091705Y-146014860D01*
X171437650Y-146037576D01*
X171781380Y-145992366D01*
X172109685Y-145880966D01*
X172314079Y-145771714D01*
X172424926Y-145494531D01*
X171380000Y-144449605D01*
X170335074Y-145494531D01*
X165503319Y-145494531D01*
X165523676Y-145456447D01*
X165588577Y-145242499D01*
X165605000Y-145075752D01*
X165605000Y-144327650D01*
X169612424Y-144327650D01*
X169657634Y-144671380D01*
X169769034Y-144999685D01*
X169878286Y-145204079D01*
X170155469Y-145314926D01*
X171200395Y-144270000D01*
X171559605Y-144270000D01*
X172604531Y-145314926D01*
X172881714Y-145204079D01*
X173035089Y-144893160D01*
X173124860Y-144558295D01*
X173140004Y-144327650D01*
X174692424Y-144327650D01*
X174737634Y-144671380D01*
X174849034Y-144999685D01*
X174958286Y-145204079D01*
X175235469Y-145314926D01*
X176280395Y-144270000D01*
X176639605Y-144270000D01*
X177684531Y-145314926D01*
X177961714Y-145204079D01*
X178115089Y-144893160D01*
X178204860Y-144558295D01*
X178227576Y-144212350D01*
X178182366Y-143868620D01*
X178070966Y-143540315D01*
X177961714Y-143335921D01*
X177684531Y-143225074D01*
X176639605Y-144270000D01*
X176280395Y-144270000D01*
X175235469Y-143225074D01*
X174958286Y-143335921D01*
X174804911Y-143646840D01*
X174715140Y-143981705D01*
X174692424Y-144327650D01*
X173140004Y-144327650D01*
X173147576Y-144212350D01*
X173102366Y-143868620D01*
X172990966Y-143540315D01*
X172881714Y-143335921D01*
X172604531Y-143225074D01*
X171559605Y-144270000D01*
X171200395Y-144270000D01*
X170155469Y-143225074D01*
X169878286Y-143335921D01*
X169724911Y-143646840D01*
X169635140Y-143981705D01*
X169612424Y-144327650D01*
X165605000Y-144327650D01*
X165605000Y-143864248D01*
X165588577Y-143697501D01*
X165523676Y-143483553D01*
X165418284Y-143286377D01*
X165276449Y-143113551D01*
X165193492Y-143045469D01*
X170335074Y-143045469D01*
X171380000Y-144090395D01*
X172424926Y-143045469D01*
X175415074Y-143045469D01*
X176460000Y-144090395D01*
X177504926Y-143045469D01*
X177394079Y-142768286D01*
X177083160Y-142614911D01*
X176748295Y-142525140D01*
X176402350Y-142502424D01*
X176058620Y-142547634D01*
X175730315Y-142659034D01*
X175525921Y-142768286D01*
X175415074Y-143045469D01*
X172424926Y-143045469D01*
X172314079Y-142768286D01*
X172003160Y-142614911D01*
X171668295Y-142525140D01*
X171322350Y-142502424D01*
X170978620Y-142547634D01*
X170650315Y-142659034D01*
X170445921Y-142768286D01*
X170335074Y-143045469D01*
X165193492Y-143045469D01*
X165103623Y-142971716D01*
X164906446Y-142866324D01*
X164692498Y-142801423D01*
X164470000Y-142779509D01*
X164247501Y-142801423D01*
X164033553Y-142866324D01*
X163836377Y-142971716D01*
X163663551Y-143113551D01*
X163521716Y-143286377D01*
X163416324Y-143483554D01*
X163351423Y-143697502D01*
X163335000Y-143864249D01*
X163335000Y-144083096D01*
X163320022Y-144076892D01*
X163134552Y-144040000D01*
X162945448Y-144040000D01*
X162759978Y-144076892D01*
X162585269Y-144149259D01*
X162428036Y-144254319D01*
X162294319Y-144388036D01*
X162189259Y-144545269D01*
X162116892Y-144719978D01*
X162080000Y-144905448D01*
X162080000Y-145094552D01*
X162116892Y-145280022D01*
X162189259Y-145454731D01*
X162294319Y-145611964D01*
X162428036Y-145745681D01*
X162585269Y-145850741D01*
X162759978Y-145923108D01*
X162945448Y-145960000D01*
X163134552Y-145960000D01*
X163320022Y-145923108D01*
X163494731Y-145850741D01*
X163616638Y-145769285D01*
X163663552Y-145826449D01*
X163710000Y-145864568D01*
X163710001Y-147505431D01*
X163663551Y-147543551D01*
X163521716Y-147716377D01*
X163428914Y-147890000D01*
X156871087Y-147890000D01*
X156778284Y-147716377D01*
X156636449Y-147543551D01*
X156590000Y-147505431D01*
X156590000Y-145864569D01*
X156636449Y-145826449D01*
X156683362Y-145769285D01*
X156805269Y-145850741D01*
X156979978Y-145923108D01*
X157165448Y-145960000D01*
X157354552Y-145960000D01*
X157540022Y-145923108D01*
X157714731Y-145850741D01*
X157871964Y-145745681D01*
X158005681Y-145611964D01*
X158110741Y-145454731D01*
X158183108Y-145280022D01*
X158220000Y-145094552D01*
X158220000Y-144905448D01*
X158183108Y-144719978D01*
X158110741Y-144545269D01*
X158005681Y-144388036D01*
X157871964Y-144254319D01*
X157714731Y-144149259D01*
X157540022Y-144076892D01*
X157354552Y-144040000D01*
X157165448Y-144040000D01*
X156979978Y-144076892D01*
X156965000Y-144083096D01*
X156965000Y-143864248D01*
X156948577Y-143697501D01*
X156883676Y-143483553D01*
X156778284Y-143286377D01*
X156636449Y-143113551D01*
X156463623Y-142971716D01*
X156266446Y-142866324D01*
X156052498Y-142801423D01*
X155830000Y-142779509D01*
X155607501Y-142801423D01*
X155393553Y-142866324D01*
X155196377Y-142971716D01*
X155023551Y-143113551D01*
X154881716Y-143286377D01*
X154776324Y-143483554D01*
X154711423Y-143697502D01*
X154695000Y-143864249D01*
X154127000Y-143864249D01*
X154127000Y-142128061D01*
X156665000Y-142128061D01*
X156665000Y-142331939D01*
X156704774Y-142531898D01*
X156782795Y-142720256D01*
X156896063Y-142889774D01*
X157040226Y-143033937D01*
X157209744Y-143147205D01*
X157398102Y-143225226D01*
X157598061Y-143265000D01*
X157801939Y-143265000D01*
X158001898Y-143225226D01*
X158190256Y-143147205D01*
X158359774Y-143033937D01*
X158503937Y-142889774D01*
X158617205Y-142720256D01*
X158695226Y-142531898D01*
X158716034Y-142427288D01*
X158750932Y-142602729D01*
X158821414Y-142772889D01*
X158897879Y-142887327D01*
X158900997Y-142918985D01*
X158935867Y-143033937D01*
X158944454Y-143062246D01*
X159015026Y-143194276D01*
X159054871Y-143242826D01*
X159109999Y-143310001D01*
X159139003Y-143333804D01*
X160266024Y-144460826D01*
X160250932Y-144497261D01*
X160215000Y-144677901D01*
X160215000Y-144862079D01*
X160250932Y-145042719D01*
X160321414Y-145212879D01*
X160423738Y-145366018D01*
X160553972Y-145496252D01*
X160707111Y-145598576D01*
X160877271Y-145669058D01*
X161057911Y-145704990D01*
X161242089Y-145704990D01*
X161422729Y-145669058D01*
X161592889Y-145598576D01*
X161746028Y-145496252D01*
X161876262Y-145366018D01*
X161978586Y-145212879D01*
X162049068Y-145042719D01*
X162085000Y-144862079D01*
X162085000Y-144677901D01*
X162049068Y-144497261D01*
X161978586Y-144327101D01*
X161909051Y-144223035D01*
X161899003Y-144121014D01*
X161855546Y-143977753D01*
X161784974Y-143845724D01*
X161690001Y-143729999D01*
X161661003Y-143706201D01*
X160550472Y-142595671D01*
X160585000Y-142422089D01*
X160585000Y-142237911D01*
X160579127Y-142208384D01*
X160630256Y-142187205D01*
X160678454Y-142155000D01*
X161233412Y-142155000D01*
X161553455Y-142475044D01*
X161564764Y-142531898D01*
X161642785Y-142720256D01*
X161756053Y-142889774D01*
X161900216Y-143033937D01*
X162069734Y-143147205D01*
X162258092Y-143225226D01*
X162458051Y-143265000D01*
X162661929Y-143265000D01*
X162861888Y-143225226D01*
X163050246Y-143147205D01*
X163219764Y-143033937D01*
X163363927Y-142889774D01*
X163477195Y-142720256D01*
X163555216Y-142531898D01*
X163594990Y-142331939D01*
X163594990Y-142128061D01*
X163555216Y-141928102D01*
X163477195Y-141739744D01*
X163363927Y-141570226D01*
X163219764Y-141426063D01*
X163050246Y-141312795D01*
X162861888Y-141234774D01*
X162805034Y-141223465D01*
X162256524Y-140674956D01*
X162228807Y-140641183D01*
X162094049Y-140530589D01*
X161940303Y-140448411D01*
X161773480Y-140397805D01*
X161643467Y-140385000D01*
X161643459Y-140385000D01*
X161599990Y-140380719D01*
X161556521Y-140385000D01*
X160678454Y-140385000D01*
X160630256Y-140352795D01*
X160441898Y-140274774D01*
X160241939Y-140235000D01*
X160038061Y-140235000D01*
X159838102Y-140274774D01*
X159649744Y-140352795D01*
X159601546Y-140385000D01*
X157973465Y-140385000D01*
X157929999Y-140380719D01*
X157886533Y-140385000D01*
X157886523Y-140385000D01*
X157756510Y-140397805D01*
X157589687Y-140448411D01*
X157435941Y-140530589D01*
X157301183Y-140641183D01*
X157273466Y-140674956D01*
X157104952Y-140843470D01*
X157071184Y-140871183D01*
X157043471Y-140904951D01*
X157043468Y-140904954D01*
X156991644Y-140968102D01*
X156960590Y-141005941D01*
X156878412Y-141159687D01*
X156827805Y-141326510D01*
X156815000Y-141456523D01*
X156815000Y-141456531D01*
X156810719Y-141500000D01*
X156815000Y-141543469D01*
X156815000Y-141691546D01*
X156782795Y-141739744D01*
X156704774Y-141928102D01*
X156665000Y-142128061D01*
X154127000Y-142128061D01*
X154127000Y-127124193D01*
X155395000Y-127124193D01*
X155395000Y-127475807D01*
X155463596Y-127820665D01*
X155598153Y-128145515D01*
X155793500Y-128437871D01*
X156042129Y-128686500D01*
X156334485Y-128881847D01*
X156659335Y-129016404D01*
X157004193Y-129085000D01*
X157355807Y-129085000D01*
X157700665Y-129016404D01*
X158025515Y-128881847D01*
X158317871Y-128686500D01*
X158566500Y-128437871D01*
X158761847Y-128145515D01*
X158896404Y-127820665D01*
X158965000Y-127475807D01*
X158965000Y-127124193D01*
X158896404Y-126779335D01*
X158761847Y-126454485D01*
X158566500Y-126162129D01*
X158317871Y-125913500D01*
X158025515Y-125718153D01*
X157700665Y-125583596D01*
X157355807Y-125515000D01*
X157004193Y-125515000D01*
X156659335Y-125583596D01*
X156334485Y-125718153D01*
X156042129Y-125913500D01*
X155793500Y-126162129D01*
X155598153Y-126454485D01*
X155463596Y-126779335D01*
X155395000Y-127124193D01*
X154127000Y-127124193D01*
X154127000Y-113142349D01*
X156117256Y-113142349D01*
X156231118Y-113422090D01*
X156546296Y-113577961D01*
X156885826Y-113669349D01*
X157236661Y-113692741D01*
X157585319Y-113647240D01*
X157918400Y-113534594D01*
X158128882Y-113422090D01*
X158242744Y-113142349D01*
X157180000Y-112079605D01*
X156117256Y-113142349D01*
X154127000Y-113142349D01*
X154127000Y-111956661D01*
X155387259Y-111956661D01*
X155432760Y-112305319D01*
X155545406Y-112638400D01*
X155657910Y-112848882D01*
X155937651Y-112962744D01*
X157000395Y-111900000D01*
X157359605Y-111900000D01*
X158422349Y-112962744D01*
X158702090Y-112848882D01*
X158857961Y-112533704D01*
X158949349Y-112194174D01*
X158972741Y-111843339D01*
X158927240Y-111494681D01*
X158814594Y-111161600D01*
X158702090Y-110951118D01*
X158422349Y-110837256D01*
X157359605Y-111900000D01*
X157000395Y-111900000D01*
X155937651Y-110837256D01*
X155657910Y-110951118D01*
X155502039Y-111266296D01*
X155410651Y-111605826D01*
X155387259Y-111956661D01*
X154127000Y-111956661D01*
X154127000Y-110657651D01*
X156117256Y-110657651D01*
X157180000Y-111720395D01*
X158242744Y-110657651D01*
X158128882Y-110377910D01*
X157813704Y-110222039D01*
X157474174Y-110130651D01*
X157123339Y-110107259D01*
X156774681Y-110152760D01*
X156441600Y-110265406D01*
X156231118Y-110377910D01*
X156117256Y-110657651D01*
X154127000Y-110657651D01*
X154127000Y-107000000D01*
X154124560Y-106975224D01*
X154117333Y-106951399D01*
X154105597Y-106929443D01*
X154089803Y-106910197D01*
X154070557Y-106894403D01*
X154048601Y-106882667D01*
X154024776Y-106875440D01*
X154000000Y-106873000D01*
X138127000Y-106873000D01*
X138127000Y-103648061D01*
X166465000Y-103648061D01*
X166465000Y-103851939D01*
X166504774Y-104051898D01*
X166582795Y-104240256D01*
X166696063Y-104409774D01*
X166840226Y-104553937D01*
X167009744Y-104667205D01*
X167198102Y-104745226D01*
X167398061Y-104785000D01*
X167460198Y-104785000D01*
X167730000Y-105054803D01*
X167730001Y-108856288D01*
X167686063Y-108900226D01*
X167572795Y-109069744D01*
X167494774Y-109258102D01*
X167455000Y-109458061D01*
X167455000Y-109661939D01*
X167494774Y-109861898D01*
X167572795Y-110050256D01*
X167686063Y-110219774D01*
X167830226Y-110363937D01*
X167999744Y-110477205D01*
X168188102Y-110555226D01*
X168388061Y-110595000D01*
X168591939Y-110595000D01*
X168791898Y-110555226D01*
X168980256Y-110477205D01*
X169149774Y-110363937D01*
X169233971Y-110279740D01*
X187237000Y-110279740D01*
X187237000Y-110572260D01*
X187294068Y-110859158D01*
X187406010Y-111129411D01*
X187568525Y-111372632D01*
X187775368Y-111579475D01*
X188018589Y-111741990D01*
X188288842Y-111853932D01*
X188575740Y-111911000D01*
X188868260Y-111911000D01*
X189155158Y-111853932D01*
X189425411Y-111741990D01*
X189668632Y-111579475D01*
X189875475Y-111372632D01*
X189992000Y-111198240D01*
X190108525Y-111372632D01*
X190315368Y-111579475D01*
X190558589Y-111741990D01*
X190828842Y-111853932D01*
X191115740Y-111911000D01*
X191408260Y-111911000D01*
X191695158Y-111853932D01*
X191965411Y-111741990D01*
X192208632Y-111579475D01*
X192415475Y-111372632D01*
X192577990Y-111129411D01*
X192689932Y-110859158D01*
X192747000Y-110572260D01*
X192747000Y-110279740D01*
X192689932Y-109992842D01*
X192577990Y-109722589D01*
X192415475Y-109479368D01*
X192208632Y-109272525D01*
X192026466Y-109150805D01*
X192143355Y-109081178D01*
X192359588Y-108886269D01*
X192533641Y-108652920D01*
X192658825Y-108390099D01*
X192703476Y-108242890D01*
X192582155Y-108013000D01*
X191389000Y-108013000D01*
X191389000Y-108033000D01*
X191135000Y-108033000D01*
X191135000Y-108013000D01*
X188849000Y-108013000D01*
X188849000Y-108033000D01*
X188595000Y-108033000D01*
X188595000Y-108013000D01*
X187401845Y-108013000D01*
X187280524Y-108242890D01*
X187325175Y-108390099D01*
X187450359Y-108652920D01*
X187624412Y-108886269D01*
X187840645Y-109081178D01*
X187957534Y-109150805D01*
X187775368Y-109272525D01*
X187568525Y-109479368D01*
X187406010Y-109722589D01*
X187294068Y-109992842D01*
X187237000Y-110279740D01*
X169233971Y-110279740D01*
X169293937Y-110219774D01*
X169407205Y-110050256D01*
X169485226Y-109861898D01*
X169525000Y-109661939D01*
X169525000Y-109458061D01*
X169485226Y-109258102D01*
X169407205Y-109069744D01*
X169293937Y-108900226D01*
X169250000Y-108856289D01*
X169250000Y-105648061D01*
X172715000Y-105648061D01*
X172715000Y-105851939D01*
X172754774Y-106051898D01*
X172832795Y-106240256D01*
X172946063Y-106409774D01*
X173090226Y-106553937D01*
X173259744Y-106667205D01*
X173448102Y-106745226D01*
X173648061Y-106785000D01*
X173851939Y-106785000D01*
X174051898Y-106745226D01*
X174240256Y-106667205D01*
X174409774Y-106553937D01*
X174453711Y-106510000D01*
X174896289Y-106510000D01*
X174940226Y-106553937D01*
X175109744Y-106667205D01*
X175298102Y-106745226D01*
X175498061Y-106785000D01*
X175701939Y-106785000D01*
X175901898Y-106745226D01*
X176090256Y-106667205D01*
X176259774Y-106553937D01*
X176403937Y-106409774D01*
X176517205Y-106240256D01*
X176595226Y-106051898D01*
X176635000Y-105851939D01*
X176635000Y-105648061D01*
X176595226Y-105448102D01*
X176517205Y-105259744D01*
X176403937Y-105090226D01*
X176259774Y-104946063D01*
X176090256Y-104832795D01*
X175901898Y-104754774D01*
X175701939Y-104715000D01*
X175498061Y-104715000D01*
X175298102Y-104754774D01*
X175109744Y-104832795D01*
X174940226Y-104946063D01*
X174896289Y-104990000D01*
X174453711Y-104990000D01*
X174409774Y-104946063D01*
X174240256Y-104832795D01*
X174051898Y-104754774D01*
X173851939Y-104715000D01*
X173648061Y-104715000D01*
X173448102Y-104754774D01*
X173259744Y-104832795D01*
X173090226Y-104946063D01*
X172946063Y-105090226D01*
X172832795Y-105259744D01*
X172754774Y-105448102D01*
X172715000Y-105648061D01*
X169250000Y-105648061D01*
X169250000Y-104777322D01*
X169253676Y-104739999D01*
X169250000Y-104702676D01*
X169250000Y-104702667D01*
X169239003Y-104591014D01*
X169195546Y-104447753D01*
X169124974Y-104315724D01*
X169080065Y-104261002D01*
X169053799Y-104228996D01*
X169053795Y-104228992D01*
X169030001Y-104199999D01*
X169001009Y-104176206D01*
X168535000Y-103710198D01*
X168535000Y-103648061D01*
X168495226Y-103448102D01*
X168417205Y-103259744D01*
X168303937Y-103090226D01*
X168159774Y-102946063D01*
X167990256Y-102832795D01*
X167801898Y-102754774D01*
X167601939Y-102715000D01*
X167398061Y-102715000D01*
X167198102Y-102754774D01*
X167009744Y-102832795D01*
X166840226Y-102946063D01*
X166696063Y-103090226D01*
X166582795Y-103259744D01*
X166504774Y-103448102D01*
X166465000Y-103648061D01*
X138127000Y-103648061D01*
X138127000Y-94000000D01*
X138124560Y-93975224D01*
X138117333Y-93951399D01*
X138105597Y-93929443D01*
X138089803Y-93910197D01*
X138070557Y-93894403D01*
X138048601Y-93882667D01*
X138024776Y-93875440D01*
X138000000Y-93873000D01*
X126127000Y-93873000D01*
X126127000Y-91000000D01*
X126124560Y-90975224D01*
X126117333Y-90951399D01*
X126105597Y-90929443D01*
X126089803Y-90910197D01*
X126070557Y-90894403D01*
X126048601Y-90882667D01*
X126024776Y-90875440D01*
X126000000Y-90873000D01*
X111000000Y-90873000D01*
X110975224Y-90875440D01*
X110951399Y-90882667D01*
X110929443Y-90894403D01*
X110910197Y-90910197D01*
X110894403Y-90929443D01*
X110882667Y-90951399D01*
X110875440Y-90975224D01*
X110873000Y-91000000D01*
X110873000Y-150290000D01*
X101710000Y-150290000D01*
X101710000Y-147289721D01*
X102865000Y-147289721D01*
X102865000Y-147710279D01*
X102947047Y-148122756D01*
X103107988Y-148511302D01*
X103341637Y-148860983D01*
X103639017Y-149158363D01*
X103988698Y-149392012D01*
X104377244Y-149552953D01*
X104789721Y-149635000D01*
X105210279Y-149635000D01*
X105622756Y-149552953D01*
X106011302Y-149392012D01*
X106360983Y-149158363D01*
X106658363Y-148860983D01*
X106892012Y-148511302D01*
X107052953Y-148122756D01*
X107135000Y-147710279D01*
X107135000Y-147289721D01*
X107052953Y-146877244D01*
X106892012Y-146488698D01*
X106658363Y-146139017D01*
X106360983Y-145841637D01*
X106011302Y-145607988D01*
X105622756Y-145447047D01*
X105210279Y-145365000D01*
X104789721Y-145365000D01*
X104377244Y-145447047D01*
X103988698Y-145607988D01*
X103639017Y-145841637D01*
X103341637Y-146139017D01*
X103107988Y-146488698D01*
X102947047Y-146877244D01*
X102865000Y-147289721D01*
X101710000Y-147289721D01*
X101710000Y-139728967D01*
X107195000Y-139728967D01*
X107195000Y-140051033D01*
X107257832Y-140366912D01*
X107381082Y-140664463D01*
X107560013Y-140932252D01*
X107787748Y-141159987D01*
X108055537Y-141338918D01*
X108353088Y-141462168D01*
X108668967Y-141525000D01*
X108991033Y-141525000D01*
X109306912Y-141462168D01*
X109604463Y-141338918D01*
X109872252Y-141159987D01*
X110099987Y-140932252D01*
X110278918Y-140664463D01*
X110402168Y-140366912D01*
X110465000Y-140051033D01*
X110465000Y-139728967D01*
X110402168Y-139413088D01*
X110278918Y-139115537D01*
X110099987Y-138847748D01*
X109872252Y-138620013D01*
X109604463Y-138441082D01*
X109306912Y-138317832D01*
X108991033Y-138255000D01*
X108668967Y-138255000D01*
X108353088Y-138317832D01*
X108055537Y-138441082D01*
X107787748Y-138620013D01*
X107560013Y-138847748D01*
X107381082Y-139115537D01*
X107257832Y-139413088D01*
X107195000Y-139728967D01*
X101710000Y-139728967D01*
X101710000Y-129728967D01*
X107195000Y-129728967D01*
X107195000Y-130051033D01*
X107257832Y-130366912D01*
X107381082Y-130664463D01*
X107560013Y-130932252D01*
X107787748Y-131159987D01*
X108055537Y-131338918D01*
X108353088Y-131462168D01*
X108668967Y-131525000D01*
X108991033Y-131525000D01*
X109306912Y-131462168D01*
X109604463Y-131338918D01*
X109872252Y-131159987D01*
X110099987Y-130932252D01*
X110278918Y-130664463D01*
X110402168Y-130366912D01*
X110465000Y-130051033D01*
X110465000Y-129728967D01*
X110402168Y-129413088D01*
X110278918Y-129115537D01*
X110099987Y-128847748D01*
X109872252Y-128620013D01*
X109604463Y-128441082D01*
X109306912Y-128317832D01*
X108991033Y-128255000D01*
X108668967Y-128255000D01*
X108353088Y-128317832D01*
X108055537Y-128441082D01*
X107787748Y-128620013D01*
X107560013Y-128847748D01*
X107381082Y-129115537D01*
X107257832Y-129413088D01*
X107195000Y-129728967D01*
X101710000Y-129728967D01*
X101710000Y-122628967D01*
X107195000Y-122628967D01*
X107195000Y-122951033D01*
X107257832Y-123266912D01*
X107381082Y-123564463D01*
X107560013Y-123832252D01*
X107787748Y-124059987D01*
X108055537Y-124238918D01*
X108353088Y-124362168D01*
X108668967Y-124425000D01*
X108991033Y-124425000D01*
X109306912Y-124362168D01*
X109604463Y-124238918D01*
X109872252Y-124059987D01*
X110099987Y-123832252D01*
X110278918Y-123564463D01*
X110402168Y-123266912D01*
X110465000Y-122951033D01*
X110465000Y-122628967D01*
X110402168Y-122313088D01*
X110278918Y-122015537D01*
X110099987Y-121747748D01*
X109872252Y-121520013D01*
X109604463Y-121341082D01*
X109306912Y-121217832D01*
X108991033Y-121155000D01*
X108668967Y-121155000D01*
X108353088Y-121217832D01*
X108055537Y-121341082D01*
X107787748Y-121520013D01*
X107560013Y-121747748D01*
X107381082Y-122015537D01*
X107257832Y-122313088D01*
X107195000Y-122628967D01*
X101710000Y-122628967D01*
X101710000Y-112628967D01*
X107195000Y-112628967D01*
X107195000Y-112951033D01*
X107257832Y-113266912D01*
X107381082Y-113564463D01*
X107560013Y-113832252D01*
X107787748Y-114059987D01*
X108055537Y-114238918D01*
X108353088Y-114362168D01*
X108668967Y-114425000D01*
X108991033Y-114425000D01*
X109306912Y-114362168D01*
X109604463Y-114238918D01*
X109872252Y-114059987D01*
X110099987Y-113832252D01*
X110278918Y-113564463D01*
X110402168Y-113266912D01*
X110465000Y-112951033D01*
X110465000Y-112628967D01*
X110402168Y-112313088D01*
X110278918Y-112015537D01*
X110099987Y-111747748D01*
X109872252Y-111520013D01*
X109604463Y-111341082D01*
X109306912Y-111217832D01*
X108991033Y-111155000D01*
X108668967Y-111155000D01*
X108353088Y-111217832D01*
X108055537Y-111341082D01*
X107787748Y-111520013D01*
X107560013Y-111747748D01*
X107381082Y-112015537D01*
X107257832Y-112313088D01*
X107195000Y-112628967D01*
X101710000Y-112628967D01*
X101710000Y-105528967D01*
X107195000Y-105528967D01*
X107195000Y-105851033D01*
X107257832Y-106166912D01*
X107381082Y-106464463D01*
X107560013Y-106732252D01*
X107787748Y-106959987D01*
X108055537Y-107138918D01*
X108353088Y-107262168D01*
X108668967Y-107325000D01*
X108991033Y-107325000D01*
X109306912Y-107262168D01*
X109604463Y-107138918D01*
X109872252Y-106959987D01*
X110099987Y-106732252D01*
X110278918Y-106464463D01*
X110402168Y-106166912D01*
X110465000Y-105851033D01*
X110465000Y-105528967D01*
X110402168Y-105213088D01*
X110278918Y-104915537D01*
X110099987Y-104647748D01*
X109872252Y-104420013D01*
X109604463Y-104241082D01*
X109306912Y-104117832D01*
X108991033Y-104055000D01*
X108668967Y-104055000D01*
X108353088Y-104117832D01*
X108055537Y-104241082D01*
X107787748Y-104420013D01*
X107560013Y-104647748D01*
X107381082Y-104915537D01*
X107257832Y-105213088D01*
X107195000Y-105528967D01*
X101710000Y-105528967D01*
X101710000Y-95528967D01*
X107195000Y-95528967D01*
X107195000Y-95851033D01*
X107257832Y-96166912D01*
X107381082Y-96464463D01*
X107560013Y-96732252D01*
X107787748Y-96959987D01*
X108055537Y-97138918D01*
X108353088Y-97262168D01*
X108668967Y-97325000D01*
X108991033Y-97325000D01*
X109306912Y-97262168D01*
X109604463Y-97138918D01*
X109872252Y-96959987D01*
X110099987Y-96732252D01*
X110278918Y-96464463D01*
X110402168Y-96166912D01*
X110465000Y-95851033D01*
X110465000Y-95528967D01*
X110402168Y-95213088D01*
X110278918Y-94915537D01*
X110099987Y-94647748D01*
X109872252Y-94420013D01*
X109604463Y-94241082D01*
X109306912Y-94117832D01*
X108991033Y-94055000D01*
X108668967Y-94055000D01*
X108353088Y-94117832D01*
X108055537Y-94241082D01*
X107787748Y-94420013D01*
X107560013Y-94647748D01*
X107381082Y-94915537D01*
X107257832Y-95213088D01*
X107195000Y-95528967D01*
X101710000Y-95528967D01*
X101710000Y-87928061D01*
X130844998Y-87928061D01*
X130844998Y-88131939D01*
X130884772Y-88331898D01*
X130962793Y-88520256D01*
X131076061Y-88689774D01*
X131119999Y-88733712D01*
X131120000Y-91266289D01*
X131076062Y-91310227D01*
X130962794Y-91479745D01*
X130884773Y-91668103D01*
X130844999Y-91868062D01*
X130844999Y-92071940D01*
X130884773Y-92271899D01*
X130962794Y-92460257D01*
X131076062Y-92629775D01*
X131220225Y-92773938D01*
X131389743Y-92887206D01*
X131578101Y-92965227D01*
X131778060Y-93005001D01*
X131981938Y-93005001D01*
X132181897Y-92965227D01*
X132370255Y-92887206D01*
X132539773Y-92773938D01*
X132683936Y-92629775D01*
X132797204Y-92460257D01*
X132875225Y-92271899D01*
X132885933Y-92218061D01*
X176115000Y-92218061D01*
X176115000Y-92421939D01*
X176154774Y-92621898D01*
X176232795Y-92810256D01*
X176346063Y-92979774D01*
X176390001Y-93023712D01*
X176390000Y-95546289D01*
X176346063Y-95590226D01*
X176232795Y-95759744D01*
X176154774Y-95948102D01*
X176115000Y-96148061D01*
X176115000Y-96351939D01*
X176154774Y-96551898D01*
X176232795Y-96740256D01*
X176346063Y-96909774D01*
X176490226Y-97053937D01*
X176659744Y-97167205D01*
X176848102Y-97245226D01*
X177048061Y-97285000D01*
X177251939Y-97285000D01*
X177451898Y-97245226D01*
X177640256Y-97167205D01*
X177809774Y-97053937D01*
X177953937Y-96909774D01*
X178067205Y-96740256D01*
X178145226Y-96551898D01*
X178185000Y-96351939D01*
X178185000Y-96148061D01*
X178145226Y-95948102D01*
X178067205Y-95759744D01*
X177953937Y-95590226D01*
X177931923Y-95568212D01*
X181795000Y-95568212D01*
X181795000Y-95791788D01*
X181838617Y-96011067D01*
X181924176Y-96217624D01*
X182048388Y-96403520D01*
X182206480Y-96561612D01*
X182392376Y-96685824D01*
X182598933Y-96771383D01*
X182818212Y-96815000D01*
X183041788Y-96815000D01*
X183261067Y-96771383D01*
X183467624Y-96685824D01*
X183653520Y-96561612D01*
X183811612Y-96403520D01*
X183880000Y-96301170D01*
X183948388Y-96403520D01*
X184106480Y-96561612D01*
X184292376Y-96685824D01*
X184498933Y-96771383D01*
X184718212Y-96815000D01*
X184941788Y-96815000D01*
X185161067Y-96771383D01*
X185367624Y-96685824D01*
X185553520Y-96561612D01*
X185711612Y-96403520D01*
X185835824Y-96217624D01*
X185921383Y-96011067D01*
X185965000Y-95791788D01*
X185965000Y-95568212D01*
X185921383Y-95348933D01*
X185835824Y-95142376D01*
X185711612Y-94956480D01*
X185553520Y-94798388D01*
X185367624Y-94674176D01*
X185161067Y-94588617D01*
X184941788Y-94545000D01*
X184718212Y-94545000D01*
X184498933Y-94588617D01*
X184292376Y-94674176D01*
X184106480Y-94798388D01*
X183948388Y-94956480D01*
X183880000Y-95058830D01*
X183811612Y-94956480D01*
X183653520Y-94798388D01*
X183467624Y-94674176D01*
X183261067Y-94588617D01*
X183041788Y-94545000D01*
X182818212Y-94545000D01*
X182598933Y-94588617D01*
X182392376Y-94674176D01*
X182206480Y-94798388D01*
X182048388Y-94956480D01*
X181924176Y-95142376D01*
X181838617Y-95348933D01*
X181795000Y-95568212D01*
X177931923Y-95568212D01*
X177910000Y-95546289D01*
X177910000Y-93023711D01*
X177953937Y-92979774D01*
X178067205Y-92810256D01*
X178145226Y-92621898D01*
X178185000Y-92421939D01*
X178185000Y-92218061D01*
X178145226Y-92018102D01*
X178067205Y-91829744D01*
X178044659Y-91796000D01*
X187233928Y-91796000D01*
X187233928Y-93496000D01*
X187246188Y-93620482D01*
X187282498Y-93740180D01*
X187341463Y-93850494D01*
X187420815Y-93947185D01*
X187517506Y-94026537D01*
X187627820Y-94085502D01*
X187700380Y-94107513D01*
X187568525Y-94239368D01*
X187406010Y-94482589D01*
X187294068Y-94752842D01*
X187237000Y-95039740D01*
X187237000Y-95332260D01*
X187294068Y-95619158D01*
X187406010Y-95889411D01*
X187568525Y-96132632D01*
X187775368Y-96339475D01*
X187949760Y-96456000D01*
X187775368Y-96572525D01*
X187568525Y-96779368D01*
X187406010Y-97022589D01*
X187294068Y-97292842D01*
X187237000Y-97579740D01*
X187237000Y-97872260D01*
X187294068Y-98159158D01*
X187406010Y-98429411D01*
X187568525Y-98672632D01*
X187775368Y-98879475D01*
X187949760Y-98996000D01*
X187775368Y-99112525D01*
X187568525Y-99319368D01*
X187406010Y-99562589D01*
X187294068Y-99832842D01*
X187237000Y-100119740D01*
X187237000Y-100412260D01*
X187294068Y-100699158D01*
X187406010Y-100969411D01*
X187568525Y-101212632D01*
X187775368Y-101419475D01*
X187949760Y-101536000D01*
X187775368Y-101652525D01*
X187568525Y-101859368D01*
X187406010Y-102102589D01*
X187294068Y-102372842D01*
X187237000Y-102659740D01*
X187237000Y-102952260D01*
X187294068Y-103239158D01*
X187406010Y-103509411D01*
X187568525Y-103752632D01*
X187775368Y-103959475D01*
X187949760Y-104076000D01*
X187775368Y-104192525D01*
X187568525Y-104399368D01*
X187406010Y-104642589D01*
X187294068Y-104912842D01*
X187237000Y-105199740D01*
X187237000Y-105492260D01*
X187294068Y-105779158D01*
X187406010Y-106049411D01*
X187568525Y-106292632D01*
X187775368Y-106499475D01*
X187957534Y-106621195D01*
X187840645Y-106690822D01*
X187624412Y-106885731D01*
X187450359Y-107119080D01*
X187325175Y-107381901D01*
X187280524Y-107529110D01*
X187401845Y-107759000D01*
X188595000Y-107759000D01*
X188595000Y-107739000D01*
X188849000Y-107739000D01*
X188849000Y-107759000D01*
X191135000Y-107759000D01*
X191135000Y-107739000D01*
X191389000Y-107739000D01*
X191389000Y-107759000D01*
X192582155Y-107759000D01*
X192703476Y-107529110D01*
X192658825Y-107381901D01*
X192533641Y-107119080D01*
X192359588Y-106885731D01*
X192143355Y-106690822D01*
X192026466Y-106621195D01*
X192208632Y-106499475D01*
X192415475Y-106292632D01*
X192577990Y-106049411D01*
X192689932Y-105779158D01*
X192747000Y-105492260D01*
X192747000Y-105199740D01*
X192689932Y-104912842D01*
X192577990Y-104642589D01*
X192415475Y-104399368D01*
X192208632Y-104192525D01*
X192034240Y-104076000D01*
X192208632Y-103959475D01*
X192415475Y-103752632D01*
X192577990Y-103509411D01*
X192689932Y-103239158D01*
X192747000Y-102952260D01*
X192747000Y-102659740D01*
X192689932Y-102372842D01*
X192577990Y-102102589D01*
X192415475Y-101859368D01*
X192208632Y-101652525D01*
X192026466Y-101530805D01*
X192143355Y-101461178D01*
X192359588Y-101266269D01*
X192533641Y-101032920D01*
X192658825Y-100770099D01*
X192703476Y-100622890D01*
X192582155Y-100393000D01*
X191389000Y-100393000D01*
X191389000Y-100413000D01*
X191135000Y-100413000D01*
X191135000Y-100393000D01*
X191115000Y-100393000D01*
X191115000Y-100139000D01*
X191135000Y-100139000D01*
X191135000Y-97853000D01*
X191389000Y-97853000D01*
X191389000Y-100139000D01*
X192582155Y-100139000D01*
X192703476Y-99909110D01*
X192658825Y-99761901D01*
X192533641Y-99499080D01*
X192359588Y-99265731D01*
X192143355Y-99070822D01*
X192017745Y-98996000D01*
X192143355Y-98921178D01*
X192359588Y-98726269D01*
X192533641Y-98492920D01*
X192658825Y-98230099D01*
X192703476Y-98082890D01*
X192582155Y-97853000D01*
X191389000Y-97853000D01*
X191135000Y-97853000D01*
X191115000Y-97853000D01*
X191115000Y-97599000D01*
X191135000Y-97599000D01*
X191135000Y-95313000D01*
X191389000Y-95313000D01*
X191389000Y-97599000D01*
X192582155Y-97599000D01*
X192703476Y-97369110D01*
X192658825Y-97221901D01*
X192533641Y-96959080D01*
X192359588Y-96725731D01*
X192143355Y-96530822D01*
X192017745Y-96456000D01*
X192143355Y-96381178D01*
X192359588Y-96186269D01*
X192533641Y-95952920D01*
X192658825Y-95690099D01*
X192703476Y-95542890D01*
X192582155Y-95313000D01*
X191389000Y-95313000D01*
X191135000Y-95313000D01*
X191115000Y-95313000D01*
X191115000Y-95059000D01*
X191135000Y-95059000D01*
X191135000Y-92773000D01*
X191389000Y-92773000D01*
X191389000Y-95059000D01*
X192582155Y-95059000D01*
X192703476Y-94829110D01*
X192658825Y-94681901D01*
X192533641Y-94419080D01*
X192359588Y-94185731D01*
X192143355Y-93990822D01*
X192017745Y-93916000D01*
X192143355Y-93841178D01*
X192359588Y-93646269D01*
X192533641Y-93412920D01*
X192658825Y-93150099D01*
X192703476Y-93002890D01*
X192582155Y-92773000D01*
X191389000Y-92773000D01*
X191135000Y-92773000D01*
X191115000Y-92773000D01*
X191115000Y-92519000D01*
X191135000Y-92519000D01*
X191135000Y-91325186D01*
X191389000Y-91325186D01*
X191389000Y-92519000D01*
X192582155Y-92519000D01*
X192703476Y-92289110D01*
X192658825Y-92141901D01*
X192533641Y-91879080D01*
X192359588Y-91645731D01*
X192143355Y-91450822D01*
X191893252Y-91301843D01*
X191618891Y-91204519D01*
X191389000Y-91325186D01*
X191135000Y-91325186D01*
X190905109Y-91204519D01*
X190630748Y-91301843D01*
X190380645Y-91450822D01*
X190184498Y-91627626D01*
X190161502Y-91551820D01*
X190102537Y-91441506D01*
X190023185Y-91344815D01*
X189926494Y-91265463D01*
X189816180Y-91206498D01*
X189696482Y-91170188D01*
X189572000Y-91157928D01*
X187872000Y-91157928D01*
X187747518Y-91170188D01*
X187627820Y-91206498D01*
X187517506Y-91265463D01*
X187420815Y-91344815D01*
X187341463Y-91441506D01*
X187282498Y-91551820D01*
X187246188Y-91671518D01*
X187233928Y-91796000D01*
X178044659Y-91796000D01*
X177953937Y-91660226D01*
X177809774Y-91516063D01*
X177640256Y-91402795D01*
X177451898Y-91324774D01*
X177251939Y-91285000D01*
X177048061Y-91285000D01*
X176848102Y-91324774D01*
X176659744Y-91402795D01*
X176490226Y-91516063D01*
X176346063Y-91660226D01*
X176232795Y-91829744D01*
X176154774Y-92018102D01*
X176115000Y-92218061D01*
X132885933Y-92218061D01*
X132914999Y-92071940D01*
X132914999Y-91868062D01*
X132875225Y-91668103D01*
X132797204Y-91479745D01*
X132683936Y-91310227D01*
X132639999Y-91266290D01*
X132639999Y-88733710D01*
X132683935Y-88689774D01*
X132797203Y-88520256D01*
X132875224Y-88331898D01*
X132914998Y-88131939D01*
X132914998Y-87928061D01*
X132875224Y-87728102D01*
X132797203Y-87539744D01*
X132683935Y-87370226D01*
X132539772Y-87226063D01*
X132370254Y-87112795D01*
X132181896Y-87034774D01*
X131981937Y-86995000D01*
X131778059Y-86995000D01*
X131578100Y-87034774D01*
X131389742Y-87112795D01*
X131220224Y-87226063D01*
X131076061Y-87370226D01*
X130962793Y-87539744D01*
X130884772Y-87728102D01*
X130844998Y-87928061D01*
X101710000Y-87928061D01*
X101710000Y-79648061D01*
X107395000Y-79648061D01*
X107395000Y-79851939D01*
X107434774Y-80051898D01*
X107512795Y-80240256D01*
X107626063Y-80409774D01*
X107670001Y-80453712D01*
X107670000Y-81746289D01*
X107626063Y-81790226D01*
X107512795Y-81959744D01*
X107434774Y-82148102D01*
X107395000Y-82348061D01*
X107395000Y-82551939D01*
X107434774Y-82751898D01*
X107512795Y-82940256D01*
X107626063Y-83109774D01*
X107770226Y-83253937D01*
X107939744Y-83367205D01*
X108128102Y-83445226D01*
X108328061Y-83485000D01*
X108390199Y-83485000D01*
X108591197Y-83685998D01*
X108615000Y-83715002D01*
X108730725Y-83809975D01*
X108862754Y-83880547D01*
X109006015Y-83924004D01*
X109117668Y-83935001D01*
X109117677Y-83935001D01*
X109155000Y-83938677D01*
X109192323Y-83935001D01*
X110207677Y-83935001D01*
X110244999Y-83938677D01*
X110282321Y-83935001D01*
X110282332Y-83935001D01*
X110393985Y-83924004D01*
X110537246Y-83880547D01*
X110669275Y-83809975D01*
X110785000Y-83715002D01*
X110808802Y-83685999D01*
X111009801Y-83485000D01*
X111071939Y-83485000D01*
X111271898Y-83445226D01*
X111460256Y-83367205D01*
X111629774Y-83253937D01*
X111673711Y-83210000D01*
X113716440Y-83210000D01*
X113724774Y-83251898D01*
X113802795Y-83440256D01*
X113916063Y-83609774D01*
X114060226Y-83753937D01*
X114229744Y-83867205D01*
X114418102Y-83945226D01*
X114618061Y-83985000D01*
X114640912Y-83985000D01*
X114692795Y-84110256D01*
X114806063Y-84279774D01*
X114950226Y-84423937D01*
X115119744Y-84537205D01*
X115308102Y-84615226D01*
X115508061Y-84655000D01*
X115711939Y-84655000D01*
X115911898Y-84615226D01*
X116100256Y-84537205D01*
X116269774Y-84423937D01*
X116413937Y-84279774D01*
X116527205Y-84110256D01*
X116605226Y-83921898D01*
X116645000Y-83721939D01*
X116645000Y-83518061D01*
X116605226Y-83318102D01*
X116527205Y-83129744D01*
X116413937Y-82960226D01*
X116370000Y-82916289D01*
X116370000Y-82794320D01*
X116373676Y-82756997D01*
X116370000Y-82719674D01*
X116370000Y-82719665D01*
X116359003Y-82608012D01*
X116315546Y-82464751D01*
X116244974Y-82332722D01*
X116150001Y-82216997D01*
X116121004Y-82193200D01*
X116096500Y-82168696D01*
X124674977Y-82168696D01*
X124674977Y-82372574D01*
X124714751Y-82572533D01*
X124792772Y-82760891D01*
X124906040Y-82930409D01*
X125050203Y-83074572D01*
X125219721Y-83187840D01*
X125408079Y-83265861D01*
X125608038Y-83305635D01*
X125811916Y-83305635D01*
X126011875Y-83265861D01*
X126200233Y-83187840D01*
X126369751Y-83074572D01*
X126513914Y-82930409D01*
X126627182Y-82760891D01*
X126705203Y-82572533D01*
X126744977Y-82372574D01*
X126744977Y-82310436D01*
X127002997Y-82052416D01*
X127032001Y-82028613D01*
X127126974Y-81912888D01*
X127197546Y-81780859D01*
X127241003Y-81637598D01*
X127252000Y-81525945D01*
X127255677Y-81488612D01*
X127252000Y-81451279D01*
X127252000Y-80499322D01*
X127255676Y-80461999D01*
X127252000Y-80424676D01*
X127252000Y-80424667D01*
X127241003Y-80313014D01*
X127197546Y-80169753D01*
X127126974Y-80037724D01*
X127032001Y-79921999D01*
X127003004Y-79898202D01*
X126834802Y-79730000D01*
X127110000Y-79454802D01*
X127425000Y-79769802D01*
X127425000Y-79831939D01*
X127464774Y-80031898D01*
X127542795Y-80220256D01*
X127656063Y-80389774D01*
X127700000Y-80433711D01*
X127700001Y-81566288D01*
X127656063Y-81610226D01*
X127542795Y-81779744D01*
X127464774Y-81968102D01*
X127425000Y-82168061D01*
X127425000Y-82371939D01*
X127464774Y-82571898D01*
X127542795Y-82760256D01*
X127656063Y-82929774D01*
X127800226Y-83073937D01*
X127969744Y-83187205D01*
X128158102Y-83265226D01*
X128358061Y-83305000D01*
X128561939Y-83305000D01*
X128761898Y-83265226D01*
X128950256Y-83187205D01*
X129119774Y-83073937D01*
X129263937Y-82929774D01*
X129377205Y-82760256D01*
X129455226Y-82571898D01*
X129495000Y-82371939D01*
X129495000Y-82168061D01*
X129494285Y-82164466D01*
X144933865Y-82164466D01*
X144933865Y-82368344D01*
X144973639Y-82568303D01*
X145051660Y-82756661D01*
X145164928Y-82926179D01*
X145294169Y-83055420D01*
X145284774Y-83078103D01*
X145245000Y-83278062D01*
X145245000Y-83481940D01*
X145284774Y-83681899D01*
X145362795Y-83870257D01*
X145476063Y-84039775D01*
X145620226Y-84183938D01*
X145789744Y-84297206D01*
X145978102Y-84375227D01*
X146178061Y-84415001D01*
X146381939Y-84415001D01*
X146581898Y-84375227D01*
X146770256Y-84297206D01*
X146939774Y-84183938D01*
X147083937Y-84039775D01*
X147197205Y-83870257D01*
X147275226Y-83681899D01*
X147315000Y-83481940D01*
X147315000Y-83419802D01*
X147835621Y-82899181D01*
X147856063Y-82929774D01*
X148000226Y-83073937D01*
X148169744Y-83187205D01*
X148358102Y-83265226D01*
X148558061Y-83305000D01*
X148761939Y-83305000D01*
X148961898Y-83265226D01*
X149150256Y-83187205D01*
X149319774Y-83073937D01*
X149463937Y-82929774D01*
X149577205Y-82760256D01*
X149655226Y-82571898D01*
X149689321Y-82400491D01*
X149991002Y-82098809D01*
X150020001Y-82075011D01*
X150114974Y-81959286D01*
X150185546Y-81827257D01*
X150229003Y-81683996D01*
X150240000Y-81572343D01*
X150240000Y-81572333D01*
X150243676Y-81535010D01*
X150240000Y-81497687D01*
X150240000Y-80502313D01*
X150243676Y-80464990D01*
X150240000Y-80427667D01*
X150240000Y-80427657D01*
X150229003Y-80316004D01*
X150185546Y-80172743D01*
X150114974Y-80040714D01*
X150020001Y-79924989D01*
X149991004Y-79901192D01*
X149780010Y-79690198D01*
X149780010Y-79628061D01*
X165105000Y-79628061D01*
X165105000Y-79831939D01*
X165144774Y-80031898D01*
X165222795Y-80220256D01*
X165336063Y-80389774D01*
X165480226Y-80533937D01*
X165649744Y-80647205D01*
X165838102Y-80725226D01*
X166038061Y-80765000D01*
X166100198Y-80765000D01*
X166118000Y-80782802D01*
X166118001Y-81217198D01*
X166100198Y-81235000D01*
X166038061Y-81235000D01*
X165838102Y-81274774D01*
X165649744Y-81352795D01*
X165480226Y-81466063D01*
X165336063Y-81610226D01*
X165222795Y-81779744D01*
X165144774Y-81968102D01*
X165105000Y-82168061D01*
X165105000Y-82371939D01*
X165144774Y-82571898D01*
X165222795Y-82760256D01*
X165336063Y-82929774D01*
X165480226Y-83073937D01*
X165485019Y-83077140D01*
X165455000Y-83228059D01*
X165455000Y-83431937D01*
X165494774Y-83631896D01*
X165572795Y-83820254D01*
X165686063Y-83989772D01*
X165830226Y-84133935D01*
X165999744Y-84247203D01*
X166188102Y-84325224D01*
X166388061Y-84364998D01*
X166591939Y-84364998D01*
X166791898Y-84325224D01*
X166980256Y-84247203D01*
X167149774Y-84133935D01*
X167293937Y-83989772D01*
X167407205Y-83820254D01*
X167485226Y-83631896D01*
X167525000Y-83431937D01*
X167525000Y-83394791D01*
X168017620Y-82902172D01*
X168036063Y-82929774D01*
X168180226Y-83073937D01*
X168349744Y-83187205D01*
X168538102Y-83265226D01*
X168738061Y-83305000D01*
X168941939Y-83305000D01*
X169141898Y-83265226D01*
X169330256Y-83187205D01*
X169499774Y-83073937D01*
X169643937Y-82929774D01*
X169757205Y-82760256D01*
X169835226Y-82571898D01*
X169871804Y-82388008D01*
X170081002Y-82178810D01*
X170110001Y-82155011D01*
X170204974Y-82039286D01*
X170275546Y-81907257D01*
X170319003Y-81763996D01*
X170330000Y-81652343D01*
X170330000Y-81652335D01*
X170333676Y-81615010D01*
X170330000Y-81577685D01*
X170330000Y-81440000D01*
X189771928Y-81440000D01*
X189771928Y-83040000D01*
X189784188Y-83164482D01*
X189820498Y-83284180D01*
X189879463Y-83394494D01*
X189958815Y-83491185D01*
X190055506Y-83570537D01*
X190165820Y-83629502D01*
X190285518Y-83665812D01*
X190410000Y-83678072D01*
X192010000Y-83678072D01*
X192134482Y-83665812D01*
X192254180Y-83629502D01*
X192364494Y-83570537D01*
X192461185Y-83491185D01*
X192540537Y-83394494D01*
X192599502Y-83284180D01*
X192635812Y-83164482D01*
X192648072Y-83040000D01*
X192648072Y-81440000D01*
X192635812Y-81315518D01*
X192599502Y-81195820D01*
X192540537Y-81085506D01*
X192461185Y-80988815D01*
X192364494Y-80909463D01*
X192254180Y-80850498D01*
X192134482Y-80814188D01*
X192010000Y-80801928D01*
X190410000Y-80801928D01*
X190285518Y-80814188D01*
X190165820Y-80850498D01*
X190055506Y-80909463D01*
X189958815Y-80988815D01*
X189879463Y-81085506D01*
X189820498Y-81195820D01*
X189784188Y-81315518D01*
X189771928Y-81440000D01*
X170330000Y-81440000D01*
X170330000Y-80422315D01*
X170333676Y-80384990D01*
X170330000Y-80347665D01*
X170330000Y-80347657D01*
X170319003Y-80236004D01*
X170275546Y-80092743D01*
X170216728Y-79982702D01*
X187946903Y-79982702D01*
X188018486Y-80226671D01*
X188273996Y-80347571D01*
X188548184Y-80416300D01*
X188830512Y-80430217D01*
X189110130Y-80388787D01*
X189376292Y-80293603D01*
X189501514Y-80226671D01*
X189573097Y-79982702D01*
X188760000Y-79169605D01*
X187946903Y-79982702D01*
X170216728Y-79982702D01*
X170204974Y-79960714D01*
X170110001Y-79844989D01*
X170081004Y-79821192D01*
X169950010Y-79690198D01*
X169950010Y-79628061D01*
X169910236Y-79428102D01*
X169832215Y-79239744D01*
X169718947Y-79070226D01*
X169709233Y-79060512D01*
X187319783Y-79060512D01*
X187361213Y-79340130D01*
X187456397Y-79606292D01*
X187523329Y-79731514D01*
X187767298Y-79803097D01*
X188580395Y-78990000D01*
X188939605Y-78990000D01*
X189752702Y-79803097D01*
X189996671Y-79731514D01*
X190117571Y-79476004D01*
X190186300Y-79201816D01*
X190200217Y-78919488D01*
X190158787Y-78639870D01*
X190063603Y-78373708D01*
X189996671Y-78248486D01*
X189752702Y-78176903D01*
X188939605Y-78990000D01*
X188580395Y-78990000D01*
X187767298Y-78176903D01*
X187523329Y-78248486D01*
X187402429Y-78503996D01*
X187333700Y-78778184D01*
X187319783Y-79060512D01*
X169709233Y-79060512D01*
X169574784Y-78926063D01*
X169405266Y-78812795D01*
X169216908Y-78734774D01*
X169016949Y-78695000D01*
X168954812Y-78695000D01*
X168544999Y-78285187D01*
X168544999Y-78178061D01*
X168509044Y-77997298D01*
X187946903Y-77997298D01*
X188760000Y-78810395D01*
X189573097Y-77997298D01*
X189501514Y-77753329D01*
X189246004Y-77632429D01*
X188971816Y-77563700D01*
X188689488Y-77549783D01*
X188409870Y-77591213D01*
X188143708Y-77686397D01*
X188018486Y-77753329D01*
X187946903Y-77997298D01*
X168509044Y-77997298D01*
X168505225Y-77978102D01*
X168427204Y-77789744D01*
X168313936Y-77620226D01*
X168169773Y-77476063D01*
X168000255Y-77362795D01*
X167811897Y-77284774D01*
X167611938Y-77245000D01*
X167408060Y-77245000D01*
X167208101Y-77284774D01*
X167019743Y-77362795D01*
X166850225Y-77476063D01*
X166706062Y-77620226D01*
X166592794Y-77789744D01*
X166514773Y-77978102D01*
X166474999Y-78178061D01*
X166474999Y-78320199D01*
X166100199Y-78695000D01*
X166038061Y-78695000D01*
X165838102Y-78734774D01*
X165649744Y-78812795D01*
X165480226Y-78926063D01*
X165336063Y-79070226D01*
X165222795Y-79239744D01*
X165144774Y-79428102D01*
X165105000Y-79628061D01*
X149780010Y-79628061D01*
X149740236Y-79428102D01*
X149662215Y-79239744D01*
X149548947Y-79070226D01*
X149404784Y-78926063D01*
X149235266Y-78812795D01*
X149046908Y-78734774D01*
X148846949Y-78695000D01*
X148784812Y-78695000D01*
X148385000Y-78295189D01*
X148385000Y-78248059D01*
X148345226Y-78048100D01*
X148267205Y-77859742D01*
X148153937Y-77690224D01*
X148009774Y-77546061D01*
X147840256Y-77432793D01*
X147651898Y-77354772D01*
X147451939Y-77314998D01*
X147248061Y-77314998D01*
X147048102Y-77354772D01*
X146859744Y-77432793D01*
X146690226Y-77546061D01*
X146546063Y-77690224D01*
X146432795Y-77859742D01*
X146354774Y-78048100D01*
X146315000Y-78248059D01*
X146315000Y-78310198D01*
X145930199Y-78695000D01*
X145868061Y-78695000D01*
X145668102Y-78734774D01*
X145479744Y-78812795D01*
X145310226Y-78926063D01*
X145166063Y-79070226D01*
X145052795Y-79239744D01*
X144974774Y-79428102D01*
X144935000Y-79628061D01*
X144935000Y-79831939D01*
X144974774Y-80031898D01*
X145052795Y-80220256D01*
X145166063Y-80389774D01*
X145310226Y-80533937D01*
X145479744Y-80647205D01*
X145668102Y-80725226D01*
X145868061Y-80765000D01*
X145930198Y-80765000D01*
X146052000Y-80886802D01*
X146052000Y-81108469D01*
X145929064Y-81231405D01*
X145866926Y-81231405D01*
X145666967Y-81271179D01*
X145478609Y-81349200D01*
X145309091Y-81462468D01*
X145164928Y-81606631D01*
X145051660Y-81776149D01*
X144973639Y-81964507D01*
X144933865Y-82164466D01*
X129494285Y-82164466D01*
X129455226Y-81968102D01*
X129377205Y-81779744D01*
X129263937Y-81610226D01*
X129220000Y-81566289D01*
X129220000Y-80433711D01*
X129263937Y-80389774D01*
X129377205Y-80220256D01*
X129455226Y-80031898D01*
X129495000Y-79831939D01*
X129495000Y-79628061D01*
X129455226Y-79428102D01*
X129377205Y-79239744D01*
X129263937Y-79070226D01*
X129119774Y-78926063D01*
X128950256Y-78812795D01*
X128761898Y-78734774D01*
X128561939Y-78695000D01*
X128499802Y-78695000D01*
X128145002Y-78340201D01*
X128145002Y-78278061D01*
X128105228Y-78078102D01*
X128027207Y-77889744D01*
X127913939Y-77720226D01*
X127769776Y-77576063D01*
X127600258Y-77462795D01*
X127411900Y-77384774D01*
X127211941Y-77345000D01*
X127008063Y-77345000D01*
X126808104Y-77384774D01*
X126619746Y-77462795D01*
X126450228Y-77576063D01*
X126306065Y-77720226D01*
X126192797Y-77889744D01*
X126114776Y-78078102D01*
X126075002Y-78278061D01*
X126075002Y-78340196D01*
X125720199Y-78695000D01*
X125658061Y-78695000D01*
X125458102Y-78734774D01*
X125269744Y-78812795D01*
X125100226Y-78926063D01*
X124956063Y-79070226D01*
X124842795Y-79239744D01*
X124764774Y-79428102D01*
X124725000Y-79628061D01*
X124725000Y-79831939D01*
X124764774Y-80031898D01*
X124842795Y-80220256D01*
X124956063Y-80389774D01*
X125100226Y-80533937D01*
X125269744Y-80647205D01*
X125458102Y-80725226D01*
X125658061Y-80765000D01*
X125720198Y-80765000D01*
X125732000Y-80776802D01*
X125732001Y-81173810D01*
X125670176Y-81235635D01*
X125608038Y-81235635D01*
X125408079Y-81275409D01*
X125219721Y-81353430D01*
X125050203Y-81466698D01*
X124906040Y-81610861D01*
X124792772Y-81780379D01*
X124714751Y-81968737D01*
X124674977Y-82168696D01*
X116096500Y-82168696D01*
X115086806Y-81159002D01*
X115063003Y-81129999D01*
X114947278Y-81035026D01*
X114815249Y-80964454D01*
X114671988Y-80920997D01*
X114560335Y-80910000D01*
X114560324Y-80910000D01*
X114523002Y-80906324D01*
X114485680Y-80910000D01*
X111654622Y-80910000D01*
X111724974Y-80824276D01*
X111795546Y-80692247D01*
X111839003Y-80548986D01*
X111850000Y-80437333D01*
X111850000Y-80437323D01*
X111853676Y-80400000D01*
X111850000Y-80362677D01*
X111850000Y-74717325D01*
X111853676Y-74680000D01*
X111850000Y-74642675D01*
X111850000Y-74642667D01*
X111839003Y-74531014D01*
X111795546Y-74387753D01*
X111724974Y-74255724D01*
X111630001Y-74139999D01*
X111601004Y-74116202D01*
X111485000Y-74000198D01*
X111485000Y-73938061D01*
X111445226Y-73738102D01*
X111367205Y-73549744D01*
X111253937Y-73380226D01*
X111109774Y-73236063D01*
X110940256Y-73122795D01*
X110751898Y-73044774D01*
X110551939Y-73005000D01*
X110348061Y-73005000D01*
X110148102Y-73044774D01*
X109959744Y-73122795D01*
X109790226Y-73236063D01*
X109646063Y-73380226D01*
X109532795Y-73549744D01*
X109454774Y-73738102D01*
X109415000Y-73938061D01*
X109415000Y-74141939D01*
X109454774Y-74341898D01*
X109532795Y-74530256D01*
X109646063Y-74699774D01*
X109790226Y-74843937D01*
X109959744Y-74957205D01*
X110148102Y-75035226D01*
X110330000Y-75071407D01*
X110330001Y-80085197D01*
X109190000Y-81225199D01*
X109190000Y-80453711D01*
X109233937Y-80409774D01*
X109347205Y-80240256D01*
X109425226Y-80051898D01*
X109465000Y-79851939D01*
X109465000Y-79648061D01*
X109425226Y-79448102D01*
X109347205Y-79259744D01*
X109233937Y-79090226D01*
X109089774Y-78946063D01*
X108920256Y-78832795D01*
X108731898Y-78754774D01*
X108531939Y-78715000D01*
X108328061Y-78715000D01*
X108128102Y-78754774D01*
X107939744Y-78832795D01*
X107770226Y-78946063D01*
X107626063Y-79090226D01*
X107512795Y-79259744D01*
X107434774Y-79448102D01*
X107395000Y-79648061D01*
X101710000Y-79648061D01*
X101710000Y-67289721D01*
X102865000Y-67289721D01*
X102865000Y-67710279D01*
X102947047Y-68122756D01*
X103107988Y-68511302D01*
X103341637Y-68860983D01*
X103639017Y-69158363D01*
X103988698Y-69392012D01*
X104377244Y-69552953D01*
X104789721Y-69635000D01*
X105210279Y-69635000D01*
X105622756Y-69552953D01*
X106011302Y-69392012D01*
X106360983Y-69158363D01*
X106658363Y-68860983D01*
X106892012Y-68511302D01*
X107052953Y-68122756D01*
X107135000Y-67710279D01*
X107135000Y-67289721D01*
X107052953Y-66877244D01*
X106958826Y-66650000D01*
X116561928Y-66650000D01*
X116561928Y-68750000D01*
X116574188Y-68874482D01*
X116610498Y-68994180D01*
X116669463Y-69104494D01*
X116748815Y-69201185D01*
X116845506Y-69280537D01*
X116955820Y-69339502D01*
X117075518Y-69375812D01*
X117200000Y-69388072D01*
X118863270Y-69388072D01*
X119061202Y-69586004D01*
X119085000Y-69615002D01*
X119113998Y-69638800D01*
X119200724Y-69709975D01*
X119332754Y-69780547D01*
X119476015Y-69824004D01*
X119587668Y-69835001D01*
X119587677Y-69835001D01*
X119625000Y-69838677D01*
X119662323Y-69835001D01*
X121917677Y-69835001D01*
X121954999Y-69838677D01*
X121992321Y-69835001D01*
X121992332Y-69835001D01*
X122103985Y-69824004D01*
X122247246Y-69780547D01*
X122379275Y-69709975D01*
X122495000Y-69615002D01*
X122518803Y-69585998D01*
X122800356Y-69304445D01*
X122838504Y-69320246D01*
X123164042Y-69385000D01*
X123495958Y-69385000D01*
X123821496Y-69320246D01*
X123859643Y-69304445D01*
X123868996Y-69313798D01*
X123869002Y-69313803D01*
X124141197Y-69585998D01*
X124165000Y-69615002D01*
X124280725Y-69709975D01*
X124412754Y-69780547D01*
X124556015Y-69824004D01*
X124667668Y-69835001D01*
X124667677Y-69835001D01*
X124705000Y-69838677D01*
X124742323Y-69835001D01*
X126997677Y-69835001D01*
X127034999Y-69838677D01*
X127072321Y-69835001D01*
X127072332Y-69835001D01*
X127183985Y-69824004D01*
X127327246Y-69780547D01*
X127459275Y-69709975D01*
X127575000Y-69615002D01*
X127598803Y-69585998D01*
X127880356Y-69304445D01*
X127918504Y-69320246D01*
X128244042Y-69385000D01*
X128575958Y-69385000D01*
X128901496Y-69320246D01*
X128939643Y-69304445D01*
X128948996Y-69313798D01*
X128949002Y-69313803D01*
X129221197Y-69585998D01*
X129245000Y-69615002D01*
X129360725Y-69709975D01*
X129492754Y-69780547D01*
X129636015Y-69824004D01*
X129747668Y-69835001D01*
X129747677Y-69835001D01*
X129785000Y-69838677D01*
X129822323Y-69835001D01*
X132077677Y-69835001D01*
X132114999Y-69838677D01*
X132152321Y-69835001D01*
X132152332Y-69835001D01*
X132263985Y-69824004D01*
X132407246Y-69780547D01*
X132539275Y-69709975D01*
X132655000Y-69615002D01*
X132678803Y-69585998D01*
X132960356Y-69304445D01*
X132998504Y-69320246D01*
X133324042Y-69385000D01*
X133655958Y-69385000D01*
X133981496Y-69320246D01*
X134019643Y-69304445D01*
X134028996Y-69313798D01*
X134029001Y-69313802D01*
X134496205Y-69781007D01*
X134519999Y-69810001D01*
X134548992Y-69833795D01*
X134548996Y-69833799D01*
X134619685Y-69891811D01*
X134635724Y-69904974D01*
X134767753Y-69975546D01*
X134911014Y-70019003D01*
X135022667Y-70030000D01*
X135022676Y-70030000D01*
X135059999Y-70033676D01*
X135097322Y-70030000D01*
X136962678Y-70030000D01*
X137000000Y-70033676D01*
X137037322Y-70030000D01*
X137037333Y-70030000D01*
X137148986Y-70019003D01*
X137292247Y-69975546D01*
X137424276Y-69904974D01*
X137540001Y-69810001D01*
X137563804Y-69780997D01*
X138040356Y-69304445D01*
X138078504Y-69320246D01*
X138404042Y-69385000D01*
X138735958Y-69385000D01*
X139061496Y-69320246D01*
X139099643Y-69304445D01*
X139108996Y-69313798D01*
X139109002Y-69313803D01*
X139381197Y-69585998D01*
X139405000Y-69615002D01*
X139520725Y-69709975D01*
X139652754Y-69780547D01*
X139796015Y-69824004D01*
X139907668Y-69835001D01*
X139907677Y-69835001D01*
X139945000Y-69838677D01*
X139982323Y-69835001D01*
X142237677Y-69835001D01*
X142274999Y-69838677D01*
X142312321Y-69835001D01*
X142312332Y-69835001D01*
X142423985Y-69824004D01*
X142567246Y-69780547D01*
X142699275Y-69709975D01*
X142815000Y-69615002D01*
X142838803Y-69585998D01*
X143120356Y-69304445D01*
X143158504Y-69320246D01*
X143484042Y-69385000D01*
X143815958Y-69385000D01*
X144141496Y-69320246D01*
X144179643Y-69304445D01*
X144188996Y-69313798D01*
X144189002Y-69313803D01*
X144461197Y-69585998D01*
X144485000Y-69615002D01*
X144600725Y-69709975D01*
X144732754Y-69780547D01*
X144876015Y-69824004D01*
X144987668Y-69835001D01*
X144987677Y-69835001D01*
X145025000Y-69838677D01*
X145062323Y-69835001D01*
X147317677Y-69835001D01*
X147354999Y-69838677D01*
X147392321Y-69835001D01*
X147392332Y-69835001D01*
X147503985Y-69824004D01*
X147647246Y-69780547D01*
X147779275Y-69709975D01*
X147895000Y-69615002D01*
X147918803Y-69585998D01*
X148200356Y-69304445D01*
X148238504Y-69320246D01*
X148564042Y-69385000D01*
X148895958Y-69385000D01*
X149221496Y-69320246D01*
X149259643Y-69304445D01*
X149268996Y-69313798D01*
X149269002Y-69313803D01*
X149541197Y-69585998D01*
X149565000Y-69615002D01*
X149680725Y-69709975D01*
X149812754Y-69780547D01*
X149956015Y-69824004D01*
X150067668Y-69835001D01*
X150067677Y-69835001D01*
X150105000Y-69838677D01*
X150142323Y-69835001D01*
X152397677Y-69835001D01*
X152434999Y-69838677D01*
X152472321Y-69835001D01*
X152472332Y-69835001D01*
X152583985Y-69824004D01*
X152727246Y-69780547D01*
X152859275Y-69709975D01*
X152975000Y-69615002D01*
X152998803Y-69585998D01*
X153280356Y-69304445D01*
X153318504Y-69320246D01*
X153644042Y-69385000D01*
X153975958Y-69385000D01*
X154301496Y-69320246D01*
X154339643Y-69304445D01*
X154348996Y-69313798D01*
X154349002Y-69313803D01*
X154621197Y-69585998D01*
X154645000Y-69615002D01*
X154760725Y-69709975D01*
X154892754Y-69780547D01*
X155036015Y-69824004D01*
X155147668Y-69835001D01*
X155147677Y-69835001D01*
X155185000Y-69838677D01*
X155222323Y-69835001D01*
X157477677Y-69835001D01*
X157514999Y-69838677D01*
X157552321Y-69835001D01*
X157552332Y-69835001D01*
X157663985Y-69824004D01*
X157807246Y-69780547D01*
X157939275Y-69709975D01*
X158055000Y-69615002D01*
X158078803Y-69585998D01*
X158360356Y-69304445D01*
X158398504Y-69320246D01*
X158724042Y-69385000D01*
X159055958Y-69385000D01*
X159381496Y-69320246D01*
X159419643Y-69304445D01*
X159428996Y-69313798D01*
X159429002Y-69313803D01*
X159701197Y-69585998D01*
X159725000Y-69615002D01*
X159840725Y-69709975D01*
X159972754Y-69780547D01*
X160116015Y-69824004D01*
X160227668Y-69835001D01*
X160227677Y-69835001D01*
X160265000Y-69838677D01*
X160302323Y-69835001D01*
X162557677Y-69835001D01*
X162594999Y-69838677D01*
X162632321Y-69835001D01*
X162632332Y-69835001D01*
X162743985Y-69824004D01*
X162887246Y-69780547D01*
X163019275Y-69709975D01*
X163135000Y-69615002D01*
X163158803Y-69585998D01*
X163440356Y-69304445D01*
X163478504Y-69320246D01*
X163804042Y-69385000D01*
X164135958Y-69385000D01*
X164461496Y-69320246D01*
X164499643Y-69304445D01*
X164508996Y-69313798D01*
X164509002Y-69313803D01*
X164781197Y-69585998D01*
X164805000Y-69615002D01*
X164920725Y-69709975D01*
X165052754Y-69780547D01*
X165196015Y-69824004D01*
X165307668Y-69835001D01*
X165307677Y-69835001D01*
X165345000Y-69838677D01*
X165382323Y-69835001D01*
X167637677Y-69835001D01*
X167674999Y-69838677D01*
X167712321Y-69835001D01*
X167712332Y-69835001D01*
X167823985Y-69824004D01*
X167967246Y-69780547D01*
X168099275Y-69709975D01*
X168215000Y-69615002D01*
X168238803Y-69585998D01*
X168520356Y-69304445D01*
X168558504Y-69320246D01*
X168884042Y-69385000D01*
X169215958Y-69385000D01*
X169541496Y-69320246D01*
X169579643Y-69304445D01*
X169588996Y-69313798D01*
X169589002Y-69313803D01*
X169861197Y-69585998D01*
X169885000Y-69615002D01*
X170000725Y-69709975D01*
X170132754Y-69780547D01*
X170276015Y-69824004D01*
X170387668Y-69835001D01*
X170387677Y-69835001D01*
X170425000Y-69838677D01*
X170462323Y-69835001D01*
X172717677Y-69835001D01*
X172754999Y-69838677D01*
X172792321Y-69835001D01*
X172792332Y-69835001D01*
X172903985Y-69824004D01*
X173047246Y-69780547D01*
X173179275Y-69709975D01*
X173295000Y-69615002D01*
X173318803Y-69585998D01*
X173600356Y-69304445D01*
X173638504Y-69320246D01*
X173964042Y-69385000D01*
X174295958Y-69385000D01*
X174621496Y-69320246D01*
X174928147Y-69193228D01*
X175204125Y-69008825D01*
X175400000Y-68812950D01*
X175595875Y-69008825D01*
X175871853Y-69193228D01*
X176178504Y-69320246D01*
X176504042Y-69385000D01*
X176835958Y-69385000D01*
X177161496Y-69320246D01*
X177468147Y-69193228D01*
X177744125Y-69008825D01*
X177978825Y-68774125D01*
X178163228Y-68498147D01*
X178290246Y-68191496D01*
X178355000Y-67865958D01*
X178355000Y-67534042D01*
X178306402Y-67289721D01*
X187865000Y-67289721D01*
X187865000Y-67710279D01*
X187947047Y-68122756D01*
X188107988Y-68511302D01*
X188341637Y-68860983D01*
X188639017Y-69158363D01*
X188988698Y-69392012D01*
X189377244Y-69552953D01*
X189789721Y-69635000D01*
X190210279Y-69635000D01*
X190622756Y-69552953D01*
X191011302Y-69392012D01*
X191360983Y-69158363D01*
X191658363Y-68860983D01*
X191892012Y-68511302D01*
X192052953Y-68122756D01*
X192135000Y-67710279D01*
X192135000Y-67289721D01*
X192052953Y-66877244D01*
X191892012Y-66488698D01*
X191658363Y-66139017D01*
X191360983Y-65841637D01*
X191011302Y-65607988D01*
X190622756Y-65447047D01*
X190210279Y-65365000D01*
X189789721Y-65365000D01*
X189377244Y-65447047D01*
X188988698Y-65607988D01*
X188639017Y-65841637D01*
X188341637Y-66139017D01*
X188107988Y-66488698D01*
X187947047Y-66877244D01*
X187865000Y-67289721D01*
X178306402Y-67289721D01*
X178290246Y-67208504D01*
X178163228Y-66901853D01*
X177978825Y-66625875D01*
X177744125Y-66391175D01*
X177468147Y-66206772D01*
X177161496Y-66079754D01*
X176835958Y-66015000D01*
X176504042Y-66015000D01*
X176178504Y-66079754D01*
X175871853Y-66206772D01*
X175595875Y-66391175D01*
X175400000Y-66587050D01*
X175204125Y-66391175D01*
X174928147Y-66206772D01*
X174621496Y-66079754D01*
X174295958Y-66015000D01*
X173964042Y-66015000D01*
X173638504Y-66079754D01*
X173331853Y-66206772D01*
X173055875Y-66391175D01*
X172860000Y-66587050D01*
X172664125Y-66391175D01*
X172388147Y-66206772D01*
X172081496Y-66079754D01*
X171755958Y-66015000D01*
X171424042Y-66015000D01*
X171098504Y-66079754D01*
X170791853Y-66206772D01*
X170515875Y-66391175D01*
X170320000Y-66587050D01*
X170124125Y-66391175D01*
X169848147Y-66206772D01*
X169541496Y-66079754D01*
X169215958Y-66015000D01*
X168884042Y-66015000D01*
X168558504Y-66079754D01*
X168251853Y-66206772D01*
X167975875Y-66391175D01*
X167780000Y-66587050D01*
X167584125Y-66391175D01*
X167308147Y-66206772D01*
X167001496Y-66079754D01*
X166675958Y-66015000D01*
X166344042Y-66015000D01*
X166018504Y-66079754D01*
X165711853Y-66206772D01*
X165435875Y-66391175D01*
X165240000Y-66587050D01*
X165044125Y-66391175D01*
X164768147Y-66206772D01*
X164461496Y-66079754D01*
X164135958Y-66015000D01*
X163804042Y-66015000D01*
X163478504Y-66079754D01*
X163171853Y-66206772D01*
X162895875Y-66391175D01*
X162700000Y-66587050D01*
X162504125Y-66391175D01*
X162228147Y-66206772D01*
X161921496Y-66079754D01*
X161595958Y-66015000D01*
X161264042Y-66015000D01*
X160938504Y-66079754D01*
X160631853Y-66206772D01*
X160355875Y-66391175D01*
X160160000Y-66587050D01*
X159964125Y-66391175D01*
X159688147Y-66206772D01*
X159381496Y-66079754D01*
X159055958Y-66015000D01*
X158724042Y-66015000D01*
X158398504Y-66079754D01*
X158091853Y-66206772D01*
X157815875Y-66391175D01*
X157620000Y-66587050D01*
X157424125Y-66391175D01*
X157148147Y-66206772D01*
X156841496Y-66079754D01*
X156515958Y-66015000D01*
X156184042Y-66015000D01*
X155858504Y-66079754D01*
X155551853Y-66206772D01*
X155275875Y-66391175D01*
X155080000Y-66587050D01*
X154884125Y-66391175D01*
X154608147Y-66206772D01*
X154301496Y-66079754D01*
X153975958Y-66015000D01*
X153644042Y-66015000D01*
X153318504Y-66079754D01*
X153011853Y-66206772D01*
X152735875Y-66391175D01*
X152540000Y-66587050D01*
X152344125Y-66391175D01*
X152068147Y-66206772D01*
X151761496Y-66079754D01*
X151435958Y-66015000D01*
X151104042Y-66015000D01*
X150778504Y-66079754D01*
X150471853Y-66206772D01*
X150195875Y-66391175D01*
X150000000Y-66587050D01*
X149804125Y-66391175D01*
X149528147Y-66206772D01*
X149221496Y-66079754D01*
X148895958Y-66015000D01*
X148564042Y-66015000D01*
X148238504Y-66079754D01*
X147931853Y-66206772D01*
X147655875Y-66391175D01*
X147460000Y-66587050D01*
X147264125Y-66391175D01*
X146988147Y-66206772D01*
X146681496Y-66079754D01*
X146355958Y-66015000D01*
X146024042Y-66015000D01*
X145698504Y-66079754D01*
X145391853Y-66206772D01*
X145115875Y-66391175D01*
X144920000Y-66587050D01*
X144724125Y-66391175D01*
X144448147Y-66206772D01*
X144141496Y-66079754D01*
X143815958Y-66015000D01*
X143484042Y-66015000D01*
X143158504Y-66079754D01*
X142851853Y-66206772D01*
X142575875Y-66391175D01*
X142380000Y-66587050D01*
X142184125Y-66391175D01*
X141908147Y-66206772D01*
X141601496Y-66079754D01*
X141275958Y-66015000D01*
X140944042Y-66015000D01*
X140618504Y-66079754D01*
X140311853Y-66206772D01*
X140035875Y-66391175D01*
X139840000Y-66587050D01*
X139644125Y-66391175D01*
X139368147Y-66206772D01*
X139061496Y-66079754D01*
X138735958Y-66015000D01*
X138404042Y-66015000D01*
X138078504Y-66079754D01*
X137771853Y-66206772D01*
X137495875Y-66391175D01*
X137300000Y-66587050D01*
X137104125Y-66391175D01*
X136828147Y-66206772D01*
X136521496Y-66079754D01*
X136195958Y-66015000D01*
X135864042Y-66015000D01*
X135538504Y-66079754D01*
X135231853Y-66206772D01*
X134955875Y-66391175D01*
X134760000Y-66587050D01*
X134564125Y-66391175D01*
X134288147Y-66206772D01*
X133981496Y-66079754D01*
X133655958Y-66015000D01*
X133324042Y-66015000D01*
X132998504Y-66079754D01*
X132691853Y-66206772D01*
X132415875Y-66391175D01*
X132220000Y-66587050D01*
X132024125Y-66391175D01*
X131748147Y-66206772D01*
X131441496Y-66079754D01*
X131115958Y-66015000D01*
X130784042Y-66015000D01*
X130458504Y-66079754D01*
X130151853Y-66206772D01*
X129875875Y-66391175D01*
X129680000Y-66587050D01*
X129484125Y-66391175D01*
X129208147Y-66206772D01*
X128901496Y-66079754D01*
X128575958Y-66015000D01*
X128244042Y-66015000D01*
X127918504Y-66079754D01*
X127611853Y-66206772D01*
X127335875Y-66391175D01*
X127140000Y-66587050D01*
X126944125Y-66391175D01*
X126668147Y-66206772D01*
X126361496Y-66079754D01*
X126035958Y-66015000D01*
X125704042Y-66015000D01*
X125378504Y-66079754D01*
X125071853Y-66206772D01*
X124795875Y-66391175D01*
X124600000Y-66587050D01*
X124404125Y-66391175D01*
X124128147Y-66206772D01*
X123821496Y-66079754D01*
X123495958Y-66015000D01*
X123164042Y-66015000D01*
X122838504Y-66079754D01*
X122531853Y-66206772D01*
X122255875Y-66391175D01*
X122060000Y-66587050D01*
X121864125Y-66391175D01*
X121588147Y-66206772D01*
X121281496Y-66079754D01*
X120955958Y-66015000D01*
X120624042Y-66015000D01*
X120298504Y-66079754D01*
X119991853Y-66206772D01*
X119838042Y-66309546D01*
X119830537Y-66295506D01*
X119751185Y-66198815D01*
X119654494Y-66119463D01*
X119544180Y-66060498D01*
X119424482Y-66024188D01*
X119300000Y-66011928D01*
X117200000Y-66011928D01*
X117075518Y-66024188D01*
X116955820Y-66060498D01*
X116845506Y-66119463D01*
X116748815Y-66198815D01*
X116669463Y-66295506D01*
X116610498Y-66405820D01*
X116574188Y-66525518D01*
X116561928Y-66650000D01*
X106958826Y-66650000D01*
X106892012Y-66488698D01*
X106658363Y-66139017D01*
X106360983Y-65841637D01*
X106011302Y-65607988D01*
X105622756Y-65447047D01*
X105210279Y-65365000D01*
X104789721Y-65365000D01*
X104377244Y-65447047D01*
X103988698Y-65607988D01*
X103639017Y-65841637D01*
X103341637Y-66139017D01*
X103107988Y-66488698D01*
X102947047Y-66877244D01*
X102865000Y-67289721D01*
X101710000Y-67289721D01*
X101710000Y-64710000D01*
X193290000Y-64710000D01*
X193290001Y-150290000D01*
G37*
G04 #@! TD.AperFunction*
M02*
