G04 #@! TF.GenerationSoftware,KiCad,Pcbnew,5.1.8-db9833491~87~ubuntu20.04.1*
G04 #@! TF.CreationDate,2020-11-25T08:58:25+01:00*
G04 #@! TF.ProjectId,snoopy,736e6f6f-7079-42e6-9b69-6361645f7063,v1.0*
G04 #@! TF.SameCoordinates,Original*
G04 #@! TF.FileFunction,Legend,Top*
G04 #@! TF.FilePolarity,Positive*
%FSLAX46Y46*%
G04 Gerber Fmt 4.6, Leading zero omitted, Abs format (unit mm)*
G04 Created by KiCad (PCBNEW 5.1.8-db9833491~87~ubuntu20.04.1) date 2020-11-25 08:58:25*
%MOMM*%
%LPD*%
G01*
G04 APERTURE LIST*
%ADD10C,0.300000*%
%ADD11C,0.120000*%
%ADD12C,0.150000*%
G04 APERTURE END LIST*
D10*
X131666142Y-104940857D02*
X131737571Y-104726571D01*
X131737571Y-104369428D01*
X131666142Y-104226571D01*
X131594714Y-104155142D01*
X131451857Y-104083714D01*
X131309000Y-104083714D01*
X131166142Y-104155142D01*
X131094714Y-104226571D01*
X131023285Y-104369428D01*
X130951857Y-104655142D01*
X130880428Y-104798000D01*
X130809000Y-104869428D01*
X130666142Y-104940857D01*
X130523285Y-104940857D01*
X130380428Y-104869428D01*
X130309000Y-104798000D01*
X130237571Y-104655142D01*
X130237571Y-104298000D01*
X130309000Y-104083714D01*
X130737571Y-103440857D02*
X131737571Y-103440857D01*
X130880428Y-103440857D02*
X130809000Y-103369428D01*
X130737571Y-103226571D01*
X130737571Y-103012285D01*
X130809000Y-102869428D01*
X130951857Y-102798000D01*
X131737571Y-102798000D01*
X131737571Y-101869428D02*
X131666142Y-102012285D01*
X131594714Y-102083714D01*
X131451857Y-102155142D01*
X131023285Y-102155142D01*
X130880428Y-102083714D01*
X130809000Y-102012285D01*
X130737571Y-101869428D01*
X130737571Y-101655142D01*
X130809000Y-101512285D01*
X130880428Y-101440857D01*
X131023285Y-101369428D01*
X131451857Y-101369428D01*
X131594714Y-101440857D01*
X131666142Y-101512285D01*
X131737571Y-101655142D01*
X131737571Y-101869428D01*
X131737571Y-100512285D02*
X131666142Y-100655142D01*
X131594714Y-100726571D01*
X131451857Y-100798000D01*
X131023285Y-100798000D01*
X130880428Y-100726571D01*
X130809000Y-100655142D01*
X130737571Y-100512285D01*
X130737571Y-100298000D01*
X130809000Y-100155142D01*
X130880428Y-100083714D01*
X131023285Y-100012285D01*
X131451857Y-100012285D01*
X131594714Y-100083714D01*
X131666142Y-100155142D01*
X131737571Y-100298000D01*
X131737571Y-100512285D01*
X130737571Y-99369428D02*
X132237571Y-99369428D01*
X130809000Y-99369428D02*
X130737571Y-99226571D01*
X130737571Y-98940857D01*
X130809000Y-98798000D01*
X130880428Y-98726571D01*
X131023285Y-98655142D01*
X131451857Y-98655142D01*
X131594714Y-98726571D01*
X131666142Y-98798000D01*
X131737571Y-98940857D01*
X131737571Y-99226571D01*
X131666142Y-99369428D01*
X130737571Y-98155142D02*
X131737571Y-97798000D01*
X130737571Y-97440857D02*
X131737571Y-97798000D01*
X132094714Y-97940857D01*
X132166142Y-98012285D01*
X132237571Y-98155142D01*
X130737571Y-95869428D02*
X131737571Y-95512285D01*
X130737571Y-95155142D01*
X131737571Y-93798000D02*
X131737571Y-94655142D01*
X131737571Y-94226571D02*
X130237571Y-94226571D01*
X130451857Y-94369428D01*
X130594714Y-94512285D01*
X130666142Y-94655142D01*
X131594714Y-93155142D02*
X131666142Y-93083714D01*
X131737571Y-93155142D01*
X131666142Y-93226571D01*
X131594714Y-93155142D01*
X131737571Y-93155142D01*
X130237571Y-92155142D02*
X130237571Y-92012285D01*
X130309000Y-91869428D01*
X130380428Y-91798000D01*
X130523285Y-91726571D01*
X130809000Y-91655142D01*
X131166142Y-91655142D01*
X131451857Y-91726571D01*
X131594714Y-91798000D01*
X131666142Y-91869428D01*
X131737571Y-92012285D01*
X131737571Y-92155142D01*
X131666142Y-92298000D01*
X131594714Y-92369428D01*
X131451857Y-92440857D01*
X131166142Y-92512285D01*
X130809000Y-92512285D01*
X130523285Y-92440857D01*
X130380428Y-92369428D01*
X130309000Y-92298000D01*
X130237571Y-92155142D01*
X133287571Y-104798000D02*
X134287571Y-104512285D01*
X133573285Y-104226571D01*
X134287571Y-103940857D01*
X133287571Y-103655142D01*
X133287571Y-103226571D02*
X134287571Y-102940857D01*
X133573285Y-102655142D01*
X134287571Y-102369428D01*
X133287571Y-102083714D01*
X133287571Y-101655142D02*
X134287571Y-101369428D01*
X133573285Y-101083714D01*
X134287571Y-100798000D01*
X133287571Y-100512285D01*
X134144714Y-99940857D02*
X134216142Y-99869428D01*
X134287571Y-99940857D01*
X134216142Y-100012285D01*
X134144714Y-99940857D01*
X134287571Y-99940857D01*
X132930428Y-99298000D02*
X132859000Y-99226571D01*
X132787571Y-99083714D01*
X132787571Y-98726571D01*
X132859000Y-98583714D01*
X132930428Y-98512285D01*
X133073285Y-98440857D01*
X133216142Y-98440857D01*
X133430428Y-98512285D01*
X134287571Y-99369428D01*
X134287571Y-98440857D01*
X133716142Y-97798000D02*
X133716142Y-96655142D01*
X132787571Y-95655142D02*
X132787571Y-95512285D01*
X132859000Y-95369428D01*
X132930428Y-95298000D01*
X133073285Y-95226571D01*
X133359000Y-95155142D01*
X133716142Y-95155142D01*
X134001857Y-95226571D01*
X134144714Y-95298000D01*
X134216142Y-95369428D01*
X134287571Y-95512285D01*
X134287571Y-95655142D01*
X134216142Y-95798000D01*
X134144714Y-95869428D01*
X134001857Y-95940857D01*
X133716142Y-96012285D01*
X133359000Y-96012285D01*
X133073285Y-95940857D01*
X132930428Y-95869428D01*
X132859000Y-95798000D01*
X132787571Y-95655142D01*
X134144714Y-94512285D02*
X134216142Y-94440857D01*
X134287571Y-94512285D01*
X134216142Y-94583714D01*
X134144714Y-94512285D01*
X134287571Y-94512285D01*
X134287571Y-93155142D02*
X132787571Y-93155142D01*
X134216142Y-93155142D02*
X134287571Y-93298000D01*
X134287571Y-93583714D01*
X134216142Y-93726571D01*
X134144714Y-93798000D01*
X134001857Y-93869428D01*
X133573285Y-93869428D01*
X133430428Y-93798000D01*
X133359000Y-93726571D01*
X133287571Y-93583714D01*
X133287571Y-93298000D01*
X133359000Y-93155142D01*
X134287571Y-92440857D02*
X132787571Y-92440857D01*
X133716142Y-92298000D02*
X134287571Y-91869428D01*
X133287571Y-91869428D02*
X133859000Y-92440857D01*
D11*
X124990000Y-116100000D02*
X124990000Y-118110000D01*
X159580000Y-109500000D02*
X125380000Y-109500000D01*
X159580000Y-129700000D02*
X159580000Y-109500000D01*
X125380000Y-129700000D02*
X159580000Y-129700000D01*
X125380000Y-109500000D02*
X125380000Y-129700000D01*
X112950000Y-76032779D02*
X112950000Y-75707221D01*
X113970000Y-76032779D02*
X113970000Y-75707221D01*
X135100000Y-83412779D02*
X135100000Y-83087221D01*
X134080000Y-83412779D02*
X134080000Y-83087221D01*
X132580000Y-84912779D02*
X132580000Y-84587221D01*
X133600000Y-84912779D02*
X133600000Y-84587221D01*
X119120000Y-79337221D02*
X119120000Y-79662779D01*
X120140000Y-79337221D02*
X120140000Y-79662779D01*
X120140000Y-82672779D02*
X120140000Y-82347221D01*
X119120000Y-82672779D02*
X119120000Y-82347221D01*
X135100000Y-78577221D02*
X135100000Y-78902779D01*
X134080000Y-78577221D02*
X134080000Y-78902779D01*
X121640000Y-77837221D02*
X121640000Y-78162779D01*
X120620000Y-77837221D02*
X120620000Y-78162779D01*
X121640000Y-84172779D02*
X121640000Y-83847221D01*
X120620000Y-84172779D02*
X120620000Y-83847221D01*
X133600000Y-77077221D02*
X133600000Y-77402779D01*
X132580000Y-77077221D02*
X132580000Y-77402779D01*
X155310000Y-83412779D02*
X155310000Y-83087221D01*
X154290000Y-83412779D02*
X154290000Y-83087221D01*
X155310000Y-78567221D02*
X155310000Y-78892779D01*
X154290000Y-78567221D02*
X154290000Y-78892779D01*
X139320000Y-79337221D02*
X139320000Y-79662779D01*
X140340000Y-79337221D02*
X140340000Y-79662779D01*
X140340000Y-82672779D02*
X140340000Y-82347221D01*
X139320000Y-82672779D02*
X139320000Y-82347221D01*
X152780000Y-84922779D02*
X152780000Y-84597221D01*
X153800000Y-84922779D02*
X153800000Y-84597221D01*
X153800000Y-77067221D02*
X153800000Y-77392779D01*
X152780000Y-77067221D02*
X152780000Y-77392779D01*
X141850000Y-77837221D02*
X141850000Y-78162779D01*
X140830000Y-77837221D02*
X140830000Y-78162779D01*
X141850000Y-84182779D02*
X141850000Y-83857221D01*
X140830000Y-84182779D02*
X140830000Y-83857221D01*
X160520000Y-79337221D02*
X160520000Y-79662779D01*
X159500000Y-79337221D02*
X159500000Y-79662779D01*
X159500000Y-82662779D02*
X159500000Y-82337221D01*
X160520000Y-82662779D02*
X160520000Y-82337221D01*
X174460000Y-83422779D02*
X174460000Y-83097221D01*
X175480000Y-83422779D02*
X175480000Y-83097221D01*
X174460000Y-78567221D02*
X174460000Y-78892779D01*
X175480000Y-78567221D02*
X175480000Y-78892779D01*
X160980000Y-77827221D02*
X160980000Y-78152779D01*
X162000000Y-77827221D02*
X162000000Y-78152779D01*
X162020000Y-84172779D02*
X162020000Y-83847221D01*
X161000000Y-84172779D02*
X161000000Y-83847221D01*
X172950000Y-84932779D02*
X172950000Y-84607221D01*
X173970000Y-84932779D02*
X173970000Y-84607221D01*
X172950000Y-77067221D02*
X172950000Y-77392779D01*
X173970000Y-77067221D02*
X173970000Y-77392779D01*
X132177221Y-81510000D02*
X132502779Y-81510000D01*
X132177221Y-80490000D02*
X132502779Y-80490000D01*
X152377221Y-80490000D02*
X152702779Y-80490000D01*
X152377221Y-81510000D02*
X152702779Y-81510000D01*
X172547221Y-81510000D02*
X172872779Y-81510000D01*
X172547221Y-80490000D02*
X172872779Y-80490000D01*
X112122779Y-89090000D02*
X111797221Y-89090000D01*
X112122779Y-88070000D02*
X111797221Y-88070000D01*
X108037221Y-73100000D02*
X108362779Y-73100000D01*
X108037221Y-74120000D02*
X108362779Y-74120000D01*
X107287221Y-89090000D02*
X107612779Y-89090000D01*
X107287221Y-88070000D02*
X107612779Y-88070000D01*
X110210000Y-86157221D02*
X110210000Y-86482779D01*
X109190000Y-86157221D02*
X109190000Y-86482779D01*
X150610000Y-103437221D02*
X150610000Y-103762779D01*
X149590000Y-103437221D02*
X149590000Y-103762779D01*
X113622779Y-86560000D02*
X113297221Y-86560000D01*
X113622779Y-87580000D02*
X113297221Y-87580000D01*
X106537221Y-75620000D02*
X106862779Y-75620000D01*
X106537221Y-74600000D02*
X106862779Y-74600000D01*
X105787221Y-87580000D02*
X106112779Y-87580000D01*
X105787221Y-86560000D02*
X106112779Y-86560000D01*
X149590000Y-99377221D02*
X149590000Y-99702779D01*
X150610000Y-99377221D02*
X150610000Y-99702779D01*
X172580000Y-92367221D02*
X172580000Y-92692779D01*
X171560000Y-92367221D02*
X171560000Y-92692779D01*
X121717221Y-79740000D02*
X122042779Y-79740000D01*
X121717221Y-80760000D02*
X122042779Y-80760000D01*
X121717221Y-81250000D02*
X122042779Y-81250000D01*
X121717221Y-82270000D02*
X122042779Y-82270000D01*
X132502779Y-81990000D02*
X132177221Y-81990000D01*
X132502779Y-83010000D02*
X132177221Y-83010000D01*
X132502779Y-80010000D02*
X132177221Y-80010000D01*
X132502779Y-78990000D02*
X132177221Y-78990000D01*
X123140000Y-78162779D02*
X123140000Y-77837221D01*
X122120000Y-78162779D02*
X122120000Y-77837221D01*
X122120000Y-83847221D02*
X122120000Y-84172779D01*
X123140000Y-83847221D02*
X123140000Y-84172779D01*
X131080000Y-84587221D02*
X131080000Y-84912779D01*
X132100000Y-84587221D02*
X132100000Y-84912779D01*
X132100000Y-77402779D02*
X132100000Y-77077221D01*
X131080000Y-77402779D02*
X131080000Y-77077221D01*
X152702779Y-83010000D02*
X152377221Y-83010000D01*
X152702779Y-81990000D02*
X152377221Y-81990000D01*
X152702779Y-78980000D02*
X152377221Y-78980000D01*
X152702779Y-80000000D02*
X152377221Y-80000000D01*
X141927221Y-80760000D02*
X142252779Y-80760000D01*
X141927221Y-79740000D02*
X142252779Y-79740000D01*
X141927221Y-82270000D02*
X142252779Y-82270000D01*
X141927221Y-81250000D02*
X142252779Y-81250000D01*
X152310000Y-84597221D02*
X152310000Y-84922779D01*
X151290000Y-84597221D02*
X151290000Y-84922779D01*
X151280000Y-77392779D02*
X151280000Y-77067221D01*
X152300000Y-77392779D02*
X152300000Y-77067221D01*
X143350000Y-78162779D02*
X143350000Y-77837221D01*
X142330000Y-78162779D02*
X142330000Y-77837221D01*
X143350000Y-83857221D02*
X143350000Y-84182779D01*
X142330000Y-83857221D02*
X142330000Y-84182779D01*
X162097221Y-80760000D02*
X162422779Y-80760000D01*
X162097221Y-79740000D02*
X162422779Y-79740000D01*
X162097221Y-81240000D02*
X162422779Y-81240000D01*
X162097221Y-82260000D02*
X162422779Y-82260000D01*
X172872779Y-82000000D02*
X172547221Y-82000000D01*
X172872779Y-83020000D02*
X172547221Y-83020000D01*
X172872779Y-80000000D02*
X172547221Y-80000000D01*
X172872779Y-78980000D02*
X172547221Y-78980000D01*
X162500000Y-78162779D02*
X162500000Y-77837221D01*
X163520000Y-78162779D02*
X163520000Y-77837221D01*
X162500000Y-83847221D02*
X162500000Y-84172779D01*
X163520000Y-83847221D02*
X163520000Y-84172779D01*
X172480000Y-84607221D02*
X172480000Y-84932779D01*
X171460000Y-84607221D02*
X171460000Y-84932779D01*
X171450000Y-77392779D02*
X171450000Y-77067221D01*
X172470000Y-77392779D02*
X172470000Y-77067221D01*
X110960000Y-75707221D02*
X110960000Y-76032779D01*
X109940000Y-75707221D02*
X109940000Y-76032779D01*
X111440000Y-76032779D02*
X111440000Y-75707221D01*
X112460000Y-76032779D02*
X112460000Y-75707221D01*
X111720000Y-86482779D02*
X111720000Y-86157221D01*
X110700000Y-86482779D02*
X110700000Y-86157221D01*
X109460000Y-75707221D02*
X109460000Y-76032779D01*
X108440000Y-75707221D02*
X108440000Y-76032779D01*
X107690000Y-86482779D02*
X107690000Y-86157221D01*
X108710000Y-86482779D02*
X108710000Y-86157221D01*
X113297221Y-86090000D02*
X113622779Y-86090000D01*
X113297221Y-85070000D02*
X113622779Y-85070000D01*
X106862779Y-76110000D02*
X106537221Y-76110000D01*
X106862779Y-77130000D02*
X106537221Y-77130000D01*
X106112779Y-85060000D02*
X105787221Y-85060000D01*
X106112779Y-86080000D02*
X105787221Y-86080000D01*
X178797221Y-100260000D02*
X179122779Y-100260000D01*
X178797221Y-99240000D02*
X179122779Y-99240000D01*
D12*
X125035000Y-76575000D02*
X123660000Y-76575000D01*
X125035000Y-85450000D02*
X129185000Y-85450000D01*
X125035000Y-76550000D02*
X129185000Y-76550000D01*
X125035000Y-85450000D02*
X125035000Y-85335000D01*
X129185000Y-85450000D02*
X129185000Y-85335000D01*
X129185000Y-76550000D02*
X129185000Y-76665000D01*
X125035000Y-76550000D02*
X125035000Y-76575000D01*
X145245000Y-76575000D02*
X143870000Y-76575000D01*
X145245000Y-85450000D02*
X149395000Y-85450000D01*
X145245000Y-76550000D02*
X149395000Y-76550000D01*
X145245000Y-85450000D02*
X145245000Y-85335000D01*
X149395000Y-85450000D02*
X149395000Y-85335000D01*
X149395000Y-76550000D02*
X149395000Y-76665000D01*
X145245000Y-76550000D02*
X145245000Y-76575000D01*
X165415000Y-76550000D02*
X165415000Y-76575000D01*
X169565000Y-76550000D02*
X169565000Y-76665000D01*
X169565000Y-85450000D02*
X169565000Y-85335000D01*
X165415000Y-85450000D02*
X165415000Y-85335000D01*
X165415000Y-76550000D02*
X169565000Y-76550000D01*
X165415000Y-85450000D02*
X169565000Y-85450000D01*
X165415000Y-76575000D02*
X164040000Y-76575000D01*
X114150000Y-79025000D02*
X114125000Y-79025000D01*
X114150000Y-83175000D02*
X114035000Y-83175000D01*
X105250000Y-83175000D02*
X105365000Y-83175000D01*
X105250000Y-79025000D02*
X105365000Y-79025000D01*
X114150000Y-79025000D02*
X114150000Y-83175000D01*
X105250000Y-79025000D02*
X105250000Y-83175000D01*
X114125000Y-79025000D02*
X114125000Y-77650000D01*
D11*
X140386860Y-105510921D02*
X140386860Y-99500921D01*
X147206860Y-103260921D02*
X147206860Y-99500921D01*
X140386860Y-99500921D02*
X141646860Y-99500921D01*
X147206860Y-99500921D02*
X145946860Y-99500921D01*
D12*
X175175000Y-96325000D02*
X175175000Y-95300000D01*
X176175000Y-106675000D02*
X176175000Y-105600000D01*
X165825000Y-106675000D02*
X165825000Y-105600000D01*
X165825000Y-96325000D02*
X165825000Y-97400000D01*
X176175000Y-96325000D02*
X176175000Y-97400000D01*
X165825000Y-96325000D02*
X166900000Y-96325000D01*
X165825000Y-106675000D02*
X166900000Y-106675000D01*
X176175000Y-106675000D02*
X175100000Y-106675000D01*
X176175000Y-96325000D02*
X175175000Y-96325000D01*
D11*
X183440000Y-93522779D02*
X183440000Y-93197221D01*
X182420000Y-93522779D02*
X182420000Y-93197221D01*
X184320000Y-93522779D02*
X184320000Y-93197221D01*
X185340000Y-93522779D02*
X185340000Y-93197221D01*
X183890000Y-87612779D02*
X183890000Y-87287221D01*
X182870000Y-87612779D02*
X182870000Y-87287221D01*
X183890000Y-80367221D02*
X183890000Y-80692779D01*
X182870000Y-80367221D02*
X182870000Y-80692779D01*
X155942779Y-142110000D02*
X155617221Y-142110000D01*
X155942779Y-141090000D02*
X155617221Y-141090000D01*
X164327221Y-142100000D02*
X164652779Y-142100000D01*
X164327221Y-141080000D02*
X164652779Y-141080000D01*
X178817221Y-97240000D02*
X179142779Y-97240000D01*
X178817221Y-98260000D02*
X179142779Y-98260000D01*
X175470000Y-109307221D02*
X175470000Y-109632779D01*
X176490000Y-109307221D02*
X176490000Y-109632779D01*
X168240000Y-92722779D02*
X168240000Y-92397221D01*
X169260000Y-92722779D02*
X169260000Y-92397221D01*
X178817221Y-96760000D02*
X179142779Y-96760000D01*
X178817221Y-95740000D02*
X179142779Y-95740000D01*
X163270000Y-97802779D02*
X163270000Y-97477221D01*
X164290000Y-97802779D02*
X164290000Y-97477221D01*
X163270000Y-106347221D02*
X163270000Y-106672779D01*
X164290000Y-106347221D02*
X164290000Y-106672779D01*
X192500000Y-125262779D02*
X192500000Y-124937221D01*
X191480000Y-125262779D02*
X191480000Y-124937221D01*
X191300000Y-128041422D02*
X191300000Y-128558578D01*
X192720000Y-128041422D02*
X192720000Y-128558578D01*
X147680000Y-103361422D02*
X147680000Y-103878578D01*
X149100000Y-103361422D02*
X149100000Y-103878578D01*
X149090000Y-99281422D02*
X149090000Y-99798578D01*
X147670000Y-99281422D02*
X147670000Y-99798578D01*
X124341422Y-72290000D02*
X124858578Y-72290000D01*
X124341422Y-73710000D02*
X124858578Y-73710000D01*
X119241422Y-73710000D02*
X119758578Y-73710000D01*
X119241422Y-72290000D02*
X119758578Y-72290000D01*
X134541422Y-73710000D02*
X135058578Y-73710000D01*
X134541422Y-72290000D02*
X135058578Y-72290000D01*
X129441422Y-72290000D02*
X129958578Y-72290000D01*
X129441422Y-73710000D02*
X129958578Y-73710000D01*
X154841422Y-73710000D02*
X155358578Y-73710000D01*
X154841422Y-72290000D02*
X155358578Y-72290000D01*
X149741422Y-73710000D02*
X150258578Y-73710000D01*
X149741422Y-72290000D02*
X150258578Y-72290000D01*
X144641422Y-72290000D02*
X145158578Y-72290000D01*
X144641422Y-73710000D02*
X145158578Y-73710000D01*
X139541422Y-73710000D02*
X140058578Y-73710000D01*
X139541422Y-72290000D02*
X140058578Y-72290000D01*
X164941422Y-72290000D02*
X165458578Y-72290000D01*
X164941422Y-73710000D02*
X165458578Y-73710000D01*
X159941422Y-73710000D02*
X160458578Y-73710000D01*
X159941422Y-72290000D02*
X160458578Y-72290000D01*
X175141422Y-73710000D02*
X175658578Y-73710000D01*
X175141422Y-72290000D02*
X175658578Y-72290000D01*
X170041422Y-72290000D02*
X170558578Y-72290000D01*
X170041422Y-73710000D02*
X170558578Y-73710000D01*
X102870000Y-135148578D02*
X102870000Y-134631422D01*
X104290000Y-135148578D02*
X104290000Y-134631422D01*
X102870000Y-118048578D02*
X102870000Y-117531422D01*
X104290000Y-118048578D02*
X104290000Y-117531422D01*
X104290000Y-100948578D02*
X104290000Y-100431422D01*
X102870000Y-100948578D02*
X102870000Y-100431422D01*
X187392000Y-91316000D02*
X188722000Y-91316000D01*
X187392000Y-92646000D02*
X187392000Y-91316000D01*
X189992000Y-91316000D02*
X192592000Y-91316000D01*
X189992000Y-93916000D02*
X189992000Y-91316000D01*
X187392000Y-93916000D02*
X189992000Y-93916000D01*
X192592000Y-91316000D02*
X192592000Y-111756000D01*
X187392000Y-93916000D02*
X187392000Y-111756000D01*
X187392000Y-111756000D02*
X192592000Y-111756000D01*
X114450000Y-76032779D02*
X114450000Y-75707221D01*
X115470000Y-76032779D02*
X115470000Y-75707221D01*
X127282779Y-75080000D02*
X126957221Y-75080000D01*
X127282779Y-76100000D02*
X126957221Y-76100000D01*
X147482779Y-76090000D02*
X147157221Y-76090000D01*
X147482779Y-75070000D02*
X147157221Y-75070000D01*
X167642779Y-75070000D02*
X167317221Y-75070000D01*
X167642779Y-76090000D02*
X167317221Y-76090000D01*
X177450000Y-77290000D02*
X177450000Y-89890000D01*
X182550000Y-77290000D02*
X177450000Y-77290000D01*
X182550000Y-89890000D02*
X182550000Y-77290000D01*
X174080000Y-90677221D02*
X174080000Y-91002779D01*
X173060000Y-90677221D02*
X173060000Y-91002779D01*
X179152779Y-93750000D02*
X178827221Y-93750000D01*
X179152779Y-92730000D02*
X178827221Y-92730000D01*
X184830000Y-96580000D02*
X184830000Y-96380000D01*
X184230000Y-97480000D02*
X184830000Y-96580000D01*
X182930000Y-96580000D02*
X182930000Y-96380000D01*
X183530000Y-97480000D02*
X182930000Y-96580000D01*
X185080000Y-97480000D02*
X182680000Y-97480000D01*
X185080000Y-103880000D02*
X185080000Y-97480000D01*
X182680000Y-103880000D02*
X185080000Y-103880000D01*
X182680000Y-97480000D02*
X182680000Y-103880000D01*
X167770000Y-91242779D02*
X167770000Y-90917221D01*
X166750000Y-91242779D02*
X166750000Y-90917221D01*
X125430000Y-150810000D02*
X145750000Y-150810000D01*
X125430000Y-143190000D02*
X145750000Y-143190000D01*
X145750000Y-149540000D02*
X125430000Y-149540000D01*
X145750000Y-150810000D02*
X145750000Y-143190000D01*
X125430000Y-143190000D02*
X125430000Y-150810000D01*
D12*
X126965000Y-142040000D02*
X130665000Y-142040000D01*
X126965000Y-135040000D02*
X130665000Y-135040000D01*
X126965000Y-142040000D02*
X126965000Y-135040000D01*
X130665000Y-142040000D02*
X130665000Y-135040000D01*
D11*
X161760000Y-138730000D02*
X161760000Y-136280000D01*
X158540000Y-136930000D02*
X158540000Y-138730000D01*
X162010000Y-120470000D02*
X162010000Y-117785000D01*
X162010000Y-117785000D02*
X160090000Y-117785000D01*
X160090000Y-117785000D02*
X160090000Y-120470000D01*
X162140000Y-117785000D02*
X162140000Y-120470000D01*
X164060000Y-117785000D02*
X162140000Y-117785000D01*
X164060000Y-120470000D02*
X164060000Y-117785000D01*
X132140000Y-140612064D02*
X132140000Y-139407936D01*
X133960000Y-140612064D02*
X133960000Y-139407936D01*
X139070000Y-140602064D02*
X139070000Y-139397936D01*
X137250000Y-140602064D02*
X137250000Y-139397936D01*
X144120000Y-140582064D02*
X144120000Y-139377936D01*
X142300000Y-140582064D02*
X142300000Y-139377936D01*
X188550000Y-77930000D02*
X188550000Y-74205000D01*
X188550000Y-87025000D02*
X188550000Y-80050000D01*
X191420000Y-87025000D02*
X188550000Y-87025000D01*
X191420000Y-74205000D02*
X188550000Y-74205000D01*
X191420000Y-81180000D02*
X191420000Y-74205000D01*
X191420000Y-87020000D02*
X191420000Y-83300000D01*
X165965000Y-148200000D02*
X165965000Y-150485000D01*
X165965000Y-150485000D02*
X167435000Y-150485000D01*
X167435000Y-150485000D02*
X167435000Y-148200000D01*
X168975000Y-150485000D02*
X168975000Y-148200000D01*
X167505000Y-150485000D02*
X168975000Y-150485000D01*
X167505000Y-148200000D02*
X167505000Y-150485000D01*
X166210000Y-137677221D02*
X166210000Y-138002779D01*
X167230000Y-137677221D02*
X167230000Y-138002779D01*
X168750000Y-137677221D02*
X168750000Y-138002779D01*
X167730000Y-137677221D02*
X167730000Y-138002779D01*
X163740000Y-137992779D02*
X163740000Y-137667221D01*
X162720000Y-137992779D02*
X162720000Y-137667221D01*
X165250000Y-137667221D02*
X165250000Y-137992779D01*
X164230000Y-137667221D02*
X164230000Y-137992779D01*
X174960000Y-109928578D02*
X174960000Y-109411422D01*
X173540000Y-109928578D02*
X173540000Y-109411422D01*
X162561422Y-104740000D02*
X163078578Y-104740000D01*
X162561422Y-103320000D02*
X163078578Y-103320000D01*
X162800000Y-106441422D02*
X162800000Y-106958578D01*
X161380000Y-106441422D02*
X161380000Y-106958578D01*
X143910000Y-136278578D02*
X143910000Y-135761422D01*
X142490000Y-136278578D02*
X142490000Y-135761422D01*
X128950000Y-133258578D02*
X128950000Y-132741422D01*
X130370000Y-133258578D02*
X130370000Y-132741422D01*
X138850000Y-136288578D02*
X138850000Y-135771422D01*
X137430000Y-136288578D02*
X137430000Y-135771422D01*
X175720000Y-150490000D02*
X172120000Y-150490000D01*
X175220000Y-143610000D02*
X172620000Y-143610000D01*
X170320000Y-148410000D02*
X170320000Y-145210000D01*
X177520000Y-148410000D02*
X177520000Y-145210000D01*
X178290000Y-64330000D02*
X178290000Y-71070000D01*
X116630000Y-64330000D02*
X116630000Y-71070000D01*
X116630000Y-71070000D02*
X178290000Y-71070000D01*
X116630000Y-64330000D02*
X178290000Y-64330000D01*
X116630000Y-65450000D02*
X178290000Y-65450000D01*
X116630000Y-70550000D02*
X178290000Y-70550000D01*
X155450000Y-151500000D02*
X164850000Y-151500000D01*
X164850000Y-145700000D02*
X164850000Y-147700000D01*
X164850000Y-149600000D02*
X164850000Y-151500000D01*
X155450000Y-145700000D02*
X155450000Y-147700000D01*
X155450000Y-149600000D02*
X155450000Y-151500000D01*
D12*
X124880000Y-126490000D02*
X105480000Y-126490000D01*
X124880000Y-143290000D02*
X124880000Y-126490000D01*
X124880000Y-143290000D02*
X105480000Y-143290000D01*
X105480000Y-143290000D02*
X105480000Y-126490000D01*
X105480000Y-126190000D02*
X105480000Y-109390000D01*
X124880000Y-126190000D02*
X105480000Y-126190000D01*
X124880000Y-126190000D02*
X124880000Y-109390000D01*
X124880000Y-109390000D02*
X105480000Y-109390000D01*
X124880000Y-92290000D02*
X105480000Y-92290000D01*
X124880000Y-109090000D02*
X124880000Y-92290000D01*
X124880000Y-109090000D02*
X105480000Y-109090000D01*
X105480000Y-109090000D02*
X105480000Y-92290000D01*
X190614699Y-140819899D02*
X173314699Y-140819899D01*
X173314699Y-140819899D02*
X173314699Y-123819899D01*
X173314699Y-123819899D02*
X190614699Y-123819899D01*
X190614699Y-123819899D02*
X190614699Y-140819899D01*
X187964699Y-140319899D02*
X187964699Y-124319899D01*
X187964699Y-124319899D02*
X173964699Y-124319899D01*
X173964699Y-124319899D02*
X173964699Y-136319899D01*
X173964699Y-136319899D02*
X175964699Y-136319899D01*
X175964699Y-136319899D02*
X175964699Y-140319899D01*
X175964699Y-140319899D02*
X187964699Y-140319899D01*
X130285714Y-108932380D02*
X130285714Y-107932380D01*
X130666666Y-107932380D01*
X130761904Y-107980000D01*
X130809523Y-108027619D01*
X130857142Y-108122857D01*
X130857142Y-108265714D01*
X130809523Y-108360952D01*
X130761904Y-108408571D01*
X130666666Y-108456190D01*
X130285714Y-108456190D01*
X131238095Y-108884761D02*
X131380952Y-108932380D01*
X131619047Y-108932380D01*
X131714285Y-108884761D01*
X131761904Y-108837142D01*
X131809523Y-108741904D01*
X131809523Y-108646666D01*
X131761904Y-108551428D01*
X131714285Y-108503809D01*
X131619047Y-108456190D01*
X131428571Y-108408571D01*
X131333333Y-108360952D01*
X131285714Y-108313333D01*
X131238095Y-108218095D01*
X131238095Y-108122857D01*
X131285714Y-108027619D01*
X131333333Y-107980000D01*
X131428571Y-107932380D01*
X131666666Y-107932380D01*
X131809523Y-107980000D01*
X132761904Y-108932380D02*
X132190476Y-108932380D01*
X132476190Y-108932380D02*
X132476190Y-107932380D01*
X132380952Y-108075238D01*
X132285714Y-108170476D01*
X132190476Y-108218095D01*
X113837142Y-72782857D02*
X113884761Y-72830476D01*
X113932380Y-72973333D01*
X113932380Y-73068571D01*
X113884761Y-73211428D01*
X113789523Y-73306666D01*
X113694285Y-73354285D01*
X113503809Y-73401904D01*
X113360952Y-73401904D01*
X113170476Y-73354285D01*
X113075238Y-73306666D01*
X112980000Y-73211428D01*
X112932380Y-73068571D01*
X112932380Y-72973333D01*
X112980000Y-72830476D01*
X113027619Y-72782857D01*
X113027619Y-72401904D02*
X112980000Y-72354285D01*
X112932380Y-72259047D01*
X112932380Y-72020952D01*
X112980000Y-71925714D01*
X113027619Y-71878095D01*
X113122857Y-71830476D01*
X113218095Y-71830476D01*
X113360952Y-71878095D01*
X113932380Y-72449523D01*
X113932380Y-71830476D01*
X112932380Y-71497142D02*
X112932380Y-70830476D01*
X113932380Y-71259047D01*
X136597142Y-83086666D02*
X136644761Y-83134285D01*
X136692380Y-83277142D01*
X136692380Y-83372380D01*
X136644761Y-83515238D01*
X136549523Y-83610476D01*
X136454285Y-83658095D01*
X136263809Y-83705714D01*
X136120952Y-83705714D01*
X135930476Y-83658095D01*
X135835238Y-83610476D01*
X135740000Y-83515238D01*
X135692380Y-83372380D01*
X135692380Y-83277142D01*
X135740000Y-83134285D01*
X135787619Y-83086666D01*
X135692380Y-82753333D02*
X135692380Y-82134285D01*
X136073333Y-82467619D01*
X136073333Y-82324761D01*
X136120952Y-82229523D01*
X136168571Y-82181904D01*
X136263809Y-82134285D01*
X136501904Y-82134285D01*
X136597142Y-82181904D01*
X136644761Y-82229523D01*
X136692380Y-82324761D01*
X136692380Y-82610476D01*
X136644761Y-82705714D01*
X136597142Y-82753333D01*
X133293333Y-87427142D02*
X133245714Y-87474761D01*
X133102857Y-87522380D01*
X133007619Y-87522380D01*
X132864761Y-87474761D01*
X132769523Y-87379523D01*
X132721904Y-87284285D01*
X132674285Y-87093809D01*
X132674285Y-86950952D01*
X132721904Y-86760476D01*
X132769523Y-86665238D01*
X132864761Y-86570000D01*
X133007619Y-86522380D01*
X133102857Y-86522380D01*
X133245714Y-86570000D01*
X133293333Y-86617619D01*
X133626666Y-86522380D02*
X134293333Y-86522380D01*
X133864761Y-87522380D01*
X118487142Y-79686666D02*
X118534761Y-79734285D01*
X118582380Y-79877142D01*
X118582380Y-79972380D01*
X118534761Y-80115238D01*
X118439523Y-80210476D01*
X118344285Y-80258095D01*
X118153809Y-80305714D01*
X118010952Y-80305714D01*
X117820476Y-80258095D01*
X117725238Y-80210476D01*
X117630000Y-80115238D01*
X117582380Y-79972380D01*
X117582380Y-79877142D01*
X117630000Y-79734285D01*
X117677619Y-79686666D01*
X118582380Y-78734285D02*
X118582380Y-79305714D01*
X118582380Y-79020000D02*
X117582380Y-79020000D01*
X117725238Y-79115238D01*
X117820476Y-79210476D01*
X117868095Y-79305714D01*
X118557142Y-82676666D02*
X118604761Y-82724285D01*
X118652380Y-82867142D01*
X118652380Y-82962380D01*
X118604761Y-83105238D01*
X118509523Y-83200476D01*
X118414285Y-83248095D01*
X118223809Y-83295714D01*
X118080952Y-83295714D01*
X117890476Y-83248095D01*
X117795238Y-83200476D01*
X117700000Y-83105238D01*
X117652380Y-82962380D01*
X117652380Y-82867142D01*
X117700000Y-82724285D01*
X117747619Y-82676666D01*
X117747619Y-82295714D02*
X117700000Y-82248095D01*
X117652380Y-82152857D01*
X117652380Y-81914761D01*
X117700000Y-81819523D01*
X117747619Y-81771904D01*
X117842857Y-81724285D01*
X117938095Y-81724285D01*
X118080952Y-81771904D01*
X118652380Y-82343333D01*
X118652380Y-81724285D01*
X136517142Y-78916666D02*
X136564761Y-78964285D01*
X136612380Y-79107142D01*
X136612380Y-79202380D01*
X136564761Y-79345238D01*
X136469523Y-79440476D01*
X136374285Y-79488095D01*
X136183809Y-79535714D01*
X136040952Y-79535714D01*
X135850476Y-79488095D01*
X135755238Y-79440476D01*
X135660000Y-79345238D01*
X135612380Y-79202380D01*
X135612380Y-79107142D01*
X135660000Y-78964285D01*
X135707619Y-78916666D01*
X135945714Y-78059523D02*
X136612380Y-78059523D01*
X135564761Y-78297619D02*
X136279047Y-78535714D01*
X136279047Y-77916666D01*
X120703333Y-76217142D02*
X120655714Y-76264761D01*
X120512857Y-76312380D01*
X120417619Y-76312380D01*
X120274761Y-76264761D01*
X120179523Y-76169523D01*
X120131904Y-76074285D01*
X120084285Y-75883809D01*
X120084285Y-75740952D01*
X120131904Y-75550476D01*
X120179523Y-75455238D01*
X120274761Y-75360000D01*
X120417619Y-75312380D01*
X120512857Y-75312380D01*
X120655714Y-75360000D01*
X120703333Y-75407619D01*
X121608095Y-75312380D02*
X121131904Y-75312380D01*
X121084285Y-75788571D01*
X121131904Y-75740952D01*
X121227142Y-75693333D01*
X121465238Y-75693333D01*
X121560476Y-75740952D01*
X121608095Y-75788571D01*
X121655714Y-75883809D01*
X121655714Y-76121904D01*
X121608095Y-76217142D01*
X121560476Y-76264761D01*
X121465238Y-76312380D01*
X121227142Y-76312380D01*
X121131904Y-76264761D01*
X121084285Y-76217142D01*
X121517142Y-86616666D02*
X121564761Y-86664285D01*
X121612380Y-86807142D01*
X121612380Y-86902380D01*
X121564761Y-87045238D01*
X121469523Y-87140476D01*
X121374285Y-87188095D01*
X121183809Y-87235714D01*
X121040952Y-87235714D01*
X120850476Y-87188095D01*
X120755238Y-87140476D01*
X120660000Y-87045238D01*
X120612380Y-86902380D01*
X120612380Y-86807142D01*
X120660000Y-86664285D01*
X120707619Y-86616666D01*
X120612380Y-85759523D02*
X120612380Y-85950000D01*
X120660000Y-86045238D01*
X120707619Y-86092857D01*
X120850476Y-86188095D01*
X121040952Y-86235714D01*
X121421904Y-86235714D01*
X121517142Y-86188095D01*
X121564761Y-86140476D01*
X121612380Y-86045238D01*
X121612380Y-85854761D01*
X121564761Y-85759523D01*
X121517142Y-85711904D01*
X121421904Y-85664285D01*
X121183809Y-85664285D01*
X121088571Y-85711904D01*
X121040952Y-85759523D01*
X120993333Y-85854761D01*
X120993333Y-86045238D01*
X121040952Y-86140476D01*
X121088571Y-86188095D01*
X121183809Y-86235714D01*
X133263333Y-75467142D02*
X133215714Y-75514761D01*
X133072857Y-75562380D01*
X132977619Y-75562380D01*
X132834761Y-75514761D01*
X132739523Y-75419523D01*
X132691904Y-75324285D01*
X132644285Y-75133809D01*
X132644285Y-74990952D01*
X132691904Y-74800476D01*
X132739523Y-74705238D01*
X132834761Y-74610000D01*
X132977619Y-74562380D01*
X133072857Y-74562380D01*
X133215714Y-74610000D01*
X133263333Y-74657619D01*
X133834761Y-74990952D02*
X133739523Y-74943333D01*
X133691904Y-74895714D01*
X133644285Y-74800476D01*
X133644285Y-74752857D01*
X133691904Y-74657619D01*
X133739523Y-74610000D01*
X133834761Y-74562380D01*
X134025238Y-74562380D01*
X134120476Y-74610000D01*
X134168095Y-74657619D01*
X134215714Y-74752857D01*
X134215714Y-74800476D01*
X134168095Y-74895714D01*
X134120476Y-74943333D01*
X134025238Y-74990952D01*
X133834761Y-74990952D01*
X133739523Y-75038571D01*
X133691904Y-75086190D01*
X133644285Y-75181428D01*
X133644285Y-75371904D01*
X133691904Y-75467142D01*
X133739523Y-75514761D01*
X133834761Y-75562380D01*
X134025238Y-75562380D01*
X134120476Y-75514761D01*
X134168095Y-75467142D01*
X134215714Y-75371904D01*
X134215714Y-75181428D01*
X134168095Y-75086190D01*
X134120476Y-75038571D01*
X134025238Y-74990952D01*
X156687142Y-83456666D02*
X156734761Y-83504285D01*
X156782380Y-83647142D01*
X156782380Y-83742380D01*
X156734761Y-83885238D01*
X156639523Y-83980476D01*
X156544285Y-84028095D01*
X156353809Y-84075714D01*
X156210952Y-84075714D01*
X156020476Y-84028095D01*
X155925238Y-83980476D01*
X155830000Y-83885238D01*
X155782380Y-83742380D01*
X155782380Y-83647142D01*
X155830000Y-83504285D01*
X155877619Y-83456666D01*
X156782380Y-82980476D02*
X156782380Y-82790000D01*
X156734761Y-82694761D01*
X156687142Y-82647142D01*
X156544285Y-82551904D01*
X156353809Y-82504285D01*
X155972857Y-82504285D01*
X155877619Y-82551904D01*
X155830000Y-82599523D01*
X155782380Y-82694761D01*
X155782380Y-82885238D01*
X155830000Y-82980476D01*
X155877619Y-83028095D01*
X155972857Y-83075714D01*
X156210952Y-83075714D01*
X156306190Y-83028095D01*
X156353809Y-82980476D01*
X156401428Y-82885238D01*
X156401428Y-82694761D01*
X156353809Y-82599523D01*
X156306190Y-82551904D01*
X156210952Y-82504285D01*
X156697142Y-79382857D02*
X156744761Y-79430476D01*
X156792380Y-79573333D01*
X156792380Y-79668571D01*
X156744761Y-79811428D01*
X156649523Y-79906666D01*
X156554285Y-79954285D01*
X156363809Y-80001904D01*
X156220952Y-80001904D01*
X156030476Y-79954285D01*
X155935238Y-79906666D01*
X155840000Y-79811428D01*
X155792380Y-79668571D01*
X155792380Y-79573333D01*
X155840000Y-79430476D01*
X155887619Y-79382857D01*
X156792380Y-78430476D02*
X156792380Y-79001904D01*
X156792380Y-78716190D02*
X155792380Y-78716190D01*
X155935238Y-78811428D01*
X156030476Y-78906666D01*
X156078095Y-79001904D01*
X155792380Y-77811428D02*
X155792380Y-77716190D01*
X155840000Y-77620952D01*
X155887619Y-77573333D01*
X155982857Y-77525714D01*
X156173333Y-77478095D01*
X156411428Y-77478095D01*
X156601904Y-77525714D01*
X156697142Y-77573333D01*
X156744761Y-77620952D01*
X156792380Y-77716190D01*
X156792380Y-77811428D01*
X156744761Y-77906666D01*
X156697142Y-77954285D01*
X156601904Y-78001904D01*
X156411428Y-78049523D01*
X156173333Y-78049523D01*
X155982857Y-78001904D01*
X155887619Y-77954285D01*
X155840000Y-77906666D01*
X155792380Y-77811428D01*
X138747142Y-80132857D02*
X138794761Y-80180476D01*
X138842380Y-80323333D01*
X138842380Y-80418571D01*
X138794761Y-80561428D01*
X138699523Y-80656666D01*
X138604285Y-80704285D01*
X138413809Y-80751904D01*
X138270952Y-80751904D01*
X138080476Y-80704285D01*
X137985238Y-80656666D01*
X137890000Y-80561428D01*
X137842380Y-80418571D01*
X137842380Y-80323333D01*
X137890000Y-80180476D01*
X137937619Y-80132857D01*
X138842380Y-79180476D02*
X138842380Y-79751904D01*
X138842380Y-79466190D02*
X137842380Y-79466190D01*
X137985238Y-79561428D01*
X138080476Y-79656666D01*
X138128095Y-79751904D01*
X138842380Y-78228095D02*
X138842380Y-78799523D01*
X138842380Y-78513809D02*
X137842380Y-78513809D01*
X137985238Y-78609047D01*
X138080476Y-78704285D01*
X138128095Y-78799523D01*
X138757142Y-83152857D02*
X138804761Y-83200476D01*
X138852380Y-83343333D01*
X138852380Y-83438571D01*
X138804761Y-83581428D01*
X138709523Y-83676666D01*
X138614285Y-83724285D01*
X138423809Y-83771904D01*
X138280952Y-83771904D01*
X138090476Y-83724285D01*
X137995238Y-83676666D01*
X137900000Y-83581428D01*
X137852380Y-83438571D01*
X137852380Y-83343333D01*
X137900000Y-83200476D01*
X137947619Y-83152857D01*
X138852380Y-82200476D02*
X138852380Y-82771904D01*
X138852380Y-82486190D02*
X137852380Y-82486190D01*
X137995238Y-82581428D01*
X138090476Y-82676666D01*
X138138095Y-82771904D01*
X137947619Y-81819523D02*
X137900000Y-81771904D01*
X137852380Y-81676666D01*
X137852380Y-81438571D01*
X137900000Y-81343333D01*
X137947619Y-81295714D01*
X138042857Y-81248095D01*
X138138095Y-81248095D01*
X138280952Y-81295714D01*
X138852380Y-81867142D01*
X138852380Y-81248095D01*
X153437142Y-87467142D02*
X153389523Y-87514761D01*
X153246666Y-87562380D01*
X153151428Y-87562380D01*
X153008571Y-87514761D01*
X152913333Y-87419523D01*
X152865714Y-87324285D01*
X152818095Y-87133809D01*
X152818095Y-86990952D01*
X152865714Y-86800476D01*
X152913333Y-86705238D01*
X153008571Y-86610000D01*
X153151428Y-86562380D01*
X153246666Y-86562380D01*
X153389523Y-86610000D01*
X153437142Y-86657619D01*
X154389523Y-87562380D02*
X153818095Y-87562380D01*
X154103809Y-87562380D02*
X154103809Y-86562380D01*
X154008571Y-86705238D01*
X153913333Y-86800476D01*
X153818095Y-86848095D01*
X154722857Y-86562380D02*
X155341904Y-86562380D01*
X155008571Y-86943333D01*
X155151428Y-86943333D01*
X155246666Y-86990952D01*
X155294285Y-87038571D01*
X155341904Y-87133809D01*
X155341904Y-87371904D01*
X155294285Y-87467142D01*
X155246666Y-87514761D01*
X155151428Y-87562380D01*
X154865714Y-87562380D01*
X154770476Y-87514761D01*
X154722857Y-87467142D01*
X153427142Y-75507142D02*
X153379523Y-75554761D01*
X153236666Y-75602380D01*
X153141428Y-75602380D01*
X152998571Y-75554761D01*
X152903333Y-75459523D01*
X152855714Y-75364285D01*
X152808095Y-75173809D01*
X152808095Y-75030952D01*
X152855714Y-74840476D01*
X152903333Y-74745238D01*
X152998571Y-74650000D01*
X153141428Y-74602380D01*
X153236666Y-74602380D01*
X153379523Y-74650000D01*
X153427142Y-74697619D01*
X154379523Y-75602380D02*
X153808095Y-75602380D01*
X154093809Y-75602380D02*
X154093809Y-74602380D01*
X153998571Y-74745238D01*
X153903333Y-74840476D01*
X153808095Y-74888095D01*
X155236666Y-74935714D02*
X155236666Y-75602380D01*
X154998571Y-74554761D02*
X154760476Y-75269047D01*
X155379523Y-75269047D01*
X139647142Y-76087142D02*
X139599523Y-76134761D01*
X139456666Y-76182380D01*
X139361428Y-76182380D01*
X139218571Y-76134761D01*
X139123333Y-76039523D01*
X139075714Y-75944285D01*
X139028095Y-75753809D01*
X139028095Y-75610952D01*
X139075714Y-75420476D01*
X139123333Y-75325238D01*
X139218571Y-75230000D01*
X139361428Y-75182380D01*
X139456666Y-75182380D01*
X139599523Y-75230000D01*
X139647142Y-75277619D01*
X140599523Y-76182380D02*
X140028095Y-76182380D01*
X140313809Y-76182380D02*
X140313809Y-75182380D01*
X140218571Y-75325238D01*
X140123333Y-75420476D01*
X140028095Y-75468095D01*
X141504285Y-75182380D02*
X141028095Y-75182380D01*
X140980476Y-75658571D01*
X141028095Y-75610952D01*
X141123333Y-75563333D01*
X141361428Y-75563333D01*
X141456666Y-75610952D01*
X141504285Y-75658571D01*
X141551904Y-75753809D01*
X141551904Y-75991904D01*
X141504285Y-76087142D01*
X141456666Y-76134761D01*
X141361428Y-76182380D01*
X141123333Y-76182380D01*
X141028095Y-76134761D01*
X140980476Y-76087142D01*
X139837142Y-86787142D02*
X139789523Y-86834761D01*
X139646666Y-86882380D01*
X139551428Y-86882380D01*
X139408571Y-86834761D01*
X139313333Y-86739523D01*
X139265714Y-86644285D01*
X139218095Y-86453809D01*
X139218095Y-86310952D01*
X139265714Y-86120476D01*
X139313333Y-86025238D01*
X139408571Y-85930000D01*
X139551428Y-85882380D01*
X139646666Y-85882380D01*
X139789523Y-85930000D01*
X139837142Y-85977619D01*
X140789523Y-86882380D02*
X140218095Y-86882380D01*
X140503809Y-86882380D02*
X140503809Y-85882380D01*
X140408571Y-86025238D01*
X140313333Y-86120476D01*
X140218095Y-86168095D01*
X141646666Y-85882380D02*
X141456190Y-85882380D01*
X141360952Y-85930000D01*
X141313333Y-85977619D01*
X141218095Y-86120476D01*
X141170476Y-86310952D01*
X141170476Y-86691904D01*
X141218095Y-86787142D01*
X141265714Y-86834761D01*
X141360952Y-86882380D01*
X141551428Y-86882380D01*
X141646666Y-86834761D01*
X141694285Y-86787142D01*
X141741904Y-86691904D01*
X141741904Y-86453809D01*
X141694285Y-86358571D01*
X141646666Y-86310952D01*
X141551428Y-86263333D01*
X141360952Y-86263333D01*
X141265714Y-86310952D01*
X141218095Y-86358571D01*
X141170476Y-86453809D01*
X158947142Y-80232857D02*
X158994761Y-80280476D01*
X159042380Y-80423333D01*
X159042380Y-80518571D01*
X158994761Y-80661428D01*
X158899523Y-80756666D01*
X158804285Y-80804285D01*
X158613809Y-80851904D01*
X158470952Y-80851904D01*
X158280476Y-80804285D01*
X158185238Y-80756666D01*
X158090000Y-80661428D01*
X158042380Y-80518571D01*
X158042380Y-80423333D01*
X158090000Y-80280476D01*
X158137619Y-80232857D01*
X159042380Y-79280476D02*
X159042380Y-79851904D01*
X159042380Y-79566190D02*
X158042380Y-79566190D01*
X158185238Y-79661428D01*
X158280476Y-79756666D01*
X158328095Y-79851904D01*
X158042380Y-78947142D02*
X158042380Y-78280476D01*
X159042380Y-78709047D01*
X158937142Y-83142857D02*
X158984761Y-83190476D01*
X159032380Y-83333333D01*
X159032380Y-83428571D01*
X158984761Y-83571428D01*
X158889523Y-83666666D01*
X158794285Y-83714285D01*
X158603809Y-83761904D01*
X158460952Y-83761904D01*
X158270476Y-83714285D01*
X158175238Y-83666666D01*
X158080000Y-83571428D01*
X158032380Y-83428571D01*
X158032380Y-83333333D01*
X158080000Y-83190476D01*
X158127619Y-83142857D01*
X159032380Y-82190476D02*
X159032380Y-82761904D01*
X159032380Y-82476190D02*
X158032380Y-82476190D01*
X158175238Y-82571428D01*
X158270476Y-82666666D01*
X158318095Y-82761904D01*
X158460952Y-81619047D02*
X158413333Y-81714285D01*
X158365714Y-81761904D01*
X158270476Y-81809523D01*
X158222857Y-81809523D01*
X158127619Y-81761904D01*
X158080000Y-81714285D01*
X158032380Y-81619047D01*
X158032380Y-81428571D01*
X158080000Y-81333333D01*
X158127619Y-81285714D01*
X158222857Y-81238095D01*
X158270476Y-81238095D01*
X158365714Y-81285714D01*
X158413333Y-81333333D01*
X158460952Y-81428571D01*
X158460952Y-81619047D01*
X158508571Y-81714285D01*
X158556190Y-81761904D01*
X158651428Y-81809523D01*
X158841904Y-81809523D01*
X158937142Y-81761904D01*
X158984761Y-81714285D01*
X159032380Y-81619047D01*
X159032380Y-81428571D01*
X158984761Y-81333333D01*
X158937142Y-81285714D01*
X158841904Y-81238095D01*
X158651428Y-81238095D01*
X158556190Y-81285714D01*
X158508571Y-81333333D01*
X158460952Y-81428571D01*
X176807142Y-83912857D02*
X176854761Y-83960476D01*
X176902380Y-84103333D01*
X176902380Y-84198571D01*
X176854761Y-84341428D01*
X176759523Y-84436666D01*
X176664285Y-84484285D01*
X176473809Y-84531904D01*
X176330952Y-84531904D01*
X176140476Y-84484285D01*
X176045238Y-84436666D01*
X175950000Y-84341428D01*
X175902380Y-84198571D01*
X175902380Y-84103333D01*
X175950000Y-83960476D01*
X175997619Y-83912857D01*
X176902380Y-82960476D02*
X176902380Y-83531904D01*
X176902380Y-83246190D02*
X175902380Y-83246190D01*
X176045238Y-83341428D01*
X176140476Y-83436666D01*
X176188095Y-83531904D01*
X176902380Y-82484285D02*
X176902380Y-82293809D01*
X176854761Y-82198571D01*
X176807142Y-82150952D01*
X176664285Y-82055714D01*
X176473809Y-82008095D01*
X176092857Y-82008095D01*
X175997619Y-82055714D01*
X175950000Y-82103333D01*
X175902380Y-82198571D01*
X175902380Y-82389047D01*
X175950000Y-82484285D01*
X175997619Y-82531904D01*
X176092857Y-82579523D01*
X176330952Y-82579523D01*
X176426190Y-82531904D01*
X176473809Y-82484285D01*
X176521428Y-82389047D01*
X176521428Y-82198571D01*
X176473809Y-82103333D01*
X176426190Y-82055714D01*
X176330952Y-82008095D01*
X176757142Y-79372857D02*
X176804761Y-79420476D01*
X176852380Y-79563333D01*
X176852380Y-79658571D01*
X176804761Y-79801428D01*
X176709523Y-79896666D01*
X176614285Y-79944285D01*
X176423809Y-79991904D01*
X176280952Y-79991904D01*
X176090476Y-79944285D01*
X175995238Y-79896666D01*
X175900000Y-79801428D01*
X175852380Y-79658571D01*
X175852380Y-79563333D01*
X175900000Y-79420476D01*
X175947619Y-79372857D01*
X175947619Y-78991904D02*
X175900000Y-78944285D01*
X175852380Y-78849047D01*
X175852380Y-78610952D01*
X175900000Y-78515714D01*
X175947619Y-78468095D01*
X176042857Y-78420476D01*
X176138095Y-78420476D01*
X176280952Y-78468095D01*
X176852380Y-79039523D01*
X176852380Y-78420476D01*
X175852380Y-77801428D02*
X175852380Y-77706190D01*
X175900000Y-77610952D01*
X175947619Y-77563333D01*
X176042857Y-77515714D01*
X176233333Y-77468095D01*
X176471428Y-77468095D01*
X176661904Y-77515714D01*
X176757142Y-77563333D01*
X176804761Y-77610952D01*
X176852380Y-77706190D01*
X176852380Y-77801428D01*
X176804761Y-77896666D01*
X176757142Y-77944285D01*
X176661904Y-77991904D01*
X176471428Y-78039523D01*
X176233333Y-78039523D01*
X176042857Y-77991904D01*
X175947619Y-77944285D01*
X175900000Y-77896666D01*
X175852380Y-77801428D01*
X160217142Y-76147142D02*
X160169523Y-76194761D01*
X160026666Y-76242380D01*
X159931428Y-76242380D01*
X159788571Y-76194761D01*
X159693333Y-76099523D01*
X159645714Y-76004285D01*
X159598095Y-75813809D01*
X159598095Y-75670952D01*
X159645714Y-75480476D01*
X159693333Y-75385238D01*
X159788571Y-75290000D01*
X159931428Y-75242380D01*
X160026666Y-75242380D01*
X160169523Y-75290000D01*
X160217142Y-75337619D01*
X160598095Y-75337619D02*
X160645714Y-75290000D01*
X160740952Y-75242380D01*
X160979047Y-75242380D01*
X161074285Y-75290000D01*
X161121904Y-75337619D01*
X161169523Y-75432857D01*
X161169523Y-75528095D01*
X161121904Y-75670952D01*
X160550476Y-76242380D01*
X161169523Y-76242380D01*
X162121904Y-76242380D02*
X161550476Y-76242380D01*
X161836190Y-76242380D02*
X161836190Y-75242380D01*
X161740952Y-75385238D01*
X161645714Y-75480476D01*
X161550476Y-75528095D01*
X160057142Y-86657142D02*
X160009523Y-86704761D01*
X159866666Y-86752380D01*
X159771428Y-86752380D01*
X159628571Y-86704761D01*
X159533333Y-86609523D01*
X159485714Y-86514285D01*
X159438095Y-86323809D01*
X159438095Y-86180952D01*
X159485714Y-85990476D01*
X159533333Y-85895238D01*
X159628571Y-85800000D01*
X159771428Y-85752380D01*
X159866666Y-85752380D01*
X160009523Y-85800000D01*
X160057142Y-85847619D01*
X160438095Y-85847619D02*
X160485714Y-85800000D01*
X160580952Y-85752380D01*
X160819047Y-85752380D01*
X160914285Y-85800000D01*
X160961904Y-85847619D01*
X161009523Y-85942857D01*
X161009523Y-86038095D01*
X160961904Y-86180952D01*
X160390476Y-86752380D01*
X161009523Y-86752380D01*
X161390476Y-85847619D02*
X161438095Y-85800000D01*
X161533333Y-85752380D01*
X161771428Y-85752380D01*
X161866666Y-85800000D01*
X161914285Y-85847619D01*
X161961904Y-85942857D01*
X161961904Y-86038095D01*
X161914285Y-86180952D01*
X161342857Y-86752380D01*
X161961904Y-86752380D01*
X173447142Y-87337142D02*
X173399523Y-87384761D01*
X173256666Y-87432380D01*
X173161428Y-87432380D01*
X173018571Y-87384761D01*
X172923333Y-87289523D01*
X172875714Y-87194285D01*
X172828095Y-87003809D01*
X172828095Y-86860952D01*
X172875714Y-86670476D01*
X172923333Y-86575238D01*
X173018571Y-86480000D01*
X173161428Y-86432380D01*
X173256666Y-86432380D01*
X173399523Y-86480000D01*
X173447142Y-86527619D01*
X173828095Y-86527619D02*
X173875714Y-86480000D01*
X173970952Y-86432380D01*
X174209047Y-86432380D01*
X174304285Y-86480000D01*
X174351904Y-86527619D01*
X174399523Y-86622857D01*
X174399523Y-86718095D01*
X174351904Y-86860952D01*
X173780476Y-87432380D01*
X174399523Y-87432380D01*
X174732857Y-86432380D02*
X175351904Y-86432380D01*
X175018571Y-86813333D01*
X175161428Y-86813333D01*
X175256666Y-86860952D01*
X175304285Y-86908571D01*
X175351904Y-87003809D01*
X175351904Y-87241904D01*
X175304285Y-87337142D01*
X175256666Y-87384761D01*
X175161428Y-87432380D01*
X174875714Y-87432380D01*
X174780476Y-87384761D01*
X174732857Y-87337142D01*
X173457142Y-75487142D02*
X173409523Y-75534761D01*
X173266666Y-75582380D01*
X173171428Y-75582380D01*
X173028571Y-75534761D01*
X172933333Y-75439523D01*
X172885714Y-75344285D01*
X172838095Y-75153809D01*
X172838095Y-75010952D01*
X172885714Y-74820476D01*
X172933333Y-74725238D01*
X173028571Y-74630000D01*
X173171428Y-74582380D01*
X173266666Y-74582380D01*
X173409523Y-74630000D01*
X173457142Y-74677619D01*
X173838095Y-74677619D02*
X173885714Y-74630000D01*
X173980952Y-74582380D01*
X174219047Y-74582380D01*
X174314285Y-74630000D01*
X174361904Y-74677619D01*
X174409523Y-74772857D01*
X174409523Y-74868095D01*
X174361904Y-75010952D01*
X173790476Y-75582380D01*
X174409523Y-75582380D01*
X175266666Y-74915714D02*
X175266666Y-75582380D01*
X175028571Y-74534761D02*
X174790476Y-75249047D01*
X175409523Y-75249047D01*
X135377142Y-81367142D02*
X135329523Y-81414761D01*
X135186666Y-81462380D01*
X135091428Y-81462380D01*
X134948571Y-81414761D01*
X134853333Y-81319523D01*
X134805714Y-81224285D01*
X134758095Y-81033809D01*
X134758095Y-80890952D01*
X134805714Y-80700476D01*
X134853333Y-80605238D01*
X134948571Y-80510000D01*
X135091428Y-80462380D01*
X135186666Y-80462380D01*
X135329523Y-80510000D01*
X135377142Y-80557619D01*
X135758095Y-80557619D02*
X135805714Y-80510000D01*
X135900952Y-80462380D01*
X136139047Y-80462380D01*
X136234285Y-80510000D01*
X136281904Y-80557619D01*
X136329523Y-80652857D01*
X136329523Y-80748095D01*
X136281904Y-80890952D01*
X135710476Y-81462380D01*
X136329523Y-81462380D01*
X137234285Y-80462380D02*
X136758095Y-80462380D01*
X136710476Y-80938571D01*
X136758095Y-80890952D01*
X136853333Y-80843333D01*
X137091428Y-80843333D01*
X137186666Y-80890952D01*
X137234285Y-80938571D01*
X137281904Y-81033809D01*
X137281904Y-81271904D01*
X137234285Y-81367142D01*
X137186666Y-81414761D01*
X137091428Y-81462380D01*
X136853333Y-81462380D01*
X136758095Y-81414761D01*
X136710476Y-81367142D01*
X155447142Y-81387142D02*
X155399523Y-81434761D01*
X155256666Y-81482380D01*
X155161428Y-81482380D01*
X155018571Y-81434761D01*
X154923333Y-81339523D01*
X154875714Y-81244285D01*
X154828095Y-81053809D01*
X154828095Y-80910952D01*
X154875714Y-80720476D01*
X154923333Y-80625238D01*
X155018571Y-80530000D01*
X155161428Y-80482380D01*
X155256666Y-80482380D01*
X155399523Y-80530000D01*
X155447142Y-80577619D01*
X155828095Y-80577619D02*
X155875714Y-80530000D01*
X155970952Y-80482380D01*
X156209047Y-80482380D01*
X156304285Y-80530000D01*
X156351904Y-80577619D01*
X156399523Y-80672857D01*
X156399523Y-80768095D01*
X156351904Y-80910952D01*
X155780476Y-81482380D01*
X156399523Y-81482380D01*
X157256666Y-80482380D02*
X157066190Y-80482380D01*
X156970952Y-80530000D01*
X156923333Y-80577619D01*
X156828095Y-80720476D01*
X156780476Y-80910952D01*
X156780476Y-81291904D01*
X156828095Y-81387142D01*
X156875714Y-81434761D01*
X156970952Y-81482380D01*
X157161428Y-81482380D01*
X157256666Y-81434761D01*
X157304285Y-81387142D01*
X157351904Y-81291904D01*
X157351904Y-81053809D01*
X157304285Y-80958571D01*
X157256666Y-80910952D01*
X157161428Y-80863333D01*
X156970952Y-80863333D01*
X156875714Y-80910952D01*
X156828095Y-80958571D01*
X156780476Y-81053809D01*
X175617142Y-81377142D02*
X175569523Y-81424761D01*
X175426666Y-81472380D01*
X175331428Y-81472380D01*
X175188571Y-81424761D01*
X175093333Y-81329523D01*
X175045714Y-81234285D01*
X174998095Y-81043809D01*
X174998095Y-80900952D01*
X175045714Y-80710476D01*
X175093333Y-80615238D01*
X175188571Y-80520000D01*
X175331428Y-80472380D01*
X175426666Y-80472380D01*
X175569523Y-80520000D01*
X175617142Y-80567619D01*
X175998095Y-80567619D02*
X176045714Y-80520000D01*
X176140952Y-80472380D01*
X176379047Y-80472380D01*
X176474285Y-80520000D01*
X176521904Y-80567619D01*
X176569523Y-80662857D01*
X176569523Y-80758095D01*
X176521904Y-80900952D01*
X175950476Y-81472380D01*
X176569523Y-81472380D01*
X177140952Y-80900952D02*
X177045714Y-80853333D01*
X176998095Y-80805714D01*
X176950476Y-80710476D01*
X176950476Y-80662857D01*
X176998095Y-80567619D01*
X177045714Y-80520000D01*
X177140952Y-80472380D01*
X177331428Y-80472380D01*
X177426666Y-80520000D01*
X177474285Y-80567619D01*
X177521904Y-80662857D01*
X177521904Y-80710476D01*
X177474285Y-80805714D01*
X177426666Y-80853333D01*
X177331428Y-80900952D01*
X177140952Y-80900952D01*
X177045714Y-80948571D01*
X176998095Y-80996190D01*
X176950476Y-81091428D01*
X176950476Y-81281904D01*
X176998095Y-81377142D01*
X177045714Y-81424761D01*
X177140952Y-81472380D01*
X177331428Y-81472380D01*
X177426666Y-81424761D01*
X177474285Y-81377142D01*
X177521904Y-81281904D01*
X177521904Y-81091428D01*
X177474285Y-80996190D01*
X177426666Y-80948571D01*
X177331428Y-80900952D01*
X111307142Y-90387142D02*
X111259523Y-90434761D01*
X111116666Y-90482380D01*
X111021428Y-90482380D01*
X110878571Y-90434761D01*
X110783333Y-90339523D01*
X110735714Y-90244285D01*
X110688095Y-90053809D01*
X110688095Y-89910952D01*
X110735714Y-89720476D01*
X110783333Y-89625238D01*
X110878571Y-89530000D01*
X111021428Y-89482380D01*
X111116666Y-89482380D01*
X111259523Y-89530000D01*
X111307142Y-89577619D01*
X111688095Y-89577619D02*
X111735714Y-89530000D01*
X111830952Y-89482380D01*
X112069047Y-89482380D01*
X112164285Y-89530000D01*
X112211904Y-89577619D01*
X112259523Y-89672857D01*
X112259523Y-89768095D01*
X112211904Y-89910952D01*
X111640476Y-90482380D01*
X112259523Y-90482380D01*
X112735714Y-90482380D02*
X112926190Y-90482380D01*
X113021428Y-90434761D01*
X113069047Y-90387142D01*
X113164285Y-90244285D01*
X113211904Y-90053809D01*
X113211904Y-89672857D01*
X113164285Y-89577619D01*
X113116666Y-89530000D01*
X113021428Y-89482380D01*
X112830952Y-89482380D01*
X112735714Y-89530000D01*
X112688095Y-89577619D01*
X112640476Y-89672857D01*
X112640476Y-89910952D01*
X112688095Y-90006190D01*
X112735714Y-90053809D01*
X112830952Y-90101428D01*
X113021428Y-90101428D01*
X113116666Y-90053809D01*
X113164285Y-90006190D01*
X113211904Y-89910952D01*
X107477142Y-72447142D02*
X107429523Y-72494761D01*
X107286666Y-72542380D01*
X107191428Y-72542380D01*
X107048571Y-72494761D01*
X106953333Y-72399523D01*
X106905714Y-72304285D01*
X106858095Y-72113809D01*
X106858095Y-71970952D01*
X106905714Y-71780476D01*
X106953333Y-71685238D01*
X107048571Y-71590000D01*
X107191428Y-71542380D01*
X107286666Y-71542380D01*
X107429523Y-71590000D01*
X107477142Y-71637619D01*
X107810476Y-71542380D02*
X108429523Y-71542380D01*
X108096190Y-71923333D01*
X108239047Y-71923333D01*
X108334285Y-71970952D01*
X108381904Y-72018571D01*
X108429523Y-72113809D01*
X108429523Y-72351904D01*
X108381904Y-72447142D01*
X108334285Y-72494761D01*
X108239047Y-72542380D01*
X107953333Y-72542380D01*
X107858095Y-72494761D01*
X107810476Y-72447142D01*
X109048571Y-71542380D02*
X109143809Y-71542380D01*
X109239047Y-71590000D01*
X109286666Y-71637619D01*
X109334285Y-71732857D01*
X109381904Y-71923333D01*
X109381904Y-72161428D01*
X109334285Y-72351904D01*
X109286666Y-72447142D01*
X109239047Y-72494761D01*
X109143809Y-72542380D01*
X109048571Y-72542380D01*
X108953333Y-72494761D01*
X108905714Y-72447142D01*
X108858095Y-72351904D01*
X108810476Y-72161428D01*
X108810476Y-71923333D01*
X108858095Y-71732857D01*
X108905714Y-71637619D01*
X108953333Y-71590000D01*
X109048571Y-71542380D01*
X106757142Y-90307142D02*
X106709523Y-90354761D01*
X106566666Y-90402380D01*
X106471428Y-90402380D01*
X106328571Y-90354761D01*
X106233333Y-90259523D01*
X106185714Y-90164285D01*
X106138095Y-89973809D01*
X106138095Y-89830952D01*
X106185714Y-89640476D01*
X106233333Y-89545238D01*
X106328571Y-89450000D01*
X106471428Y-89402380D01*
X106566666Y-89402380D01*
X106709523Y-89450000D01*
X106757142Y-89497619D01*
X107090476Y-89402380D02*
X107709523Y-89402380D01*
X107376190Y-89783333D01*
X107519047Y-89783333D01*
X107614285Y-89830952D01*
X107661904Y-89878571D01*
X107709523Y-89973809D01*
X107709523Y-90211904D01*
X107661904Y-90307142D01*
X107614285Y-90354761D01*
X107519047Y-90402380D01*
X107233333Y-90402380D01*
X107138095Y-90354761D01*
X107090476Y-90307142D01*
X108661904Y-90402380D02*
X108090476Y-90402380D01*
X108376190Y-90402380D02*
X108376190Y-89402380D01*
X108280952Y-89545238D01*
X108185714Y-89640476D01*
X108090476Y-89688095D01*
X110077142Y-89872857D02*
X110124761Y-89920476D01*
X110172380Y-90063333D01*
X110172380Y-90158571D01*
X110124761Y-90301428D01*
X110029523Y-90396666D01*
X109934285Y-90444285D01*
X109743809Y-90491904D01*
X109600952Y-90491904D01*
X109410476Y-90444285D01*
X109315238Y-90396666D01*
X109220000Y-90301428D01*
X109172380Y-90158571D01*
X109172380Y-90063333D01*
X109220000Y-89920476D01*
X109267619Y-89872857D01*
X109172380Y-89539523D02*
X109172380Y-88920476D01*
X109553333Y-89253809D01*
X109553333Y-89110952D01*
X109600952Y-89015714D01*
X109648571Y-88968095D01*
X109743809Y-88920476D01*
X109981904Y-88920476D01*
X110077142Y-88968095D01*
X110124761Y-89015714D01*
X110172380Y-89110952D01*
X110172380Y-89396666D01*
X110124761Y-89491904D01*
X110077142Y-89539523D01*
X109267619Y-88539523D02*
X109220000Y-88491904D01*
X109172380Y-88396666D01*
X109172380Y-88158571D01*
X109220000Y-88063333D01*
X109267619Y-88015714D01*
X109362857Y-87968095D01*
X109458095Y-87968095D01*
X109600952Y-88015714D01*
X110172380Y-88587142D01*
X110172380Y-87968095D01*
X150557142Y-107222857D02*
X150604761Y-107270476D01*
X150652380Y-107413333D01*
X150652380Y-107508571D01*
X150604761Y-107651428D01*
X150509523Y-107746666D01*
X150414285Y-107794285D01*
X150223809Y-107841904D01*
X150080952Y-107841904D01*
X149890476Y-107794285D01*
X149795238Y-107746666D01*
X149700000Y-107651428D01*
X149652380Y-107508571D01*
X149652380Y-107413333D01*
X149700000Y-107270476D01*
X149747619Y-107222857D01*
X149652380Y-106889523D02*
X149652380Y-106270476D01*
X150033333Y-106603809D01*
X150033333Y-106460952D01*
X150080952Y-106365714D01*
X150128571Y-106318095D01*
X150223809Y-106270476D01*
X150461904Y-106270476D01*
X150557142Y-106318095D01*
X150604761Y-106365714D01*
X150652380Y-106460952D01*
X150652380Y-106746666D01*
X150604761Y-106841904D01*
X150557142Y-106889523D01*
X149652380Y-105937142D02*
X149652380Y-105318095D01*
X150033333Y-105651428D01*
X150033333Y-105508571D01*
X150080952Y-105413333D01*
X150128571Y-105365714D01*
X150223809Y-105318095D01*
X150461904Y-105318095D01*
X150557142Y-105365714D01*
X150604761Y-105413333D01*
X150652380Y-105508571D01*
X150652380Y-105794285D01*
X150604761Y-105889523D01*
X150557142Y-105937142D01*
X115817142Y-87347142D02*
X115769523Y-87394761D01*
X115626666Y-87442380D01*
X115531428Y-87442380D01*
X115388571Y-87394761D01*
X115293333Y-87299523D01*
X115245714Y-87204285D01*
X115198095Y-87013809D01*
X115198095Y-86870952D01*
X115245714Y-86680476D01*
X115293333Y-86585238D01*
X115388571Y-86490000D01*
X115531428Y-86442380D01*
X115626666Y-86442380D01*
X115769523Y-86490000D01*
X115817142Y-86537619D01*
X116150476Y-86442380D02*
X116769523Y-86442380D01*
X116436190Y-86823333D01*
X116579047Y-86823333D01*
X116674285Y-86870952D01*
X116721904Y-86918571D01*
X116769523Y-87013809D01*
X116769523Y-87251904D01*
X116721904Y-87347142D01*
X116674285Y-87394761D01*
X116579047Y-87442380D01*
X116293333Y-87442380D01*
X116198095Y-87394761D01*
X116150476Y-87347142D01*
X117626666Y-86775714D02*
X117626666Y-87442380D01*
X117388571Y-86394761D02*
X117150476Y-87109047D01*
X117769523Y-87109047D01*
X103047142Y-75467142D02*
X102999523Y-75514761D01*
X102856666Y-75562380D01*
X102761428Y-75562380D01*
X102618571Y-75514761D01*
X102523333Y-75419523D01*
X102475714Y-75324285D01*
X102428095Y-75133809D01*
X102428095Y-74990952D01*
X102475714Y-74800476D01*
X102523333Y-74705238D01*
X102618571Y-74610000D01*
X102761428Y-74562380D01*
X102856666Y-74562380D01*
X102999523Y-74610000D01*
X103047142Y-74657619D01*
X103380476Y-74562380D02*
X103999523Y-74562380D01*
X103666190Y-74943333D01*
X103809047Y-74943333D01*
X103904285Y-74990952D01*
X103951904Y-75038571D01*
X103999523Y-75133809D01*
X103999523Y-75371904D01*
X103951904Y-75467142D01*
X103904285Y-75514761D01*
X103809047Y-75562380D01*
X103523333Y-75562380D01*
X103428095Y-75514761D01*
X103380476Y-75467142D01*
X104904285Y-74562380D02*
X104428095Y-74562380D01*
X104380476Y-75038571D01*
X104428095Y-74990952D01*
X104523333Y-74943333D01*
X104761428Y-74943333D01*
X104856666Y-74990952D01*
X104904285Y-75038571D01*
X104951904Y-75133809D01*
X104951904Y-75371904D01*
X104904285Y-75467142D01*
X104856666Y-75514761D01*
X104761428Y-75562380D01*
X104523333Y-75562380D01*
X104428095Y-75514761D01*
X104380476Y-75467142D01*
X102277142Y-87427142D02*
X102229523Y-87474761D01*
X102086666Y-87522380D01*
X101991428Y-87522380D01*
X101848571Y-87474761D01*
X101753333Y-87379523D01*
X101705714Y-87284285D01*
X101658095Y-87093809D01*
X101658095Y-86950952D01*
X101705714Y-86760476D01*
X101753333Y-86665238D01*
X101848571Y-86570000D01*
X101991428Y-86522380D01*
X102086666Y-86522380D01*
X102229523Y-86570000D01*
X102277142Y-86617619D01*
X102610476Y-86522380D02*
X103229523Y-86522380D01*
X102896190Y-86903333D01*
X103039047Y-86903333D01*
X103134285Y-86950952D01*
X103181904Y-86998571D01*
X103229523Y-87093809D01*
X103229523Y-87331904D01*
X103181904Y-87427142D01*
X103134285Y-87474761D01*
X103039047Y-87522380D01*
X102753333Y-87522380D01*
X102658095Y-87474761D01*
X102610476Y-87427142D01*
X104086666Y-86522380D02*
X103896190Y-86522380D01*
X103800952Y-86570000D01*
X103753333Y-86617619D01*
X103658095Y-86760476D01*
X103610476Y-86950952D01*
X103610476Y-87331904D01*
X103658095Y-87427142D01*
X103705714Y-87474761D01*
X103800952Y-87522380D01*
X103991428Y-87522380D01*
X104086666Y-87474761D01*
X104134285Y-87427142D01*
X104181904Y-87331904D01*
X104181904Y-87093809D01*
X104134285Y-86998571D01*
X104086666Y-86950952D01*
X103991428Y-86903333D01*
X103800952Y-86903333D01*
X103705714Y-86950952D01*
X103658095Y-86998571D01*
X103610476Y-87093809D01*
X150437142Y-97292857D02*
X150484761Y-97340476D01*
X150532380Y-97483333D01*
X150532380Y-97578571D01*
X150484761Y-97721428D01*
X150389523Y-97816666D01*
X150294285Y-97864285D01*
X150103809Y-97911904D01*
X149960952Y-97911904D01*
X149770476Y-97864285D01*
X149675238Y-97816666D01*
X149580000Y-97721428D01*
X149532380Y-97578571D01*
X149532380Y-97483333D01*
X149580000Y-97340476D01*
X149627619Y-97292857D01*
X149532380Y-96959523D02*
X149532380Y-96340476D01*
X149913333Y-96673809D01*
X149913333Y-96530952D01*
X149960952Y-96435714D01*
X150008571Y-96388095D01*
X150103809Y-96340476D01*
X150341904Y-96340476D01*
X150437142Y-96388095D01*
X150484761Y-96435714D01*
X150532380Y-96530952D01*
X150532380Y-96816666D01*
X150484761Y-96911904D01*
X150437142Y-96959523D01*
X149532380Y-96007142D02*
X149532380Y-95340476D01*
X150532380Y-95769047D01*
X171037142Y-93172857D02*
X171084761Y-93220476D01*
X171132380Y-93363333D01*
X171132380Y-93458571D01*
X171084761Y-93601428D01*
X170989523Y-93696666D01*
X170894285Y-93744285D01*
X170703809Y-93791904D01*
X170560952Y-93791904D01*
X170370476Y-93744285D01*
X170275238Y-93696666D01*
X170180000Y-93601428D01*
X170132380Y-93458571D01*
X170132380Y-93363333D01*
X170180000Y-93220476D01*
X170227619Y-93172857D01*
X170465714Y-92315714D02*
X171132380Y-92315714D01*
X170084761Y-92553809D02*
X170799047Y-92791904D01*
X170799047Y-92172857D01*
X170132380Y-91601428D02*
X170132380Y-91506190D01*
X170180000Y-91410952D01*
X170227619Y-91363333D01*
X170322857Y-91315714D01*
X170513333Y-91268095D01*
X170751428Y-91268095D01*
X170941904Y-91315714D01*
X171037142Y-91363333D01*
X171084761Y-91410952D01*
X171132380Y-91506190D01*
X171132380Y-91601428D01*
X171084761Y-91696666D01*
X171037142Y-91744285D01*
X170941904Y-91791904D01*
X170751428Y-91839523D01*
X170513333Y-91839523D01*
X170322857Y-91791904D01*
X170227619Y-91744285D01*
X170180000Y-91696666D01*
X170132380Y-91601428D01*
X119023333Y-77782380D02*
X118690000Y-77306190D01*
X118451904Y-77782380D02*
X118451904Y-76782380D01*
X118832857Y-76782380D01*
X118928095Y-76830000D01*
X118975714Y-76877619D01*
X119023333Y-76972857D01*
X119023333Y-77115714D01*
X118975714Y-77210952D01*
X118928095Y-77258571D01*
X118832857Y-77306190D01*
X118451904Y-77306190D01*
X119928095Y-76782380D02*
X119451904Y-76782380D01*
X119404285Y-77258571D01*
X119451904Y-77210952D01*
X119547142Y-77163333D01*
X119785238Y-77163333D01*
X119880476Y-77210952D01*
X119928095Y-77258571D01*
X119975714Y-77353809D01*
X119975714Y-77591904D01*
X119928095Y-77687142D01*
X119880476Y-77734761D01*
X119785238Y-77782380D01*
X119547142Y-77782380D01*
X119451904Y-77734761D01*
X119404285Y-77687142D01*
X119133333Y-85262380D02*
X118800000Y-84786190D01*
X118561904Y-85262380D02*
X118561904Y-84262380D01*
X118942857Y-84262380D01*
X119038095Y-84310000D01*
X119085714Y-84357619D01*
X119133333Y-84452857D01*
X119133333Y-84595714D01*
X119085714Y-84690952D01*
X119038095Y-84738571D01*
X118942857Y-84786190D01*
X118561904Y-84786190D01*
X119990476Y-84262380D02*
X119800000Y-84262380D01*
X119704761Y-84310000D01*
X119657142Y-84357619D01*
X119561904Y-84500476D01*
X119514285Y-84690952D01*
X119514285Y-85071904D01*
X119561904Y-85167142D01*
X119609523Y-85214761D01*
X119704761Y-85262380D01*
X119895238Y-85262380D01*
X119990476Y-85214761D01*
X120038095Y-85167142D01*
X120085714Y-85071904D01*
X120085714Y-84833809D01*
X120038095Y-84738571D01*
X119990476Y-84690952D01*
X119895238Y-84643333D01*
X119704761Y-84643333D01*
X119609523Y-84690952D01*
X119561904Y-84738571D01*
X119514285Y-84833809D01*
X134763333Y-85962380D02*
X134430000Y-85486190D01*
X134191904Y-85962380D02*
X134191904Y-84962380D01*
X134572857Y-84962380D01*
X134668095Y-85010000D01*
X134715714Y-85057619D01*
X134763333Y-85152857D01*
X134763333Y-85295714D01*
X134715714Y-85390952D01*
X134668095Y-85438571D01*
X134572857Y-85486190D01*
X134191904Y-85486190D01*
X135096666Y-84962380D02*
X135763333Y-84962380D01*
X135334761Y-85962380D01*
X134823333Y-77082380D02*
X134490000Y-76606190D01*
X134251904Y-77082380D02*
X134251904Y-76082380D01*
X134632857Y-76082380D01*
X134728095Y-76130000D01*
X134775714Y-76177619D01*
X134823333Y-76272857D01*
X134823333Y-76415714D01*
X134775714Y-76510952D01*
X134728095Y-76558571D01*
X134632857Y-76606190D01*
X134251904Y-76606190D01*
X135394761Y-76510952D02*
X135299523Y-76463333D01*
X135251904Y-76415714D01*
X135204285Y-76320476D01*
X135204285Y-76272857D01*
X135251904Y-76177619D01*
X135299523Y-76130000D01*
X135394761Y-76082380D01*
X135585238Y-76082380D01*
X135680476Y-76130000D01*
X135728095Y-76177619D01*
X135775714Y-76272857D01*
X135775714Y-76320476D01*
X135728095Y-76415714D01*
X135680476Y-76463333D01*
X135585238Y-76510952D01*
X135394761Y-76510952D01*
X135299523Y-76558571D01*
X135251904Y-76606190D01*
X135204285Y-76701428D01*
X135204285Y-76891904D01*
X135251904Y-76987142D01*
X135299523Y-77034761D01*
X135394761Y-77082380D01*
X135585238Y-77082380D01*
X135680476Y-77034761D01*
X135728095Y-76987142D01*
X135775714Y-76891904D01*
X135775714Y-76701428D01*
X135728095Y-76606190D01*
X135680476Y-76558571D01*
X135585238Y-76510952D01*
X122823333Y-76242380D02*
X122490000Y-75766190D01*
X122251904Y-76242380D02*
X122251904Y-75242380D01*
X122632857Y-75242380D01*
X122728095Y-75290000D01*
X122775714Y-75337619D01*
X122823333Y-75432857D01*
X122823333Y-75575714D01*
X122775714Y-75670952D01*
X122728095Y-75718571D01*
X122632857Y-75766190D01*
X122251904Y-75766190D01*
X123299523Y-76242380D02*
X123490000Y-76242380D01*
X123585238Y-76194761D01*
X123632857Y-76147142D01*
X123728095Y-76004285D01*
X123775714Y-75813809D01*
X123775714Y-75432857D01*
X123728095Y-75337619D01*
X123680476Y-75290000D01*
X123585238Y-75242380D01*
X123394761Y-75242380D01*
X123299523Y-75290000D01*
X123251904Y-75337619D01*
X123204285Y-75432857D01*
X123204285Y-75670952D01*
X123251904Y-75766190D01*
X123299523Y-75813809D01*
X123394761Y-75861428D01*
X123585238Y-75861428D01*
X123680476Y-75813809D01*
X123728095Y-75766190D01*
X123775714Y-75670952D01*
X123092380Y-87582857D02*
X122616190Y-87916190D01*
X123092380Y-88154285D02*
X122092380Y-88154285D01*
X122092380Y-87773333D01*
X122140000Y-87678095D01*
X122187619Y-87630476D01*
X122282857Y-87582857D01*
X122425714Y-87582857D01*
X122520952Y-87630476D01*
X122568571Y-87678095D01*
X122616190Y-87773333D01*
X122616190Y-88154285D01*
X123092380Y-86630476D02*
X123092380Y-87201904D01*
X123092380Y-86916190D02*
X122092380Y-86916190D01*
X122235238Y-87011428D01*
X122330476Y-87106666D01*
X122378095Y-87201904D01*
X122092380Y-86011428D02*
X122092380Y-85916190D01*
X122140000Y-85820952D01*
X122187619Y-85773333D01*
X122282857Y-85725714D01*
X122473333Y-85678095D01*
X122711428Y-85678095D01*
X122901904Y-85725714D01*
X122997142Y-85773333D01*
X123044761Y-85820952D01*
X123092380Y-85916190D01*
X123092380Y-86011428D01*
X123044761Y-86106666D01*
X122997142Y-86154285D01*
X122901904Y-86201904D01*
X122711428Y-86249523D01*
X122473333Y-86249523D01*
X122282857Y-86201904D01*
X122187619Y-86154285D01*
X122140000Y-86106666D01*
X122092380Y-86011428D01*
X130387142Y-87502380D02*
X130053809Y-87026190D01*
X129815714Y-87502380D02*
X129815714Y-86502380D01*
X130196666Y-86502380D01*
X130291904Y-86550000D01*
X130339523Y-86597619D01*
X130387142Y-86692857D01*
X130387142Y-86835714D01*
X130339523Y-86930952D01*
X130291904Y-86978571D01*
X130196666Y-87026190D01*
X129815714Y-87026190D01*
X131339523Y-87502380D02*
X130768095Y-87502380D01*
X131053809Y-87502380D02*
X131053809Y-86502380D01*
X130958571Y-86645238D01*
X130863333Y-86740476D01*
X130768095Y-86788095D01*
X132291904Y-87502380D02*
X131720476Y-87502380D01*
X132006190Y-87502380D02*
X132006190Y-86502380D01*
X131910952Y-86645238D01*
X131815714Y-86740476D01*
X131720476Y-86788095D01*
X130087142Y-75522380D02*
X129753809Y-75046190D01*
X129515714Y-75522380D02*
X129515714Y-74522380D01*
X129896666Y-74522380D01*
X129991904Y-74570000D01*
X130039523Y-74617619D01*
X130087142Y-74712857D01*
X130087142Y-74855714D01*
X130039523Y-74950952D01*
X129991904Y-74998571D01*
X129896666Y-75046190D01*
X129515714Y-75046190D01*
X131039523Y-75522380D02*
X130468095Y-75522380D01*
X130753809Y-75522380D02*
X130753809Y-74522380D01*
X130658571Y-74665238D01*
X130563333Y-74760476D01*
X130468095Y-74808095D01*
X131420476Y-74617619D02*
X131468095Y-74570000D01*
X131563333Y-74522380D01*
X131801428Y-74522380D01*
X131896666Y-74570000D01*
X131944285Y-74617619D01*
X131991904Y-74712857D01*
X131991904Y-74808095D01*
X131944285Y-74950952D01*
X131372857Y-75522380D01*
X131991904Y-75522380D01*
X154837142Y-85982380D02*
X154503809Y-85506190D01*
X154265714Y-85982380D02*
X154265714Y-84982380D01*
X154646666Y-84982380D01*
X154741904Y-85030000D01*
X154789523Y-85077619D01*
X154837142Y-85172857D01*
X154837142Y-85315714D01*
X154789523Y-85410952D01*
X154741904Y-85458571D01*
X154646666Y-85506190D01*
X154265714Y-85506190D01*
X155789523Y-85982380D02*
X155218095Y-85982380D01*
X155503809Y-85982380D02*
X155503809Y-84982380D01*
X155408571Y-85125238D01*
X155313333Y-85220476D01*
X155218095Y-85268095D01*
X156122857Y-84982380D02*
X156789523Y-84982380D01*
X156360952Y-85982380D01*
X154947142Y-76992380D02*
X154613809Y-76516190D01*
X154375714Y-76992380D02*
X154375714Y-75992380D01*
X154756666Y-75992380D01*
X154851904Y-76040000D01*
X154899523Y-76087619D01*
X154947142Y-76182857D01*
X154947142Y-76325714D01*
X154899523Y-76420952D01*
X154851904Y-76468571D01*
X154756666Y-76516190D01*
X154375714Y-76516190D01*
X155899523Y-76992380D02*
X155328095Y-76992380D01*
X155613809Y-76992380D02*
X155613809Y-75992380D01*
X155518571Y-76135238D01*
X155423333Y-76230476D01*
X155328095Y-76278095D01*
X156470952Y-76420952D02*
X156375714Y-76373333D01*
X156328095Y-76325714D01*
X156280476Y-76230476D01*
X156280476Y-76182857D01*
X156328095Y-76087619D01*
X156375714Y-76040000D01*
X156470952Y-75992380D01*
X156661428Y-75992380D01*
X156756666Y-76040000D01*
X156804285Y-76087619D01*
X156851904Y-76182857D01*
X156851904Y-76230476D01*
X156804285Y-76325714D01*
X156756666Y-76373333D01*
X156661428Y-76420952D01*
X156470952Y-76420952D01*
X156375714Y-76468571D01*
X156328095Y-76516190D01*
X156280476Y-76611428D01*
X156280476Y-76801904D01*
X156328095Y-76897142D01*
X156375714Y-76944761D01*
X156470952Y-76992380D01*
X156661428Y-76992380D01*
X156756666Y-76944761D01*
X156804285Y-76897142D01*
X156851904Y-76801904D01*
X156851904Y-76611428D01*
X156804285Y-76516190D01*
X156756666Y-76468571D01*
X156661428Y-76420952D01*
X138277142Y-77682380D02*
X137943809Y-77206190D01*
X137705714Y-77682380D02*
X137705714Y-76682380D01*
X138086666Y-76682380D01*
X138181904Y-76730000D01*
X138229523Y-76777619D01*
X138277142Y-76872857D01*
X138277142Y-77015714D01*
X138229523Y-77110952D01*
X138181904Y-77158571D01*
X138086666Y-77206190D01*
X137705714Y-77206190D01*
X139229523Y-77682380D02*
X138658095Y-77682380D01*
X138943809Y-77682380D02*
X138943809Y-76682380D01*
X138848571Y-76825238D01*
X138753333Y-76920476D01*
X138658095Y-76968095D01*
X139705714Y-77682380D02*
X139896190Y-77682380D01*
X139991428Y-77634761D01*
X140039047Y-77587142D01*
X140134285Y-77444285D01*
X140181904Y-77253809D01*
X140181904Y-76872857D01*
X140134285Y-76777619D01*
X140086666Y-76730000D01*
X139991428Y-76682380D01*
X139800952Y-76682380D01*
X139705714Y-76730000D01*
X139658095Y-76777619D01*
X139610476Y-76872857D01*
X139610476Y-77110952D01*
X139658095Y-77206190D01*
X139705714Y-77253809D01*
X139800952Y-77301428D01*
X139991428Y-77301428D01*
X140086666Y-77253809D01*
X140134285Y-77206190D01*
X140181904Y-77110952D01*
X138387142Y-85332380D02*
X138053809Y-84856190D01*
X137815714Y-85332380D02*
X137815714Y-84332380D01*
X138196666Y-84332380D01*
X138291904Y-84380000D01*
X138339523Y-84427619D01*
X138387142Y-84522857D01*
X138387142Y-84665714D01*
X138339523Y-84760952D01*
X138291904Y-84808571D01*
X138196666Y-84856190D01*
X137815714Y-84856190D01*
X138768095Y-84427619D02*
X138815714Y-84380000D01*
X138910952Y-84332380D01*
X139149047Y-84332380D01*
X139244285Y-84380000D01*
X139291904Y-84427619D01*
X139339523Y-84522857D01*
X139339523Y-84618095D01*
X139291904Y-84760952D01*
X138720476Y-85332380D01*
X139339523Y-85332380D01*
X139958571Y-84332380D02*
X140053809Y-84332380D01*
X140149047Y-84380000D01*
X140196666Y-84427619D01*
X140244285Y-84522857D01*
X140291904Y-84713333D01*
X140291904Y-84951428D01*
X140244285Y-85141904D01*
X140196666Y-85237142D01*
X140149047Y-85284761D01*
X140053809Y-85332380D01*
X139958571Y-85332380D01*
X139863333Y-85284761D01*
X139815714Y-85237142D01*
X139768095Y-85141904D01*
X139720476Y-84951428D01*
X139720476Y-84713333D01*
X139768095Y-84522857D01*
X139815714Y-84427619D01*
X139863333Y-84380000D01*
X139958571Y-84332380D01*
X150557142Y-87562380D02*
X150223809Y-87086190D01*
X149985714Y-87562380D02*
X149985714Y-86562380D01*
X150366666Y-86562380D01*
X150461904Y-86610000D01*
X150509523Y-86657619D01*
X150557142Y-86752857D01*
X150557142Y-86895714D01*
X150509523Y-86990952D01*
X150461904Y-87038571D01*
X150366666Y-87086190D01*
X149985714Y-87086190D01*
X150938095Y-86657619D02*
X150985714Y-86610000D01*
X151080952Y-86562380D01*
X151319047Y-86562380D01*
X151414285Y-86610000D01*
X151461904Y-86657619D01*
X151509523Y-86752857D01*
X151509523Y-86848095D01*
X151461904Y-86990952D01*
X150890476Y-87562380D01*
X151509523Y-87562380D01*
X152461904Y-87562380D02*
X151890476Y-87562380D01*
X152176190Y-87562380D02*
X152176190Y-86562380D01*
X152080952Y-86705238D01*
X151985714Y-86800476D01*
X151890476Y-86848095D01*
X150347142Y-75572380D02*
X150013809Y-75096190D01*
X149775714Y-75572380D02*
X149775714Y-74572380D01*
X150156666Y-74572380D01*
X150251904Y-74620000D01*
X150299523Y-74667619D01*
X150347142Y-74762857D01*
X150347142Y-74905714D01*
X150299523Y-75000952D01*
X150251904Y-75048571D01*
X150156666Y-75096190D01*
X149775714Y-75096190D01*
X150728095Y-74667619D02*
X150775714Y-74620000D01*
X150870952Y-74572380D01*
X151109047Y-74572380D01*
X151204285Y-74620000D01*
X151251904Y-74667619D01*
X151299523Y-74762857D01*
X151299523Y-74858095D01*
X151251904Y-75000952D01*
X150680476Y-75572380D01*
X151299523Y-75572380D01*
X151680476Y-74667619D02*
X151728095Y-74620000D01*
X151823333Y-74572380D01*
X152061428Y-74572380D01*
X152156666Y-74620000D01*
X152204285Y-74667619D01*
X152251904Y-74762857D01*
X152251904Y-74858095D01*
X152204285Y-75000952D01*
X151632857Y-75572380D01*
X152251904Y-75572380D01*
X142827142Y-76202380D02*
X142493809Y-75726190D01*
X142255714Y-76202380D02*
X142255714Y-75202380D01*
X142636666Y-75202380D01*
X142731904Y-75250000D01*
X142779523Y-75297619D01*
X142827142Y-75392857D01*
X142827142Y-75535714D01*
X142779523Y-75630952D01*
X142731904Y-75678571D01*
X142636666Y-75726190D01*
X142255714Y-75726190D01*
X143208095Y-75297619D02*
X143255714Y-75250000D01*
X143350952Y-75202380D01*
X143589047Y-75202380D01*
X143684285Y-75250000D01*
X143731904Y-75297619D01*
X143779523Y-75392857D01*
X143779523Y-75488095D01*
X143731904Y-75630952D01*
X143160476Y-76202380D01*
X143779523Y-76202380D01*
X144112857Y-75202380D02*
X144731904Y-75202380D01*
X144398571Y-75583333D01*
X144541428Y-75583333D01*
X144636666Y-75630952D01*
X144684285Y-75678571D01*
X144731904Y-75773809D01*
X144731904Y-76011904D01*
X144684285Y-76107142D01*
X144636666Y-76154761D01*
X144541428Y-76202380D01*
X144255714Y-76202380D01*
X144160476Y-76154761D01*
X144112857Y-76107142D01*
X142917142Y-86882380D02*
X142583809Y-86406190D01*
X142345714Y-86882380D02*
X142345714Y-85882380D01*
X142726666Y-85882380D01*
X142821904Y-85930000D01*
X142869523Y-85977619D01*
X142917142Y-86072857D01*
X142917142Y-86215714D01*
X142869523Y-86310952D01*
X142821904Y-86358571D01*
X142726666Y-86406190D01*
X142345714Y-86406190D01*
X143298095Y-85977619D02*
X143345714Y-85930000D01*
X143440952Y-85882380D01*
X143679047Y-85882380D01*
X143774285Y-85930000D01*
X143821904Y-85977619D01*
X143869523Y-86072857D01*
X143869523Y-86168095D01*
X143821904Y-86310952D01*
X143250476Y-86882380D01*
X143869523Y-86882380D01*
X144726666Y-86215714D02*
X144726666Y-86882380D01*
X144488571Y-85834761D02*
X144250476Y-86549047D01*
X144869523Y-86549047D01*
X158617142Y-77802380D02*
X158283809Y-77326190D01*
X158045714Y-77802380D02*
X158045714Y-76802380D01*
X158426666Y-76802380D01*
X158521904Y-76850000D01*
X158569523Y-76897619D01*
X158617142Y-76992857D01*
X158617142Y-77135714D01*
X158569523Y-77230952D01*
X158521904Y-77278571D01*
X158426666Y-77326190D01*
X158045714Y-77326190D01*
X158998095Y-76897619D02*
X159045714Y-76850000D01*
X159140952Y-76802380D01*
X159379047Y-76802380D01*
X159474285Y-76850000D01*
X159521904Y-76897619D01*
X159569523Y-76992857D01*
X159569523Y-77088095D01*
X159521904Y-77230952D01*
X158950476Y-77802380D01*
X159569523Y-77802380D01*
X160045714Y-77802380D02*
X160236190Y-77802380D01*
X160331428Y-77754761D01*
X160379047Y-77707142D01*
X160474285Y-77564285D01*
X160521904Y-77373809D01*
X160521904Y-76992857D01*
X160474285Y-76897619D01*
X160426666Y-76850000D01*
X160331428Y-76802380D01*
X160140952Y-76802380D01*
X160045714Y-76850000D01*
X159998095Y-76897619D01*
X159950476Y-76992857D01*
X159950476Y-77230952D01*
X159998095Y-77326190D01*
X160045714Y-77373809D01*
X160140952Y-77421428D01*
X160331428Y-77421428D01*
X160426666Y-77373809D01*
X160474285Y-77326190D01*
X160521904Y-77230952D01*
X158627142Y-85252380D02*
X158293809Y-84776190D01*
X158055714Y-85252380D02*
X158055714Y-84252380D01*
X158436666Y-84252380D01*
X158531904Y-84300000D01*
X158579523Y-84347619D01*
X158627142Y-84442857D01*
X158627142Y-84585714D01*
X158579523Y-84680952D01*
X158531904Y-84728571D01*
X158436666Y-84776190D01*
X158055714Y-84776190D01*
X158960476Y-84252380D02*
X159579523Y-84252380D01*
X159246190Y-84633333D01*
X159389047Y-84633333D01*
X159484285Y-84680952D01*
X159531904Y-84728571D01*
X159579523Y-84823809D01*
X159579523Y-85061904D01*
X159531904Y-85157142D01*
X159484285Y-85204761D01*
X159389047Y-85252380D01*
X159103333Y-85252380D01*
X159008095Y-85204761D01*
X158960476Y-85157142D01*
X160198571Y-84252380D02*
X160293809Y-84252380D01*
X160389047Y-84300000D01*
X160436666Y-84347619D01*
X160484285Y-84442857D01*
X160531904Y-84633333D01*
X160531904Y-84871428D01*
X160484285Y-85061904D01*
X160436666Y-85157142D01*
X160389047Y-85204761D01*
X160293809Y-85252380D01*
X160198571Y-85252380D01*
X160103333Y-85204761D01*
X160055714Y-85157142D01*
X160008095Y-85061904D01*
X159960476Y-84871428D01*
X159960476Y-84633333D01*
X160008095Y-84442857D01*
X160055714Y-84347619D01*
X160103333Y-84300000D01*
X160198571Y-84252380D01*
X175097142Y-85972380D02*
X174763809Y-85496190D01*
X174525714Y-85972380D02*
X174525714Y-84972380D01*
X174906666Y-84972380D01*
X175001904Y-85020000D01*
X175049523Y-85067619D01*
X175097142Y-85162857D01*
X175097142Y-85305714D01*
X175049523Y-85400952D01*
X175001904Y-85448571D01*
X174906666Y-85496190D01*
X174525714Y-85496190D01*
X175430476Y-84972380D02*
X176049523Y-84972380D01*
X175716190Y-85353333D01*
X175859047Y-85353333D01*
X175954285Y-85400952D01*
X176001904Y-85448571D01*
X176049523Y-85543809D01*
X176049523Y-85781904D01*
X176001904Y-85877142D01*
X175954285Y-85924761D01*
X175859047Y-85972380D01*
X175573333Y-85972380D01*
X175478095Y-85924761D01*
X175430476Y-85877142D01*
X177001904Y-85972380D02*
X176430476Y-85972380D01*
X176716190Y-85972380D02*
X176716190Y-84972380D01*
X176620952Y-85115238D01*
X176525714Y-85210476D01*
X176430476Y-85258095D01*
X175047142Y-77042380D02*
X174713809Y-76566190D01*
X174475714Y-77042380D02*
X174475714Y-76042380D01*
X174856666Y-76042380D01*
X174951904Y-76090000D01*
X174999523Y-76137619D01*
X175047142Y-76232857D01*
X175047142Y-76375714D01*
X174999523Y-76470952D01*
X174951904Y-76518571D01*
X174856666Y-76566190D01*
X174475714Y-76566190D01*
X175380476Y-76042380D02*
X175999523Y-76042380D01*
X175666190Y-76423333D01*
X175809047Y-76423333D01*
X175904285Y-76470952D01*
X175951904Y-76518571D01*
X175999523Y-76613809D01*
X175999523Y-76851904D01*
X175951904Y-76947142D01*
X175904285Y-76994761D01*
X175809047Y-77042380D01*
X175523333Y-77042380D01*
X175428095Y-76994761D01*
X175380476Y-76947142D01*
X176380476Y-76137619D02*
X176428095Y-76090000D01*
X176523333Y-76042380D01*
X176761428Y-76042380D01*
X176856666Y-76090000D01*
X176904285Y-76137619D01*
X176951904Y-76232857D01*
X176951904Y-76328095D01*
X176904285Y-76470952D01*
X176332857Y-77042380D01*
X176951904Y-77042380D01*
X163077142Y-76212380D02*
X162743809Y-75736190D01*
X162505714Y-76212380D02*
X162505714Y-75212380D01*
X162886666Y-75212380D01*
X162981904Y-75260000D01*
X163029523Y-75307619D01*
X163077142Y-75402857D01*
X163077142Y-75545714D01*
X163029523Y-75640952D01*
X162981904Y-75688571D01*
X162886666Y-75736190D01*
X162505714Y-75736190D01*
X163410476Y-75212380D02*
X164029523Y-75212380D01*
X163696190Y-75593333D01*
X163839047Y-75593333D01*
X163934285Y-75640952D01*
X163981904Y-75688571D01*
X164029523Y-75783809D01*
X164029523Y-76021904D01*
X163981904Y-76117142D01*
X163934285Y-76164761D01*
X163839047Y-76212380D01*
X163553333Y-76212380D01*
X163458095Y-76164761D01*
X163410476Y-76117142D01*
X164362857Y-75212380D02*
X164981904Y-75212380D01*
X164648571Y-75593333D01*
X164791428Y-75593333D01*
X164886666Y-75640952D01*
X164934285Y-75688571D01*
X164981904Y-75783809D01*
X164981904Y-76021904D01*
X164934285Y-76117142D01*
X164886666Y-76164761D01*
X164791428Y-76212380D01*
X164505714Y-76212380D01*
X164410476Y-76164761D01*
X164362857Y-76117142D01*
X163037142Y-86822380D02*
X162703809Y-86346190D01*
X162465714Y-86822380D02*
X162465714Y-85822380D01*
X162846666Y-85822380D01*
X162941904Y-85870000D01*
X162989523Y-85917619D01*
X163037142Y-86012857D01*
X163037142Y-86155714D01*
X162989523Y-86250952D01*
X162941904Y-86298571D01*
X162846666Y-86346190D01*
X162465714Y-86346190D01*
X163370476Y-85822380D02*
X163989523Y-85822380D01*
X163656190Y-86203333D01*
X163799047Y-86203333D01*
X163894285Y-86250952D01*
X163941904Y-86298571D01*
X163989523Y-86393809D01*
X163989523Y-86631904D01*
X163941904Y-86727142D01*
X163894285Y-86774761D01*
X163799047Y-86822380D01*
X163513333Y-86822380D01*
X163418095Y-86774761D01*
X163370476Y-86727142D01*
X164846666Y-86155714D02*
X164846666Y-86822380D01*
X164608571Y-85774761D02*
X164370476Y-86489047D01*
X164989523Y-86489047D01*
X170607142Y-87422380D02*
X170273809Y-86946190D01*
X170035714Y-87422380D02*
X170035714Y-86422380D01*
X170416666Y-86422380D01*
X170511904Y-86470000D01*
X170559523Y-86517619D01*
X170607142Y-86612857D01*
X170607142Y-86755714D01*
X170559523Y-86850952D01*
X170511904Y-86898571D01*
X170416666Y-86946190D01*
X170035714Y-86946190D01*
X170940476Y-86422380D02*
X171559523Y-86422380D01*
X171226190Y-86803333D01*
X171369047Y-86803333D01*
X171464285Y-86850952D01*
X171511904Y-86898571D01*
X171559523Y-86993809D01*
X171559523Y-87231904D01*
X171511904Y-87327142D01*
X171464285Y-87374761D01*
X171369047Y-87422380D01*
X171083333Y-87422380D01*
X170988095Y-87374761D01*
X170940476Y-87327142D01*
X172464285Y-86422380D02*
X171988095Y-86422380D01*
X171940476Y-86898571D01*
X171988095Y-86850952D01*
X172083333Y-86803333D01*
X172321428Y-86803333D01*
X172416666Y-86850952D01*
X172464285Y-86898571D01*
X172511904Y-86993809D01*
X172511904Y-87231904D01*
X172464285Y-87327142D01*
X172416666Y-87374761D01*
X172321428Y-87422380D01*
X172083333Y-87422380D01*
X171988095Y-87374761D01*
X171940476Y-87327142D01*
X170507142Y-75572380D02*
X170173809Y-75096190D01*
X169935714Y-75572380D02*
X169935714Y-74572380D01*
X170316666Y-74572380D01*
X170411904Y-74620000D01*
X170459523Y-74667619D01*
X170507142Y-74762857D01*
X170507142Y-74905714D01*
X170459523Y-75000952D01*
X170411904Y-75048571D01*
X170316666Y-75096190D01*
X169935714Y-75096190D01*
X170840476Y-74572380D02*
X171459523Y-74572380D01*
X171126190Y-74953333D01*
X171269047Y-74953333D01*
X171364285Y-75000952D01*
X171411904Y-75048571D01*
X171459523Y-75143809D01*
X171459523Y-75381904D01*
X171411904Y-75477142D01*
X171364285Y-75524761D01*
X171269047Y-75572380D01*
X170983333Y-75572380D01*
X170888095Y-75524761D01*
X170840476Y-75477142D01*
X172316666Y-74572380D02*
X172126190Y-74572380D01*
X172030952Y-74620000D01*
X171983333Y-74667619D01*
X171888095Y-74810476D01*
X171840476Y-75000952D01*
X171840476Y-75381904D01*
X171888095Y-75477142D01*
X171935714Y-75524761D01*
X172030952Y-75572380D01*
X172221428Y-75572380D01*
X172316666Y-75524761D01*
X172364285Y-75477142D01*
X172411904Y-75381904D01*
X172411904Y-75143809D01*
X172364285Y-75048571D01*
X172316666Y-75000952D01*
X172221428Y-74953333D01*
X172030952Y-74953333D01*
X171935714Y-75000952D01*
X171888095Y-75048571D01*
X171840476Y-75143809D01*
X110912380Y-72852857D02*
X110436190Y-73186190D01*
X110912380Y-73424285D02*
X109912380Y-73424285D01*
X109912380Y-73043333D01*
X109960000Y-72948095D01*
X110007619Y-72900476D01*
X110102857Y-72852857D01*
X110245714Y-72852857D01*
X110340952Y-72900476D01*
X110388571Y-72948095D01*
X110436190Y-73043333D01*
X110436190Y-73424285D01*
X110245714Y-71995714D02*
X110912380Y-71995714D01*
X109864761Y-72233809D02*
X110579047Y-72471904D01*
X110579047Y-71852857D01*
X109912380Y-71567142D02*
X109912380Y-70948095D01*
X110293333Y-71281428D01*
X110293333Y-71138571D01*
X110340952Y-71043333D01*
X110388571Y-70995714D01*
X110483809Y-70948095D01*
X110721904Y-70948095D01*
X110817142Y-70995714D01*
X110864761Y-71043333D01*
X110912380Y-71138571D01*
X110912380Y-71424285D01*
X110864761Y-71519523D01*
X110817142Y-71567142D01*
X112382380Y-72892857D02*
X111906190Y-73226190D01*
X112382380Y-73464285D02*
X111382380Y-73464285D01*
X111382380Y-73083333D01*
X111430000Y-72988095D01*
X111477619Y-72940476D01*
X111572857Y-72892857D01*
X111715714Y-72892857D01*
X111810952Y-72940476D01*
X111858571Y-72988095D01*
X111906190Y-73083333D01*
X111906190Y-73464285D01*
X111715714Y-72035714D02*
X112382380Y-72035714D01*
X111334761Y-72273809D02*
X112049047Y-72511904D01*
X112049047Y-71892857D01*
X111715714Y-71083333D02*
X112382380Y-71083333D01*
X111334761Y-71321428D02*
X112049047Y-71559523D01*
X112049047Y-70940476D01*
X114672380Y-89832857D02*
X114196190Y-90166190D01*
X114672380Y-90404285D02*
X113672380Y-90404285D01*
X113672380Y-90023333D01*
X113720000Y-89928095D01*
X113767619Y-89880476D01*
X113862857Y-89832857D01*
X114005714Y-89832857D01*
X114100952Y-89880476D01*
X114148571Y-89928095D01*
X114196190Y-90023333D01*
X114196190Y-90404285D01*
X114005714Y-88975714D02*
X114672380Y-88975714D01*
X113624761Y-89213809D02*
X114339047Y-89451904D01*
X114339047Y-88832857D01*
X113672380Y-87975714D02*
X113672380Y-88451904D01*
X114148571Y-88499523D01*
X114100952Y-88451904D01*
X114053333Y-88356666D01*
X114053333Y-88118571D01*
X114100952Y-88023333D01*
X114148571Y-87975714D01*
X114243809Y-87928095D01*
X114481904Y-87928095D01*
X114577142Y-87975714D01*
X114624761Y-88023333D01*
X114672380Y-88118571D01*
X114672380Y-88356666D01*
X114624761Y-88451904D01*
X114577142Y-88499523D01*
X106532380Y-73592857D02*
X106056190Y-73926190D01*
X106532380Y-74164285D02*
X105532380Y-74164285D01*
X105532380Y-73783333D01*
X105580000Y-73688095D01*
X105627619Y-73640476D01*
X105722857Y-73592857D01*
X105865714Y-73592857D01*
X105960952Y-73640476D01*
X106008571Y-73688095D01*
X106056190Y-73783333D01*
X106056190Y-74164285D01*
X105865714Y-72735714D02*
X106532380Y-72735714D01*
X105484761Y-72973809D02*
X106199047Y-73211904D01*
X106199047Y-72592857D01*
X105532380Y-71783333D02*
X105532380Y-71973809D01*
X105580000Y-72069047D01*
X105627619Y-72116666D01*
X105770476Y-72211904D01*
X105960952Y-72259523D01*
X106341904Y-72259523D01*
X106437142Y-72211904D01*
X106484761Y-72164285D01*
X106532380Y-72069047D01*
X106532380Y-71878571D01*
X106484761Y-71783333D01*
X106437142Y-71735714D01*
X106341904Y-71688095D01*
X106103809Y-71688095D01*
X106008571Y-71735714D01*
X105960952Y-71783333D01*
X105913333Y-71878571D01*
X105913333Y-72069047D01*
X105960952Y-72164285D01*
X106008571Y-72211904D01*
X106103809Y-72259523D01*
X105692380Y-89902857D02*
X105216190Y-90236190D01*
X105692380Y-90474285D02*
X104692380Y-90474285D01*
X104692380Y-90093333D01*
X104740000Y-89998095D01*
X104787619Y-89950476D01*
X104882857Y-89902857D01*
X105025714Y-89902857D01*
X105120952Y-89950476D01*
X105168571Y-89998095D01*
X105216190Y-90093333D01*
X105216190Y-90474285D01*
X105025714Y-89045714D02*
X105692380Y-89045714D01*
X104644761Y-89283809D02*
X105359047Y-89521904D01*
X105359047Y-88902857D01*
X104692380Y-88617142D02*
X104692380Y-87950476D01*
X105692380Y-88379047D01*
X115787142Y-86122380D02*
X115453809Y-85646190D01*
X115215714Y-86122380D02*
X115215714Y-85122380D01*
X115596666Y-85122380D01*
X115691904Y-85170000D01*
X115739523Y-85217619D01*
X115787142Y-85312857D01*
X115787142Y-85455714D01*
X115739523Y-85550952D01*
X115691904Y-85598571D01*
X115596666Y-85646190D01*
X115215714Y-85646190D01*
X116644285Y-85455714D02*
X116644285Y-86122380D01*
X116406190Y-85074761D02*
X116168095Y-85789047D01*
X116787142Y-85789047D01*
X117310952Y-85550952D02*
X117215714Y-85503333D01*
X117168095Y-85455714D01*
X117120476Y-85360476D01*
X117120476Y-85312857D01*
X117168095Y-85217619D01*
X117215714Y-85170000D01*
X117310952Y-85122380D01*
X117501428Y-85122380D01*
X117596666Y-85170000D01*
X117644285Y-85217619D01*
X117691904Y-85312857D01*
X117691904Y-85360476D01*
X117644285Y-85455714D01*
X117596666Y-85503333D01*
X117501428Y-85550952D01*
X117310952Y-85550952D01*
X117215714Y-85598571D01*
X117168095Y-85646190D01*
X117120476Y-85741428D01*
X117120476Y-85931904D01*
X117168095Y-86027142D01*
X117215714Y-86074761D01*
X117310952Y-86122380D01*
X117501428Y-86122380D01*
X117596666Y-86074761D01*
X117644285Y-86027142D01*
X117691904Y-85931904D01*
X117691904Y-85741428D01*
X117644285Y-85646190D01*
X117596666Y-85598571D01*
X117501428Y-85550952D01*
X103087142Y-77072380D02*
X102753809Y-76596190D01*
X102515714Y-77072380D02*
X102515714Y-76072380D01*
X102896666Y-76072380D01*
X102991904Y-76120000D01*
X103039523Y-76167619D01*
X103087142Y-76262857D01*
X103087142Y-76405714D01*
X103039523Y-76500952D01*
X102991904Y-76548571D01*
X102896666Y-76596190D01*
X102515714Y-76596190D01*
X103944285Y-76405714D02*
X103944285Y-77072380D01*
X103706190Y-76024761D02*
X103468095Y-76739047D01*
X104087142Y-76739047D01*
X104515714Y-77072380D02*
X104706190Y-77072380D01*
X104801428Y-77024761D01*
X104849047Y-76977142D01*
X104944285Y-76834285D01*
X104991904Y-76643809D01*
X104991904Y-76262857D01*
X104944285Y-76167619D01*
X104896666Y-76120000D01*
X104801428Y-76072380D01*
X104610952Y-76072380D01*
X104515714Y-76120000D01*
X104468095Y-76167619D01*
X104420476Y-76262857D01*
X104420476Y-76500952D01*
X104468095Y-76596190D01*
X104515714Y-76643809D01*
X104610952Y-76691428D01*
X104801428Y-76691428D01*
X104896666Y-76643809D01*
X104944285Y-76596190D01*
X104991904Y-76500952D01*
X102347142Y-86122380D02*
X102013809Y-85646190D01*
X101775714Y-86122380D02*
X101775714Y-85122380D01*
X102156666Y-85122380D01*
X102251904Y-85170000D01*
X102299523Y-85217619D01*
X102347142Y-85312857D01*
X102347142Y-85455714D01*
X102299523Y-85550952D01*
X102251904Y-85598571D01*
X102156666Y-85646190D01*
X101775714Y-85646190D01*
X103251904Y-85122380D02*
X102775714Y-85122380D01*
X102728095Y-85598571D01*
X102775714Y-85550952D01*
X102870952Y-85503333D01*
X103109047Y-85503333D01*
X103204285Y-85550952D01*
X103251904Y-85598571D01*
X103299523Y-85693809D01*
X103299523Y-85931904D01*
X103251904Y-86027142D01*
X103204285Y-86074761D01*
X103109047Y-86122380D01*
X102870952Y-86122380D01*
X102775714Y-86074761D01*
X102728095Y-86027142D01*
X103918571Y-85122380D02*
X104013809Y-85122380D01*
X104109047Y-85170000D01*
X104156666Y-85217619D01*
X104204285Y-85312857D01*
X104251904Y-85503333D01*
X104251904Y-85741428D01*
X104204285Y-85931904D01*
X104156666Y-86027142D01*
X104109047Y-86074761D01*
X104013809Y-86122380D01*
X103918571Y-86122380D01*
X103823333Y-86074761D01*
X103775714Y-86027142D01*
X103728095Y-85931904D01*
X103680476Y-85741428D01*
X103680476Y-85503333D01*
X103728095Y-85312857D01*
X103775714Y-85217619D01*
X103823333Y-85170000D01*
X103918571Y-85122380D01*
X178313142Y-101634380D02*
X177979809Y-101158190D01*
X177741714Y-101634380D02*
X177741714Y-100634380D01*
X178122666Y-100634380D01*
X178217904Y-100682000D01*
X178265523Y-100729619D01*
X178313142Y-100824857D01*
X178313142Y-100967714D01*
X178265523Y-101062952D01*
X178217904Y-101110571D01*
X178122666Y-101158190D01*
X177741714Y-101158190D01*
X179217904Y-100634380D02*
X178741714Y-100634380D01*
X178694095Y-101110571D01*
X178741714Y-101062952D01*
X178836952Y-101015333D01*
X179075047Y-101015333D01*
X179170285Y-101062952D01*
X179217904Y-101110571D01*
X179265523Y-101205809D01*
X179265523Y-101443904D01*
X179217904Y-101539142D01*
X179170285Y-101586761D01*
X179075047Y-101634380D01*
X178836952Y-101634380D01*
X178741714Y-101586761D01*
X178694095Y-101539142D01*
X180217904Y-101634380D02*
X179646476Y-101634380D01*
X179932190Y-101634380D02*
X179932190Y-100634380D01*
X179836952Y-100777238D01*
X179741714Y-100872476D01*
X179646476Y-100920095D01*
X126378095Y-85902380D02*
X126378095Y-86711904D01*
X126425714Y-86807142D01*
X126473333Y-86854761D01*
X126568571Y-86902380D01*
X126759047Y-86902380D01*
X126854285Y-86854761D01*
X126901904Y-86807142D01*
X126949523Y-86711904D01*
X126949523Y-85902380D01*
X127949523Y-86902380D02*
X127378095Y-86902380D01*
X127663809Y-86902380D02*
X127663809Y-85902380D01*
X127568571Y-86045238D01*
X127473333Y-86140476D01*
X127378095Y-86188095D01*
X146608095Y-85912380D02*
X146608095Y-86721904D01*
X146655714Y-86817142D01*
X146703333Y-86864761D01*
X146798571Y-86912380D01*
X146989047Y-86912380D01*
X147084285Y-86864761D01*
X147131904Y-86817142D01*
X147179523Y-86721904D01*
X147179523Y-85912380D01*
X147608095Y-86007619D02*
X147655714Y-85960000D01*
X147750952Y-85912380D01*
X147989047Y-85912380D01*
X148084285Y-85960000D01*
X148131904Y-86007619D01*
X148179523Y-86102857D01*
X148179523Y-86198095D01*
X148131904Y-86340952D01*
X147560476Y-86912380D01*
X148179523Y-86912380D01*
X166718095Y-85842380D02*
X166718095Y-86651904D01*
X166765714Y-86747142D01*
X166813333Y-86794761D01*
X166908571Y-86842380D01*
X167099047Y-86842380D01*
X167194285Y-86794761D01*
X167241904Y-86747142D01*
X167289523Y-86651904D01*
X167289523Y-85842380D01*
X167670476Y-85842380D02*
X168289523Y-85842380D01*
X167956190Y-86223333D01*
X168099047Y-86223333D01*
X168194285Y-86270952D01*
X168241904Y-86318571D01*
X168289523Y-86413809D01*
X168289523Y-86651904D01*
X168241904Y-86747142D01*
X168194285Y-86794761D01*
X168099047Y-86842380D01*
X167813333Y-86842380D01*
X167718095Y-86794761D01*
X167670476Y-86747142D01*
X114527380Y-81861904D02*
X115336904Y-81861904D01*
X115432142Y-81814285D01*
X115479761Y-81766666D01*
X115527380Y-81671428D01*
X115527380Y-81480952D01*
X115479761Y-81385714D01*
X115432142Y-81338095D01*
X115336904Y-81290476D01*
X114527380Y-81290476D01*
X114860714Y-80385714D02*
X115527380Y-80385714D01*
X114479761Y-80623809D02*
X115194047Y-80861904D01*
X115194047Y-80242857D01*
X139844479Y-100649016D02*
X139034955Y-100649016D01*
X138939717Y-100696635D01*
X138892098Y-100744254D01*
X138844479Y-100839492D01*
X138844479Y-101029968D01*
X138892098Y-101125206D01*
X138939717Y-101172825D01*
X139034955Y-101220444D01*
X139844479Y-101220444D01*
X139844479Y-102172825D02*
X139844479Y-101696635D01*
X139368288Y-101649016D01*
X139415907Y-101696635D01*
X139463526Y-101791873D01*
X139463526Y-102029968D01*
X139415907Y-102125206D01*
X139368288Y-102172825D01*
X139273050Y-102220444D01*
X139034955Y-102220444D01*
X138939717Y-102172825D01*
X138892098Y-102125206D01*
X138844479Y-102029968D01*
X138844479Y-101791873D01*
X138892098Y-101696635D01*
X138939717Y-101649016D01*
X163302380Y-102261904D02*
X164111904Y-102261904D01*
X164207142Y-102214285D01*
X164254761Y-102166666D01*
X164302380Y-102071428D01*
X164302380Y-101880952D01*
X164254761Y-101785714D01*
X164207142Y-101738095D01*
X164111904Y-101690476D01*
X163302380Y-101690476D01*
X163302380Y-100785714D02*
X163302380Y-100976190D01*
X163350000Y-101071428D01*
X163397619Y-101119047D01*
X163540476Y-101214285D01*
X163730952Y-101261904D01*
X164111904Y-101261904D01*
X164207142Y-101214285D01*
X164254761Y-101166666D01*
X164302380Y-101071428D01*
X164302380Y-100880952D01*
X164254761Y-100785714D01*
X164207142Y-100738095D01*
X164111904Y-100690476D01*
X163873809Y-100690476D01*
X163778571Y-100738095D01*
X163730952Y-100785714D01*
X163683333Y-100880952D01*
X163683333Y-101071428D01*
X163730952Y-101166666D01*
X163778571Y-101214285D01*
X163873809Y-101261904D01*
X181867142Y-93442857D02*
X181914761Y-93490476D01*
X181962380Y-93633333D01*
X181962380Y-93728571D01*
X181914761Y-93871428D01*
X181819523Y-93966666D01*
X181724285Y-94014285D01*
X181533809Y-94061904D01*
X181390952Y-94061904D01*
X181200476Y-94014285D01*
X181105238Y-93966666D01*
X181010000Y-93871428D01*
X180962380Y-93728571D01*
X180962380Y-93633333D01*
X181010000Y-93490476D01*
X181057619Y-93442857D01*
X181295714Y-92585714D02*
X181962380Y-92585714D01*
X180914761Y-92823809D02*
X181629047Y-93061904D01*
X181629047Y-92442857D01*
X181962380Y-91538095D02*
X181962380Y-92109523D01*
X181962380Y-91823809D02*
X180962380Y-91823809D01*
X181105238Y-91919047D01*
X181200476Y-92014285D01*
X181248095Y-92109523D01*
X186717142Y-93542857D02*
X186764761Y-93590476D01*
X186812380Y-93733333D01*
X186812380Y-93828571D01*
X186764761Y-93971428D01*
X186669523Y-94066666D01*
X186574285Y-94114285D01*
X186383809Y-94161904D01*
X186240952Y-94161904D01*
X186050476Y-94114285D01*
X185955238Y-94066666D01*
X185860000Y-93971428D01*
X185812380Y-93828571D01*
X185812380Y-93733333D01*
X185860000Y-93590476D01*
X185907619Y-93542857D01*
X186145714Y-92685714D02*
X186812380Y-92685714D01*
X185764761Y-92923809D02*
X186479047Y-93161904D01*
X186479047Y-92542857D01*
X185907619Y-92209523D02*
X185860000Y-92161904D01*
X185812380Y-92066666D01*
X185812380Y-91828571D01*
X185860000Y-91733333D01*
X185907619Y-91685714D01*
X186002857Y-91638095D01*
X186098095Y-91638095D01*
X186240952Y-91685714D01*
X186812380Y-92257142D01*
X186812380Y-91638095D01*
X185207142Y-88082857D02*
X185254761Y-88130476D01*
X185302380Y-88273333D01*
X185302380Y-88368571D01*
X185254761Y-88511428D01*
X185159523Y-88606666D01*
X185064285Y-88654285D01*
X184873809Y-88701904D01*
X184730952Y-88701904D01*
X184540476Y-88654285D01*
X184445238Y-88606666D01*
X184350000Y-88511428D01*
X184302380Y-88368571D01*
X184302380Y-88273333D01*
X184350000Y-88130476D01*
X184397619Y-88082857D01*
X184635714Y-87225714D02*
X185302380Y-87225714D01*
X184254761Y-87463809D02*
X184969047Y-87701904D01*
X184969047Y-87082857D01*
X184302380Y-86797142D02*
X184302380Y-86178095D01*
X184683333Y-86511428D01*
X184683333Y-86368571D01*
X184730952Y-86273333D01*
X184778571Y-86225714D01*
X184873809Y-86178095D01*
X185111904Y-86178095D01*
X185207142Y-86225714D01*
X185254761Y-86273333D01*
X185302380Y-86368571D01*
X185302380Y-86654285D01*
X185254761Y-86749523D01*
X185207142Y-86797142D01*
X185197142Y-81172857D02*
X185244761Y-81220476D01*
X185292380Y-81363333D01*
X185292380Y-81458571D01*
X185244761Y-81601428D01*
X185149523Y-81696666D01*
X185054285Y-81744285D01*
X184863809Y-81791904D01*
X184720952Y-81791904D01*
X184530476Y-81744285D01*
X184435238Y-81696666D01*
X184340000Y-81601428D01*
X184292380Y-81458571D01*
X184292380Y-81363333D01*
X184340000Y-81220476D01*
X184387619Y-81172857D01*
X184625714Y-80315714D02*
X185292380Y-80315714D01*
X184244761Y-80553809D02*
X184959047Y-80791904D01*
X184959047Y-80172857D01*
X184625714Y-79363333D02*
X185292380Y-79363333D01*
X184244761Y-79601428D02*
X184959047Y-79839523D01*
X184959047Y-79220476D01*
X152127142Y-142102380D02*
X151793809Y-141626190D01*
X151555714Y-142102380D02*
X151555714Y-141102380D01*
X151936666Y-141102380D01*
X152031904Y-141150000D01*
X152079523Y-141197619D01*
X152127142Y-141292857D01*
X152127142Y-141435714D01*
X152079523Y-141530952D01*
X152031904Y-141578571D01*
X151936666Y-141626190D01*
X151555714Y-141626190D01*
X153031904Y-141102380D02*
X152555714Y-141102380D01*
X152508095Y-141578571D01*
X152555714Y-141530952D01*
X152650952Y-141483333D01*
X152889047Y-141483333D01*
X152984285Y-141530952D01*
X153031904Y-141578571D01*
X153079523Y-141673809D01*
X153079523Y-141911904D01*
X153031904Y-142007142D01*
X152984285Y-142054761D01*
X152889047Y-142102380D01*
X152650952Y-142102380D01*
X152555714Y-142054761D01*
X152508095Y-142007142D01*
X153460476Y-141197619D02*
X153508095Y-141150000D01*
X153603333Y-141102380D01*
X153841428Y-141102380D01*
X153936666Y-141150000D01*
X153984285Y-141197619D01*
X154031904Y-141292857D01*
X154031904Y-141388095D01*
X153984285Y-141530952D01*
X153412857Y-142102380D01*
X154031904Y-142102380D01*
X166737142Y-142122380D02*
X166403809Y-141646190D01*
X166165714Y-142122380D02*
X166165714Y-141122380D01*
X166546666Y-141122380D01*
X166641904Y-141170000D01*
X166689523Y-141217619D01*
X166737142Y-141312857D01*
X166737142Y-141455714D01*
X166689523Y-141550952D01*
X166641904Y-141598571D01*
X166546666Y-141646190D01*
X166165714Y-141646190D01*
X167641904Y-141122380D02*
X167165714Y-141122380D01*
X167118095Y-141598571D01*
X167165714Y-141550952D01*
X167260952Y-141503333D01*
X167499047Y-141503333D01*
X167594285Y-141550952D01*
X167641904Y-141598571D01*
X167689523Y-141693809D01*
X167689523Y-141931904D01*
X167641904Y-142027142D01*
X167594285Y-142074761D01*
X167499047Y-142122380D01*
X167260952Y-142122380D01*
X167165714Y-142074761D01*
X167118095Y-142027142D01*
X168022857Y-141122380D02*
X168641904Y-141122380D01*
X168308571Y-141503333D01*
X168451428Y-141503333D01*
X168546666Y-141550952D01*
X168594285Y-141598571D01*
X168641904Y-141693809D01*
X168641904Y-141931904D01*
X168594285Y-142027142D01*
X168546666Y-142074761D01*
X168451428Y-142122380D01*
X168165714Y-142122380D01*
X168070476Y-142074761D01*
X168022857Y-142027142D01*
X181177142Y-98997142D02*
X181129523Y-99044761D01*
X180986666Y-99092380D01*
X180891428Y-99092380D01*
X180748571Y-99044761D01*
X180653333Y-98949523D01*
X180605714Y-98854285D01*
X180558095Y-98663809D01*
X180558095Y-98520952D01*
X180605714Y-98330476D01*
X180653333Y-98235238D01*
X180748571Y-98140000D01*
X180891428Y-98092380D01*
X180986666Y-98092380D01*
X181129523Y-98140000D01*
X181177142Y-98187619D01*
X182034285Y-98425714D02*
X182034285Y-99092380D01*
X181796190Y-98044761D02*
X181558095Y-98759047D01*
X182177142Y-98759047D01*
X183034285Y-98092380D02*
X182558095Y-98092380D01*
X182510476Y-98568571D01*
X182558095Y-98520952D01*
X182653333Y-98473333D01*
X182891428Y-98473333D01*
X182986666Y-98520952D01*
X183034285Y-98568571D01*
X183081904Y-98663809D01*
X183081904Y-98901904D01*
X183034285Y-98997142D01*
X182986666Y-99044761D01*
X182891428Y-99092380D01*
X182653333Y-99092380D01*
X182558095Y-99044761D01*
X182510476Y-98997142D01*
X177857142Y-110112857D02*
X177904761Y-110160476D01*
X177952380Y-110303333D01*
X177952380Y-110398571D01*
X177904761Y-110541428D01*
X177809523Y-110636666D01*
X177714285Y-110684285D01*
X177523809Y-110731904D01*
X177380952Y-110731904D01*
X177190476Y-110684285D01*
X177095238Y-110636666D01*
X177000000Y-110541428D01*
X176952380Y-110398571D01*
X176952380Y-110303333D01*
X177000000Y-110160476D01*
X177047619Y-110112857D01*
X177285714Y-109255714D02*
X177952380Y-109255714D01*
X176904761Y-109493809D02*
X177619047Y-109731904D01*
X177619047Y-109112857D01*
X176952380Y-108303333D02*
X176952380Y-108493809D01*
X177000000Y-108589047D01*
X177047619Y-108636666D01*
X177190476Y-108731904D01*
X177380952Y-108779523D01*
X177761904Y-108779523D01*
X177857142Y-108731904D01*
X177904761Y-108684285D01*
X177952380Y-108589047D01*
X177952380Y-108398571D01*
X177904761Y-108303333D01*
X177857142Y-108255714D01*
X177761904Y-108208095D01*
X177523809Y-108208095D01*
X177428571Y-108255714D01*
X177380952Y-108303333D01*
X177333333Y-108398571D01*
X177333333Y-108589047D01*
X177380952Y-108684285D01*
X177428571Y-108731904D01*
X177523809Y-108779523D01*
X165767142Y-93777142D02*
X165719523Y-93824761D01*
X165576666Y-93872380D01*
X165481428Y-93872380D01*
X165338571Y-93824761D01*
X165243333Y-93729523D01*
X165195714Y-93634285D01*
X165148095Y-93443809D01*
X165148095Y-93300952D01*
X165195714Y-93110476D01*
X165243333Y-93015238D01*
X165338571Y-92920000D01*
X165481428Y-92872380D01*
X165576666Y-92872380D01*
X165719523Y-92920000D01*
X165767142Y-92967619D01*
X166624285Y-93205714D02*
X166624285Y-93872380D01*
X166386190Y-92824761D02*
X166148095Y-93539047D01*
X166767142Y-93539047D01*
X167052857Y-92872380D02*
X167719523Y-92872380D01*
X167290952Y-93872380D01*
X181997142Y-96862857D02*
X182044761Y-96910476D01*
X182092380Y-97053333D01*
X182092380Y-97148571D01*
X182044761Y-97291428D01*
X181949523Y-97386666D01*
X181854285Y-97434285D01*
X181663809Y-97481904D01*
X181520952Y-97481904D01*
X181330476Y-97434285D01*
X181235238Y-97386666D01*
X181140000Y-97291428D01*
X181092380Y-97148571D01*
X181092380Y-97053333D01*
X181140000Y-96910476D01*
X181187619Y-96862857D01*
X181425714Y-96005714D02*
X182092380Y-96005714D01*
X181044761Y-96243809D02*
X181759047Y-96481904D01*
X181759047Y-95862857D01*
X181520952Y-95339047D02*
X181473333Y-95434285D01*
X181425714Y-95481904D01*
X181330476Y-95529523D01*
X181282857Y-95529523D01*
X181187619Y-95481904D01*
X181140000Y-95434285D01*
X181092380Y-95339047D01*
X181092380Y-95148571D01*
X181140000Y-95053333D01*
X181187619Y-95005714D01*
X181282857Y-94958095D01*
X181330476Y-94958095D01*
X181425714Y-95005714D01*
X181473333Y-95053333D01*
X181520952Y-95148571D01*
X181520952Y-95339047D01*
X181568571Y-95434285D01*
X181616190Y-95481904D01*
X181711428Y-95529523D01*
X181901904Y-95529523D01*
X181997142Y-95481904D01*
X182044761Y-95434285D01*
X182092380Y-95339047D01*
X182092380Y-95148571D01*
X182044761Y-95053333D01*
X181997142Y-95005714D01*
X181901904Y-94958095D01*
X181711428Y-94958095D01*
X181616190Y-95005714D01*
X181568571Y-95053333D01*
X181520952Y-95148571D01*
X162757142Y-98282857D02*
X162804761Y-98330476D01*
X162852380Y-98473333D01*
X162852380Y-98568571D01*
X162804761Y-98711428D01*
X162709523Y-98806666D01*
X162614285Y-98854285D01*
X162423809Y-98901904D01*
X162280952Y-98901904D01*
X162090476Y-98854285D01*
X161995238Y-98806666D01*
X161900000Y-98711428D01*
X161852380Y-98568571D01*
X161852380Y-98473333D01*
X161900000Y-98330476D01*
X161947619Y-98282857D01*
X162185714Y-97425714D02*
X162852380Y-97425714D01*
X161804761Y-97663809D02*
X162519047Y-97901904D01*
X162519047Y-97282857D01*
X162852380Y-96854285D02*
X162852380Y-96663809D01*
X162804761Y-96568571D01*
X162757142Y-96520952D01*
X162614285Y-96425714D01*
X162423809Y-96378095D01*
X162042857Y-96378095D01*
X161947619Y-96425714D01*
X161900000Y-96473333D01*
X161852380Y-96568571D01*
X161852380Y-96759047D01*
X161900000Y-96854285D01*
X161947619Y-96901904D01*
X162042857Y-96949523D01*
X162280952Y-96949523D01*
X162376190Y-96901904D01*
X162423809Y-96854285D01*
X162471428Y-96759047D01*
X162471428Y-96568571D01*
X162423809Y-96473333D01*
X162376190Y-96425714D01*
X162280952Y-96378095D01*
X164137142Y-110822857D02*
X164184761Y-110870476D01*
X164232380Y-111013333D01*
X164232380Y-111108571D01*
X164184761Y-111251428D01*
X164089523Y-111346666D01*
X163994285Y-111394285D01*
X163803809Y-111441904D01*
X163660952Y-111441904D01*
X163470476Y-111394285D01*
X163375238Y-111346666D01*
X163280000Y-111251428D01*
X163232380Y-111108571D01*
X163232380Y-111013333D01*
X163280000Y-110870476D01*
X163327619Y-110822857D01*
X163232380Y-109918095D02*
X163232380Y-110394285D01*
X163708571Y-110441904D01*
X163660952Y-110394285D01*
X163613333Y-110299047D01*
X163613333Y-110060952D01*
X163660952Y-109965714D01*
X163708571Y-109918095D01*
X163803809Y-109870476D01*
X164041904Y-109870476D01*
X164137142Y-109918095D01*
X164184761Y-109965714D01*
X164232380Y-110060952D01*
X164232380Y-110299047D01*
X164184761Y-110394285D01*
X164137142Y-110441904D01*
X163232380Y-109251428D02*
X163232380Y-109156190D01*
X163280000Y-109060952D01*
X163327619Y-109013333D01*
X163422857Y-108965714D01*
X163613333Y-108918095D01*
X163851428Y-108918095D01*
X164041904Y-108965714D01*
X164137142Y-109013333D01*
X164184761Y-109060952D01*
X164232380Y-109156190D01*
X164232380Y-109251428D01*
X164184761Y-109346666D01*
X164137142Y-109394285D01*
X164041904Y-109441904D01*
X163851428Y-109489523D01*
X163613333Y-109489523D01*
X163422857Y-109441904D01*
X163327619Y-109394285D01*
X163280000Y-109346666D01*
X163232380Y-109251428D01*
X192367142Y-129172857D02*
X192414761Y-129220476D01*
X192462380Y-129363333D01*
X192462380Y-129458571D01*
X192414761Y-129601428D01*
X192319523Y-129696666D01*
X192224285Y-129744285D01*
X192033809Y-129791904D01*
X191890952Y-129791904D01*
X191700476Y-129744285D01*
X191605238Y-129696666D01*
X191510000Y-129601428D01*
X191462380Y-129458571D01*
X191462380Y-129363333D01*
X191510000Y-129220476D01*
X191557619Y-129172857D01*
X191462380Y-128268095D02*
X191462380Y-128744285D01*
X191938571Y-128791904D01*
X191890952Y-128744285D01*
X191843333Y-128649047D01*
X191843333Y-128410952D01*
X191890952Y-128315714D01*
X191938571Y-128268095D01*
X192033809Y-128220476D01*
X192271904Y-128220476D01*
X192367142Y-128268095D01*
X192414761Y-128315714D01*
X192462380Y-128410952D01*
X192462380Y-128649047D01*
X192414761Y-128744285D01*
X192367142Y-128791904D01*
X192462380Y-127268095D02*
X192462380Y-127839523D01*
X192462380Y-127553809D02*
X191462380Y-127553809D01*
X191605238Y-127649047D01*
X191700476Y-127744285D01*
X191748095Y-127839523D01*
X192347142Y-125572857D02*
X192394761Y-125620476D01*
X192442380Y-125763333D01*
X192442380Y-125858571D01*
X192394761Y-126001428D01*
X192299523Y-126096666D01*
X192204285Y-126144285D01*
X192013809Y-126191904D01*
X191870952Y-126191904D01*
X191680476Y-126144285D01*
X191585238Y-126096666D01*
X191490000Y-126001428D01*
X191442380Y-125858571D01*
X191442380Y-125763333D01*
X191490000Y-125620476D01*
X191537619Y-125572857D01*
X191442380Y-124668095D02*
X191442380Y-125144285D01*
X191918571Y-125191904D01*
X191870952Y-125144285D01*
X191823333Y-125049047D01*
X191823333Y-124810952D01*
X191870952Y-124715714D01*
X191918571Y-124668095D01*
X192013809Y-124620476D01*
X192251904Y-124620476D01*
X192347142Y-124668095D01*
X192394761Y-124715714D01*
X192442380Y-124810952D01*
X192442380Y-125049047D01*
X192394761Y-125144285D01*
X192347142Y-125191904D01*
X191537619Y-124239523D02*
X191490000Y-124191904D01*
X191442380Y-124096666D01*
X191442380Y-123858571D01*
X191490000Y-123763333D01*
X191537619Y-123715714D01*
X191632857Y-123668095D01*
X191728095Y-123668095D01*
X191870952Y-123715714D01*
X192442380Y-124287142D01*
X192442380Y-123668095D01*
X148787142Y-107472857D02*
X148834761Y-107520476D01*
X148882380Y-107663333D01*
X148882380Y-107758571D01*
X148834761Y-107901428D01*
X148739523Y-107996666D01*
X148644285Y-108044285D01*
X148453809Y-108091904D01*
X148310952Y-108091904D01*
X148120476Y-108044285D01*
X148025238Y-107996666D01*
X147930000Y-107901428D01*
X147882380Y-107758571D01*
X147882380Y-107663333D01*
X147930000Y-107520476D01*
X147977619Y-107472857D01*
X147882380Y-106568095D02*
X147882380Y-107044285D01*
X148358571Y-107091904D01*
X148310952Y-107044285D01*
X148263333Y-106949047D01*
X148263333Y-106710952D01*
X148310952Y-106615714D01*
X148358571Y-106568095D01*
X148453809Y-106520476D01*
X148691904Y-106520476D01*
X148787142Y-106568095D01*
X148834761Y-106615714D01*
X148882380Y-106710952D01*
X148882380Y-106949047D01*
X148834761Y-107044285D01*
X148787142Y-107091904D01*
X147882380Y-106187142D02*
X147882380Y-105568095D01*
X148263333Y-105901428D01*
X148263333Y-105758571D01*
X148310952Y-105663333D01*
X148358571Y-105615714D01*
X148453809Y-105568095D01*
X148691904Y-105568095D01*
X148787142Y-105615714D01*
X148834761Y-105663333D01*
X148882380Y-105758571D01*
X148882380Y-106044285D01*
X148834761Y-106139523D01*
X148787142Y-106187142D01*
X148767142Y-97062857D02*
X148814761Y-97110476D01*
X148862380Y-97253333D01*
X148862380Y-97348571D01*
X148814761Y-97491428D01*
X148719523Y-97586666D01*
X148624285Y-97634285D01*
X148433809Y-97681904D01*
X148290952Y-97681904D01*
X148100476Y-97634285D01*
X148005238Y-97586666D01*
X147910000Y-97491428D01*
X147862380Y-97348571D01*
X147862380Y-97253333D01*
X147910000Y-97110476D01*
X147957619Y-97062857D01*
X147862380Y-96158095D02*
X147862380Y-96634285D01*
X148338571Y-96681904D01*
X148290952Y-96634285D01*
X148243333Y-96539047D01*
X148243333Y-96300952D01*
X148290952Y-96205714D01*
X148338571Y-96158095D01*
X148433809Y-96110476D01*
X148671904Y-96110476D01*
X148767142Y-96158095D01*
X148814761Y-96205714D01*
X148862380Y-96300952D01*
X148862380Y-96539047D01*
X148814761Y-96634285D01*
X148767142Y-96681904D01*
X148195714Y-95253333D02*
X148862380Y-95253333D01*
X147814761Y-95491428D02*
X148529047Y-95729523D01*
X148529047Y-95110476D01*
X127362380Y-73166666D02*
X126886190Y-73500000D01*
X127362380Y-73738095D02*
X126362380Y-73738095D01*
X126362380Y-73357142D01*
X126410000Y-73261904D01*
X126457619Y-73214285D01*
X126552857Y-73166666D01*
X126695714Y-73166666D01*
X126790952Y-73214285D01*
X126838571Y-73261904D01*
X126886190Y-73357142D01*
X126886190Y-73738095D01*
X127362380Y-72214285D02*
X127362380Y-72785714D01*
X127362380Y-72500000D02*
X126362380Y-72500000D01*
X126505238Y-72595238D01*
X126600476Y-72690476D01*
X126648095Y-72785714D01*
X122262380Y-73166666D02*
X121786190Y-73500000D01*
X122262380Y-73738095D02*
X121262380Y-73738095D01*
X121262380Y-73357142D01*
X121310000Y-73261904D01*
X121357619Y-73214285D01*
X121452857Y-73166666D01*
X121595714Y-73166666D01*
X121690952Y-73214285D01*
X121738571Y-73261904D01*
X121786190Y-73357142D01*
X121786190Y-73738095D01*
X121357619Y-72785714D02*
X121310000Y-72738095D01*
X121262380Y-72642857D01*
X121262380Y-72404761D01*
X121310000Y-72309523D01*
X121357619Y-72261904D01*
X121452857Y-72214285D01*
X121548095Y-72214285D01*
X121690952Y-72261904D01*
X122262380Y-72833333D01*
X122262380Y-72214285D01*
X137562380Y-73176666D02*
X137086190Y-73510000D01*
X137562380Y-73748095D02*
X136562380Y-73748095D01*
X136562380Y-73367142D01*
X136610000Y-73271904D01*
X136657619Y-73224285D01*
X136752857Y-73176666D01*
X136895714Y-73176666D01*
X136990952Y-73224285D01*
X137038571Y-73271904D01*
X137086190Y-73367142D01*
X137086190Y-73748095D01*
X136562380Y-72843333D02*
X136562380Y-72224285D01*
X136943333Y-72557619D01*
X136943333Y-72414761D01*
X136990952Y-72319523D01*
X137038571Y-72271904D01*
X137133809Y-72224285D01*
X137371904Y-72224285D01*
X137467142Y-72271904D01*
X137514761Y-72319523D01*
X137562380Y-72414761D01*
X137562380Y-72700476D01*
X137514761Y-72795714D01*
X137467142Y-72843333D01*
X132472380Y-73166666D02*
X131996190Y-73500000D01*
X132472380Y-73738095D02*
X131472380Y-73738095D01*
X131472380Y-73357142D01*
X131520000Y-73261904D01*
X131567619Y-73214285D01*
X131662857Y-73166666D01*
X131805714Y-73166666D01*
X131900952Y-73214285D01*
X131948571Y-73261904D01*
X131996190Y-73357142D01*
X131996190Y-73738095D01*
X131805714Y-72309523D02*
X132472380Y-72309523D01*
X131424761Y-72547619D02*
X132139047Y-72785714D01*
X132139047Y-72166666D01*
X157852380Y-73642857D02*
X157376190Y-73976190D01*
X157852380Y-74214285D02*
X156852380Y-74214285D01*
X156852380Y-73833333D01*
X156900000Y-73738095D01*
X156947619Y-73690476D01*
X157042857Y-73642857D01*
X157185714Y-73642857D01*
X157280952Y-73690476D01*
X157328571Y-73738095D01*
X157376190Y-73833333D01*
X157376190Y-74214285D01*
X157852380Y-72690476D02*
X157852380Y-73261904D01*
X157852380Y-72976190D02*
X156852380Y-72976190D01*
X156995238Y-73071428D01*
X157090476Y-73166666D01*
X157138095Y-73261904D01*
X156852380Y-72357142D02*
X156852380Y-71738095D01*
X157233333Y-72071428D01*
X157233333Y-71928571D01*
X157280952Y-71833333D01*
X157328571Y-71785714D01*
X157423809Y-71738095D01*
X157661904Y-71738095D01*
X157757142Y-71785714D01*
X157804761Y-71833333D01*
X157852380Y-71928571D01*
X157852380Y-72214285D01*
X157804761Y-72309523D01*
X157757142Y-72357142D01*
X152762380Y-73632857D02*
X152286190Y-73966190D01*
X152762380Y-74204285D02*
X151762380Y-74204285D01*
X151762380Y-73823333D01*
X151810000Y-73728095D01*
X151857619Y-73680476D01*
X151952857Y-73632857D01*
X152095714Y-73632857D01*
X152190952Y-73680476D01*
X152238571Y-73728095D01*
X152286190Y-73823333D01*
X152286190Y-74204285D01*
X152762380Y-72680476D02*
X152762380Y-73251904D01*
X152762380Y-72966190D02*
X151762380Y-72966190D01*
X151905238Y-73061428D01*
X152000476Y-73156666D01*
X152048095Y-73251904D01*
X152095714Y-71823333D02*
X152762380Y-71823333D01*
X151714761Y-72061428D02*
X152429047Y-72299523D01*
X152429047Y-71680476D01*
X147662380Y-73642857D02*
X147186190Y-73976190D01*
X147662380Y-74214285D02*
X146662380Y-74214285D01*
X146662380Y-73833333D01*
X146710000Y-73738095D01*
X146757619Y-73690476D01*
X146852857Y-73642857D01*
X146995714Y-73642857D01*
X147090952Y-73690476D01*
X147138571Y-73738095D01*
X147186190Y-73833333D01*
X147186190Y-74214285D01*
X147662380Y-72690476D02*
X147662380Y-73261904D01*
X147662380Y-72976190D02*
X146662380Y-72976190D01*
X146805238Y-73071428D01*
X146900476Y-73166666D01*
X146948095Y-73261904D01*
X146662380Y-71785714D02*
X146662380Y-72261904D01*
X147138571Y-72309523D01*
X147090952Y-72261904D01*
X147043333Y-72166666D01*
X147043333Y-71928571D01*
X147090952Y-71833333D01*
X147138571Y-71785714D01*
X147233809Y-71738095D01*
X147471904Y-71738095D01*
X147567142Y-71785714D01*
X147614761Y-71833333D01*
X147662380Y-71928571D01*
X147662380Y-72166666D01*
X147614761Y-72261904D01*
X147567142Y-72309523D01*
X142562380Y-73642857D02*
X142086190Y-73976190D01*
X142562380Y-74214285D02*
X141562380Y-74214285D01*
X141562380Y-73833333D01*
X141610000Y-73738095D01*
X141657619Y-73690476D01*
X141752857Y-73642857D01*
X141895714Y-73642857D01*
X141990952Y-73690476D01*
X142038571Y-73738095D01*
X142086190Y-73833333D01*
X142086190Y-74214285D01*
X142562380Y-72690476D02*
X142562380Y-73261904D01*
X142562380Y-72976190D02*
X141562380Y-72976190D01*
X141705238Y-73071428D01*
X141800476Y-73166666D01*
X141848095Y-73261904D01*
X141562380Y-71833333D02*
X141562380Y-72023809D01*
X141610000Y-72119047D01*
X141657619Y-72166666D01*
X141800476Y-72261904D01*
X141990952Y-72309523D01*
X142371904Y-72309523D01*
X142467142Y-72261904D01*
X142514761Y-72214285D01*
X142562380Y-72119047D01*
X142562380Y-71928571D01*
X142514761Y-71833333D01*
X142467142Y-71785714D01*
X142371904Y-71738095D01*
X142133809Y-71738095D01*
X142038571Y-71785714D01*
X141990952Y-71833333D01*
X141943333Y-71928571D01*
X141943333Y-72119047D01*
X141990952Y-72214285D01*
X142038571Y-72261904D01*
X142133809Y-72309523D01*
X168012380Y-73642857D02*
X167536190Y-73976190D01*
X168012380Y-74214285D02*
X167012380Y-74214285D01*
X167012380Y-73833333D01*
X167060000Y-73738095D01*
X167107619Y-73690476D01*
X167202857Y-73642857D01*
X167345714Y-73642857D01*
X167440952Y-73690476D01*
X167488571Y-73738095D01*
X167536190Y-73833333D01*
X167536190Y-74214285D01*
X167107619Y-73261904D02*
X167060000Y-73214285D01*
X167012380Y-73119047D01*
X167012380Y-72880952D01*
X167060000Y-72785714D01*
X167107619Y-72738095D01*
X167202857Y-72690476D01*
X167298095Y-72690476D01*
X167440952Y-72738095D01*
X168012380Y-73309523D01*
X168012380Y-72690476D01*
X167012380Y-71785714D02*
X167012380Y-72261904D01*
X167488571Y-72309523D01*
X167440952Y-72261904D01*
X167393333Y-72166666D01*
X167393333Y-71928571D01*
X167440952Y-71833333D01*
X167488571Y-71785714D01*
X167583809Y-71738095D01*
X167821904Y-71738095D01*
X167917142Y-71785714D01*
X167964761Y-71833333D01*
X168012380Y-71928571D01*
X168012380Y-72166666D01*
X167964761Y-72261904D01*
X167917142Y-72309523D01*
X162992380Y-73642857D02*
X162516190Y-73976190D01*
X162992380Y-74214285D02*
X161992380Y-74214285D01*
X161992380Y-73833333D01*
X162040000Y-73738095D01*
X162087619Y-73690476D01*
X162182857Y-73642857D01*
X162325714Y-73642857D01*
X162420952Y-73690476D01*
X162468571Y-73738095D01*
X162516190Y-73833333D01*
X162516190Y-74214285D01*
X162087619Y-73261904D02*
X162040000Y-73214285D01*
X161992380Y-73119047D01*
X161992380Y-72880952D01*
X162040000Y-72785714D01*
X162087619Y-72738095D01*
X162182857Y-72690476D01*
X162278095Y-72690476D01*
X162420952Y-72738095D01*
X162992380Y-73309523D01*
X162992380Y-72690476D01*
X161992380Y-71833333D02*
X161992380Y-72023809D01*
X162040000Y-72119047D01*
X162087619Y-72166666D01*
X162230476Y-72261904D01*
X162420952Y-72309523D01*
X162801904Y-72309523D01*
X162897142Y-72261904D01*
X162944761Y-72214285D01*
X162992380Y-72119047D01*
X162992380Y-71928571D01*
X162944761Y-71833333D01*
X162897142Y-71785714D01*
X162801904Y-71738095D01*
X162563809Y-71738095D01*
X162468571Y-71785714D01*
X162420952Y-71833333D01*
X162373333Y-71928571D01*
X162373333Y-72119047D01*
X162420952Y-72214285D01*
X162468571Y-72261904D01*
X162563809Y-72309523D01*
X178182380Y-73642857D02*
X177706190Y-73976190D01*
X178182380Y-74214285D02*
X177182380Y-74214285D01*
X177182380Y-73833333D01*
X177230000Y-73738095D01*
X177277619Y-73690476D01*
X177372857Y-73642857D01*
X177515714Y-73642857D01*
X177610952Y-73690476D01*
X177658571Y-73738095D01*
X177706190Y-73833333D01*
X177706190Y-74214285D01*
X177277619Y-73261904D02*
X177230000Y-73214285D01*
X177182380Y-73119047D01*
X177182380Y-72880952D01*
X177230000Y-72785714D01*
X177277619Y-72738095D01*
X177372857Y-72690476D01*
X177468095Y-72690476D01*
X177610952Y-72738095D01*
X178182380Y-73309523D01*
X178182380Y-72690476D01*
X177182380Y-72357142D02*
X177182380Y-71690476D01*
X178182380Y-72119047D01*
X173062380Y-73642857D02*
X172586190Y-73976190D01*
X173062380Y-74214285D02*
X172062380Y-74214285D01*
X172062380Y-73833333D01*
X172110000Y-73738095D01*
X172157619Y-73690476D01*
X172252857Y-73642857D01*
X172395714Y-73642857D01*
X172490952Y-73690476D01*
X172538571Y-73738095D01*
X172586190Y-73833333D01*
X172586190Y-74214285D01*
X172157619Y-73261904D02*
X172110000Y-73214285D01*
X172062380Y-73119047D01*
X172062380Y-72880952D01*
X172110000Y-72785714D01*
X172157619Y-72738095D01*
X172252857Y-72690476D01*
X172348095Y-72690476D01*
X172490952Y-72738095D01*
X173062380Y-73309523D01*
X173062380Y-72690476D01*
X172490952Y-72119047D02*
X172443333Y-72214285D01*
X172395714Y-72261904D01*
X172300476Y-72309523D01*
X172252857Y-72309523D01*
X172157619Y-72261904D01*
X172110000Y-72214285D01*
X172062380Y-72119047D01*
X172062380Y-71928571D01*
X172110000Y-71833333D01*
X172157619Y-71785714D01*
X172252857Y-71738095D01*
X172300476Y-71738095D01*
X172395714Y-71785714D01*
X172443333Y-71833333D01*
X172490952Y-71928571D01*
X172490952Y-72119047D01*
X172538571Y-72214285D01*
X172586190Y-72261904D01*
X172681428Y-72309523D01*
X172871904Y-72309523D01*
X172967142Y-72261904D01*
X173014761Y-72214285D01*
X173062380Y-72119047D01*
X173062380Y-71928571D01*
X173014761Y-71833333D01*
X172967142Y-71785714D01*
X172871904Y-71738095D01*
X172681428Y-71738095D01*
X172586190Y-71785714D01*
X172538571Y-71833333D01*
X172490952Y-71928571D01*
X104042380Y-132332857D02*
X103566190Y-132666190D01*
X104042380Y-132904285D02*
X103042380Y-132904285D01*
X103042380Y-132523333D01*
X103090000Y-132428095D01*
X103137619Y-132380476D01*
X103232857Y-132332857D01*
X103375714Y-132332857D01*
X103470952Y-132380476D01*
X103518571Y-132428095D01*
X103566190Y-132523333D01*
X103566190Y-132904285D01*
X103375714Y-131475714D02*
X104042380Y-131475714D01*
X102994761Y-131713809D02*
X103709047Y-131951904D01*
X103709047Y-131332857D01*
X103042380Y-130761428D02*
X103042380Y-130666190D01*
X103090000Y-130570952D01*
X103137619Y-130523333D01*
X103232857Y-130475714D01*
X103423333Y-130428095D01*
X103661428Y-130428095D01*
X103851904Y-130475714D01*
X103947142Y-130523333D01*
X103994761Y-130570952D01*
X104042380Y-130666190D01*
X104042380Y-130761428D01*
X103994761Y-130856666D01*
X103947142Y-130904285D01*
X103851904Y-130951904D01*
X103661428Y-130999523D01*
X103423333Y-130999523D01*
X103232857Y-130951904D01*
X103137619Y-130904285D01*
X103090000Y-130856666D01*
X103042380Y-130761428D01*
X104052380Y-115352857D02*
X103576190Y-115686190D01*
X104052380Y-115924285D02*
X103052380Y-115924285D01*
X103052380Y-115543333D01*
X103100000Y-115448095D01*
X103147619Y-115400476D01*
X103242857Y-115352857D01*
X103385714Y-115352857D01*
X103480952Y-115400476D01*
X103528571Y-115448095D01*
X103576190Y-115543333D01*
X103576190Y-115924285D01*
X103385714Y-114495714D02*
X104052380Y-114495714D01*
X103004761Y-114733809D02*
X103719047Y-114971904D01*
X103719047Y-114352857D01*
X104052380Y-113448095D02*
X104052380Y-114019523D01*
X104052380Y-113733809D02*
X103052380Y-113733809D01*
X103195238Y-113829047D01*
X103290476Y-113924285D01*
X103338095Y-114019523D01*
X104032380Y-98242857D02*
X103556190Y-98576190D01*
X104032380Y-98814285D02*
X103032380Y-98814285D01*
X103032380Y-98433333D01*
X103080000Y-98338095D01*
X103127619Y-98290476D01*
X103222857Y-98242857D01*
X103365714Y-98242857D01*
X103460952Y-98290476D01*
X103508571Y-98338095D01*
X103556190Y-98433333D01*
X103556190Y-98814285D01*
X103365714Y-97385714D02*
X104032380Y-97385714D01*
X102984761Y-97623809D02*
X103699047Y-97861904D01*
X103699047Y-97242857D01*
X103127619Y-96909523D02*
X103080000Y-96861904D01*
X103032380Y-96766666D01*
X103032380Y-96528571D01*
X103080000Y-96433333D01*
X103127619Y-96385714D01*
X103222857Y-96338095D01*
X103318095Y-96338095D01*
X103460952Y-96385714D01*
X104032380Y-96957142D01*
X104032380Y-96338095D01*
X189616666Y-112442380D02*
X189616666Y-113156666D01*
X189569047Y-113299523D01*
X189473809Y-113394761D01*
X189330952Y-113442380D01*
X189235714Y-113442380D01*
X190045238Y-112537619D02*
X190092857Y-112490000D01*
X190188095Y-112442380D01*
X190426190Y-112442380D01*
X190521428Y-112490000D01*
X190569047Y-112537619D01*
X190616666Y-112632857D01*
X190616666Y-112728095D01*
X190569047Y-112870952D01*
X189997619Y-113442380D01*
X190616666Y-113442380D01*
X115337142Y-72812857D02*
X115384761Y-72860476D01*
X115432380Y-73003333D01*
X115432380Y-73098571D01*
X115384761Y-73241428D01*
X115289523Y-73336666D01*
X115194285Y-73384285D01*
X115003809Y-73431904D01*
X114860952Y-73431904D01*
X114670476Y-73384285D01*
X114575238Y-73336666D01*
X114480000Y-73241428D01*
X114432380Y-73098571D01*
X114432380Y-73003333D01*
X114480000Y-72860476D01*
X114527619Y-72812857D01*
X114432380Y-71908095D02*
X114432380Y-72384285D01*
X114908571Y-72431904D01*
X114860952Y-72384285D01*
X114813333Y-72289047D01*
X114813333Y-72050952D01*
X114860952Y-71955714D01*
X114908571Y-71908095D01*
X115003809Y-71860476D01*
X115241904Y-71860476D01*
X115337142Y-71908095D01*
X115384761Y-71955714D01*
X115432380Y-72050952D01*
X115432380Y-72289047D01*
X115384761Y-72384285D01*
X115337142Y-72431904D01*
X114432380Y-70955714D02*
X114432380Y-71431904D01*
X114908571Y-71479523D01*
X114860952Y-71431904D01*
X114813333Y-71336666D01*
X114813333Y-71098571D01*
X114860952Y-71003333D01*
X114908571Y-70955714D01*
X115003809Y-70908095D01*
X115241904Y-70908095D01*
X115337142Y-70955714D01*
X115384761Y-71003333D01*
X115432380Y-71098571D01*
X115432380Y-71336666D01*
X115384761Y-71431904D01*
X115337142Y-71479523D01*
X129317857Y-76847857D02*
X129282142Y-76883571D01*
X129175000Y-76919285D01*
X129103571Y-76919285D01*
X128996428Y-76883571D01*
X128925000Y-76812142D01*
X128889285Y-76740714D01*
X128853571Y-76597857D01*
X128853571Y-76490714D01*
X128889285Y-76347857D01*
X128925000Y-76276428D01*
X128996428Y-76205000D01*
X129103571Y-76169285D01*
X129175000Y-76169285D01*
X129282142Y-76205000D01*
X129317857Y-76240714D01*
X129996428Y-76169285D02*
X129639285Y-76169285D01*
X129603571Y-76526428D01*
X129639285Y-76490714D01*
X129710714Y-76455000D01*
X129889285Y-76455000D01*
X129960714Y-76490714D01*
X129996428Y-76526428D01*
X130032142Y-76597857D01*
X130032142Y-76776428D01*
X129996428Y-76847857D01*
X129960714Y-76883571D01*
X129889285Y-76919285D01*
X129710714Y-76919285D01*
X129639285Y-76883571D01*
X129603571Y-76847857D01*
X130675000Y-76169285D02*
X130532142Y-76169285D01*
X130460714Y-76205000D01*
X130425000Y-76240714D01*
X130353571Y-76347857D01*
X130317857Y-76490714D01*
X130317857Y-76776428D01*
X130353571Y-76847857D01*
X130389285Y-76883571D01*
X130460714Y-76919285D01*
X130603571Y-76919285D01*
X130675000Y-76883571D01*
X130710714Y-76847857D01*
X130746428Y-76776428D01*
X130746428Y-76597857D01*
X130710714Y-76526428D01*
X130675000Y-76490714D01*
X130603571Y-76455000D01*
X130460714Y-76455000D01*
X130389285Y-76490714D01*
X130353571Y-76526428D01*
X130317857Y-76597857D01*
X149237857Y-76847857D02*
X149202142Y-76883571D01*
X149095000Y-76919285D01*
X149023571Y-76919285D01*
X148916428Y-76883571D01*
X148845000Y-76812142D01*
X148809285Y-76740714D01*
X148773571Y-76597857D01*
X148773571Y-76490714D01*
X148809285Y-76347857D01*
X148845000Y-76276428D01*
X148916428Y-76205000D01*
X149023571Y-76169285D01*
X149095000Y-76169285D01*
X149202142Y-76205000D01*
X149237857Y-76240714D01*
X149916428Y-76169285D02*
X149559285Y-76169285D01*
X149523571Y-76526428D01*
X149559285Y-76490714D01*
X149630714Y-76455000D01*
X149809285Y-76455000D01*
X149880714Y-76490714D01*
X149916428Y-76526428D01*
X149952142Y-76597857D01*
X149952142Y-76776428D01*
X149916428Y-76847857D01*
X149880714Y-76883571D01*
X149809285Y-76919285D01*
X149630714Y-76919285D01*
X149559285Y-76883571D01*
X149523571Y-76847857D01*
X150202142Y-76169285D02*
X150702142Y-76169285D01*
X150380714Y-76919285D01*
X169567857Y-76867857D02*
X169532142Y-76903571D01*
X169425000Y-76939285D01*
X169353571Y-76939285D01*
X169246428Y-76903571D01*
X169175000Y-76832142D01*
X169139285Y-76760714D01*
X169103571Y-76617857D01*
X169103571Y-76510714D01*
X169139285Y-76367857D01*
X169175000Y-76296428D01*
X169246428Y-76225000D01*
X169353571Y-76189285D01*
X169425000Y-76189285D01*
X169532142Y-76225000D01*
X169567857Y-76260714D01*
X170246428Y-76189285D02*
X169889285Y-76189285D01*
X169853571Y-76546428D01*
X169889285Y-76510714D01*
X169960714Y-76475000D01*
X170139285Y-76475000D01*
X170210714Y-76510714D01*
X170246428Y-76546428D01*
X170282142Y-76617857D01*
X170282142Y-76796428D01*
X170246428Y-76867857D01*
X170210714Y-76903571D01*
X170139285Y-76939285D01*
X169960714Y-76939285D01*
X169889285Y-76903571D01*
X169853571Y-76867857D01*
X170710714Y-76510714D02*
X170639285Y-76475000D01*
X170603571Y-76439285D01*
X170567857Y-76367857D01*
X170567857Y-76332142D01*
X170603571Y-76260714D01*
X170639285Y-76225000D01*
X170710714Y-76189285D01*
X170853571Y-76189285D01*
X170925000Y-76225000D01*
X170960714Y-76260714D01*
X170996428Y-76332142D01*
X170996428Y-76367857D01*
X170960714Y-76439285D01*
X170925000Y-76475000D01*
X170853571Y-76510714D01*
X170710714Y-76510714D01*
X170639285Y-76546428D01*
X170603571Y-76582142D01*
X170567857Y-76653571D01*
X170567857Y-76796428D01*
X170603571Y-76867857D01*
X170639285Y-76903571D01*
X170710714Y-76939285D01*
X170853571Y-76939285D01*
X170925000Y-76903571D01*
X170960714Y-76867857D01*
X170996428Y-76796428D01*
X170996428Y-76653571D01*
X170960714Y-76582142D01*
X170925000Y-76546428D01*
X170853571Y-76510714D01*
X179523809Y-76426190D02*
X179523809Y-76902380D01*
X179190476Y-75902380D02*
X179523809Y-76426190D01*
X179857142Y-75902380D01*
X180142857Y-75997619D02*
X180190476Y-75950000D01*
X180285714Y-75902380D01*
X180523809Y-75902380D01*
X180619047Y-75950000D01*
X180666666Y-75997619D01*
X180714285Y-76092857D01*
X180714285Y-76188095D01*
X180666666Y-76330952D01*
X180095238Y-76902380D01*
X180714285Y-76902380D01*
X175502380Y-91432857D02*
X175026190Y-91766190D01*
X175502380Y-92004285D02*
X174502380Y-92004285D01*
X174502380Y-91623333D01*
X174550000Y-91528095D01*
X174597619Y-91480476D01*
X174692857Y-91432857D01*
X174835714Y-91432857D01*
X174930952Y-91480476D01*
X174978571Y-91528095D01*
X175026190Y-91623333D01*
X175026190Y-92004285D01*
X174502380Y-90528095D02*
X174502380Y-91004285D01*
X174978571Y-91051904D01*
X174930952Y-91004285D01*
X174883333Y-90909047D01*
X174883333Y-90670952D01*
X174930952Y-90575714D01*
X174978571Y-90528095D01*
X175073809Y-90480476D01*
X175311904Y-90480476D01*
X175407142Y-90528095D01*
X175454761Y-90575714D01*
X175502380Y-90670952D01*
X175502380Y-90909047D01*
X175454761Y-91004285D01*
X175407142Y-91051904D01*
X174502380Y-89575714D02*
X174502380Y-90051904D01*
X174978571Y-90099523D01*
X174930952Y-90051904D01*
X174883333Y-89956666D01*
X174883333Y-89718571D01*
X174930952Y-89623333D01*
X174978571Y-89575714D01*
X175073809Y-89528095D01*
X175311904Y-89528095D01*
X175407142Y-89575714D01*
X175454761Y-89623333D01*
X175502380Y-89718571D01*
X175502380Y-89956666D01*
X175454761Y-90051904D01*
X175407142Y-90099523D01*
X178397142Y-95122380D02*
X178063809Y-94646190D01*
X177825714Y-95122380D02*
X177825714Y-94122380D01*
X178206666Y-94122380D01*
X178301904Y-94170000D01*
X178349523Y-94217619D01*
X178397142Y-94312857D01*
X178397142Y-94455714D01*
X178349523Y-94550952D01*
X178301904Y-94598571D01*
X178206666Y-94646190D01*
X177825714Y-94646190D01*
X179301904Y-94122380D02*
X178825714Y-94122380D01*
X178778095Y-94598571D01*
X178825714Y-94550952D01*
X178920952Y-94503333D01*
X179159047Y-94503333D01*
X179254285Y-94550952D01*
X179301904Y-94598571D01*
X179349523Y-94693809D01*
X179349523Y-94931904D01*
X179301904Y-95027142D01*
X179254285Y-95074761D01*
X179159047Y-95122380D01*
X178920952Y-95122380D01*
X178825714Y-95074761D01*
X178778095Y-95027142D01*
X179682857Y-94122380D02*
X180349523Y-94122380D01*
X179920952Y-95122380D01*
X183453809Y-105166190D02*
X183453809Y-105642380D01*
X183120476Y-104642380D02*
X183453809Y-105166190D01*
X183787142Y-104642380D01*
X184644285Y-105642380D02*
X184072857Y-105642380D01*
X184358571Y-105642380D02*
X184358571Y-104642380D01*
X184263333Y-104785238D01*
X184168095Y-104880476D01*
X184072857Y-104928095D01*
X166257142Y-91742857D02*
X166304761Y-91790476D01*
X166352380Y-91933333D01*
X166352380Y-92028571D01*
X166304761Y-92171428D01*
X166209523Y-92266666D01*
X166114285Y-92314285D01*
X165923809Y-92361904D01*
X165780952Y-92361904D01*
X165590476Y-92314285D01*
X165495238Y-92266666D01*
X165400000Y-92171428D01*
X165352380Y-92028571D01*
X165352380Y-91933333D01*
X165400000Y-91790476D01*
X165447619Y-91742857D01*
X165352380Y-90885714D02*
X165352380Y-91076190D01*
X165400000Y-91171428D01*
X165447619Y-91219047D01*
X165590476Y-91314285D01*
X165780952Y-91361904D01*
X166161904Y-91361904D01*
X166257142Y-91314285D01*
X166304761Y-91266666D01*
X166352380Y-91171428D01*
X166352380Y-90980952D01*
X166304761Y-90885714D01*
X166257142Y-90838095D01*
X166161904Y-90790476D01*
X165923809Y-90790476D01*
X165828571Y-90838095D01*
X165780952Y-90885714D01*
X165733333Y-90980952D01*
X165733333Y-91171428D01*
X165780952Y-91266666D01*
X165828571Y-91314285D01*
X165923809Y-91361904D01*
X165352380Y-90171428D02*
X165352380Y-90076190D01*
X165400000Y-89980952D01*
X165447619Y-89933333D01*
X165542857Y-89885714D01*
X165733333Y-89838095D01*
X165971428Y-89838095D01*
X166161904Y-89885714D01*
X166257142Y-89933333D01*
X166304761Y-89980952D01*
X166352380Y-90076190D01*
X166352380Y-90171428D01*
X166304761Y-90266666D01*
X166257142Y-90314285D01*
X166161904Y-90361904D01*
X165971428Y-90409523D01*
X165733333Y-90409523D01*
X165542857Y-90361904D01*
X165447619Y-90314285D01*
X165400000Y-90266666D01*
X165352380Y-90171428D01*
X123040476Y-146452380D02*
X123040476Y-147166666D01*
X122992857Y-147309523D01*
X122897619Y-147404761D01*
X122754761Y-147452380D01*
X122659523Y-147452380D01*
X124040476Y-147452380D02*
X123469047Y-147452380D01*
X123754761Y-147452380D02*
X123754761Y-146452380D01*
X123659523Y-146595238D01*
X123564285Y-146690476D01*
X123469047Y-146738095D01*
X124373809Y-146452380D02*
X124992857Y-146452380D01*
X124659523Y-146833333D01*
X124802380Y-146833333D01*
X124897619Y-146880952D01*
X124945238Y-146928571D01*
X124992857Y-147023809D01*
X124992857Y-147261904D01*
X124945238Y-147357142D01*
X124897619Y-147404761D01*
X124802380Y-147452380D01*
X124516666Y-147452380D01*
X124421428Y-147404761D01*
X124373809Y-147357142D01*
X126452380Y-139145238D02*
X125976190Y-139478571D01*
X126452380Y-139716666D02*
X125452380Y-139716666D01*
X125452380Y-139335714D01*
X125500000Y-139240476D01*
X125547619Y-139192857D01*
X125642857Y-139145238D01*
X125785714Y-139145238D01*
X125880952Y-139192857D01*
X125928571Y-139240476D01*
X125976190Y-139335714D01*
X125976190Y-139716666D01*
X125452380Y-138859523D02*
X126452380Y-138526190D01*
X125452380Y-138192857D01*
X126452380Y-137335714D02*
X126452380Y-137907142D01*
X126452380Y-137621428D02*
X125452380Y-137621428D01*
X125595238Y-137716666D01*
X125690476Y-137811904D01*
X125738095Y-137907142D01*
X156598095Y-137262380D02*
X156598095Y-138071904D01*
X156645714Y-138167142D01*
X156693333Y-138214761D01*
X156788571Y-138262380D01*
X156979047Y-138262380D01*
X157074285Y-138214761D01*
X157121904Y-138167142D01*
X157169523Y-138071904D01*
X157169523Y-137262380D01*
X157788571Y-137690952D02*
X157693333Y-137643333D01*
X157645714Y-137595714D01*
X157598095Y-137500476D01*
X157598095Y-137452857D01*
X157645714Y-137357619D01*
X157693333Y-137310000D01*
X157788571Y-137262380D01*
X157979047Y-137262380D01*
X158074285Y-137310000D01*
X158121904Y-137357619D01*
X158169523Y-137452857D01*
X158169523Y-137500476D01*
X158121904Y-137595714D01*
X158074285Y-137643333D01*
X157979047Y-137690952D01*
X157788571Y-137690952D01*
X157693333Y-137738571D01*
X157645714Y-137786190D01*
X157598095Y-137881428D01*
X157598095Y-138071904D01*
X157645714Y-138167142D01*
X157693333Y-138214761D01*
X157788571Y-138262380D01*
X157979047Y-138262380D01*
X158074285Y-138214761D01*
X158121904Y-138167142D01*
X158169523Y-138071904D01*
X158169523Y-137881428D01*
X158121904Y-137786190D01*
X158074285Y-137738571D01*
X157979047Y-137690952D01*
X161512380Y-117578095D02*
X160512380Y-117578095D01*
X160512380Y-117340000D01*
X160560000Y-117197142D01*
X160655238Y-117101904D01*
X160750476Y-117054285D01*
X160940952Y-117006666D01*
X161083809Y-117006666D01*
X161274285Y-117054285D01*
X161369523Y-117101904D01*
X161464761Y-117197142D01*
X161512380Y-117340000D01*
X161512380Y-117578095D01*
X161512380Y-116054285D02*
X161512380Y-116625714D01*
X161512380Y-116340000D02*
X160512380Y-116340000D01*
X160655238Y-116435238D01*
X160750476Y-116530476D01*
X160798095Y-116625714D01*
X163572380Y-117578095D02*
X162572380Y-117578095D01*
X162572380Y-117340000D01*
X162620000Y-117197142D01*
X162715238Y-117101904D01*
X162810476Y-117054285D01*
X163000952Y-117006666D01*
X163143809Y-117006666D01*
X163334285Y-117054285D01*
X163429523Y-117101904D01*
X163524761Y-117197142D01*
X163572380Y-117340000D01*
X163572380Y-117578095D01*
X162667619Y-116625714D02*
X162620000Y-116578095D01*
X162572380Y-116482857D01*
X162572380Y-116244761D01*
X162620000Y-116149523D01*
X162667619Y-116101904D01*
X162762857Y-116054285D01*
X162858095Y-116054285D01*
X163000952Y-116101904D01*
X163572380Y-116673333D01*
X163572380Y-116054285D01*
X134838571Y-140343333D02*
X134838571Y-140676666D01*
X135362380Y-140676666D02*
X134362380Y-140676666D01*
X134362380Y-140200476D01*
X135362380Y-139295714D02*
X135362380Y-139867142D01*
X135362380Y-139581428D02*
X134362380Y-139581428D01*
X134505238Y-139676666D01*
X134600476Y-139771904D01*
X134648095Y-139867142D01*
X139958571Y-140333333D02*
X139958571Y-140666666D01*
X140482380Y-140666666D02*
X139482380Y-140666666D01*
X139482380Y-140190476D01*
X139577619Y-139857142D02*
X139530000Y-139809523D01*
X139482380Y-139714285D01*
X139482380Y-139476190D01*
X139530000Y-139380952D01*
X139577619Y-139333333D01*
X139672857Y-139285714D01*
X139768095Y-139285714D01*
X139910952Y-139333333D01*
X140482380Y-139904761D01*
X140482380Y-139285714D01*
X144998571Y-140353333D02*
X144998571Y-140686666D01*
X145522380Y-140686666D02*
X144522380Y-140686666D01*
X144522380Y-140210476D01*
X144522380Y-139924761D02*
X144522380Y-139305714D01*
X144903333Y-139639047D01*
X144903333Y-139496190D01*
X144950952Y-139400952D01*
X144998571Y-139353333D01*
X145093809Y-139305714D01*
X145331904Y-139305714D01*
X145427142Y-139353333D01*
X145474761Y-139400952D01*
X145522380Y-139496190D01*
X145522380Y-139781904D01*
X145474761Y-139877142D01*
X145427142Y-139924761D01*
X189204285Y-87938571D02*
X189347142Y-87986190D01*
X189394761Y-88033809D01*
X189442380Y-88129047D01*
X189442380Y-88271904D01*
X189394761Y-88367142D01*
X189347142Y-88414761D01*
X189251904Y-88462380D01*
X188870952Y-88462380D01*
X188870952Y-87462380D01*
X189204285Y-87462380D01*
X189299523Y-87510000D01*
X189347142Y-87557619D01*
X189394761Y-87652857D01*
X189394761Y-87748095D01*
X189347142Y-87843333D01*
X189299523Y-87890952D01*
X189204285Y-87938571D01*
X188870952Y-87938571D01*
X189728095Y-87462380D02*
X190299523Y-87462380D01*
X190013809Y-88462380D02*
X190013809Y-87462380D01*
X191156666Y-88462380D02*
X190585238Y-88462380D01*
X190870952Y-88462380D02*
X190870952Y-87462380D01*
X190775714Y-87605238D01*
X190680476Y-87700476D01*
X190585238Y-87748095D01*
X190781428Y-84080952D02*
X190781428Y-83319047D01*
X191162380Y-83700000D02*
X190400476Y-83700000D01*
X167172380Y-147348095D02*
X166172380Y-147348095D01*
X166172380Y-147110000D01*
X166220000Y-146967142D01*
X166315238Y-146871904D01*
X166410476Y-146824285D01*
X166600952Y-146776666D01*
X166743809Y-146776666D01*
X166934285Y-146824285D01*
X167029523Y-146871904D01*
X167124761Y-146967142D01*
X167172380Y-147110000D01*
X167172380Y-147348095D01*
X166172380Y-146443333D02*
X166172380Y-145824285D01*
X166553333Y-146157619D01*
X166553333Y-146014761D01*
X166600952Y-145919523D01*
X166648571Y-145871904D01*
X166743809Y-145824285D01*
X166981904Y-145824285D01*
X167077142Y-145871904D01*
X167124761Y-145919523D01*
X167172380Y-146014761D01*
X167172380Y-146300476D01*
X167124761Y-146395714D01*
X167077142Y-146443333D01*
X168712380Y-147358095D02*
X167712380Y-147358095D01*
X167712380Y-147120000D01*
X167760000Y-146977142D01*
X167855238Y-146881904D01*
X167950476Y-146834285D01*
X168140952Y-146786666D01*
X168283809Y-146786666D01*
X168474285Y-146834285D01*
X168569523Y-146881904D01*
X168664761Y-146977142D01*
X168712380Y-147120000D01*
X168712380Y-147358095D01*
X168045714Y-145929523D02*
X168712380Y-145929523D01*
X167664761Y-146167619D02*
X168379047Y-146405714D01*
X168379047Y-145786666D01*
X167292380Y-135602857D02*
X166816190Y-135936190D01*
X167292380Y-136174285D02*
X166292380Y-136174285D01*
X166292380Y-135793333D01*
X166340000Y-135698095D01*
X166387619Y-135650476D01*
X166482857Y-135602857D01*
X166625714Y-135602857D01*
X166720952Y-135650476D01*
X166768571Y-135698095D01*
X166816190Y-135793333D01*
X166816190Y-136174285D01*
X166292380Y-134698095D02*
X166292380Y-135174285D01*
X166768571Y-135221904D01*
X166720952Y-135174285D01*
X166673333Y-135079047D01*
X166673333Y-134840952D01*
X166720952Y-134745714D01*
X166768571Y-134698095D01*
X166863809Y-134650476D01*
X167101904Y-134650476D01*
X167197142Y-134698095D01*
X167244761Y-134745714D01*
X167292380Y-134840952D01*
X167292380Y-135079047D01*
X167244761Y-135174285D01*
X167197142Y-135221904D01*
X166625714Y-133793333D02*
X167292380Y-133793333D01*
X166244761Y-134031428D02*
X166959047Y-134269523D01*
X166959047Y-133650476D01*
X168682380Y-135582857D02*
X168206190Y-135916190D01*
X168682380Y-136154285D02*
X167682380Y-136154285D01*
X167682380Y-135773333D01*
X167730000Y-135678095D01*
X167777619Y-135630476D01*
X167872857Y-135582857D01*
X168015714Y-135582857D01*
X168110952Y-135630476D01*
X168158571Y-135678095D01*
X168206190Y-135773333D01*
X168206190Y-136154285D01*
X167682380Y-134678095D02*
X167682380Y-135154285D01*
X168158571Y-135201904D01*
X168110952Y-135154285D01*
X168063333Y-135059047D01*
X168063333Y-134820952D01*
X168110952Y-134725714D01*
X168158571Y-134678095D01*
X168253809Y-134630476D01*
X168491904Y-134630476D01*
X168587142Y-134678095D01*
X168634761Y-134725714D01*
X168682380Y-134820952D01*
X168682380Y-135059047D01*
X168634761Y-135154285D01*
X168587142Y-135201904D01*
X167682380Y-133773333D02*
X167682380Y-133963809D01*
X167730000Y-134059047D01*
X167777619Y-134106666D01*
X167920476Y-134201904D01*
X168110952Y-134249523D01*
X168491904Y-134249523D01*
X168587142Y-134201904D01*
X168634761Y-134154285D01*
X168682380Y-134059047D01*
X168682380Y-133868571D01*
X168634761Y-133773333D01*
X168587142Y-133725714D01*
X168491904Y-133678095D01*
X168253809Y-133678095D01*
X168158571Y-133725714D01*
X168110952Y-133773333D01*
X168063333Y-133868571D01*
X168063333Y-134059047D01*
X168110952Y-134154285D01*
X168158571Y-134201904D01*
X168253809Y-134249523D01*
X163682380Y-135602857D02*
X163206190Y-135936190D01*
X163682380Y-136174285D02*
X162682380Y-136174285D01*
X162682380Y-135793333D01*
X162730000Y-135698095D01*
X162777619Y-135650476D01*
X162872857Y-135602857D01*
X163015714Y-135602857D01*
X163110952Y-135650476D01*
X163158571Y-135698095D01*
X163206190Y-135793333D01*
X163206190Y-136174285D01*
X162682380Y-134698095D02*
X162682380Y-135174285D01*
X163158571Y-135221904D01*
X163110952Y-135174285D01*
X163063333Y-135079047D01*
X163063333Y-134840952D01*
X163110952Y-134745714D01*
X163158571Y-134698095D01*
X163253809Y-134650476D01*
X163491904Y-134650476D01*
X163587142Y-134698095D01*
X163634761Y-134745714D01*
X163682380Y-134840952D01*
X163682380Y-135079047D01*
X163634761Y-135174285D01*
X163587142Y-135221904D01*
X163110952Y-134079047D02*
X163063333Y-134174285D01*
X163015714Y-134221904D01*
X162920476Y-134269523D01*
X162872857Y-134269523D01*
X162777619Y-134221904D01*
X162730000Y-134174285D01*
X162682380Y-134079047D01*
X162682380Y-133888571D01*
X162730000Y-133793333D01*
X162777619Y-133745714D01*
X162872857Y-133698095D01*
X162920476Y-133698095D01*
X163015714Y-133745714D01*
X163063333Y-133793333D01*
X163110952Y-133888571D01*
X163110952Y-134079047D01*
X163158571Y-134174285D01*
X163206190Y-134221904D01*
X163301428Y-134269523D01*
X163491904Y-134269523D01*
X163587142Y-134221904D01*
X163634761Y-134174285D01*
X163682380Y-134079047D01*
X163682380Y-133888571D01*
X163634761Y-133793333D01*
X163587142Y-133745714D01*
X163491904Y-133698095D01*
X163301428Y-133698095D01*
X163206190Y-133745714D01*
X163158571Y-133793333D01*
X163110952Y-133888571D01*
X165202380Y-135622857D02*
X164726190Y-135956190D01*
X165202380Y-136194285D02*
X164202380Y-136194285D01*
X164202380Y-135813333D01*
X164250000Y-135718095D01*
X164297619Y-135670476D01*
X164392857Y-135622857D01*
X164535714Y-135622857D01*
X164630952Y-135670476D01*
X164678571Y-135718095D01*
X164726190Y-135813333D01*
X164726190Y-136194285D01*
X164202380Y-134718095D02*
X164202380Y-135194285D01*
X164678571Y-135241904D01*
X164630952Y-135194285D01*
X164583333Y-135099047D01*
X164583333Y-134860952D01*
X164630952Y-134765714D01*
X164678571Y-134718095D01*
X164773809Y-134670476D01*
X165011904Y-134670476D01*
X165107142Y-134718095D01*
X165154761Y-134765714D01*
X165202380Y-134860952D01*
X165202380Y-135099047D01*
X165154761Y-135194285D01*
X165107142Y-135241904D01*
X165202380Y-134194285D02*
X165202380Y-134003809D01*
X165154761Y-133908571D01*
X165107142Y-133860952D01*
X164964285Y-133765714D01*
X164773809Y-133718095D01*
X164392857Y-133718095D01*
X164297619Y-133765714D01*
X164250000Y-133813333D01*
X164202380Y-133908571D01*
X164202380Y-134099047D01*
X164250000Y-134194285D01*
X164297619Y-134241904D01*
X164392857Y-134289523D01*
X164630952Y-134289523D01*
X164726190Y-134241904D01*
X164773809Y-134194285D01*
X164821428Y-134099047D01*
X164821428Y-133908571D01*
X164773809Y-133813333D01*
X164726190Y-133765714D01*
X164630952Y-133718095D01*
X172957142Y-110312857D02*
X173004761Y-110360476D01*
X173052380Y-110503333D01*
X173052380Y-110598571D01*
X173004761Y-110741428D01*
X172909523Y-110836666D01*
X172814285Y-110884285D01*
X172623809Y-110931904D01*
X172480952Y-110931904D01*
X172290476Y-110884285D01*
X172195238Y-110836666D01*
X172100000Y-110741428D01*
X172052380Y-110598571D01*
X172052380Y-110503333D01*
X172100000Y-110360476D01*
X172147619Y-110312857D01*
X172052380Y-109979523D02*
X172052380Y-109360476D01*
X172433333Y-109693809D01*
X172433333Y-109550952D01*
X172480952Y-109455714D01*
X172528571Y-109408095D01*
X172623809Y-109360476D01*
X172861904Y-109360476D01*
X172957142Y-109408095D01*
X173004761Y-109455714D01*
X173052380Y-109550952D01*
X173052380Y-109836666D01*
X173004761Y-109931904D01*
X172957142Y-109979523D01*
X172480952Y-108789047D02*
X172433333Y-108884285D01*
X172385714Y-108931904D01*
X172290476Y-108979523D01*
X172242857Y-108979523D01*
X172147619Y-108931904D01*
X172100000Y-108884285D01*
X172052380Y-108789047D01*
X172052380Y-108598571D01*
X172100000Y-108503333D01*
X172147619Y-108455714D01*
X172242857Y-108408095D01*
X172290476Y-108408095D01*
X172385714Y-108455714D01*
X172433333Y-108503333D01*
X172480952Y-108598571D01*
X172480952Y-108789047D01*
X172528571Y-108884285D01*
X172576190Y-108931904D01*
X172671428Y-108979523D01*
X172861904Y-108979523D01*
X172957142Y-108931904D01*
X173004761Y-108884285D01*
X173052380Y-108789047D01*
X173052380Y-108598571D01*
X173004761Y-108503333D01*
X172957142Y-108455714D01*
X172861904Y-108408095D01*
X172671428Y-108408095D01*
X172576190Y-108455714D01*
X172528571Y-108503333D01*
X172480952Y-108598571D01*
X162177142Y-102737142D02*
X162129523Y-102784761D01*
X161986666Y-102832380D01*
X161891428Y-102832380D01*
X161748571Y-102784761D01*
X161653333Y-102689523D01*
X161605714Y-102594285D01*
X161558095Y-102403809D01*
X161558095Y-102260952D01*
X161605714Y-102070476D01*
X161653333Y-101975238D01*
X161748571Y-101880000D01*
X161891428Y-101832380D01*
X161986666Y-101832380D01*
X162129523Y-101880000D01*
X162177142Y-101927619D01*
X162510476Y-101832380D02*
X163129523Y-101832380D01*
X162796190Y-102213333D01*
X162939047Y-102213333D01*
X163034285Y-102260952D01*
X163081904Y-102308571D01*
X163129523Y-102403809D01*
X163129523Y-102641904D01*
X163081904Y-102737142D01*
X163034285Y-102784761D01*
X162939047Y-102832380D01*
X162653333Y-102832380D01*
X162558095Y-102784761D01*
X162510476Y-102737142D01*
X163605714Y-102832380D02*
X163796190Y-102832380D01*
X163891428Y-102784761D01*
X163939047Y-102737142D01*
X164034285Y-102594285D01*
X164081904Y-102403809D01*
X164081904Y-102022857D01*
X164034285Y-101927619D01*
X163986666Y-101880000D01*
X163891428Y-101832380D01*
X163700952Y-101832380D01*
X163605714Y-101880000D01*
X163558095Y-101927619D01*
X163510476Y-102022857D01*
X163510476Y-102260952D01*
X163558095Y-102356190D01*
X163605714Y-102403809D01*
X163700952Y-102451428D01*
X163891428Y-102451428D01*
X163986666Y-102403809D01*
X164034285Y-102356190D01*
X164081904Y-102260952D01*
X164097142Y-107342857D02*
X164144761Y-107390476D01*
X164192380Y-107533333D01*
X164192380Y-107628571D01*
X164144761Y-107771428D01*
X164049523Y-107866666D01*
X163954285Y-107914285D01*
X163763809Y-107961904D01*
X163620952Y-107961904D01*
X163430476Y-107914285D01*
X163335238Y-107866666D01*
X163240000Y-107771428D01*
X163192380Y-107628571D01*
X163192380Y-107533333D01*
X163240000Y-107390476D01*
X163287619Y-107342857D01*
X163192380Y-106438095D02*
X163192380Y-106914285D01*
X163668571Y-106961904D01*
X163620952Y-106914285D01*
X163573333Y-106819047D01*
X163573333Y-106580952D01*
X163620952Y-106485714D01*
X163668571Y-106438095D01*
X163763809Y-106390476D01*
X164001904Y-106390476D01*
X164097142Y-106438095D01*
X164144761Y-106485714D01*
X164192380Y-106580952D01*
X164192380Y-106819047D01*
X164144761Y-106914285D01*
X164097142Y-106961904D01*
X164192380Y-105914285D02*
X164192380Y-105723809D01*
X164144761Y-105628571D01*
X164097142Y-105580952D01*
X163954285Y-105485714D01*
X163763809Y-105438095D01*
X163382857Y-105438095D01*
X163287619Y-105485714D01*
X163240000Y-105533333D01*
X163192380Y-105628571D01*
X163192380Y-105819047D01*
X163240000Y-105914285D01*
X163287619Y-105961904D01*
X163382857Y-106009523D01*
X163620952Y-106009523D01*
X163716190Y-105961904D01*
X163763809Y-105914285D01*
X163811428Y-105819047D01*
X163811428Y-105628571D01*
X163763809Y-105533333D01*
X163716190Y-105485714D01*
X163620952Y-105438095D01*
X142002380Y-136662857D02*
X141526190Y-136996190D01*
X142002380Y-137234285D02*
X141002380Y-137234285D01*
X141002380Y-136853333D01*
X141050000Y-136758095D01*
X141097619Y-136710476D01*
X141192857Y-136662857D01*
X141335714Y-136662857D01*
X141430952Y-136710476D01*
X141478571Y-136758095D01*
X141526190Y-136853333D01*
X141526190Y-137234285D01*
X141002380Y-136329523D02*
X141002380Y-135710476D01*
X141383333Y-136043809D01*
X141383333Y-135900952D01*
X141430952Y-135805714D01*
X141478571Y-135758095D01*
X141573809Y-135710476D01*
X141811904Y-135710476D01*
X141907142Y-135758095D01*
X141954761Y-135805714D01*
X142002380Y-135900952D01*
X142002380Y-136186666D01*
X141954761Y-136281904D01*
X141907142Y-136329523D01*
X141002380Y-135377142D02*
X141002380Y-134710476D01*
X142002380Y-135139047D01*
X128462380Y-133642857D02*
X127986190Y-133976190D01*
X128462380Y-134214285D02*
X127462380Y-134214285D01*
X127462380Y-133833333D01*
X127510000Y-133738095D01*
X127557619Y-133690476D01*
X127652857Y-133642857D01*
X127795714Y-133642857D01*
X127890952Y-133690476D01*
X127938571Y-133738095D01*
X127986190Y-133833333D01*
X127986190Y-134214285D01*
X127462380Y-133309523D02*
X127462380Y-132690476D01*
X127843333Y-133023809D01*
X127843333Y-132880952D01*
X127890952Y-132785714D01*
X127938571Y-132738095D01*
X128033809Y-132690476D01*
X128271904Y-132690476D01*
X128367142Y-132738095D01*
X128414761Y-132785714D01*
X128462380Y-132880952D01*
X128462380Y-133166666D01*
X128414761Y-133261904D01*
X128367142Y-133309523D01*
X127890952Y-132119047D02*
X127843333Y-132214285D01*
X127795714Y-132261904D01*
X127700476Y-132309523D01*
X127652857Y-132309523D01*
X127557619Y-132261904D01*
X127510000Y-132214285D01*
X127462380Y-132119047D01*
X127462380Y-131928571D01*
X127510000Y-131833333D01*
X127557619Y-131785714D01*
X127652857Y-131738095D01*
X127700476Y-131738095D01*
X127795714Y-131785714D01*
X127843333Y-131833333D01*
X127890952Y-131928571D01*
X127890952Y-132119047D01*
X127938571Y-132214285D01*
X127986190Y-132261904D01*
X128081428Y-132309523D01*
X128271904Y-132309523D01*
X128367142Y-132261904D01*
X128414761Y-132214285D01*
X128462380Y-132119047D01*
X128462380Y-131928571D01*
X128414761Y-131833333D01*
X128367142Y-131785714D01*
X128271904Y-131738095D01*
X128081428Y-131738095D01*
X127986190Y-131785714D01*
X127938571Y-131833333D01*
X127890952Y-131928571D01*
X136942380Y-136672857D02*
X136466190Y-137006190D01*
X136942380Y-137244285D02*
X135942380Y-137244285D01*
X135942380Y-136863333D01*
X135990000Y-136768095D01*
X136037619Y-136720476D01*
X136132857Y-136672857D01*
X136275714Y-136672857D01*
X136370952Y-136720476D01*
X136418571Y-136768095D01*
X136466190Y-136863333D01*
X136466190Y-137244285D01*
X135942380Y-136339523D02*
X135942380Y-135720476D01*
X136323333Y-136053809D01*
X136323333Y-135910952D01*
X136370952Y-135815714D01*
X136418571Y-135768095D01*
X136513809Y-135720476D01*
X136751904Y-135720476D01*
X136847142Y-135768095D01*
X136894761Y-135815714D01*
X136942380Y-135910952D01*
X136942380Y-136196666D01*
X136894761Y-136291904D01*
X136847142Y-136339523D01*
X136942380Y-135244285D02*
X136942380Y-135053809D01*
X136894761Y-134958571D01*
X136847142Y-134910952D01*
X136704285Y-134815714D01*
X136513809Y-134768095D01*
X136132857Y-134768095D01*
X136037619Y-134815714D01*
X135990000Y-134863333D01*
X135942380Y-134958571D01*
X135942380Y-135149047D01*
X135990000Y-135244285D01*
X136037619Y-135291904D01*
X136132857Y-135339523D01*
X136370952Y-135339523D01*
X136466190Y-135291904D01*
X136513809Y-135244285D01*
X136561428Y-135149047D01*
X136561428Y-134958571D01*
X136513809Y-134863333D01*
X136466190Y-134815714D01*
X136370952Y-134768095D01*
X178986666Y-148429047D02*
X178986666Y-147952857D01*
X179272380Y-148524285D02*
X178272380Y-148190952D01*
X179272380Y-147857619D01*
X179272380Y-147524285D02*
X178272380Y-147524285D01*
X179272380Y-146952857D01*
X178272380Y-146952857D01*
X178272380Y-146619523D02*
X178272380Y-146048095D01*
X179272380Y-146333809D02*
X178272380Y-146333809D01*
X179272380Y-145190952D02*
X179272380Y-145762380D01*
X179272380Y-145476666D02*
X178272380Y-145476666D01*
X178415238Y-145571904D01*
X178510476Y-145667142D01*
X178558095Y-145762380D01*
X114936666Y-67142380D02*
X114936666Y-67856666D01*
X114889047Y-67999523D01*
X114793809Y-68094761D01*
X114650952Y-68142380D01*
X114555714Y-68142380D01*
X115936666Y-68142380D02*
X115365238Y-68142380D01*
X115650952Y-68142380D02*
X115650952Y-67142380D01*
X115555714Y-67285238D01*
X115460476Y-67380476D01*
X115365238Y-67428095D01*
X159816666Y-141407380D02*
X159816666Y-142121666D01*
X159769047Y-142264523D01*
X159673809Y-142359761D01*
X159530952Y-142407380D01*
X159435714Y-142407380D01*
X160197619Y-141407380D02*
X160816666Y-141407380D01*
X160483333Y-141788333D01*
X160626190Y-141788333D01*
X160721428Y-141835952D01*
X160769047Y-141883571D01*
X160816666Y-141978809D01*
X160816666Y-142216904D01*
X160769047Y-142312142D01*
X160721428Y-142359761D01*
X160626190Y-142407380D01*
X160340476Y-142407380D01*
X160245238Y-142359761D01*
X160197619Y-142312142D01*
X103982380Y-140861904D02*
X103982380Y-140290476D01*
X104982380Y-140576190D02*
X103982380Y-140576190D01*
X104982380Y-139433333D02*
X104982380Y-140004761D01*
X104982380Y-139719047D02*
X103982380Y-139719047D01*
X104125238Y-139814285D01*
X104220476Y-139909523D01*
X104268095Y-140004761D01*
X103942380Y-123551904D02*
X103942380Y-122980476D01*
X104942380Y-123266190D02*
X103942380Y-123266190D01*
X104037619Y-122694761D02*
X103990000Y-122647142D01*
X103942380Y-122551904D01*
X103942380Y-122313809D01*
X103990000Y-122218571D01*
X104037619Y-122170952D01*
X104132857Y-122123333D01*
X104228095Y-122123333D01*
X104370952Y-122170952D01*
X104942380Y-122742380D01*
X104942380Y-122123333D01*
X103792380Y-106481904D02*
X103792380Y-105910476D01*
X104792380Y-106196190D02*
X103792380Y-106196190D01*
X103792380Y-105672380D02*
X103792380Y-105053333D01*
X104173333Y-105386666D01*
X104173333Y-105243809D01*
X104220952Y-105148571D01*
X104268571Y-105100952D01*
X104363809Y-105053333D01*
X104601904Y-105053333D01*
X104697142Y-105100952D01*
X104744761Y-105148571D01*
X104792380Y-105243809D01*
X104792380Y-105529523D01*
X104744761Y-105624761D01*
X104697142Y-105672380D01*
X180518095Y-141322380D02*
X180518095Y-142131904D01*
X180565714Y-142227142D01*
X180613333Y-142274761D01*
X180708571Y-142322380D01*
X180899047Y-142322380D01*
X180994285Y-142274761D01*
X181041904Y-142227142D01*
X181089523Y-142131904D01*
X181089523Y-141322380D01*
X181470476Y-141322380D02*
X182137142Y-141322380D01*
X181708571Y-142322380D01*
M02*
