M48
; DRILL file {KiCad 5.1.8-db9833491~87~ubuntu20.04.1} date Wed Nov 25 08:58:20 2020
; FORMAT={-:-/ absolute / inch / decimal}
; #@! TF.CreationDate,2020-11-25T08:58:20+01:00
; #@! TF.GenerationSoftware,Kicad,Pcbnew,5.1.8-db9833491~87~ubuntu20.04.1
; #@! TF.FileFunction,Plated,1,2,PTH
FMAT,2
INCH
T1C0.0118
T2C0.0157
T3C0.0197
T4C0.0236
T5C0.0394
T6C0.0429
T7C0.0433
T8C0.0591
T9C0.0598
%
G90
G05
T1
X6.2854Y-5.6035
X6.3445Y-5.6996
T2
X4.2689Y-3.1398
X4.2689Y-3.2461
X4.3189Y-3.1398
X4.3189Y-3.2461
X4.3189Y-3.4705
X4.3484Y-2.915
X4.3689Y-3.2461
X4.4075Y-2.915
X4.4669Y-2.915
X4.5165Y-3.2657
X4.526Y-2.915
X4.5516Y-3.2921
X4.9327Y-2.976
X4.9492Y-3.239
X4.9512Y-3.139
X4.9512Y-3.189
X5.0043Y-3.0858
X5.0575Y-3.139
X5.0575Y-3.239
X5.1921Y-3.4657
X5.1921Y-3.6209
X5.2823Y-3.189
X5.5709Y-4.1799
X5.7276Y-2.9756
X5.7468Y-3.2388
X5.7469Y-3.139
X5.747Y-3.189
X5.7591Y-3.2827
X5.8012Y-3.0846
X5.8421Y-3.9992
X5.8528Y-3.189
X5.8528Y-3.239
X5.8561Y-3.139
X5.9094Y-3.9988
X6.0776Y-3.189
X6.1642Y-5.5323
X6.2087Y-5.5996
X6.3047Y-5.5618
X6.3051Y-5.3386
X6.3307Y-4.0957
X6.3815Y-4.2811
X6.4Y-5.5996
X6.4449Y-5.5319
X6.448Y-4.2654
X6.4484Y-3.772
X6.4858Y-5.4984
X6.5205Y-5.8972
X6.5217Y-2.9756
X6.5409Y-3.139
X6.5409Y-3.239
X6.5411Y-3.189
X6.552Y-3.8583
X6.5547Y-3.2807
X6.585Y-3.5138
X6.5945Y-4.0846
X6.5949Y-3.0819
X6.6335Y-4.3134
X6.6437Y-3.5717
X6.6472Y-3.239
X6.6474Y-3.189
X6.6502Y-3.139
X6.6673Y-5.8971
X6.6732Y-3.8169
X6.774Y-3.5709
X6.7878Y-5.4413
X6.8406Y-4.1634
X6.8602Y-4.3976
X6.8717Y-3.189
X6.9063Y-5.4413
X6.913Y-3.878
X6.9134Y-4.1634
X6.9283Y-4.3815
X6.9744Y-3.6346
X6.9744Y-3.7894
X7.1173Y-3.9272
X7.1181Y-3.7898
X7.1185Y-3.8484
X7.202Y-3.6035
X7.2197Y-3.2425
X7.2197Y-3.3713
X7.2768Y-3.6035
X7.4217Y-5.4844
X7.5398Y-5.4844
X7.5587Y-4.8531
X7.5594Y-5.1311
T3
X7.202Y-3.7669
X7.2768Y-3.7669
T4
X5.039Y-5.5528
X5.1039Y-5.3559
T5
X4.2846Y-5.1138
X4.2846Y-5.5075
X4.7846Y-5.1138
X4.7846Y-5.5075
X4.2846Y-3.7673
X4.2846Y-4.161
X4.7846Y-3.7673
X4.7846Y-4.161
X7.43Y-3.6475
X7.43Y-3.7475
X7.43Y-3.8475
X7.43Y-3.9475
X7.43Y-4.0475
X7.43Y-4.1475
X7.43Y-4.2475
X7.43Y-4.3475
X7.53Y-3.6475
X7.53Y-3.7475
X7.53Y-3.8475
X7.53Y-3.9475
X7.53Y-4.0475
X7.53Y-4.1475
X7.53Y-4.2475
X7.53Y-4.3475
X5.0307Y-4.6102
X5.0307Y-4.8071
X6.1882Y-4.4055
X6.1882Y-5.0118
X4.2846Y-4.4406
X4.2846Y-4.8343
X4.7846Y-4.4406
X4.7846Y-4.8343
T6
X7.4315Y-3.1098
X7.528Y-3.2378
T7
X4.6555Y-2.6654
X4.7555Y-2.6654
X4.8555Y-2.6654
X4.9555Y-2.6654
X5.0555Y-2.6654
X5.1555Y-2.6654
X5.2555Y-2.6654
X5.3555Y-2.6654
X5.4555Y-2.6654
X5.5555Y-2.6654
X5.6555Y-2.6654
X5.7555Y-2.6654
X5.8555Y-2.6654
X5.9555Y-2.6654
X6.0555Y-2.6654
X6.1555Y-2.6654
X6.2555Y-2.6654
X6.3555Y-2.6654
X6.4555Y-2.6654
X6.5555Y-2.6654
X6.6555Y-2.6654
X6.7555Y-2.6654
X6.8555Y-2.6654
X6.9555Y-2.6654
T8
X6.7472Y-5.6799
X6.7472Y-5.8799
X6.8472Y-5.7799
X6.9472Y-5.6799
X6.9472Y-5.8799
T9
X5.0382Y-5.7874
X5.2382Y-5.7874
X5.4382Y-5.7874
X5.6382Y-5.7874
T4
G00X6.135Y-5.6661
M15
G01X6.135Y-5.7094
M16
G05
G00X6.135Y-5.8406
M15
G01X6.135Y-5.8642
M16
G05
G00X6.4752Y-5.6661
M15
G01X6.4752Y-5.7094
M16
G05
G00X6.4752Y-5.8406
M15
G01X6.4752Y-5.8642
M16
G05
T0
M30
